<svg xmlns:dc="http://purl.org/dc/elements/1.1/" xmlns:cc="http://creativecommons.org/ns#" xmlns:rdf="http://www.w3.org/1999/02/22-rdf-syntax-ns#" xmlns:svg="http://www.w3.org/2000/svg" xmlns="http://www.w3.org/2000/svg" xmlns:xlink="http://www.w3.org/1999/xlink" version="1.1" id="svg5553" viewBox="270.74 37.04 85.75 85.75">
  <defs id="defs5547">
    <radialGradient xlink:href="#linearGradient1459" id="radialGradient14804" gradientUnits="userSpaceOnUse" gradientTransform="matrix(1.028146,0,4.1358409e-7,2.1457152,8.7353782,813.93388)" cx="-258.58798" cy="-310.02478" fx="-258.58798" fy="-310.02478" r="51.92955"/>
    <linearGradient id="linearGradient1459">
      <stop style="stop-color:#666666;stop-opacity:0" offset="0" id="stop1455"/>
      <stop style="stop-color:#343434;stop-opacity:0.29426658" offset="1" id="stop1457"/>
    </linearGradient>
    <radialGradient xlink:href="#linearGradient1459" id="radialGradient15142" gradientUnits="userSpaceOnUse" gradientTransform="matrix(0.85010946,0,3.4196675e-7,1.7741573,3162.5201,291.2866)" cx="-258.58798" cy="-310.02478" fx="-258.58798" fy="-310.02478" r="51.92955"/>
  </defs>
  <metadata id="metadata5550">
    <rdf:RDF>
      <cc:Work rdf:about="">
        <dc:format>image/svg+xml</dc:format>
        <dc:type rdf:resource="http://purl.org/dc/dcmitype/StillImage"/>
        <dc:title/>
      </cc:Work>
    </rdf:RDF>
  </metadata>
  <g id="layer1">
    <g id="g18121" transform="matrix(0.25275158,0,0,0.25275158,214.05219,122.87938)">
      
      <g id="g18368">
        <circle style="fill:#44155d;fill-opacity:1;stroke:none;stroke-width:2.64583;stroke-linecap:round;stroke-linejoin:bevel;stroke-miterlimit:4;stroke-dasharray:none" id="circle14264" cx="393.90411" cy="-169.98579" r="169.62718"/>
        <path style="color:#000000;clip-rule:nonzero;display:inline;overflow:visible;visibility:visible;isolation:auto;mix-blend-mode:normal;color-interpolation:sRGB;color-interpolation-filters:linearRGB;solid-color:#000000;solid-opacity:1;vector-effect:none;fill:#ecbf76;fill-opacity:1;fill-rule:nonzero;stroke:none;stroke-width:0.809493;stroke-linecap:round;stroke-linejoin:round;stroke-miterlimit:10;stroke-dasharray:none;stroke-dashoffset:0;stroke-opacity:1;color-rendering:auto;image-rendering:auto;shape-rendering:auto;text-rendering:auto;enable-background:accumulate" id="use14308" d="m 411.98648,-228.6358 -4.11788,-2.585 -3.71046,3.142 1.18597,-4.7152 -4.13482,-2.5578 4.851,-0.3287 1.1549,-4.723 1.812,4.5118 4.84848,-0.3637 -3.73107,3.1176 z"/>
        <path style="color:#000000;clip-rule:nonzero;display:inline;overflow:visible;visibility:visible;isolation:auto;mix-blend-mode:normal;color-interpolation:sRGB;color-interpolation-filters:linearRGB;solid-color:#000000;solid-opacity:1;vector-effect:none;fill:#ecbf76;fill-opacity:1;fill-rule:nonzero;stroke:none;stroke-width:0.888863;stroke-linecap:round;stroke-linejoin:round;stroke-miterlimit:10;stroke-dasharray:none;stroke-dashoffset:0;stroke-opacity:1;color-rendering:auto;image-rendering:auto;shape-rendering:auto;text-rendering:auto;enable-background:accumulate" id="use14310" d="m 352.63184,-257.8949 -2.82932,-4.5274 -5.17156,1.3259 3.43151,-4.09 -2.85909,-4.5086 4.95001,2.0001 3.4045,-4.1125 -0.37219,5.3259 4.9643,1.9643 -5.18018,1.2918 z"/>
        <path style="color:#000000;clip-rule:nonzero;display:inline;overflow:visible;visibility:visible;isolation:auto;mix-blend-mode:normal;color-interpolation:sRGB;color-interpolation-filters:linearRGB;solid-color:#000000;solid-opacity:1;vector-effect:none;fill:#ecbf76;fill-opacity:1;fill-rule:nonzero;stroke:none;stroke-width:0.644904;stroke-linecap:round;stroke-linejoin:round;stroke-miterlimit:10;stroke-dasharray:none;stroke-dashoffset:0;stroke-opacity:1;color-rendering:auto;image-rendering:auto;shape-rendering:auto;text-rendering:auto;enable-background:accumulate" id="use14312" d="m 362.87956,-220.8564 -2.54755,-2.9178 -3.55222,1.5446 1.98778,-3.3246 -2.56673,-2.9009 3.77607,0.8635 1.96583,-3.3376 0.34595,3.858 3.78219,0.8362 -3.56231,1.5212 z"/>
        <path style="color:#000000;clip-rule:nonzero;display:inline;overflow:visible;visibility:visible;isolation:auto;mix-blend-mode:normal;color-interpolation:sRGB;color-interpolation-filters:linearRGB;solid-color:#000000;solid-opacity:1;vector-effect:none;fill:#ecbf76;fill-opacity:1;fill-rule:nonzero;stroke:none;stroke-width:0.620663;stroke-linecap:round;stroke-linejoin:round;stroke-miterlimit:10;stroke-dasharray:none;stroke-dashoffset:0;stroke-opacity:1;color-rendering:auto;image-rendering:auto;shape-rendering:auto;text-rendering:auto;enable-background:accumulate" id="use14314" d="m 323.46978,-94.367 -3.10514,-2.0628 -2.90611,2.3349 1.00226,-3.5906 -3.11867,-2.0423 3.72468,-0.156 0.97858,-3.5972 1.29965,3.494 3.72344,-0.1829 -2.92142,2.3158 z"/>
        <path style="color:#000000;clip-rule:nonzero;display:inline;overflow:visible;visibility:visible;isolation:auto;mix-blend-mode:normal;color-interpolation:sRGB;color-interpolation-filters:linearRGB;solid-color:#000000;solid-opacity:1;vector-effect:none;fill:#ecbf76;fill-opacity:1;fill-rule:nonzero;stroke:none;stroke-width:0.882564;stroke-linecap:round;stroke-linejoin:round;stroke-miterlimit:10;stroke-dasharray:none;stroke-dashoffset:0;stroke-opacity:1;color-rendering:auto;image-rendering:auto;shape-rendering:auto;text-rendering:auto;enable-background:accumulate" id="use14316" d="m 510.86778,-110.8436 -2.97234,-4.3892 -5.08314,1.504 3.25587,-4.1833 -3.0012,-4.3694 4.98451,1.8042 3.22824,-4.2046 -0.17525,5.2981 4.99739,1.7682 -5.09295,1.4706 z"/>
        <path style="color:#000000;clip-rule:nonzero;display:inline;overflow:visible;visibility:visible;isolation:auto;mix-blend-mode:normal;color-interpolation:sRGB;color-interpolation-filters:linearRGB;solid-color:#000000;solid-opacity:1;vector-effect:none;fill:#ecbf76;fill-opacity:1;fill-rule:nonzero;stroke:none;stroke-width:0.884893;stroke-linecap:round;stroke-linejoin:round;stroke-miterlimit:10;stroke-dasharray:none;stroke-dashoffset:0;stroke-opacity:1;color-rendering:auto;image-rendering:auto;shape-rendering:auto;text-rendering:auto;enable-background:accumulate" id="use14318" d="m 431.60629,-86.7812 -3.31061,-4.1579 -4.96512,1.8965 2.93137,-4.4336 -3.33794,-4.1359 5.12227,1.4183 2.9021,-4.4527 0.23436,5.3098 5.13235,1.3813 -4.97751,1.8637 z"/>
        <path style="color:#000000;clip-rule:nonzero;display:inline;overflow:visible;visibility:visible;isolation:auto;mix-blend-mode:normal;color-interpolation:sRGB;color-interpolation-filters:linearRGB;solid-color:#000000;solid-opacity:1;vector-effect:none;fill:#ecbf76;fill-opacity:1;fill-rule:nonzero;stroke:none;stroke-width:0.821744;stroke-linecap:round;stroke-linejoin:round;stroke-miterlimit:10;stroke-dasharray:none;stroke-dashoffset:0;stroke-opacity:1;color-rendering:auto;image-rendering:auto;shape-rendering:auto;text-rendering:auto;enable-background:accumulate" id="use14320" d="m 547.86561,-185.9288 -4.862,-0.8492 -2.28133,4.3769 -0.69492,-4.8866 -4.8675,-0.8171 4.43285,-2.1705 -0.72709,-4.8818 3.43436,3.5448 4.41705,-2.2024 -2.31009,4.3617 z"/>
        <path style="color:#000000;clip-rule:nonzero;display:inline;overflow:visible;visibility:visible;isolation:auto;mix-blend-mode:normal;color-interpolation:sRGB;color-interpolation-filters:linearRGB;solid-color:#000000;solid-opacity:1;vector-effect:none;fill:#ecbf76;fill-opacity:1;fill-rule:nonzero;stroke:none;stroke-width:0.693382;stroke-linecap:round;stroke-linejoin:round;stroke-miterlimit:10;stroke-dasharray:none;stroke-dashoffset:0;stroke-opacity:1;color-rendering:auto;image-rendering:auto;shape-rendering:auto;text-rendering:auto;enable-background:accumulate" id="use14322" d="m 480.46102,-59.3868 -3.57412,-2.1377 -3.11951,2.7592 0.92859,-4.0598 -3.58813,-2.1141 4.14816,-0.3711 0.90183,-4.0658 1.63502,3.8303 4.14535,-0.401 -3.13761,2.7386 z"/>
        <path style="color:#000000;clip-rule:nonzero;display:inline;overflow:visible;visibility:visible;isolation:auto;mix-blend-mode:normal;color-interpolation:sRGB;color-interpolation-filters:linearRGB;solid-color:#000000;solid-opacity:1;vector-effect:none;fill:#ecbf76;fill-opacity:1;fill-rule:nonzero;stroke:none;stroke-width:0.868249;stroke-linecap:round;stroke-linejoin:round;stroke-miterlimit:10;stroke-dasharray:none;stroke-dashoffset:0;stroke-opacity:1;color-rendering:auto;image-rendering:auto;shape-rendering:auto;text-rendering:auto;enable-background:accumulate" id="use14324" d="m 507.71671,-233.8681 -3.78128,-3.5913 -4.56761,2.5166 2.24704,-4.7061 -3.80486,-3.5663 5.17007,0.6833 2.216,-4.7208 0.94819,5.1281 5.17486,0.646 -4.58409,2.4864 z"/>
        <path style="color:#000000;clip-rule:nonzero;display:inline;overflow:visible;visibility:visible;isolation:auto;mix-blend-mode:normal;color-interpolation:sRGB;color-interpolation-filters:linearRGB;solid-color:#000000;solid-opacity:1;vector-effect:none;fill:#ecbf76;fill-opacity:1;fill-rule:nonzero;stroke:none;stroke-width:0.853917;stroke-linecap:round;stroke-linejoin:round;stroke-miterlimit:10;stroke-dasharray:none;stroke-dashoffset:0;stroke-opacity:1;color-rendering:auto;image-rendering:auto;shape-rendering:auto;text-rendering:auto;enable-background:accumulate" id="use14326" d="m 463.22173,-236.6325 -4.80299,-1.7989 -3.1687,4.033 0.22664,-5.124 -4.81475,-1.7672 4.94333,-1.3674 0.19289,-5.1253 2.82833,4.2786 4.93331,-1.403 -3.19518,4.0121 z"/>
        <path style="color:#000000;clip-rule:nonzero;display:inline;overflow:visible;visibility:visible;isolation:auto;mix-blend-mode:normal;color-interpolation:sRGB;color-interpolation-filters:linearRGB;solid-color:#000000;solid-opacity:1;vector-effect:none;fill:#ecbf76;fill-opacity:1;fill-rule:nonzero;stroke:none;stroke-width:0.672955;stroke-linecap:round;stroke-linejoin:round;stroke-miterlimit:10;stroke-dasharray:none;stroke-dashoffset:0;stroke-opacity:1;color-rendering:auto;image-rendering:auto;shape-rendering:auto;text-rendering:auto;enable-background:accumulate" id="use14328" d="m 327.52583,-174.8338 -3.93556,-0.9211 -2.06949,3.472 -0.34012,-4.0277 -3.94155,-0.8952 3.72561,-1.5677 -0.36663,-4.0254 2.64251,3.0586 3.71418,-1.5946 -2.0923,3.4583 z"/>
        <path style="color:#000000;clip-rule:nonzero;display:inline;overflow:visible;visibility:visible;isolation:auto;mix-blend-mode:normal;color-interpolation:sRGB;color-interpolation-filters:linearRGB;solid-color:#000000;solid-opacity:1;vector-effect:none;fill:#ecbf76;fill-opacity:1;fill-rule:nonzero;stroke:none;stroke-width:0.662715;stroke-linecap:round;stroke-linejoin:round;stroke-miterlimit:10;stroke-dasharray:none;stroke-dashoffset:0;stroke-opacity:1;color-rendering:auto;image-rendering:auto;shape-rendering:auto;text-rendering:auto;enable-background:accumulate" id="use14330" d="m 439.11485,-22.8773 -3.83606,-1.0622 -2.17386,3.3344 -0.17515,-3.9766 -3.84298,-1.037 3.72805,-1.3951 -0.20133,-3.9754 2.47905,3.1142 3.71786,-1.4219 -2.19577,3.3201 z"/>
        <path style="color:#000000;clip-rule:nonzero;display:inline;overflow:visible;visibility:visible;isolation:auto;mix-blend-mode:normal;color-interpolation:sRGB;color-interpolation-filters:linearRGB;solid-color:#000000;solid-opacity:1;vector-effect:none;fill:#ecbf76;fill-opacity:1;fill-rule:nonzero;stroke:none;stroke-width:0.795293;stroke-linecap:round;stroke-linejoin:round;stroke-miterlimit:10;stroke-dasharray:none;stroke-dashoffset:0;stroke-opacity:1;color-rendering:auto;image-rendering:auto;shape-rendering:auto;text-rendering:auto;enable-background:accumulate" id="use14332" d="m 317.47189,-44.0318 -3.37054,-3.3848 -4.24642,2.1876 2.17755,-4.2516 -3.39276,-3.3625 4.71637,0.7576 2.1495,-4.2658 0.73729,4.7195 4.7217,0.7236 -4.26074,2.1596 z"/>
        <path style="color:#000000;clip-rule:nonzero;display:inline;overflow:visible;visibility:visible;isolation:auto;mix-blend-mode:normal;color-interpolation:sRGB;color-interpolation-filters:linearRGB;solid-color:#000000;solid-opacity:1;vector-effect:none;fill:#ecbf76;fill-opacity:1;fill-rule:nonzero;stroke:none;stroke-width:0.937577;stroke-linecap:round;stroke-linejoin:round;stroke-miterlimit:10;stroke-dasharray:none;stroke-dashoffset:0;stroke-opacity:1;color-rendering:auto;image-rendering:auto;shape-rendering:auto;text-rendering:auto;enable-background:accumulate" id="use14334" d="m 437.55878,-281.7974 -3.02075,-4.7525 -5.44415,1.4401 3.58654,-4.3416 -3.052,-4.7326 5.23725,2.0699 3.55786,-4.3652 -0.3497,5.6205 5.25204,2.032 -5.45352,1.4043 z"/>
        <path style="color:#000000;clip-rule:nonzero;display:inline;overflow:visible;visibility:visible;isolation:auto;mix-blend-mode:normal;color-interpolation:sRGB;color-interpolation-filters:linearRGB;solid-color:#000000;solid-opacity:1;vector-effect:none;fill:#ecbf76;fill-opacity:1;fill-rule:nonzero;stroke:none;stroke-width:0.571473;stroke-linecap:round;stroke-linejoin:round;stroke-miterlimit:10;stroke-dasharray:none;stroke-dashoffset:0;stroke-opacity:1;color-rendering:auto;image-rendering:auto;shape-rendering:auto;text-rendering:auto;enable-background:accumulate" id="use14336" d="m 355.88145,-317.171 -1.93707,-2.8336 -3.28711,0.9883 2.09634,-2.718 -1.95569,-2.8208 3.23262,1.1542 2.07839,-2.7317 -0.0985,3.431 3.24086,1.1308 -3.29355,0.9667 z"/>
        <path style="color:#000000;clip-rule:nonzero;display:inline;overflow:visible;visibility:visible;isolation:auto;mix-blend-mode:normal;color-interpolation:sRGB;color-interpolation-filters:linearRGB;solid-color:#000000;solid-opacity:1;vector-effect:none;fill:#ecbf76;fill-opacity:1;fill-rule:nonzero;stroke:none;stroke-width:0.891007;stroke-linecap:round;stroke-linejoin:round;stroke-miterlimit:10;stroke-dasharray:none;stroke-dashoffset:0;stroke-opacity:1;color-rendering:auto;image-rendering:auto;shape-rendering:auto;text-rendering:auto;enable-background:accumulate" id="use14338" d="m 330.23449,-283.4064 -4.8696,-2.2196 -3.58981,3.9691 0.60615,-5.3173 -4.88412,-2.1875 5.24446,-1.0661 0.57113,-5.3212 2.63494,4.6581 5.23661,-1.1039 -3.61586,3.9454 z"/>
        <path style="color:#000000;clip-rule:nonzero;display:inline;overflow:visible;visibility:visible;isolation:auto;mix-blend-mode:normal;color-interpolation:sRGB;color-interpolation-filters:linearRGB;solid-color:#000000;solid-opacity:1;vector-effect:none;fill:#ecbf76;fill-opacity:1;fill-rule:nonzero;stroke:none;stroke-width:0.581417;stroke-linecap:round;stroke-linejoin:round;stroke-miterlimit:10;stroke-dasharray:none;stroke-dashoffset:0;stroke-opacity:1;color-rendering:auto;image-rendering:auto;shape-rendering:auto;text-rendering:auto;enable-background:accumulate" id="use14340" d="m 339.55375,-171.3563 -3.42862,-0.663 -1.66996,3.067 -0.42898,-3.4658 -3.4329,-0.6404 3.16372,-1.4786 -0.45178,-3.4629 2.38411,2.5517 3.15295,-1.5014 -1.69012,3.056 z"/>
        <path style="color:#000000;clip-rule:nonzero;display:inline;overflow:visible;visibility:visible;isolation:auto;mix-blend-mode:normal;color-interpolation:sRGB;color-interpolation-filters:linearRGB;solid-color:#000000;solid-opacity:1;vector-effect:none;fill:#ecbf76;fill-opacity:1;fill-rule:nonzero;stroke:none;stroke-width:0.756533;stroke-linecap:round;stroke-linejoin:round;stroke-miterlimit:10;stroke-dasharray:none;stroke-dashoffset:0;stroke-opacity:1;color-rendering:auto;image-rendering:auto;shape-rendering:auto;text-rendering:auto;enable-background:accumulate" id="use14342" d="m 301.65541,-120.1966 -3.88744,-2.3526 -3.41926,2.9927 1.03623,-4.4243 -3.90285,-2.327 4.52801,-0.3812 1.00707,-4.431 1.76212,4.1884 4.52512,-0.4139 -3.43889,2.9702 z"/>
        <path style="color:#000000;clip-rule:nonzero;display:inline;overflow:visible;visibility:visible;isolation:auto;mix-blend-mode:normal;color-interpolation:sRGB;color-interpolation-filters:linearRGB;solid-color:#000000;solid-opacity:1;vector-effect:none;fill:#ecbf76;fill-opacity:1;fill-rule:nonzero;stroke:none;stroke-width:0.747358;stroke-linecap:round;stroke-linejoin:round;stroke-miterlimit:10;stroke-dasharray:none;stroke-dashoffset:0;stroke-opacity:1;color-rendering:auto;image-rendering:auto;shape-rendering:auto;text-rendering:auto;enable-background:accumulate" id="use14344" d="m 387.06911,-18.9191 -3.59523,-2.6877 -3.65011,2.6128 1.44518,-4.2499 -3.61286,-2.664 4.48849,0.062 1.41715,-4.2593 1.32879,4.2877 4.48881,0.029 -3.66724,2.5887 z"/>
        <path style="color:#000000;clip-rule:nonzero;display:inline;overflow:visible;visibility:visible;isolation:auto;mix-blend-mode:normal;color-interpolation:sRGB;color-interpolation-filters:linearRGB;solid-color:#000000;solid-opacity:1;vector-effect:none;fill:#ecbf76;fill-opacity:1;fill-rule:nonzero;stroke:none;stroke-width:0.670156;stroke-linecap:round;stroke-linejoin:round;stroke-miterlimit:10;stroke-dasharray:none;stroke-dashoffset:0;stroke-opacity:1;color-rendering:auto;image-rendering:auto;shape-rendering:auto;text-rendering:auto;enable-background:accumulate" id="use14346" d="m 382.63678,-40.2585 -2.29061,-3.3098 -3.84802,1.181 2.43999,-3.2013 -2.31237,-3.2947 3.79856,1.3317 2.41885,-3.2174 -0.0923,4.0242 3.80805,1.3042 -3.85572,1.1557 z"/>
        <path style="color:#000000;clip-rule:nonzero;display:inline;overflow:visible;visibility:visible;isolation:auto;mix-blend-mode:normal;color-interpolation:sRGB;color-interpolation-filters:linearRGB;solid-color:#000000;solid-opacity:1;vector-effect:none;fill:#ecbf76;fill-opacity:1;fill-rule:nonzero;stroke:none;stroke-width:0.74084;stroke-linecap:round;stroke-linejoin:round;stroke-miterlimit:10;stroke-dasharray:none;stroke-dashoffset:0;stroke-opacity:1;color-rendering:auto;image-rendering:auto;shape-rendering:auto;text-rendering:auto;enable-background:accumulate" id="use14348" d="m 277.19765,-204.1586 -3.64081,-2.5581 -3.54041,2.6955 1.30784,-4.2532 -3.65759,-2.5341 4.44922,-0.07 1.27979,-4.2617 1.44185,4.2096 4.44857,-0.1021 -3.55807,2.6721 z"/>
        <path style="color:#000000;clip-rule:nonzero;display:inline;overflow:visible;visibility:visible;isolation:auto;mix-blend-mode:normal;color-interpolation:sRGB;color-interpolation-filters:linearRGB;solid-color:#000000;solid-opacity:1;vector-effect:none;fill:#ecbf76;fill-opacity:1;fill-rule:nonzero;stroke:none;stroke-width:0.707499;stroke-linecap:round;stroke-linejoin:round;stroke-miterlimit:10;stroke-dasharray:none;stroke-dashoffset:0;stroke-opacity:1;color-rendering:auto;image-rendering:auto;shape-rendering:auto;text-rendering:auto;enable-background:accumulate" id="use14350" d="m 278.27368,-236.0538 -2.79296,-3.2027 -3.89799,1.6923 2.18285,-3.646 -2.814,-3.1842 4.14202,0.9498 2.15878,-3.6604 0.37706,4.2328 4.14875,0.9198 -3.90905,1.6665 z"/>
        <path style="color:#000000;clip-rule:nonzero;display:inline;overflow:visible;visibility:visible;isolation:auto;mix-blend-mode:normal;color-interpolation:sRGB;color-interpolation-filters:linearRGB;solid-color:#000000;solid-opacity:1;vector-effect:none;fill:#ecbf76;fill-opacity:1;fill-rule:nonzero;stroke:none;stroke-width:0.933167;stroke-linecap:round;stroke-linejoin:round;stroke-miterlimit:10;stroke-dasharray:none;stroke-dashoffset:0;stroke-opacity:1;color-rendering:auto;image-rendering:auto;shape-rendering:auto;text-rendering:auto;enable-background:accumulate" id="use14352" d="m 262.38937,-190.7481 -5.51631,-0.9922 -2.61576,4.9572 -0.76108,-5.5531 -5.52273,-0.9558 5.04631,-2.4393 -0.79763,-5.5479 3.87963,4.0452 5.02855,-2.4757 -2.64833,4.9398 z"/>
        <path id="path14610" style="fill:#000000;fill-opacity:0.13;stroke:none;stroke-width:4.95959;stroke-linecap:round;stroke-linejoin:bevel;stroke-miterlimit:4;stroke-dasharray:none" d="m 334.25275,-229.4114 -104.01106,104.011 A 169.62718,169.62718 0 0 0 347.25906,-6.898 l 104.75358,-104.7536 z"/>
        <g id="use14662" transform="matrix(1.6045751,0,0,1.6045751,-493.23854,181.0829)">
          <g id="g14702" transform="translate(0,-122.51126)">
            <circle style="fill:#40799f;fill-opacity:1;stroke:none;stroke-width:0.949449;stroke-linecap:round;stroke-linejoin:round;stroke-miterlimit:4;stroke-dasharray:none;stroke-opacity:1" id="circle14688" cx="552.44995" cy="-96.654007" r="51.918629"/>
            <path id="path14690" style="fill:#71cd51;fill-opacity:1;stroke:none;stroke-width:1.33269;stroke-linecap:round;stroke-linejoin:round;stroke-miterlimit:4;stroke-dasharray:none;stroke-opacity:1" d="m 552.8293,-146.992 c -1.26034,-0.004 -2.85877,0.0697 -4.21008,0.39946 -2.16209,0.52753 -4.29082,1.33961 -4.43799,1.25937 -0.14713,-0.0803 3.27597,-1.28821 1.73067,-1.3715 -1.5453,-0.0833 -6.61585,0.73602 -7.18457,1.05109 -0.56878,0.31509 -0.14875,0.50696 -1.03045,0.50696 -0.8817,0 -3.58555,1.41759 -3.1786,1.79007 0.40698,0.3724 0.61857,0.39997 0.61857,0.39997 0,0 -1.62642,-0.086 -1.59525,0.59375 0.0311,0.67982 1.7476,0.65064 1.9549,0.67646 0.20733,0.0259 0.71469,0.33227 0.71469,0.33227 0,0 3.35817,-2.25076 4.4354,-2.68045 1.07722,-0.42968 2.27581,-1.35723 2.26652,-0.80099 -0.009,0.55623 -1.75127,1.39247 -2.19212,1.72238 -0.4408,0.32994 -1.64166,1.2446 -1.11104,1.42833 0.53065,0.18375 0.50953,0.11678 0.50953,0.11678 2.26523,-0.13882 4.46109,-0.36147 4.07985,1.74152 -0.38124,2.10296 -1.49706,2.23835 -1.02576,3.09747 0.47135,0.85919 0.38182,1.08943 0.27077,2.11667 -0.11107,1.0273 1.86444,5.40308 2.38072,5.81824 0.51631,0.41519 1.76806,0.12467 2.09498,0.30438 0.32691,0.17973 0.36861,0.80753 0.91106,0.58962 0.5424,-0.21786 1.48151,-0.16848 1.70326,-1.55286 0.22177,-1.38438 -0.12433,-3.49293 1.21541,-3.73775 1.33977,-0.24484 3.29843,-0.47207 3.6308,-1.2201 0.33234,-0.748 3.35764,-1.86817 3.73518,-1.97918 0.37756,-0.1111 1.84478,-0.62826 1.295,-2.05518 -0.5498,-1.42693 -0.0817,-1.84523 0.20516,-2.50579 0.28686,-0.66056 -0.79137,-1.3235 -1.70223,-2.06346 -0.91088,-0.73991 -0.8796,-1.71392 -0.75345,-2.47166 0.12618,-0.75779 -0.97107,-0.79499 -1.67534,-0.60566 -0.70427,0.18926 -0.84863,-0.79121 -1.87844,-0.84595 -0.38618,-0.0206 -1.02097,-0.0516 -1.77715,-0.0543 z m -20.68814,4.76509 c -0.40481,0.0182 -0.77216,0.12827 -0.68628,0.37983 0.13745,0.40246 0.38119,0.84934 0.0295,0.81492 -0.35174,-0.0344 -0.24834,-0.82915 -0.59584,-0.8604 -0.81259,0.0697 -1.43976,0.346 -1.54668,0.76637 -0.10692,0.42037 0.03,0.77777 0.63873,0.85627 0.59904,0.0773 1.43441,-0.0307 2.6143,0.0109 0.0188,0 0.0355,0 0.0543,0.003 1.20989,0.0473 2.58802,0.39309 2.76469,-0.36277 0.17671,-0.75583 -1.24968,-0.66302 -1.9172,-0.75136 -0.66749,-0.0883 -0.19561,-0.68162 -0.67593,-0.79944 -0.1801,-0.0442 -0.43664,-0.0662 -0.67953,-0.0553 z m 0.45371,1.96784 c -0.22268,0 -0.40008,0.0481 -0.50591,0.16589 -0.56439,0.62857 -3.00123,1.58946 -3.30677,2.56881 -0.30551,0.97936 -2.35159,2.1458 -1.60559,0.65374 0.74604,-1.49207 3.51708,-2.22549 2.93729,-2.7399 -0.5798,-0.5144 -1.93032,0.21805 -2.68459,0.56121 -0.75427,0.34317 -2.31106,2.09203 -2.38953,2.76625 -0.0784,0.67421 -2.7455,2.38196 -2.03346,1.29087 0.71205,-1.09111 2.87552,-3.7008 3.17553,-3.98169 0.30001,-0.2809 -1.0728,-0.33485 -1.0728,-0.33485 0,0 0.19431,-0.5833 -0.0532,-0.71054 -0.24749,-0.12724 -4.44201,1.8937 -4.28397,2.62205 0.15803,0.72837 -0.28364,0.89201 -0.37052,1.37149 -0.0869,0.4795 -0.38955,1.94987 -0.86972,1.66399 -0.48022,-0.28591 0.16468,-1.41078 -0.16277,-1.99213 -0.0805,-0.14282 -0.6028,0.21612 -1.33842,0.83045 -3.05618,2.70627 -5.78252,5.76355 -8.12252,9.10847 l -5.71643,10.61384 c -1.24418,3.13547 -2.1798,6.38474 -2.79363,9.70171 0.74567,-0.12351 1.38261,-0.27014 1.43558,-0.42838 0.1357,-0.40582 -0.11258,0.92598 0.0265,2.9166 0.13883,1.99065 0.22572,7.69877 0.91983,8.920404 0.69411,1.221634 1.96368,2.135505 1.46968,0.613913 -0.494,-1.521566 -1.17295,-5.305822 -0.46509,-3.061838 0.7079,2.243958 1.757,4.678786 1.757,4.678786 3.31007,4.891087 7.60211,5.860362 10.62209,8.096144 3.01998,2.235782 5.17851,2.128414 5.74797,2.643267 0.56949,0.514852 -0.29507,2.25925 -0.0543,5.672005 0.24075,3.412675 6.71925,9.994953 9.26767,11.200844 2.54844,1.205865 2.9509,4.324482 4.43643,8.148346 1.48545,3.823864 6.34944,9.554792 8.82943,10.63244 2.47997,1.077595 3.96253,0.06665 3.96253,0.06665 0,0 -3.05215,1.448937 -3.94393,-2.979658 -0.89178,-4.42857 2.91254,-10.741581 5.49061,-12.056639 2.5781,-1.315059 6.78648,-7.919218 7.19026,-9.975083 0.40376,-2.055892 -1.32379,-3.390873 -5.38932,-4.647274 -4.06554,-1.256427 -7.9034,-0.949298 -7.9034,-0.949298 0,0 1.71477,-1.167263 0.21704,-2.529047 -1.49767,-1.361784 -5.99749,-3.158251 -7.57679,-3.990975 -1.5793,-0.832696 -0.62085,-1.853723 -3.66647,-1.671928 -3.04561,0.181795 -6.01977,-0.787929 -7.16182,-0.446802 -1.14202,0.341154 -1.45679,1.920584 -3.12848,1.536356 -1.67172,-0.384254 -3.12015,-0.816425 -3.75896,-2.491317 -0.63881,-1.674918 -1.22693,-2.817468 -2.16266,-2.890281 -0.93572,-0.07268 -0.89312,-0.238178 -0.98496,-1.891348 -0.0919,-1.653196 -2.07666,-3.444266 -2.81686,-1.889284 -0.74023,1.554983 -2.31981,1.452722 -2.43086,-0.856297 -0.1111,-2.308992 -0.19111,-5.188823 1.87534,-5.188823 2.06645,0 3.29618,-0.124434 4.62142,0.64389 1.32525,0.76827 2.8687,1.979718 2.55644,-0.210847 -0.31227,-2.190566 0.75186,-4.674366 3.76928,-8.355036 3.01738,-3.68065 5.04235,-6.13402 6.5138,-6.03684 1.47143,0.0972 2.68957,0.74443 4.78576,-1.02526 2.09624,-1.76972 1.84756,-3.3305 0.0341,-3.21945 -1.81348,0.11107 -3.10536,-0.84775 -2.19935,-1.5017 0.90604,-0.65397 3.34452,-0.70445 4.07313,-0.54261 0.72861,0.16182 0.061,2.54651 0.1633,2.93521 0.10224,0.3887 4.29675,0.94668 4.92424,0.24392 0.62754,-0.70284 -0.20606,-2.61056 -1.2056,-3.31814 -0.99949,-0.7076 0.96597,-1.94582 -0.0791,-2.89388 -1.04507,-0.94808 -4.2029,-1.68135 -4.31395,-2.74195 -0.11107,-1.06064 0.56698,-2.78247 -0.58137,-3.37551 -1.14834,-0.59306 -1.86502,1.0142 -2.38331,1.264 -0.51821,0.24982 -0.38725,-0.48781 -1.28725,-1.68826 -0.90001,-1.20044 -3.38775,-1.97233 -4.08916,-1.37252 -0.70144,0.59984 -1.77613,4.40542 -1.77613,4.40542 -2.41231,1.1485 -1.94661,3.0825 -2.48925,3.89588 -0.54266,0.81333 -1.24761,1.50567 -0.83664,-0.53795 0.41095,-2.04364 -1.14411,-0.79528 -1.93064,-1.35289 -0.78652,-0.55764 -4.21767,-2.40239 -2.2231,-3.80908 1.99453,-1.40666 3.77108,-3.75724 4.63174,-3.41632 0.86069,0.34088 2.37395,0.55877 3.25974,0.42478 0.8858,-0.13401 0.32094,-1.2469 0.0894,-1.63298 -0.23146,-0.3861 1.08212,-1.08045 1.53273,-1.47021 0.45056,-0.38973 0.64167,-3.1125 1.62885,-3.04837 0.98716,0.0641 2.61686,0.28506 2.69854,1.27072 0.0817,0.98562 -1.29894,2.22498 -2.03814,2.3704 -0.73922,0.14539 -2.20715,1.27135 -2.16212,1.48103 0.0449,0.20971 2.04497,-0.35541 2.34043,-0.0651 0.29546,0.29035 0.62423,1.53217 2.19469,1.79784 1.57041,0.26564 3.91194,-0.0455 3.63855,-1.29244 -0.27342,-1.2469 -0.97629,-2.44493 -0.50178,-2.14561 0.47445,0.29935 2.75605,0.28903 2.89075,-0.41857 0.13473,-0.7076 -2.5528,-1.89757 -2.5528,-1.89757 0,0 0.93845,-0.43 0.93845,-0.70537 0,-0.27538 -1.19769,-2.02446 -1.89344,-2.58382 -0.56528,-0.45445 -2.38413,-1.41052 -3.34915,-1.41594 z m 47.00902,0.94877 v 0 c -0.0329,0 -0.0656,0 -0.0987,0.003 -0.31755,0.0302 -0.6413,0.24781 -0.95911,0.77462 -0.84749,1.40483 0.45611,3.01469 0.39687,3.97857 -0.0592,0.96393 -1.42957,0.76263 -0.95758,2.98381 0.47202,2.22115 2.61086,4.71882 3.58169,4.13668 0.97084,-0.58214 3.23281,0.19092 2.666,0.86715 -0.56679,0.67622 -2.35578,-1.73131 -2.32802,-0.0377 0.0278,1.69362 -0.005,3.76573 -0.39222,4.76456 -0.12335,0.31776 -0.54335,0.60169 -1.04645,0.88831 0.31541,-0.18907 -0.0667,-1.06918 -0.0667,-1.06918 -0.62216,-1.3289 -0.88741,-1.10667 -1.2206,-1.46762 -0.33316,-0.36091 -0.47217,-0.70792 -0.7498,-1.20766 -0.27768,-0.49975 -0.0169,-0.41481 -0.69713,-0.48421 -0.68021,-0.0694 -1.26425,-0.70679 -1.20665,-1.42264 0.0575,-0.71586 -0.0833,-1.08577 -0.82939,-1.34102 -0.74605,-0.25521 -1.75297,0.0795 -1.85002,0.66612 -0.0971,0.58671 0.0601,1.66664 0.84542,2.07894 0.78526,0.41224 2.08306,0.69212 1.92598,1.55598 -0.15703,0.86382 -0.56012,1.37785 -0.30488,1.90789 0.25522,0.53004 0.5493,0.46987 0.58859,1.07849 0.0393,0.6086 0.76809,0.61765 1.74355,0.11729 0.97497,-0.50009 1.50464,-0.22347 1.82108,-0.41135 -1.07826,0.61423 -2.54053,1.23952 -2.2996,2.22986 0.35338,1.45277 1.46553,0.65759 1.81851,2.14921 0.35298,1.49167 1.87296,2.54839 0.0418,2.44017 -1.83112,-0.10821 -5.17215,-0.92435 -4.94233,0.008 0.22984,0.93287 1.1472,2.10791 0.8418,3.54037 -0.30541,1.43243 -0.0403,2.1499 1.1834,2.48303 1.22383,0.33317 1.44251,0.66477 1.60041,0.8036 0.1579,0.13882 0.9529,-0.19106 1.3131,-0.52351 0.36018,-0.33242 1.32905,-0.10813 1.80247,-0.31573 0.4734,-0.20759 1.3606,-1.09527 1.24952,-1.95596 -0.11104,-0.86068 0.0117,-1.78554 0.73123,-2.11873 0.7197,-0.33316 0.32576,-1.14157 0.76999,-1.55805 0.44424,-0.41645 0.78627,-0.27728 1.14721,-0.33279 0.36095,-0.0554 0.51753,-0.6831 0.99169,-0.75655 0.47413,-0.0734 0.0714,-0.12486 1.20972,0.9302 1.13835,1.05502 2.45364,0.9671 3.36931,1.8805 0.91567,0.91336 1.15425,1.3245 0.38034,1.74098 -0.77388,0.41645 -1.99824,1.01669 -1.06918,1.31101 0.92906,0.29435 2.04938,1.00716 1.91098,0.20619 -0.13838,-0.80092 0.31692,-2.0593 0.42788,-2.40138 0.111,-0.34208 1.07048,-0.94311 -0.3452,-1.35962 -1.4157,-0.41645 -3.35947,-2.62453 -3.52173,-2.76728 -0.16225,-0.14282 -1.22407,-1.31569 -0.15143,-0.9803 1.07268,0.33536 3.56185,2.51124 3.89642,3.06959 0.33456,0.55832 1.26354,2.29811 1.62057,2.79156 0.35703,0.49342 1.30717,2.55334 1.7539,2.04949 0.4468,-0.50385 0.0914,-2.00985 -0.34055,-2.61845 -0.4319,-0.60859 0.29001,-1.99181 0.74155,-0.5979 0.45154,1.3939 0.87098,3.43495 1.81332,3.53311 0.94239,0.0982 2.17387,-1.07098 2.35905,-0.42373 0.18516,0.64722 0.26538,1.45658 0.34364,2.466 0.0783,1.00938 -0.14549,1.72944 -1.00615,1.93476 -0.86064,0.20532 -0.20659,1.19645 -0.58497,1.01904 -0.37841,-0.17737 -1.32342,-1.64581 -2.15593,-1.97868 -0.83257,-0.33287 -1.66391,-1.1937 -2.05259,-0.0832 -0.38872,1.11059 -0.28191,2.22353 -1.25367,1.69601 -0.97174,-0.52753 -1.71297,-1.86449 -2.90682,-2.16988 -1.19385,-0.30543 -0.94242,-1.05955 -0.91466,-2.00506 0.0278,-0.94549 -0.0798,-1.5934 -1.85674,-1.23248 -1.77692,0.36094 -4.66392,0.11104 -5.63685,0.94361 -0.97295,0.83259 -2.98325,0.20254 -3.89022,1.11622 -0.90694,0.91369 -2.47181,1.20843 -2.39003,2.48409 0.0818,1.27559 0.29297,2.57377 -1.43452,3.60908 -1.72752,1.035314 -2.03973,2.833766 -2.53526,3.793569 -0.49552,0.95975 -1.17422,1.5993 -0.8966,2.746587 0.27763,1.147286 0.99822,2.306187 0.24858,3.805449 -0.74965,1.499288 -0.63262,2.903511 0.2739,4.152741 0.90646,1.24923 2.04025,2.647288 2.30682,3.395133 0.26659,0.747845 0.79806,0.426059 1.68,1.282092 0.88193,0.85598 3.32308,0.880506 4.38319,0.684186 1.06016,-0.196321 3.33367,-1.64383 4.66175,-1.389063 1.32807,0.254767 1.26349,1.779746 1.26349,1.779746 0,0 2.06854,-1.616471 2.02932,-0.49403 -0.0393,1.122416 -1.83181,3.161851 -1.24282,4.379066 0.58899,1.217216 1.60594,2.891261 0.89916,4.674658 -0.70673,1.783371 -3.15481,3.158146 -3.40858,4.833806 -0.25373,1.675659 0.13992,2.713011 -0.84283,4.795572 -0.98277,2.082536 -0.96946,3.645033 -2.22829,4.809014 -1.25881,1.163982 -1.52823,2.959206 0.67077,1.850522 2.19898,-1.108657 4.77483,-2.951797 5.64719,-4.003886 0.87233,-1.052116 2.28587,-1.798082 3.11041,-2.936769 0.82458,-1.138688 1.60123,-1.91397 2.81842,-3.445272 0.51954,-0.6536 1.15457,-1.258729 1.74152,-1.818481 0.7376,-1.103286 1.43266,-2.234486 2.08359,-3.391033 0.29967,-1.081034 0.71136,-2.438373 1.4092,-3.658684 0.61687,-1.078786 1.9249,-3.935016 2.93058,-6.414082 0.52699,-1.697329 0.96647,-3.420587 1.31672,-5.162974 -0.1161,-2.27621 -0.61312,-6.376775 -0.79375,-7.415582 -0.22212,-1.277144 -1.5749,-7.516155 -1.17409,-7.532345 0.40079,-0.0161 2.36752,5.570988 2.14559,7.319963 -0.22196,1.749002 -0.37298,4.302469 -0.0832,4.480851 0.0756,0.04654 0.2304,0.13851 0.41289,0.178806 0.33985,-2.405433 0.51046,-4.831742 0.51056,-7.26104 -10e-5,-16.16938 -7.53364,-31.41562 -20.37704,-41.23883 -0.30681,-0.069 -0.47956,-0.0724 -0.47956,-0.0724 -1.33987,0.10795 -1.81927,0.18859 -2.52439,-0.49454 -0.41317,-0.40023 -0.88992,-0.83883 -1.3839,-0.85061 z m -16.69923,4.25918 c -0.9978,0.0114 -1.94125,0.14578 -2.10013,0.66662 -0.25419,0.83333 0.27847,0.76425 0.52451,1.0382 0.24604,0.27397 -0.14838,0.50045 -0.16796,0.81388 -0.0196,0.31348 -1.0028,0.0287 0.77412,0.47284 1.77691,0.44426 3.61431,0.39383 4.30929,-0.15037 0.69499,-0.54419 1.03614,-1.90518 0.16071,-2.29753 -0.8754,-0.39241 -1.18205,-0.45527 -1.80401,-0.48784 -0.48008,-0.0251 -1.09786,-0.0626 -1.69653,-0.0558 z m 10.39058,10.1265 v 0 c -0.0387,0.003 -0.0583,0.0246 -0.0806,0.0889 -0.0262,0.71752 -0.0529,0.91342 -0.39535,1.06608 -0.34229,0.15269 -0.74123,1.38332 -0.061,1.98025 0.68022,0.59693 1.63897,1.22568 2.04071,0.34676 0.40164,-0.87894 1.16694,-1.90807 0.68109,-2.54661 -0.48591,-0.6386 -1.28013,-0.94036 -1.72445,-0.91263 -0.27773,0.0175 -0.39605,-0.0283 -0.46043,-0.0233 z"/>
            <path id="path14692" style="fill:#d8d8d8;fill-opacity:0.84397;stroke:none;stroke-width:0.411943;stroke-linecap:round;stroke-linejoin:round;stroke-miterlimit:4;stroke-dasharray:none;stroke-opacity:1" d="m 533.10437,-118.32322 c -2.62177,-0.40292 -5.0566,1.3832 -5.45953,4.00499 -0.10906,0.70967 -0.0529,1.4042 0.13198,2.04991 l -5.8733,-0.90263 c -2.6218,-0.40292 -5.05668,1.38372 -5.45961,4.00552 -0.40292,2.62177 1.3832,5.05661 4.005,5.45953 l 9.46502,1.45462 c 2.6218,0.40292 5.05661,-1.38323 5.45953,-4.005 0.10907,-0.70969 0.0529,-1.4042 -0.13198,-2.04993 l 5.87332,0.90263 c 2.62178,0.40292 5.05669,-1.38372 5.45961,-4.00549 0.40293,-2.6218 -1.38322,-5.05661 -4.00499,-5.45953 z"/>
            <rect style="fill:#d8d8d8;fill-opacity:0.84397;stroke:none;stroke-width:0.411943;stroke-linecap:round;stroke-linejoin:round;stroke-miterlimit:4;stroke-dasharray:none;stroke-opacity:1" id="rect14694" width="19.152096" height="9.5760479" x="576.77875" y="56.445435" ry="4.7880239" transform="rotate(-13.474398)"/>
            <rect style="fill:#d8d8d8;fill-opacity:0.84397;stroke:none;stroke-width:0.411943;stroke-linecap:round;stroke-linejoin:round;stroke-miterlimit:4;stroke-dasharray:none;stroke-opacity:1" id="rect14696" width="19.152096" height="9.5760479" x="507.39337" y="-154.33786" ry="4.7880239" transform="rotate(8.9616107)"/>
            <rect style="fill:#d8d8d8;fill-opacity:0.84397;stroke:none;stroke-width:0.411943;stroke-linecap:round;stroke-linejoin:round;stroke-miterlimit:4;stroke-dasharray:none;stroke-opacity:1" id="rect14698" width="19.152096" height="9.5760479" x="588.96204" y="-20.885164" ry="4.7880239" transform="rotate(-9.5016434)"/>
            <rect style="fill:#d8d8d8;fill-opacity:0.84397;stroke:none;stroke-width:1.5875;stroke-linecap:round;stroke-linejoin:round;stroke-miterlimit:4;stroke-dasharray:none;stroke-opacity:1" id="rect14700" width="23.60103" height="9.6717606" x="553.30475" y="-88.814285" ry="4.7880325"/>
          </g>
          <g id="g14716" transform="matrix(1.3157867,0,0,1.3157867,3.8131798,36.334814)" style="stroke-width:0.760002">
            <circle style="fill:#1a1a1a;fill-opacity:1;stroke:none;stroke-width:0.337453;stroke-linecap:round;stroke-linejoin:round;stroke-miterlimit:4;stroke-dasharray:none;stroke-opacity:1" id="circle14704" cx="417.62885" cy="-207.82346" r="3.1437883"/>
            <path style="color:#000000;font-style:normal;font-variant:normal;font-weight:normal;font-stretch:normal;font-size:medium;line-height:normal;font-family:sans-serif;font-variant-ligatures:normal;font-variant-position:normal;font-variant-caps:normal;font-variant-numeric:normal;font-variant-alternates:normal;font-variant-east-asian:normal;font-feature-settings:normal;font-variation-settings:normal;text-indent:0;text-align:start;text-decoration:none;text-decoration-line:none;text-decoration-style:solid;text-decoration-color:#000000;letter-spacing:normal;word-spacing:normal;text-transform:none;writing-mode:lr-tb;direction:ltr;text-orientation:mixed;dominant-baseline:auto;baseline-shift:baseline;text-anchor:start;white-space:normal;shape-padding:0;shape-margin:0;inline-size:0;clip-rule:nonzero;display:inline;overflow:visible;visibility:visible;opacity:1;isolation:auto;mix-blend-mode:normal;color-interpolation:sRGB;color-interpolation-filters:linearRGB;solid-color:#000000;solid-opacity:1;vector-effect:none;fill:#1a1a1a;fill-opacity:1;fill-rule:nonzero;stroke:none;stroke-width:0.760002;stroke-linecap:round;stroke-linejoin:round;stroke-miterlimit:4;stroke-dasharray:none;stroke-dashoffset:0;stroke-opacity:1;color-rendering:auto;image-rendering:auto;shape-rendering:auto;text-rendering:auto;enable-background:accumulate;stop-color:#000000;stop-opacity:1" d="m 414.57422,-195.59375 c -0.42185,-0.0115 -0.8102,0.22874 -0.98828,0.61133 -0.2464,0.53069 -0.0154,1.16062 0.51562,1.40625 4.53016,2.10528 8.47033,3.34713 12.6776,3.54493 4.20727,0.1978 8.64015,-0.69129 13.10951,-3.61915 0.48914,-0.31986 0.62642,-0.97565 0.30664,-1.46484 -0.31985,-0.48914 -0.97565,-0.62643 -1.46484,-0.30665 -4.17328,2.7339 -8.07644,3.45289 -11.8517,3.2754 -3.77526,-0.17749 -7.46396,-1.29431 -11.88658,-3.34961 -0.13119,-0.0608 -0.27344,-0.094 -0.41797,-0.0977 z" id="path14706"/>
            <path style="color:#000000;font-style:normal;font-variant:normal;font-weight:normal;font-stretch:normal;font-size:medium;line-height:normal;font-family:sans-serif;font-variant-ligatures:normal;font-variant-position:normal;font-variant-caps:normal;font-variant-numeric:normal;font-variant-alternates:normal;font-variant-east-asian:normal;font-feature-settings:normal;font-variation-settings:normal;text-indent:0;text-align:start;text-decoration:none;text-decoration-line:none;text-decoration-style:solid;text-decoration-color:#000000;letter-spacing:normal;word-spacing:normal;text-transform:none;writing-mode:lr-tb;direction:ltr;text-orientation:mixed;dominant-baseline:auto;baseline-shift:baseline;text-anchor:start;white-space:normal;shape-padding:0;shape-margin:0;inline-size:0;clip-rule:nonzero;display:inline;overflow:visible;visibility:visible;opacity:1;isolation:auto;mix-blend-mode:normal;color-interpolation:sRGB;color-interpolation-filters:linearRGB;solid-color:#000000;solid-opacity:1;vector-effect:none;fill:#1a1a1a;fill-opacity:1;fill-rule:nonzero;stroke:none;stroke-width:0.760097;stroke-linecap:round;stroke-linejoin:round;stroke-miterlimit:4;stroke-dasharray:none;stroke-dashoffset:0;stroke-opacity:1;color-rendering:auto;image-rendering:auto;shape-rendering:auto;text-rendering:auto;enable-background:accumulate;stop-color:#000000;stop-opacity:1" d="m 421.75391,-215.57617 c 0,0 -6.57898,-0.96095 -10.50782,3.40039 a 0.79374999,0.79374999 0 0 0 0.0586,1.12109 0.79374999,0.79374999 0 0 0 1.12109,-0.0586 c 3.24319,-3.60022 9.11719,-2.88867 9.11719,-2.88867 a 0.79374999,0.79374999 0 0 0 0.89258,-0.68164 0.79374999,0.79374999 0 0 0 -0.68164,-0.89258 z" id="path14708"/>
            <g id="g14712" style="opacity:1;stroke-width:0.760002" transform="translate(-0.21533295,0.08797414)">
              <path style="color:#000000;font-style:normal;font-variant:normal;font-weight:normal;font-stretch:normal;font-size:medium;line-height:normal;font-family:sans-serif;font-variant-ligatures:normal;font-variant-position:normal;font-variant-caps:normal;font-variant-numeric:normal;font-variant-alternates:normal;font-variant-east-asian:normal;font-feature-settings:normal;font-variation-settings:normal;text-indent:0;text-align:start;text-decoration:none;text-decoration-line:none;text-decoration-style:solid;text-decoration-color:#000000;letter-spacing:normal;word-spacing:normal;text-transform:none;writing-mode:lr-tb;direction:ltr;text-orientation:mixed;dominant-baseline:auto;baseline-shift:baseline;text-anchor:start;white-space:normal;shape-padding:0;shape-margin:0;inline-size:0;clip-rule:nonzero;display:inline;overflow:visible;visibility:visible;isolation:auto;mix-blend-mode:normal;color-interpolation:sRGB;color-interpolation-filters:linearRGB;solid-color:#000000;solid-opacity:1;vector-effect:none;fill:#1a1a1a;fill-opacity:1;fill-rule:nonzero;stroke:none;stroke-width:0.760002;stroke-linecap:round;stroke-linejoin:round;stroke-miterlimit:4;stroke-dasharray:none;stroke-dashoffset:0;stroke-opacity:1;color-rendering:auto;image-rendering:auto;shape-rendering:auto;text-rendering:auto;enable-background:accumulate;stop-color:#000000;stop-opacity:1" d="m 440.83594,-213.58827 a 0.79374999,0.79374999 0 0 0 -0.57227,0.26172 c -3.24319,3.60022 -9.11719,2.89062 -9.11719,2.89062 a 0.79374999,0.79374999 0 0 0 -0.89257,0.67969 0.79374999,0.79374999 0 0 0 0.68164,0.89258 c 0,0 6.57898,0.96095 10.50781,-3.40039 a 0.79374999,0.79374999 0 0 0 -0.0586,-1.1211 0.79374999,0.79374999 0 0 0 -0.54883,-0.20312 z" id="path14710"/>
            </g>
            <path style="fill:#1a1a1a;fill-opacity:1;stroke:none;stroke-width:0.337453;stroke-linecap:round;stroke-linejoin:round;stroke-miterlimit:4;stroke-dasharray:none;stroke-opacity:1" d="m 437.26702,-209.61052 c -2.21186,0.81911 -4.38631,0.8735 -5.57794,0.82114 a 3.1437884,3.1437884 0 0 0 -0.15193,0.96584 3.1437884,3.1437884 0 0 0 3.14399,3.14399 3.1437884,3.1437884 0 0 0 3.14349,-3.14399 3.1437884,3.1437884 0 0 0 -0.55761,-1.78698 z" id="path14714"/>
          </g>
        </g>
      </g>

    </g>
  </g>
</svg>