<svg xmlns:dc="http://purl.org/dc/elements/1.1/" xmlns:cc="http://creativecommons.org/ns#" xmlns:rdf="http://www.w3.org/1999/02/22-rdf-syntax-ns#" xmlns:svg="http://www.w3.org/2000/svg" xmlns="http://www.w3.org/2000/svg" xmlns:xlink="http://www.w3.org/1999/xlink" version="1.1" id="svg5553" viewBox="23.82 162.96 85.75 85.75">
  <defs id="defs5547">
    <radialGradient xlink:href="#linearGradient1459" id="radialGradient14804" gradientUnits="userSpaceOnUse" gradientTransform="matrix(1.028146,0,4.1358409e-7,2.1457152,8.7353782,813.93388)" cx="-258.58798" cy="-310.02478" fx="-258.58798" fy="-310.02478" r="51.92955"/>
    <linearGradient id="linearGradient1459">
      <stop style="stop-color:#666666;stop-opacity:0" offset="0" id="stop1455"/>
      <stop style="stop-color:#343434;stop-opacity:0.29426658" offset="1" id="stop1457"/>
    </linearGradient>
    <radialGradient xlink:href="#linearGradient1459" id="radialGradient15142" gradientUnits="userSpaceOnUse" gradientTransform="matrix(0.85010946,0,3.4196675e-7,1.7741573,3162.5201,291.2866)" cx="-258.58798" cy="-310.02478" fx="-258.58798" fy="-310.02478" r="51.92955"/>
  </defs>
  <metadata id="metadata5550">
    <rdf:RDF>
      <cc:Work rdf:about="">
        <dc:format>image/svg+xml</dc:format>
        <dc:type rdf:resource="http://purl.org/dc/dcmitype/StillImage"/>
        <dc:title/>
      </cc:Work>
    </rdf:RDF>
  </metadata>
  <g id="layer1">
    <g id="g18121" transform="matrix(0.25275158,0,0,0.25275158,214.05219,122.87938)">
      <g id="g18558">
        <circle style="fill:#44155d;fill-opacity:1;stroke:none;stroke-width:2.64583;stroke-linecap:round;stroke-linejoin:bevel;stroke-miterlimit:4;stroke-dasharray:none" id="circle14252" cx="-583.02881" cy="328.20929" r="169.62718"/>
        <path style="color:#000000;clip-rule:nonzero;display:inline;overflow:visible;visibility:visible;isolation:auto;mix-blend-mode:normal;color-interpolation:sRGB;color-interpolation-filters:linearRGB;solid-color:#000000;solid-opacity:1;vector-effect:none;fill:#ecbf76;fill-opacity:1;fill-rule:nonzero;stroke:none;stroke-width:0.836808;stroke-linecap:round;stroke-linejoin:round;stroke-miterlimit:10;stroke-dasharray:none;stroke-dashoffset:0;stroke-opacity:1;color-rendering:auto;image-rendering:auto;shape-rendering:auto;text-rendering:auto;enable-background:accumulate" id="use14562" d="m -600.70824,194.8395 -4.4958,-2.2469 -3.5027,3.6046 0.7476,-4.9703 -4.5105,-2.2172 4.9581,-0.8244 0.7149,-4.9751 2.3165,4.4605 4.952,-0.8601 -3.5263,3.5815 z"/>
        <path style="color:#000000;clip-rule:nonzero;display:inline;overflow:visible;visibility:visible;isolation:auto;mix-blend-mode:normal;color-interpolation:sRGB;color-interpolation-filters:linearRGB;solid-color:#000000;solid-opacity:1;vector-effect:none;fill:#ecbf76;fill-opacity:1;fill-rule:nonzero;stroke:none;stroke-width:0.850072;stroke-linecap:round;stroke-linejoin:round;stroke-miterlimit:10;stroke-dasharray:none;stroke-dashoffset:0;stroke-opacity:1;color-rendering:auto;image-rendering:auto;shape-rendering:auto;text-rendering:auto;enable-background:accumulate" id="use14564" d="m -698.24364,234.9937 -4.6952,-2.0059 -3.3333,3.8676 0.4568,-5.0854 -4.7084,-1.9748 4.9778,-1.1366 0.4232,-5.0883 2.6195,4.3827 4.9694,-1.1725 -3.3587,3.8456 z"/>
        <path style="color:#000000;clip-rule:nonzero;display:inline;overflow:visible;visibility:visible;isolation:auto;mix-blend-mode:normal;color-interpolation:sRGB;color-interpolation-filters:linearRGB;solid-color:#000000;solid-opacity:1;vector-effect:none;fill:#ecbf76;fill-opacity:1;fill-rule:nonzero;stroke:none;stroke-width:0.824167;stroke-linecap:round;stroke-linejoin:round;stroke-miterlimit:10;stroke-dasharray:none;stroke-dashoffset:0;stroke-opacity:1;color-rendering:auto;image-rendering:auto;shape-rendering:auto;text-rendering:auto;enable-background:accumulate" id="use14566" d="m -621.89904,435.0348 -3.644,-3.3504 -4.2965,2.4587 2.0604,-4.5011 -3.6659,-3.3264 4.9174,0.5691 2.0307,-4.5145 0.9787,4.8525 4.9214,0.5336 -4.3126,2.4303 z"/>
        <path style="color:#000000;clip-rule:nonzero;display:inline;overflow:visible;visibility:visible;isolation:auto;mix-blend-mode:normal;color-interpolation:sRGB;color-interpolation-filters:linearRGB;solid-color:#000000;solid-opacity:1;vector-effect:none;fill:#ecbf76;fill-opacity:1;fill-rule:nonzero;stroke:none;stroke-width:0.814048;stroke-linecap:round;stroke-linejoin:round;stroke-miterlimit:10;stroke-dasharray:none;stroke-dashoffset:0;stroke-opacity:1;color-rendering:auto;image-rendering:auto;shape-rendering:auto;text-rendering:auto;enable-background:accumulate" id="use14568" d="m -697.59174,399.9424 -4.5625,-1.7578 -3.0567,3.8162 0.2619,-4.8825 -4.574,-1.7277 4.7246,-1.2593 0.2297,-4.884 2.6579,4.1039 4.7153,-1.2933 -3.0817,3.796 z"/>
        <path style="color:#000000;clip-rule:nonzero;display:inline;overflow:visible;visibility:visible;isolation:auto;mix-blend-mode:normal;color-interpolation:sRGB;color-interpolation-filters:linearRGB;solid-color:#000000;solid-opacity:1;vector-effect:none;fill:#ecbf76;fill-opacity:1;fill-rule:nonzero;stroke:none;stroke-width:0.577162;stroke-linecap:round;stroke-linejoin:round;stroke-miterlimit:10;stroke-dasharray:none;stroke-dashoffset:0;stroke-opacity:1;color-rendering:auto;image-rendering:auto;shape-rendering:auto;text-rendering:auto;enable-background:accumulate" id="use14570" d="m -479.80344,328.7544 -3.3834,-0.7547 -1.7437,2.9961 -0.3277,-3.4511 -3.3884,-0.7324 3.1811,-1.3779 -0.3504,-3.4489 2.2936,2.5994 3.171,-1.4008 -1.7634,2.9847 z"/>
        <path style="color:#000000;clip-rule:nonzero;display:inline;overflow:visible;visibility:visible;isolation:auto;mix-blend-mode:normal;color-interpolation:sRGB;color-interpolation-filters:linearRGB;solid-color:#000000;solid-opacity:1;vector-effect:none;fill:#ecbf76;fill-opacity:1;fill-rule:nonzero;stroke:none;stroke-width:0.665036;stroke-linecap:round;stroke-linejoin:round;stroke-miterlimit:10;stroke-dasharray:none;stroke-dashoffset:0;stroke-opacity:1;color-rendering:auto;image-rendering:auto;shape-rendering:auto;text-rendering:auto;enable-background:accumulate" id="use14572" d="m -519.04624,220.9723 -3.7963,-1.2423 -2.3334,3.2421 0.01,-3.9945 -3.8044,-1.2172 3.8017,-1.2261 -0.018,-3.9944 2.341,3.2365 3.7927,-1.2534 -2.3546,3.2266 z"/>
        <path style="color:#000000;clip-rule:nonzero;display:inline;overflow:visible;visibility:visible;isolation:auto;mix-blend-mode:normal;color-interpolation:sRGB;color-interpolation-filters:linearRGB;solid-color:#000000;solid-opacity:1;vector-effect:none;fill:#ecbf76;fill-opacity:1;fill-rule:nonzero;stroke:none;stroke-width:0.798797;stroke-linecap:round;stroke-linejoin:round;stroke-miterlimit:10;stroke-dasharray:none;stroke-dashoffset:0;stroke-opacity:1;color-rendering:auto;image-rendering:auto;shape-rendering:auto;text-rendering:auto;enable-background:accumulate" id="use14574" d="m -688.57634,281.9222 -3.033,-3.7175 -4.4613,1.7652 2.5982,-4.0334 -3.0574,-3.6974 4.6388,1.2252 2.5716,-4.0505 0.2687,4.7903 4.6475,1.1917 -4.4728,1.7358 z"/>
        <path style="color:#000000;clip-rule:nonzero;display:inline;overflow:visible;visibility:visible;isolation:auto;mix-blend-mode:normal;color-interpolation:sRGB;color-interpolation-filters:linearRGB;solid-color:#000000;solid-opacity:1;vector-effect:none;fill:#ecbf76;fill-opacity:1;fill-rule:nonzero;stroke:none;stroke-width:0.830582;stroke-linecap:round;stroke-linejoin:round;stroke-miterlimit:10;stroke-dasharray:none;stroke-dashoffset:0;stroke-opacity:1;color-rendering:auto;image-rendering:auto;shape-rendering:auto;text-rendering:auto;enable-background:accumulate" id="use14576" d="m -705.01034,346.8754 -3.4086,-3.6425 -4.5037,2.1458 2.411,-4.3675 -3.4325,-3.62 4.8987,0.9438 2.3821,-4.3833 0.6166,4.9505 4.9054,0.9085 -4.5177,2.1161 z"/>
        <path style="color:#000000;clip-rule:nonzero;display:inline;overflow:visible;visibility:visible;isolation:auto;mix-blend-mode:normal;color-interpolation:sRGB;color-interpolation-filters:linearRGB;solid-color:#000000;solid-opacity:1;vector-effect:none;fill:#ecbf76;fill-opacity:1;fill-rule:nonzero;stroke:none;stroke-width:0.782273;stroke-linecap:round;stroke-linejoin:round;stroke-miterlimit:10;stroke-dasharray:none;stroke-dashoffset:0;stroke-opacity:1;color-rendering:auto;image-rendering:auto;shape-rendering:auto;text-rendering:auto;enable-background:accumulate" id="use14578" d="m -505.02104,274.3787 -3.0128,-3.6054 -4.3484,1.7798 2.498,-3.9795 -3.0365,-3.5855 4.5566,1.1464 2.4717,-3.996 0.3182,4.6878 4.5647,1.1135 -4.36,1.7512 z"/>
        <path style="color:#000000;clip-rule:nonzero;display:inline;overflow:visible;visibility:visible;isolation:auto;mix-blend-mode:normal;color-interpolation:sRGB;color-interpolation-filters:linearRGB;solid-color:#000000;solid-opacity:1;vector-effect:none;fill:#ecbf76;fill-opacity:1;fill-rule:nonzero;stroke:none;stroke-width:0.821554;stroke-linecap:round;stroke-linejoin:round;stroke-miterlimit:10;stroke-dasharray:none;stroke-dashoffset:0;stroke-opacity:1;color-rendering:auto;image-rendering:auto;shape-rendering:auto;text-rendering:auto;enable-background:accumulate" id="use14580" d="m -492.18804,320.4665 -4.5188,-1.9823 -3.2574,3.7066 0.4889,-4.9103 -4.5318,-1.9525 4.8212,-1.0519 0.4565,-4.9134 2.4906,4.2598 4.8134,-1.0867 -3.2817,3.6851 z"/>
        <path style="color:#000000;clip-rule:nonzero;display:inline;overflow:visible;visibility:visible;isolation:auto;mix-blend-mode:normal;color-interpolation:sRGB;color-interpolation-filters:linearRGB;solid-color:#000000;solid-opacity:1;vector-effect:none;fill:#ecbf76;fill-opacity:1;fill-rule:nonzero;stroke:none;stroke-width:0.842445;stroke-linecap:round;stroke-linejoin:round;stroke-miterlimit:10;stroke-dasharray:none;stroke-dashoffset:0;stroke-opacity:1;color-rendering:auto;image-rendering:auto;shape-rendering:auto;text-rendering:auto;enable-background:accumulate" id="use14582" d="m -424.27994,331.7295 -2.5543,-4.3678 -4.9363,1.112 3.3648,-3.7791 -2.5831,-4.351 4.6338,2.0328 3.3398,-3.8013 -0.5009,5.0352 4.6484,1.9992 -4.9436,1.0795 z"/>
        <path style="color:#000000;clip-rule:nonzero;display:inline;overflow:visible;visibility:visible;isolation:auto;mix-blend-mode:normal;color-interpolation:sRGB;color-interpolation-filters:linearRGB;solid-color:#000000;solid-opacity:1;vector-effect:none;fill:#ecbf76;fill-opacity:1;fill-rule:nonzero;stroke:none;stroke-width:0.931987;stroke-linecap:round;stroke-linejoin:round;stroke-miterlimit:10;stroke-dasharray:none;stroke-dashoffset:0;stroke-opacity:1;color-rendering:auto;image-rendering:auto;shape-rendering:auto;text-rendering:auto;enable-background:accumulate" id="use14584" d="m -474.94064,396.7096 -5.0831,-2.3445 -3.7735,4.1347 0.659,-5.5589 -5.0984,-2.311 5.4906,-1.0905 0.6224,-5.5632 2.7342,4.8847 5.4826,-1.1302 -3.8007,4.1099 z"/>
        <path style="color:#000000;clip-rule:nonzero;display:inline;overflow:visible;visibility:visible;isolation:auto;mix-blend-mode:normal;color-interpolation:sRGB;color-interpolation-filters:linearRGB;solid-color:#000000;solid-opacity:1;vector-effect:none;fill:#ecbf76;fill-opacity:1;fill-rule:nonzero;stroke:none;stroke-width:0.833156;stroke-linecap:round;stroke-linejoin:round;stroke-miterlimit:10;stroke-dasharray:none;stroke-dashoffset:0;stroke-opacity:1;color-rendering:auto;image-rendering:auto;shape-rendering:auto;text-rendering:auto;enable-background:accumulate" id="use14586" d="m -496.29444,472.631 -2.2855,-4.4518 -4.9348,0.8304 3.5277,-3.5494 -2.3147,-4.4366 4.4655,2.2587 3.5043,-3.5725 -0.7678,4.9449 4.4817,2.2264 -4.9403,0.7979 z"/>
        <path style="color:#000000;clip-rule:nonzero;display:inline;overflow:visible;visibility:visible;isolation:auto;mix-blend-mode:normal;color-interpolation:sRGB;color-interpolation-filters:linearRGB;solid-color:#000000;solid-opacity:1;vector-effect:none;fill:#ecbf76;fill-opacity:1;fill-rule:nonzero;stroke:none;stroke-width:0.719296;stroke-linecap:round;stroke-linejoin:round;stroke-miterlimit:10;stroke-dasharray:none;stroke-dashoffset:0;stroke-opacity:1;color-rendering:auto;image-rendering:auto;shape-rendering:auto;text-rendering:auto;enable-background:accumulate" id="use14588" d="m -490.33624,425.3776 -3.9253,-1.8045 -2.9084,3.1948 0.5033,-4.291 -3.9372,-1.7786 4.2366,-0.847 0.475,-4.2942 2.1149,3.7673 4.2303,-0.8775 -2.9293,3.1756 z"/>
        <path style="color:#000000;clip-rule:nonzero;display:inline;overflow:visible;visibility:visible;isolation:auto;mix-blend-mode:normal;color-interpolation:sRGB;color-interpolation-filters:linearRGB;solid-color:#000000;solid-opacity:1;vector-effect:none;fill:#ecbf76;fill-opacity:1;fill-rule:nonzero;stroke:none;stroke-width:0.694995;stroke-linecap:round;stroke-linejoin:round;stroke-miterlimit:10;stroke-dasharray:none;stroke-dashoffset:0;stroke-opacity:1;color-rendering:auto;image-rendering:auto;shape-rendering:auto;text-rendering:auto;enable-background:accumulate" id="use14590" d="m -566.51874,471.6206 -2.4794,-3.3582 -3.9513,1.3464 2.4276,-3.3959 -2.5015,-3.3418 3.9798,1.2599 2.4052,-3.4119 0.032,4.1743 3.9887,1.231 -3.96,1.3204 z"/>
        <path style="color:#000000;clip-rule:nonzero;display:inline;overflow:visible;visibility:visible;isolation:auto;mix-blend-mode:normal;color-interpolation:sRGB;color-interpolation-filters:linearRGB;solid-color:#000000;solid-opacity:1;vector-effect:none;fill:#ecbf76;fill-opacity:1;fill-rule:nonzero;stroke:none;stroke-width:0.878272;stroke-linecap:round;stroke-linejoin:round;stroke-miterlimit:10;stroke-dasharray:none;stroke-dashoffset:0;stroke-opacity:1;color-rendering:auto;image-rendering:auto;shape-rendering:auto;text-rendering:auto;enable-background:accumulate" id="use14592" d="m -657.95774,477.6932 -3.2974,-4.1176 -4.9227,1.8961 2.8971,-4.4085 -3.3244,-4.0958 5.0878,1.3935 2.868,-4.4274 0.2474,5.2693 5.0977,1.3568 -4.935,1.8636 z"/>
        <path style="color:#000000;clip-rule:nonzero;display:inline;overflow:visible;visibility:visible;isolation:auto;mix-blend-mode:normal;color-interpolation:sRGB;color-interpolation-filters:linearRGB;solid-color:#000000;solid-opacity:1;vector-effect:none;fill:#ecbf76;fill-opacity:1;fill-rule:nonzero;stroke:none;stroke-width:0.675054;stroke-linecap:round;stroke-linejoin:round;stroke-miterlimit:10;stroke-dasharray:none;stroke-dashoffset:0;stroke-opacity:1;color-rendering:auto;image-rendering:auto;shape-rendering:auto;text-rendering:auto;enable-background:accumulate" id="use14596" d="m -444.57124,266.4329 -3.6892,-1.682 -2.7201,3.0068 0.4597,-4.0285 -3.7002,-1.6577 3.9735,-0.8073 0.4331,-4.0314 1.9959,3.5293 3.9675,-0.8359 -2.7398,2.9888 z"/>
        <path id="path14602" style="fill:#000000;fill-opacity:0.13;stroke:none;stroke-width:5.42764;stroke-linecap:round;stroke-linejoin:bevel;stroke-miterlimit:4;stroke-dasharray:none" d="m -650.33754,260.6114 -99.3248,99.3248 a 169.62718,169.62718 0 0 0 136.7867,135.2534 l 98.5581,-98.5581 z"/>
        <g id="g14650" style="stroke-width:1.34889" transform="matrix(0.92803317,-0.31106187,0.31106187,0.92803317,-276.31554,-279.9056)">
          <g id="g14642" transform="rotate(4.6785334,250.44048,4085.6251)" style="stroke-width:1.34889">
            <circle r="98.273804" cy="562.79462" cx="-784.7489" id="circle14618" style="color:#000000;clip-rule:nonzero;display:inline;overflow:visible;visibility:visible;opacity:1;isolation:auto;mix-blend-mode:normal;color-interpolation:sRGB;color-interpolation-filters:linearRGB;solid-color:#000000;solid-opacity:1;vector-effect:none;fill:#e4a43d;fill-opacity:1;fill-rule:nonzero;stroke:none;stroke-width:0.674447;stroke-linecap:round;stroke-linejoin:round;stroke-miterlimit:10;stroke-dasharray:none;stroke-dashoffset:0;stroke-opacity:1;color-rendering:auto;image-rendering:auto;shape-rendering:auto;text-rendering:auto;enable-background:accumulate"/>
            <path transform="scale(0.26458333)" id="path14620" d="m -3287.959,2311.3379 a 371.42855,371.42855 0 0 0 69.457,87.5098 615.66499,615.66499 0 0 0 252.5215,55.0117 615.66499,615.66499 0 0 0 252.3926,-54.7051 371.42855,371.42855 0 0 0 69.6973,-87.6719 615.66499,615.66499 0 0 1 -322.0899,91.8692 615.66499,615.66499 0 0 1 -321.9785,-92.0137 z" style="color:#000000;clip-rule:nonzero;display:inline;overflow:visible;visibility:visible;opacity:1;isolation:auto;mix-blend-mode:normal;color-interpolation:sRGB;color-interpolation-filters:linearRGB;solid-color:#000000;solid-opacity:1;vector-effect:none;fill:#ebbb6e;fill-opacity:0.616766;fill-rule:nonzero;stroke:none;stroke-width:2.54909;stroke-linecap:round;stroke-linejoin:round;stroke-miterlimit:10;stroke-dasharray:none;stroke-dashoffset:0;stroke-opacity:1;color-rendering:auto;image-rendering:auto;shape-rendering:auto;text-rendering:auto;enable-background:accumulate"/>
            <path transform="scale(0.26458333)" id="path14622" d="m -2619.0918,2258.6445 c -17.7296,12.1901 -50.8698,35.8728 -71.4135,29.9667 -42.4678,-12.2089 -71.6909,-16.9193 -96.5526,1.8752 -72.8751,55.0905 -127.7321,76.34 -178.9226,76.4999 -123.7787,-0.092 -244.6554,-37.4926 -346.8574,-107.3203 7.0574,18.1239 15.5274,35.6655 25.332,52.4629 96.7136,59.4726 207.9892,91.0435 321.5254,91.2227 113.7922,-0.2711 225.2831,-32.0737 322.0938,-91.877 9.6378,-16.9325 17.9283,-34.597 24.7949,-52.8301 z" style="color:#000000;clip-rule:nonzero;display:inline;overflow:visible;visibility:visible;opacity:1;isolation:auto;mix-blend-mode:normal;color-interpolation:sRGB;color-interpolation-filters:linearRGB;solid-color:#000000;solid-opacity:1;vector-effect:none;fill:#faefdc;fill-opacity:0.586826;fill-rule:nonzero;stroke:none;stroke-width:2.54909;stroke-linecap:round;stroke-linejoin:round;stroke-miterlimit:10;stroke-dasharray:none;stroke-dashoffset:0;stroke-opacity:1;color-rendering:auto;image-rendering:auto;shape-rendering:auto;text-rendering:auto;enable-background:accumulate"/>
            <path transform="scale(0.26458333)" id="path14624" d="m -3332.4785,2186.3262 c 4.0007,24.8482 10.5166,49.2254 19.4473,72.7558 102.1897,70.0716 223.1446,107.6787 347.0507,107.9043 66.2235,-0.015 122.7142,-14.7253 149.4781,-52.9044 15.8085,-22.5511 19.6,-23.0481 50.7321,-33.7143 32.4178,-11.1068 124.5949,-5.4703 146.0848,-20.0981 9.1082,-23.7177 15.7589,-48.3074 19.8476,-73.3828 -105.8784,78.6825 -234.2293,121.2777 -366.1426,121.5098 -173.5146,-37.6936 -260.5915,-43.1155 -366.498,-122.0703 z" style="color:#000000;clip-rule:nonzero;display:inline;overflow:visible;visibility:visible;opacity:1;isolation:auto;mix-blend-mode:normal;color-interpolation:sRGB;color-interpolation-filters:linearRGB;solid-color:#000000;solid-opacity:1;vector-effect:none;fill:#eab765;fill-opacity:0.616766;fill-rule:nonzero;stroke:none;stroke-width:2.54909;stroke-linecap:round;stroke-linejoin:round;stroke-miterlimit:10;stroke-dasharray:none;stroke-dashoffset:0;stroke-opacity:1;color-rendering:auto;image-rendering:auto;shape-rendering:auto;text-rendering:auto;enable-background:accumulate"/>
            <path transform="scale(0.26458333)" id="path14626" d="m -2595.3066,2105.7598 c -106.6209,81.0324 -236.7557,125.0904 -370.6739,125.4941 -133.7493,-0.2849 -263.768,-44.1172 -370.3906,-124.8672 -0.5384,6.8927 -0.8842,13.799 -1.0371,20.711 0.055,19.939 1.7151,39.8412 4.9648,59.5136 105.9323,78.8459 185.9216,133.6639 366.4629,121.7852 131.931,-0.2604 260.2891,-42.8945 366.1582,-121.6192 3.3613,-19.7188 5.1242,-39.6769 5.2715,-59.6796 -0.047,-7.1184 -0.2994,-14.234 -0.7558,-21.3379 z" style="color:#000000;clip-rule:nonzero;display:inline;overflow:visible;visibility:visible;opacity:1;isolation:auto;mix-blend-mode:normal;color-interpolation:sRGB;color-interpolation-filters:linearRGB;solid-color:#000000;solid-opacity:1;vector-effect:none;fill:#faefdc;fill-opacity:0.586826;fill-rule:nonzero;stroke:none;stroke-width:2.54909;stroke-linecap:round;stroke-linejoin:round;stroke-miterlimit:10;stroke-dasharray:none;stroke-dashoffset:0;stroke-opacity:1;color-rendering:auto;image-rendering:auto;shape-rendering:auto;text-rendering:auto;enable-background:accumulate"/>
            <path transform="scale(0.26458333)" id="path14628" d="m -2606.9199,2032.9414 c -104.5359,75.4714 -230.128,116.2194 -359.0606,116.4961 -128.8446,-0.2179 -254.3739,-40.8532 -358.9043,-116.1816 -6.2763,24.0184 -10.1289,48.6055 -11.5,73.3925 106.6593,80.6594 159.5375,132.9704 370.4043,124.6055 133.8733,-0.2766 264.0085,-44.1816 370.6875,-125.0625 -1.4221,-24.7434 -5.3171,-49.2824 -11.6269,-73.25 z" style="color:#000000;clip-rule:nonzero;display:inline;overflow:visible;visibility:visible;opacity:1;isolation:auto;mix-blend-mode:normal;color-interpolation:sRGB;color-interpolation-filters:linearRGB;solid-color:#000000;solid-opacity:1;vector-effect:none;fill:#cd9232;fill-opacity:0.586826;fill-rule:nonzero;stroke:none;stroke-width:2.54909;stroke-linecap:round;stroke-linejoin:round;stroke-miterlimit:10;stroke-dasharray:none;stroke-dashoffset:0;stroke-opacity:1;color-rendering:auto;image-rendering:auto;shape-rendering:auto;text-rendering:auto;enable-background:accumulate"/>
            <path transform="scale(0.26458333)" id="path14630" d="m -2614.6543,2007.9785 a 615.66499,615.66499 0 0 1 -351.3262,111.3399 615.66499,615.66499 0 0 1 -351.6113,-110.8262 371.42855,371.42855 0 0 0 -7.25,24.5957 615.66499,615.66499 0 0 0 358.8613,116.3496 615.66499,615.66499 0 0 0 359.1133,-116.2637 371.42855,371.42855 0 0 0 -7.7871,-25.1953 z" style="color:#000000;clip-rule:nonzero;display:inline;overflow:visible;visibility:visible;opacity:1;isolation:auto;mix-blend-mode:normal;color-interpolation:sRGB;color-interpolation-filters:linearRGB;solid-color:#000000;solid-opacity:1;vector-effect:none;fill:#f9e9d1;fill-opacity:0.586826;fill-rule:nonzero;stroke:none;stroke-width:2.54909;stroke-linecap:round;stroke-linejoin:round;stroke-miterlimit:10;stroke-dasharray:none;stroke-dashoffset:0;stroke-opacity:1;color-rendering:auto;image-rendering:auto;shape-rendering:auto;text-rendering:auto;enable-background:accumulate"/>
            <path transform="scale(0.26458333)" id="path14632" d="m -2619.25,1994.1445 c -102.0851,70.0551 -222.9203,107.7039 -346.7305,108.0313 -123.7057,-0.073 -244.5204,-37.4111 -346.6972,-107.1465 -1.6885,4.367 -3.2942,8.7656 -4.8164,13.1934 103.0734,72.0663 200.4916,125.9891 351.5136,111.0957 128.7654,-9.1726 243.3799,-40.6782 351.5899,-110.543 -1.5184,-4.9101 -3.1386,-9.7881 -4.8594,-14.6309 z" style="color:#000000;clip-rule:nonzero;display:inline;overflow:visible;visibility:visible;opacity:1;isolation:auto;mix-blend-mode:normal;color-interpolation:sRGB;color-interpolation-filters:linearRGB;solid-color:#000000;solid-opacity:1;vector-effect:none;fill:#be8833;fill-opacity:0.586826;fill-rule:nonzero;stroke:none;stroke-width:2.54909;stroke-linecap:round;stroke-linejoin:round;stroke-miterlimit:10;stroke-dasharray:none;stroke-dashoffset:0;stroke-opacity:1;color-rendering:auto;image-rendering:auto;shape-rendering:auto;text-rendering:auto;enable-background:accumulate"/>
            <path transform="scale(0.26458333)" id="path14634" d="m -2632.4062,1964.3301 c -99.3295,64.4846 -215.1492,98.9531 -333.5743,99.2734 -118.3526,-0.3425 -234.0981,-34.7911 -333.3769,-99.2207 -4.8371,9.8819 -9.2327,19.9739 -13.1738,30.2461 102.0898,69.8491 221.8426,104.5915 345.5405,104.8123 123.8171,-0.013 245.7638,-34.6234 348.0298,-104.4256 -4.018,-10.4255 -8.5043,-20.6644 -13.4453,-30.6855 z" style="color:#000000;clip-rule:nonzero;display:inline;overflow:visible;visibility:visible;opacity:1;isolation:auto;mix-blend-mode:normal;color-interpolation:sRGB;color-interpolation-filters:linearRGB;solid-color:#000000;solid-opacity:1;vector-effect:none;fill:#f5ddb8;fill-opacity:0.565868;fill-rule:nonzero;stroke:none;stroke-width:2.54909;stroke-linecap:round;stroke-linejoin:round;stroke-miterlimit:10;stroke-dasharray:none;stroke-dashoffset:0;stroke-opacity:1;color-rendering:auto;image-rendering:auto;shape-rendering:auto;text-rendering:auto;enable-background:accumulate"/>
            <path transform="scale(0.26458333)" id="path14636" d="m -3234.7422,1871.3672 c -26.3746,27.7402 -48.3028,59.3906 -65.0078,93.8301 99.4791,64.2148 215.365,98.3818 333.7695,98.4062 118.4402,-0.2127 234.3052,-34.5846 333.7012,-98.9941 -16.5475,-34.0269 -38.197,-65.3255 -64.1992,-92.8125 -83.9287,41.0115 -119.5207,74.5088 -269.502,62.5078 -135.6225,-23.6002 -185.0928,-21.8867 -268.7617,-62.9375 z" style="color:#000000;clip-rule:nonzero;display:inline;overflow:visible;visibility:visible;opacity:1;isolation:auto;mix-blend-mode:normal;color-interpolation:sRGB;color-interpolation-filters:linearRGB;solid-color:#000000;solid-opacity:1;vector-effect:none;fill:#eaba6c;fill-opacity:0.667665;fill-rule:nonzero;stroke:none;stroke-width:2.54909;stroke-linecap:round;stroke-linejoin:round;stroke-miterlimit:10;stroke-dasharray:none;stroke-dashoffset:0;stroke-opacity:1;color-rendering:auto;image-rendering:auto;shape-rendering:auto;text-rendering:auto;enable-background:accumulate"/>
            <path transform="scale(0.26458333)" id="path14638" d="m -2965.9805,1755.6699 c -67.3668,0.1364 -133.6896,18.2992 -191.3728,53.098 61.6786,20.2954 126.441,30.9986 191.3728,31.1383 64.786,-0.2583 129.1251,-10.7408 190.6426,-31.0605 -57.5684,-34.6417 -123.4552,-53.0194 -190.6426,-53.1758 z" style="color:#000000;clip-rule:nonzero;display:inline;overflow:visible;visibility:visible;opacity:1;isolation:auto;mix-blend-mode:normal;color-interpolation:sRGB;color-interpolation-filters:linearRGB;solid-color:#000000;solid-opacity:1;vector-effect:none;fill:#a66f17;fill-opacity:0.586826;fill-rule:nonzero;stroke:none;stroke-width:2.54909;stroke-linecap:round;stroke-linejoin:round;stroke-miterlimit:10;stroke-dasharray:none;stroke-dashoffset:0;stroke-opacity:1;color-rendering:auto;image-rendering:auto;shape-rendering:auto;text-rendering:auto;enable-background:accumulate"/>
            <ellipse transform="rotate(-15)" ry="8.7744341" rx="14.197332" cy="403.74313" cx="-863.66821" id="ellipse14640" style="color:#000000;clip-rule:nonzero;display:inline;overflow:visible;visibility:visible;opacity:1;isolation:auto;mix-blend-mode:normal;color-interpolation:sRGB;color-interpolation-filters:linearRGB;solid-color:#000000;solid-opacity:1;vector-effect:none;fill:#ea844b;fill-opacity:1;fill-rule:nonzero;stroke:none;stroke-width:0.674447;stroke-linecap:round;stroke-linejoin:round;stroke-miterlimit:10;stroke-dasharray:none;stroke-dashoffset:0;stroke-opacity:1;color-rendering:auto;image-rendering:auto;shape-rendering:auto;text-rendering:auto;enable-background:accumulate"/>
          </g>
          <circle style="color:#000000;clip-rule:nonzero;display:inline;overflow:visible;visibility:visible;opacity:1;isolation:auto;mix-blend-mode:normal;color-interpolation:sRGB;color-interpolation-filters:linearRGB;solid-color:#000000;solid-opacity:1;vector-effect:none;fill:#1a1a1a;fill-opacity:1;fill-rule:nonzero;stroke:none;stroke-width:0.674447;stroke-linecap:round;stroke-linejoin:round;stroke-miterlimit:10;stroke-dasharray:none;stroke-dashoffset:0;stroke-opacity:1;color-rendering:auto;image-rendering:auto;shape-rendering:auto;text-rendering:auto;enable-background:accumulate" id="circle14644" cx="-382.54654" cy="492.75137" r="5.9434547" transform="rotate(4.6785334)"/>
          <circle r="5.9434547" cy="492.75137" cx="-420.798" id="circle14646" style="color:#000000;clip-rule:nonzero;display:inline;overflow:visible;visibility:visible;opacity:1;isolation:auto;mix-blend-mode:normal;color-interpolation:sRGB;color-interpolation-filters:linearRGB;solid-color:#000000;solid-opacity:1;vector-effect:none;fill:#1a1a1a;fill-opacity:1;fill-rule:nonzero;stroke:none;stroke-width:0.674447;stroke-linecap:round;stroke-linejoin:round;stroke-miterlimit:10;stroke-dasharray:none;stroke-dashoffset:0;stroke-opacity:1;color-rendering:auto;image-rendering:auto;shape-rendering:auto;text-rendering:auto;enable-background:accumulate" transform="rotate(4.6785334)"/>
          <path style="color:#000000;clip-rule:nonzero;display:inline;overflow:visible;visibility:visible;opacity:1;isolation:auto;mix-blend-mode:normal;color-interpolation:sRGB;color-interpolation-filters:linearRGB;solid-color:#000000;solid-opacity:1;vector-effect:none;fill:#1a1a1a;fill-opacity:1;fill-rule:nonzero;stroke:none;stroke-width:0.674447;stroke-linecap:round;stroke-linejoin:round;stroke-miterlimit:10;stroke-dasharray:none;stroke-dashoffset:0;stroke-opacity:1;color-rendering:auto;image-rendering:auto;shape-rendering:auto;text-rendering:auto;enable-background:accumulate" d="m -427.18557,480.00517 c -3.91774,3.74451 -10.06923,6.4191 -15.60074,5.97338 -5.50868,-0.45784 -11.25175,-3.9528 -14.45576,-8.57095 -0.45348,-0.79885 -0.86426,-0.74306 -1.19335,-0.007 -0.52403,1.17596 -0.5838,2.01578 -0.69248,3.27779 -0.61721,7.54227 4.61078,17.63326 14.8209,18.08959 10.21012,0.45634 17.88931,-7.81988 18.5066,-15.36214 0.0969,-1.25767 0.174,-2.11713 -0.14814,-3.35767 -0.20974,-0.91037 -0.87102,-0.72003 -1.23703,-0.0427 z" id="path14648"/>
        </g>
      </g>
      
    </g>
  </g>
</svg>