<svg xmlns:dc="http://purl.org/dc/elements/1.1/" xmlns:cc="http://creativecommons.org/ns#" xmlns:rdf="http://www.w3.org/1999/02/22-rdf-syntax-ns#" xmlns:svg="http://www.w3.org/2000/svg" xmlns="http://www.w3.org/2000/svg" xmlns:xlink="http://www.w3.org/1999/xlink" version="1.1" id="svg5553" viewBox="394.2 37.04 85.75 85.75">
  <defs id="defs5547">
    <radialGradient xlink:href="#linearGradient1459" id="radialGradient14804" gradientUnits="userSpaceOnUse" gradientTransform="matrix(1.028146,0,4.1358409e-7,2.1457152,8.7353782,813.93388)" cx="-258.58798" cy="-310.02478" fx="-258.58798" fy="-310.02478" r="51.92955"/>
    <linearGradient id="linearGradient1459">
      <stop style="stop-color:#666666;stop-opacity:0" offset="0" id="stop1455"/>
      <stop style="stop-color:#343434;stop-opacity:0.29426658" offset="1" id="stop1457"/>
    </linearGradient>
    <radialGradient xlink:href="#linearGradient1459" id="radialGradient15142" gradientUnits="userSpaceOnUse" gradientTransform="matrix(0.85010946,0,3.4196675e-7,1.7741573,3162.5201,291.2866)" cx="-258.58798" cy="-310.02478" fx="-258.58798" fy="-310.02478" r="51.92955"/>
  </defs>
  <metadata id="metadata5550">
    <rdf:RDF>
      <cc:Work rdf:about="">
        <dc:format>image/svg+xml</dc:format>
        <dc:type rdf:resource="http://purl.org/dc/dcmitype/StillImage"/>
        <dc:title/>
      </cc:Work>
    </rdf:RDF>
  </metadata>
  <g id="layer1">
    <g id="g18121" transform="matrix(0.25275158,0,0,0.25275158,214.05219,122.87938)">
      <g id="g18404">
        <circle style="fill:#44155d;fill-opacity:1;stroke:none;stroke-width:2.64583;stroke-linecap:round;stroke-linejoin:bevel;stroke-miterlimit:4;stroke-dasharray:none" id="circle14266" cx="882.37067" cy="-169.98579" r="169.62718"/>
        <path style="color:#000000;clip-rule:nonzero;display:inline;overflow:visible;visibility:visible;isolation:auto;mix-blend-mode:normal;color-interpolation:sRGB;color-interpolation-filters:linearRGB;solid-color:#000000;solid-opacity:1;vector-effect:none;fill:#ecbf76;fill-opacity:1;fill-rule:nonzero;stroke:none;stroke-width:0.712794;stroke-linecap:round;stroke-linejoin:round;stroke-miterlimit:10;stroke-dasharray:none;stroke-dashoffset:0;stroke-opacity:1;color-rendering:auto;image-rendering:auto;shape-rendering:auto;text-rendering:auto;enable-background:accumulate" id="use14392" d="m 887.37858,-263.5064 -4.19996,-0.8301 -2.06276,3.7516 -0.50843,-4.251 -4.20534,-0.8024 3.88602,-1.7968 -0.53641,-4.2476 2.90994,3.1403 3.87293,-1.8248 -2.08741,3.738 z"/>
        <path style="color:#000000;clip-rule:nonzero;display:inline;overflow:visible;visibility:visible;isolation:auto;mix-blend-mode:normal;color-interpolation:sRGB;color-interpolation-filters:linearRGB;solid-color:#000000;solid-opacity:1;vector-effect:none;fill:#ecbf76;fill-opacity:1;fill-rule:nonzero;stroke:none;stroke-width:0.814723;stroke-linecap:round;stroke-linejoin:round;stroke-miterlimit:10;stroke-dasharray:none;stroke-dashoffset:0;stroke-opacity:1;color-rendering:auto;image-rendering:auto;shape-rendering:auto;text-rendering:auto;enable-background:accumulate" id="use14394" d="m 823.24928,-228.1575 -4.7896,-1.0026 -2.40575,4.2613 -0.52651,-4.8652 -4.7961,-0.971 4.46451,-2.0038 -0.55854,-4.8615 3.28553,3.6265 4.44991,-2.0359 -2.43375,4.2454 z"/>
        <path style="color:#000000;clip-rule:nonzero;display:inline;overflow:visible;visibility:visible;isolation:auto;mix-blend-mode:normal;color-interpolation:sRGB;color-interpolation-filters:linearRGB;solid-color:#000000;solid-opacity:1;vector-effect:none;fill:#ecbf76;fill-opacity:1;fill-rule:nonzero;stroke:none;stroke-width:0.613597;stroke-linecap:round;stroke-linejoin:round;stroke-miterlimit:10;stroke-dasharray:none;stroke-dashoffset:0;stroke-opacity:1;color-rendering:auto;image-rendering:auto;shape-rendering:auto;text-rendering:auto;enable-background:accumulate" id="use14396" d="m 815.7622,-169.2519 -2.80352,-2.3922 -3.12875,1.9477 1.40877,-3.4056 -2.81922,-2.3736 3.67425,0.2878 1.38631,-3.4149 0.86199,3.5833 3.67621,0.2612 -3.14151,1.9271 z"/>
        <path style="color:#000000;clip-rule:nonzero;display:inline;overflow:visible;visibility:visible;isolation:auto;mix-blend-mode:normal;color-interpolation:sRGB;color-interpolation-filters:linearRGB;solid-color:#000000;solid-opacity:1;vector-effect:none;fill:#ecbf76;fill-opacity:1;fill-rule:nonzero;stroke:none;stroke-width:0.572712;stroke-linecap:round;stroke-linejoin:round;stroke-miterlimit:10;stroke-dasharray:none;stroke-dashoffset:0;stroke-opacity:1;color-rendering:auto;image-rendering:auto;shape-rendering:auto;text-rendering:auto;enable-background:accumulate" id="use14398" d="m 793.43534,-87.0082 -2.50804,-2.3542 -3.0031,1.6776 1.46397,-3.1128 -2.5235,-2.3377 3.41285,0.4307 1.44343,-3.1224 0.64527,3.3789 3.41586,0.406 -3.01408,1.6578 z"/>
        <path style="color:#000000;clip-rule:nonzero;display:inline;overflow:visible;visibility:visible;isolation:auto;mix-blend-mode:normal;color-interpolation:sRGB;color-interpolation-filters:linearRGB;solid-color:#000000;solid-opacity:1;vector-effect:none;fill:#ecbf76;fill-opacity:1;fill-rule:nonzero;stroke:none;stroke-width:0.853428;stroke-linecap:round;stroke-linejoin:round;stroke-miterlimit:10;stroke-dasharray:none;stroke-dashoffset:0;stroke-opacity:1;color-rendering:auto;image-rendering:auto;shape-rendering:auto;text-rendering:auto;enable-background:accumulate" id="use14400" d="m 833.35092,-115.8804 -2.41137,-4.5233 -5.04114,0.9288 3.5568,-3.6912 -2.44113,-4.5073 4.60947,2.2425 3.5324,-3.7146 -0.70793,5.0769 4.62551,2.2091 -5.04715,0.8956 z"/>
        <path style="color:#000000;clip-rule:nonzero;display:inline;overflow:visible;visibility:visible;isolation:auto;mix-blend-mode:normal;color-interpolation:sRGB;color-interpolation-filters:linearRGB;solid-color:#000000;solid-opacity:1;vector-effect:none;fill:#ecbf76;fill-opacity:1;fill-rule:nonzero;stroke:none;stroke-width:0.585704;stroke-linecap:round;stroke-linejoin:round;stroke-miterlimit:10;stroke-dasharray:none;stroke-dashoffset:0;stroke-opacity:1;color-rendering:auto;image-rendering:auto;shape-rendering:auto;text-rendering:auto;enable-background:accumulate" id="use14402" d="m 890.61327,-53.1749 -2.33171,-2.6341 -3.2165,1.4248 1.78469,-3.0317 -2.34901,-2.6187 3.43471,0.7608 1.76468,-3.0433 0.33806,3.5016 3.44009,0.7361 -3.22582,1.4036 z"/>
        <path style="color:#000000;clip-rule:nonzero;display:inline;overflow:visible;visibility:visible;isolation:auto;mix-blend-mode:normal;color-interpolation:sRGB;color-interpolation-filters:linearRGB;solid-color:#000000;solid-opacity:1;vector-effect:none;fill:#ecbf76;fill-opacity:1;fill-rule:nonzero;stroke:none;stroke-width:0.594777;stroke-linecap:round;stroke-linejoin:round;stroke-miterlimit:10;stroke-dasharray:none;stroke-dashoffset:0;stroke-opacity:1;color-rendering:auto;image-rendering:auto;shape-rendering:auto;text-rendering:auto;enable-background:accumulate" id="use14404" d="m 949.93967,-28.4485 -3.48256,-0.796 -1.81306,3.0782 -0.31915,-3.5582 -3.48773,-0.7731 3.28554,-1.4027 -0.34257,-3.556 2.34957,2.691 3.27532,-1.4264 -1.83329,3.0662 z"/>
        <path style="color:#000000;clip-rule:nonzero;display:inline;overflow:visible;visibility:visible;isolation:auto;mix-blend-mode:normal;color-interpolation:sRGB;color-interpolation-filters:linearRGB;solid-color:#000000;solid-opacity:1;vector-effect:none;fill:#ecbf76;fill-opacity:1;fill-rule:nonzero;stroke:none;stroke-width:0.738907;stroke-linecap:round;stroke-linejoin:round;stroke-miterlimit:10;stroke-dasharray:none;stroke-dashoffset:0;stroke-opacity:1;color-rendering:auto;image-rendering:auto;shape-rendering:auto;text-rendering:auto;enable-background:accumulate" id="use14406" d="m 955.15151,-94.363 -4.32414,-0.9991 -2.26138,3.8188 -0.38611,-4.4213 -4.33062,-0.9706 4.08579,-1.7331 -0.41522,-4.4186 2.91108,3.35 4.07316,-1.7626 -2.28647,3.8039 z"/>
        <path style="color:#000000;clip-rule:nonzero;display:inline;overflow:visible;visibility:visible;isolation:auto;mix-blend-mode:normal;color-interpolation:sRGB;color-interpolation-filters:linearRGB;solid-color:#000000;solid-opacity:1;vector-effect:none;fill:#ecbf76;fill-opacity:1;fill-rule:nonzero;stroke:none;stroke-width:0.589782;stroke-linecap:round;stroke-linejoin:round;stroke-miterlimit:10;stroke-dasharray:none;stroke-dashoffset:0;stroke-opacity:1;color-rendering:auto;image-rendering:auto;shape-rendering:auto;text-rendering:auto;enable-background:accumulate" id="use14408" d="m 996.95048,-74.7729 -3.01178,-1.8648 -2.68918,2.3059 0.84284,-3.4408 -3.02401,-1.8449 3.5328,-0.2613 0.82017,-3.4462 1.34047,3.279 3.53081,-0.2868 -2.70431,2.2882 z"/>
        <path style="color:#000000;clip-rule:nonzero;display:inline;overflow:visible;visibility:visible;isolation:auto;mix-blend-mode:normal;color-interpolation:sRGB;color-interpolation-filters:linearRGB;solid-color:#000000;solid-opacity:1;vector-effect:none;fill:#ecbf76;fill-opacity:1;fill-rule:nonzero;stroke:none;stroke-width:0.601577;stroke-linecap:round;stroke-linejoin:round;stroke-miterlimit:10;stroke-dasharray:none;stroke-dashoffset:0;stroke-opacity:1;color-rendering:auto;image-rendering:auto;shape-rendering:auto;text-rendering:auto;enable-background:accumulate" id="use14410" d="m 1001.8063,-168.2956 -3.46444,-1.0261 -2.02686,2.9913 -0.0947,-3.6121 -3.47115,-1.0032 3.40612,-1.206 -0.11853,-3.6113 2.1997,2.8665 3.39736,-1.2305 -2.04656,2.9779 z"/>
        <path style="color:#000000;clip-rule:nonzero;display:inline;overflow:visible;visibility:visible;isolation:auto;mix-blend-mode:normal;color-interpolation:sRGB;color-interpolation-filters:linearRGB;solid-color:#000000;solid-opacity:1;vector-effect:none;fill:#ecbf76;fill-opacity:1;fill-rule:nonzero;stroke:none;stroke-width:0.849168;stroke-linecap:round;stroke-linejoin:round;stroke-miterlimit:10;stroke-dasharray:none;stroke-dashoffset:0;stroke-opacity:1;color-rendering:auto;image-rendering:auto;shape-rendering:auto;text-rendering:auto;enable-background:accumulate" id="use14412" d="m 981.94838,-189.1228 -4.99555,-1.0284 -2.49262,4.4498 -0.5657,-5.069 -5.00222,-0.9954 4.64626,-2.104 -0.59906,-5.0651 3.43703,3.7684 4.63093,-2.1374 -2.52185,4.4333 z"/>
        <path style="color:#000000;clip-rule:nonzero;display:inline;overflow:visible;visibility:visible;isolation:auto;mix-blend-mode:normal;color-interpolation:sRGB;color-interpolation-filters:linearRGB;solid-color:#000000;solid-opacity:1;vector-effect:none;fill:#ecbf76;fill-opacity:1;fill-rule:nonzero;stroke:none;stroke-width:0.908797;stroke-linecap:round;stroke-linejoin:round;stroke-miterlimit:10;stroke-dasharray:none;stroke-dashoffset:0;stroke-opacity:1;color-rendering:auto;image-rendering:auto;shape-rendering:auto;text-rendering:auto;enable-background:accumulate" id="use14414" d="m 1005.7808,-217.4794 -3.5596,-4.1382 -5.0217,2.1397 2.8357,-4.6642 -3.58682,-4.1146 5.31212,1.2561 2.8049,-4.6828 0.4473,5.4401 5.3211,1.2177 -5.0357,2.1066 z"/>
        <path style="color:#000000;clip-rule:nonzero;display:inline;overflow:visible;visibility:visible;isolation:auto;mix-blend-mode:normal;color-interpolation:sRGB;color-interpolation-filters:linearRGB;solid-color:#000000;solid-opacity:1;vector-effect:none;fill:#ecbf76;fill-opacity:1;fill-rule:nonzero;stroke:none;stroke-width:0.574329;stroke-linecap:round;stroke-linejoin:round;stroke-miterlimit:10;stroke-dasharray:none;stroke-dashoffset:0;stroke-opacity:1;color-rendering:auto;image-rendering:auto;shape-rendering:auto;text-rendering:auto;enable-background:accumulate" id="use14416" d="m 973.01063,-271.5719 -2.84556,-1.9499 -2.71998,2.1217 0.97517,-3.309 -2.85835,-1.9311 3.44834,-0.095 0.95335,-3.3152 1.15595,3.2501 3.44755,-0.1196 -2.73388,2.1037 z"/>
        <path style="color:#000000;clip-rule:nonzero;display:inline;overflow:visible;visibility:visible;isolation:auto;mix-blend-mode:normal;color-interpolation:sRGB;color-interpolation-filters:linearRGB;solid-color:#000000;solid-opacity:1;vector-effect:none;fill:#ecbf76;fill-opacity:1;fill-rule:nonzero;stroke:none;stroke-width:0.734275;stroke-linecap:round;stroke-linejoin:round;stroke-miterlimit:10;stroke-dasharray:none;stroke-dashoffset:0;stroke-opacity:1;color-rendering:auto;image-rendering:auto;shape-rendering:auto;text-rendering:auto;enable-background:accumulate" id="use14418" d="m 951.82115,-298.6762 -4.10242,-1.6187 -2.78484,3.4198 0.27175,-4.4019 -4.113,-1.5917 4.27059,-1.1014 0.24275,-4.4036 2.36748,3.721 4.26251,-1.1323 -2.80729,3.4015 z"/>
        <path style="color:#000000;clip-rule:nonzero;display:inline;overflow:visible;visibility:visible;isolation:auto;mix-blend-mode:normal;color-interpolation:sRGB;color-interpolation-filters:linearRGB;solid-color:#000000;solid-opacity:1;vector-effect:none;fill:#ecbf76;fill-opacity:1;fill-rule:nonzero;stroke:none;stroke-width:0.75672;stroke-linecap:round;stroke-linejoin:round;stroke-miterlimit:10;stroke-dasharray:none;stroke-dashoffset:0;stroke-opacity:1;color-rendering:auto;image-rendering:auto;shape-rendering:auto;text-rendering:auto;enable-background:accumulate" id="use14420" d="m 883.09046,-304.662 -2.28882,-3.9266 -4.43542,0.9925 3.02724,-3.3903 -2.31464,-3.9115 4.15966,1.8319 3.00484,-3.4102 -0.45638,4.5221 4.17277,1.8018 -4.44186,0.9634 z"/>
        <path style="color:#000000;clip-rule:nonzero;display:inline;overflow:visible;visibility:visible;isolation:auto;mix-blend-mode:normal;color-interpolation:sRGB;color-interpolation-filters:linearRGB;solid-color:#000000;solid-opacity:1;vector-effect:none;fill:#ecbf76;fill-opacity:1;fill-rule:nonzero;stroke:none;stroke-width:0.584104;stroke-linecap:round;stroke-linejoin:round;stroke-miterlimit:10;stroke-dasharray:none;stroke-dashoffset:0;stroke-opacity:1;color-rendering:auto;image-rendering:auto;shape-rendering:auto;text-rendering:auto;enable-background:accumulate" id="use14422" d="m 856.08431,-222.2241 -2.6985,-2.2419 -2.95371,1.8932 1.29829,-3.2593 -2.71321,-2.2241 3.50094,0.2279 1.27679,-3.2677 0.86536,3.3999 3.50248,0.2026 -2.96611,1.8737 z"/>
        <path style="color:#000000;clip-rule:nonzero;display:inline;overflow:visible;visibility:visible;isolation:auto;mix-blend-mode:normal;color-interpolation:sRGB;color-interpolation-filters:linearRGB;solid-color:#000000;solid-opacity:1;vector-effect:none;fill:#ecbf76;fill-opacity:1;fill-rule:nonzero;stroke:none;stroke-width:0.699216;stroke-linecap:round;stroke-linejoin:round;stroke-miterlimit:10;stroke-dasharray:none;stroke-dashoffset:0;stroke-opacity:1;color-rendering:auto;image-rendering:auto;shape-rendering:auto;text-rendering:auto;enable-background:accumulate" id="use14424" d="m 792.95885,-278.5592 -4.00135,-1.2753 -2.42691,3.4276 -0.0237,-4.1997 -4.00967,-1.2489 3.98696,-1.3199 -0.0513,-4.1994 2.48759,3.3837 3.97731,-1.3486 -2.44942,3.4114 z"/>
        <path style="color:#000000;clip-rule:nonzero;display:inline;overflow:visible;visibility:visible;isolation:auto;mix-blend-mode:normal;color-interpolation:sRGB;color-interpolation-filters:linearRGB;solid-color:#000000;solid-opacity:1;vector-effect:none;fill:#ecbf76;fill-opacity:1;fill-rule:nonzero;stroke:none;stroke-width:0.670734;stroke-linecap:round;stroke-linejoin:round;stroke-miterlimit:10;stroke-dasharray:none;stroke-dashoffset:0;stroke-opacity:1;color-rendering:auto;image-rendering:auto;shape-rendering:auto;text-rendering:auto;enable-background:accumulate" id="use14426" d="m 771.70714,-54.9456 -2.99983,-2.689 -3.47105,2.045 1.63037,-3.684 -3.01749,-2.6692 4.00751,0.4125 1.60606,-3.6946 0.84637,3.9387 4.01036,0.3836 -3.48444,2.0221 z"/>
        <path style="color:#000000;clip-rule:nonzero;display:inline;overflow:visible;visibility:visible;isolation:auto;mix-blend-mode:normal;color-interpolation:sRGB;color-interpolation-filters:linearRGB;solid-color:#000000;solid-opacity:1;vector-effect:none;fill:#ecbf76;fill-opacity:1;fill-rule:nonzero;stroke:none;stroke-width:0.588203;stroke-linecap:round;stroke-linejoin:round;stroke-miterlimit:10;stroke-dasharray:none;stroke-dashoffset:0;stroke-opacity:1;color-rendering:auto;image-rendering:auto;shape-rendering:auto;text-rendering:auto;enable-background:accumulate" id="use14428" d="m 784.63101,-80.7607 -2.67716,-2.3052 -3.00763,1.8536 1.36514,-3.2586 -2.69229,-2.2876 3.52091,0.2918 1.34364,-3.2675 0.81086,3.4386 3.52291,0.2663 -3.01977,1.8338 z"/>
        <path style="color:#000000;clip-rule:nonzero;display:inline;overflow:visible;visibility:visible;isolation:auto;mix-blend-mode:normal;color-interpolation:sRGB;color-interpolation-filters:linearRGB;solid-color:#000000;solid-opacity:1;vector-effect:none;fill:#ecbf76;fill-opacity:1;fill-rule:nonzero;stroke:none;stroke-width:0.800384;stroke-linecap:round;stroke-linejoin:round;stroke-miterlimit:10;stroke-dasharray:none;stroke-dashoffset:0;stroke-opacity:1;color-rendering:auto;image-rendering:auto;shape-rendering:auto;text-rendering:auto;enable-background:accumulate" id="use14430" d="m 762.10401,-215.3022 -3.56114,-3.2293 -4.15597,2.4164 1.9708,-4.3849 -3.58235,-3.2057 4.77922,0.5198 1.94188,-4.3978 0.98287,4.7058 4.78283,0.4853 -4.17179,2.389 z"/>
        <path style="color:#000000;clip-rule:nonzero;display:inline;overflow:visible;visibility:visible;isolation:auto;mix-blend-mode:normal;color-interpolation:sRGB;color-interpolation-filters:linearRGB;solid-color:#000000;solid-opacity:1;vector-effect:none;fill:#ecbf76;fill-opacity:1;fill-rule:nonzero;stroke:none;stroke-width:0.662489;stroke-linecap:round;stroke-linejoin:round;stroke-miterlimit:10;stroke-dasharray:none;stroke-dashoffset:0;stroke-opacity:1;color-rendering:auto;image-rendering:auto;shape-rendering:auto;text-rendering:auto;enable-background:accumulate" id="use14432" d="m 779.01847,-225.0525 -3.81537,-1.1296 -2.23174,3.2944 -0.10474,-3.9778 -3.82273,-1.1044 3.75086,-1.3285 -0.13094,-3.977 2.42275,3.1566 3.74116,-1.3555 -2.25338,3.2796 z"/>
        <path id="path14612" style="fill:#000000;fill-opacity:0.13;stroke:none;stroke-width:4.33895;stroke-linecap:round;stroke-linejoin:bevel;stroke-miterlimit:4;stroke-dasharray:none" d="m 837.53754,-215.5096 -111.45589,111.4559 a 169.62718,169.62718 0 0 0 90.35324,90.3554 l 111.45697,-111.457 z"/>
        <g id="use14664" transform="matrix(1.2875694,0,0,1.2875694,-978.09504,210.0263)">
          <circle style="fill:#f48665;fill-opacity:1;stroke:none;stroke-width:1.48426;stroke-linecap:round;stroke-linejoin:round;stroke-miterlimit:4;stroke-dasharray:none;stroke-opacity:1" id="circle14666" cx="1464.4287" cy="174.41022" r="49.61396" transform="rotate(-18.336046)"/>
          <path id="path14668" style="fill:#d4805c;fill-opacity:1;stroke:none;stroke-width:0.264583px;stroke-linecap:butt;stroke-linejoin:miter;stroke-opacity:1" d="m 1408.3547,-280.60541 c -1.9227,0.63299 -3.6888,1.28384 -5.2649,1.95339 -1.1443,0.48606 -2.6047,1.12088 -4.2499,1.84236 0,0.005 0,0.008 0,0.0133 0.1508,0.37867 0.3062,0.75536 0.4661,1.12977 a 49.61396,49.61396 0 0 0 0.016,0.0491 c 0.1623,0.3784 0.328,0.75464 0.4993,1.12859 a 49.61396,49.61396 0 0 0 0,0.004 c 0,0.006 0,0.0138 0.01,0.0206 0.1709,0.37236 0.3453,0.74304 0.5254,1.11068 a 49.61396,49.61396 0 0 0 0.025,0.0435 c 0.1766,0.36137 0.3585,0.72009 0.544,1.07673 a 49.61396,49.61396 0 0 0 0.028,0.0518 c 0.1842,0.35235 0.3721,0.7027 0.5643,1.05043 a 49.61396,49.61396 0 0 0 0.041,0.0747 c 0.1942,0.35081 0.3935,0.6989 0.5966,1.0446 0,0.006 0,0.0122 0.01,0.0181 0.2084,0.35539 0.4221,0.7077 0.6396,1.05759 0,0.009 0.01,0.019 0.019,0.0252 0.2191,0.35274 0.4433,0.70224 0.6716,1.04917 0.2305,0.35014 0.4654,0.69775 0.7046,1.04201 6e-4,8.5e-4 0,0.002 0,0.003 0.2373,0.34124 0.4788,0.67946 0.7245,1.01476 0,0.011 0.017,0.0188 0.021,0.0294 0.2418,0.32938 0.4878,0.65591 0.7377,0.97933 0,0.01 0.016,0.0155 0.019,0.0248 0.2531,0.32694 0.5103,0.65067 0.7716,0.97133 0,0.002 0,0.004 0,0.006 0.2601,0.31927 0.5241,0.63581 0.7924,0.9487 0.014,0.0108 0.021,0.024 0.031,0.036 0.2688,0.31296 0.5415,0.62224 0.8184,0.92864 7e-4,8e-4 0,0.002 0,0.003 0.2766,0.30618 0.5572,0.60891 0.8417,0.9084 0.014,0.009 0.019,0.0204 0.029,0.0306 a 49.61396,49.61396 0 0 0 0.015,0.014 c 0.277,0.29089 0.558,0.57854 0.8424,0.86295 a 49.61396,49.61396 0 0 0 0.013,0.008 c 9e-4,0.003 0,0.007 0,0.009 a 49.61396,49.61396 0 0 0 5e-4,-1.6e-4 c 1.503,-0.24588 2.9824,-0.45049 4.4167,-0.59327 18.6987,-1.86093 28.8596,-5.54707 41.9929,-7.12839 7.5545,-0.90963 22.1548,-0.21973 24.1527,-0.39056 5.9476,-3.39173 9.4807,-6.96586 11.528,-11.14609 a 49.61396,49.61396 0 0 0 2.5909,-16.4134 c 0,-0.0231 2e-4,-0.0438 -7e-4,-0.0656 a 49.61396,49.61396 0 0 0 -0.01,-0.32712 c -5.8864,1.23086 -13.7932,-2.49898 -17.7084,-0.63897 -25.6889,12.20376 -49.8979,10.02857 -68.4856,16.14423 z"/>
          <path id="path14670" style="fill:#f4e0db;fill-opacity:1;stroke:none;stroke-width:1.48426;stroke-linecap:round;stroke-linejoin:round;stroke-miterlimit:4;stroke-dasharray:none;stroke-opacity:1" d="m 1450.8213,-262.00067 c -10.6113,2.86389 -15.8631,6.42666 -24.8987,12.68453 11.0151,4.57239 23.3085,5.02402 34.6293,1.27216 11.321,-3.75204 20.9116,-11.45659 27.0155,-21.70282 -10.9846,0.37727 -21.433,3.61326 -36.7461,7.74613 z"/>
          <path id="path14672" style="fill:#f4e0db;fill-opacity:1;stroke:none;stroke-width:1.48426;stroke-linecap:round;stroke-linejoin:round;stroke-miterlimit:4;stroke-dasharray:none;stroke-opacity:1" d="m 1429.3358,-342.23401 c -10.2652,3.40213 -19.1375,10.06501 -25.2669,18.97452 10.0986,-0.57641 22.0925,-6.47657 32.1154,-11.02718 9.2104,-4.18172 16.3058,-2.24992 24.7499,-7.81891 -10.2373,-3.48545 -21.3331,-3.53053 -31.5984,-0.12843 z"/>
          <path style="fill:#c37d5e;fill-opacity:1;stroke:none;stroke-width:0.264583px;stroke-linecap:butt;stroke-linejoin:miter;stroke-opacity:1" d="m 1423.754,-318.24875 c -6.955,7.43595 -6.1305,18.77331 -6.1305,18.77331 0,0 8.0576,1.25314 8.7906,-5.15589 0.733,-6.40901 2.5904,-15.42711 3.9118,-16.17523 1.3213,-0.74812 -6.5719,2.55781 -6.5719,2.55781 z" id="path14674"/>
          <path style="fill:#c37d5e;fill-opacity:1;stroke:none;stroke-width:0.264583px;stroke-linecap:butt;stroke-linejoin:miter;stroke-opacity:1" d="m 1447.9664,-323.88437 0.7175,7.12859 c 0,0 2.3495,-2.00785 2.9416,-4.24417 0.5919,-2.2363 -3.3413,-4.48077 -3.3413,-4.48077 z" id="path14676"/>
          <path style="fill:#c37d5e;fill-opacity:1;stroke:none;stroke-width:0.264583px;stroke-linecap:butt;stroke-linejoin:miter;stroke-opacity:1" d="m 1456.1272,-325.35468 c -0.6014,2.35856 -0.3702,3.20707 1.3039,2.79161 1.674,-0.41542 2.8896,-3.14981 1.5102,-3.84242 -1.3793,-0.69265 -2.4654,-0.31697 -2.8141,1.05081 z" id="path14678"/>
          <circle style="color:#000000;clip-rule:nonzero;display:inline;overflow:visible;visibility:visible;isolation:auto;mix-blend-mode:normal;color-interpolation:sRGB;color-interpolation-filters:linearRGB;solid-color:#000000;solid-opacity:1;vector-effect:none;fill:#1a1a1a;fill-opacity:1;fill-rule:nonzero;stroke:none;stroke-width:0.5;stroke-linecap:round;stroke-linejoin:round;stroke-miterlimit:10;stroke-dasharray:none;stroke-dashoffset:0;stroke-opacity:1;color-rendering:auto;image-rendering:auto;shape-rendering:auto;text-rendering:auto;enable-background:accumulate" id="circle14680" cx="1489.7708" cy="196.92693" r="4.406167" transform="rotate(-19.811046)"/>
          <circle r="4.406167" cy="196.92693" cx="1461.4131" id="circle14682" style="color:#000000;clip-rule:nonzero;display:inline;overflow:visible;visibility:visible;isolation:auto;mix-blend-mode:normal;color-interpolation:sRGB;color-interpolation-filters:linearRGB;solid-color:#000000;solid-opacity:1;vector-effect:none;fill:#1a1a1a;fill-opacity:1;fill-rule:nonzero;stroke:none;stroke-width:0.5;stroke-linecap:round;stroke-linejoin:round;stroke-miterlimit:10;stroke-dasharray:none;stroke-dashoffset:0;stroke-opacity:1;color-rendering:auto;image-rendering:auto;shape-rendering:auto;text-rendering:auto;enable-background:accumulate" transform="rotate(-19.811046)"/>
          <path style="color:#000000;clip-rule:nonzero;display:inline;overflow:visible;visibility:visible;isolation:auto;mix-blend-mode:normal;color-interpolation:sRGB;color-interpolation-filters:linearRGB;solid-color:#000000;solid-opacity:1;vector-effect:none;fill:#1a1a1a;fill-opacity:1;fill-rule:nonzero;stroke:none;stroke-width:0.5;stroke-linecap:round;stroke-linejoin:round;stroke-miterlimit:10;stroke-dasharray:none;stroke-dashoffset:0;stroke-opacity:1;color-rendering:auto;image-rendering:auto;shape-rendering:auto;text-rendering:auto;enable-background:accumulate" d="m 1470.6574,-304.32235 c -1.3479,3.78475 -5.0213,6.16996 -8.8918,7.56427 -3.8555,1.38886 -8.6306,2.09606 -12.1842,-0.0801 -0.5807,-0.35563 -0.8119,-0.2357 -0.8073,0.36186 1.2783,5.57055 8.754,6.0127 14.3328,4.04377 5.5789,-1.96893 11.3891,-8.22889 8.3983,-12.24114 -0.4139,-0.55532 -0.6564,-0.18634 -0.8478,0.35135 z" id="path14684"/>
        </g>
      </g>
    </g>
  </g>
</svg>