<svg xmlns:dc="http://purl.org/dc/elements/1.1/" xmlns:cc="http://creativecommons.org/ns#" xmlns:rdf="http://www.w3.org/1999/02/22-rdf-syntax-ns#" xmlns:svg="http://www.w3.org/2000/svg" xmlns="http://www.w3.org/2000/svg" xmlns:xlink="http://www.w3.org/1999/xlink" version="1.1" id="svg5553" viewBox="394.2 162.96 85.75 85.75">
  <defs id="defs5547">
    <radialGradient xlink:href="#linearGradient1459" id="radialGradient14804" gradientUnits="userSpaceOnUse" gradientTransform="matrix(1.028146,0,4.1358409e-7,2.1457152,8.7353782,813.93388)" cx="-258.58798" cy="-310.02478" fx="-258.58798" fy="-310.02478" r="51.92955"/>
    <linearGradient id="linearGradient1459">
      <stop style="stop-color:#666666;stop-opacity:0" offset="0" id="stop1455"/>
      <stop style="stop-color:#343434;stop-opacity:0.29426658" offset="1" id="stop1457"/>
    </linearGradient>
    <radialGradient xlink:href="#linearGradient1459" id="radialGradient15142" gradientUnits="userSpaceOnUse" gradientTransform="matrix(0.85010946,0,3.4196675e-7,1.7741573,3162.5201,291.2866)" cx="-258.58798" cy="-310.02478" fx="-258.58798" fy="-310.02478" r="51.92955"/>
  </defs>
  <metadata id="metadata5550">
    <rdf:RDF>
      <cc:Work rdf:about="">
        <dc:format>image/svg+xml</dc:format>
        <dc:type rdf:resource="http://purl.org/dc/dcmitype/StillImage"/>
        <dc:title/>
      </cc:Work>
    </rdf:RDF>
  </metadata>
  <g id="layer1">
    <g id="g18121" transform="matrix(0.25275158,0,0,0.25275158,214.05219,122.87938)">
      
      <g id="g18443">
        <circle style="fill:#44155d;fill-opacity:1;stroke:none;stroke-width:2.64583;stroke-linecap:round;stroke-linejoin:bevel;stroke-miterlimit:4;stroke-dasharray:none" id="circle14258" cx="882.37067" cy="328.20929" r="169.62718"/>
        <path style="color:#000000;clip-rule:nonzero;display:inline;overflow:visible;visibility:visible;isolation:auto;mix-blend-mode:normal;color-interpolation:sRGB;color-interpolation-filters:linearRGB;solid-color:#000000;solid-opacity:1;vector-effect:none;fill:#ecbf76;fill-opacity:1;fill-rule:nonzero;stroke:none;stroke-width:0.903078;stroke-linecap:round;stroke-linejoin:round;stroke-miterlimit:10;stroke-dasharray:none;stroke-dashoffset:0;stroke-opacity:1;color-rendering:auto;image-rendering:auto;shape-rendering:auto;text-rendering:auto;enable-background:accumulate" id="use14480" d="m 818.8718,274.2127 -5.26877,-1.2888 -2.8235,4.6314 -0.4025,-5.4092 -5.27715,-1.2541 5.02035,-2.0538 -0.43811,-5.4065 3.50503,4.1396 5.00537,-2.09 -2.85392,4.6127 z"/>
        <path style="color:#000000;clip-rule:nonzero;display:inline;overflow:visible;visibility:visible;isolation:auto;mix-blend-mode:normal;color-interpolation:sRGB;color-interpolation-filters:linearRGB;solid-color:#000000;solid-opacity:1;vector-effect:none;fill:#ecbf76;fill-opacity:1;fill-rule:nonzero;stroke:none;stroke-width:0.750618;stroke-linecap:round;stroke-linejoin:round;stroke-miterlimit:10;stroke-dasharray:none;stroke-dashoffset:0;stroke-opacity:1;color-rendering:auto;image-rendering:auto;shape-rendering:auto;text-rendering:auto;enable-background:accumulate" id="use14482" d="m 768.84953,402.0169 -4.18178,-1.6848 -2.87178,3.4755 0.31001,-4.4978 -4.19278,-1.6571 4.37359,-1.0947 0.28039,-4.4997 2.39287,3.821 4.36556,-1.1261 -2.8946,3.4565 z"/>
        <path style="color:#000000;clip-rule:nonzero;display:inline;overflow:visible;visibility:visible;isolation:auto;mix-blend-mode:normal;color-interpolation:sRGB;color-interpolation-filters:linearRGB;solid-color:#000000;solid-opacity:1;vector-effect:none;fill:#ecbf76;fill-opacity:1;fill-rule:nonzero;stroke:none;stroke-width:0.918531;stroke-linecap:round;stroke-linejoin:round;stroke-miterlimit:10;stroke-dasharray:none;stroke-dashoffset:0;stroke-opacity:1;color-rendering:auto;image-rendering:auto;shape-rendering:auto;text-rendering:auto;enable-background:accumulate" id="use14484" d="m 745.23637,341.1753 -5.33666,-1.3988 -2.94884,4.6628 -0.31891,-5.5078 -5.34577,-1.3635 5.1399,-2.0048 -0.35517,-5.5056 3.49532,4.2685 5.12527,-2.0419 -2.97947,4.6433 z"/>
        <path style="color:#000000;clip-rule:nonzero;display:inline;overflow:visible;visibility:visible;isolation:auto;mix-blend-mode:normal;color-interpolation:sRGB;color-interpolation-filters:linearRGB;solid-color:#000000;solid-opacity:1;vector-effect:none;fill:#ecbf76;fill-opacity:1;fill-rule:nonzero;stroke:none;stroke-width:0.935575;stroke-linecap:round;stroke-linejoin:round;stroke-miterlimit:10;stroke-dasharray:none;stroke-dashoffset:0;stroke-opacity:1;color-rendering:auto;image-rendering:auto;shape-rendering:auto;text-rendering:auto;enable-background:accumulate" id="use14486" d="m 807.08946,434.2411 -4.35099,-3.556 -4.70651,3.0702 2.03746,-5.237 -4.37434,-3.5273 5.61031,0.3199 2.00292,-5.2503 1.42983,5.4344 5.61245,0.2794 -4.72663,3.0392 z"/>
        <path style="color:#000000;clip-rule:nonzero;display:inline;overflow:visible;visibility:visible;isolation:auto;mix-blend-mode:normal;color-interpolation:sRGB;color-interpolation-filters:linearRGB;solid-color:#000000;solid-opacity:1;vector-effect:none;fill:#ecbf76;fill-opacity:1;fill-rule:nonzero;stroke:none;stroke-width:0.833134;stroke-linecap:round;stroke-linejoin:round;stroke-miterlimit:10;stroke-dasharray:none;stroke-dashoffset:0;stroke-opacity:1;color-rendering:auto;image-rendering:auto;shape-rendering:auto;text-rendering:auto;enable-background:accumulate" id="use14488" d="m 889.94816,460.3618 -4.4066,-2.3711 -3.59398,3.482 0.89328,-4.9237 -4.42213,-2.342 4.95887,-0.6715 0.86083,-4.9295 2.17134,4.5085 4.95387,-0.7073 -3.61682,3.4583 z"/>
        <path style="color:#000000;clip-rule:nonzero;display:inline;overflow:visible;visibility:visible;isolation:auto;mix-blend-mode:normal;color-interpolation:sRGB;color-interpolation-filters:linearRGB;solid-color:#000000;solid-opacity:1;vector-effect:none;fill:#ecbf76;fill-opacity:1;fill-rule:nonzero;stroke:none;stroke-width:0.796603;stroke-linecap:round;stroke-linejoin:round;stroke-miterlimit:10;stroke-dasharray:none;stroke-dashoffset:0;stroke-opacity:1;color-rendering:auto;image-rendering:auto;shape-rendering:auto;text-rendering:auto;enable-background:accumulate" id="use14490" d="m 973.45431,417.1386 -3.57243,-3.1828 -4.11504,2.4412 1.92306,-4.3812 -3.59332,-3.1591 4.76101,0.4755 1.89417,-4.3938 1.01934,4.6748 4.7643,0.4412 -4.13103,2.414 z"/>
        <path style="color:#000000;clip-rule:nonzero;display:inline;overflow:visible;visibility:visible;isolation:auto;mix-blend-mode:normal;color-interpolation:sRGB;color-interpolation-filters:linearRGB;solid-color:#000000;solid-opacity:1;vector-effect:none;fill:#ecbf76;fill-opacity:1;fill-rule:nonzero;stroke:none;stroke-width:0.793374;stroke-linecap:round;stroke-linejoin:round;stroke-miterlimit:10;stroke-dasharray:none;stroke-dashoffset:0;stroke-opacity:1;color-rendering:auto;image-rendering:auto;shape-rendering:auto;text-rendering:auto;enable-background:accumulate" id="use14492" d="m 907.86638,336.9892 -4.35751,-1.9285 -3.15734,3.5692 0.48757,-4.7403 -4.37012,-1.8998 4.65906,-1.0007 0.45634,-4.7434 2.39174,4.1216 4.6517,-1.0343 -3.18077,3.5484 z"/>
        <path style="color:#000000;clip-rule:nonzero;display:inline;overflow:visible;visibility:visible;isolation:auto;mix-blend-mode:normal;color-interpolation:sRGB;color-interpolation-filters:linearRGB;solid-color:#000000;solid-opacity:1;vector-effect:none;fill:#ecbf76;fill-opacity:1;fill-rule:nonzero;stroke:none;stroke-width:0.945663;stroke-linecap:round;stroke-linejoin:round;stroke-miterlimit:10;stroke-dasharray:none;stroke-dashoffset:0;stroke-opacity:1;color-rendering:auto;image-rendering:auto;shape-rendering:auto;text-rendering:auto;enable-background:accumulate" id="use14494" d="m 961.91673,255.9128 -2.60172,-5.0489 -5.59979,0.951 3.99794,-4.0347 -2.63493,-5.0318 5.07243,2.556 3.97128,-4.0609 -0.86293,5.614 5.09073,2.5193 -5.60595,0.9141 z"/>
        <path style="color:#000000;clip-rule:nonzero;display:inline;overflow:visible;visibility:visible;isolation:auto;mix-blend-mode:normal;color-interpolation:sRGB;color-interpolation-filters:linearRGB;solid-color:#000000;solid-opacity:1;vector-effect:none;fill:#ecbf76;fill-opacity:1;fill-rule:nonzero;stroke:none;stroke-width:0.615949;stroke-linecap:round;stroke-linejoin:round;stroke-miterlimit:10;stroke-dasharray:none;stroke-dashoffset:0;stroke-opacity:1;color-rendering:auto;image-rendering:auto;shape-rendering:auto;text-rendering:auto;enable-background:accumulate" id="use14496" d="m 877.6466,214.107 -1.94993,-3.1439 -3.5868,0.9066 2.38753,-2.8261 -1.97061,-3.1311 3.42544,1.3977 2.36886,-2.8417 -0.27046,3.6897 3.43543,1.3729 -3.5927,0.8829 z"/>
        <path style="color:#000000;clip-rule:nonzero;display:inline;overflow:visible;visibility:visible;isolation:auto;mix-blend-mode:normal;color-interpolation:sRGB;color-interpolation-filters:linearRGB;solid-color:#000000;solid-opacity:1;vector-effect:none;fill:#ecbf76;fill-opacity:1;fill-rule:nonzero;stroke:none;stroke-width:0.775561;stroke-linecap:round;stroke-linejoin:round;stroke-miterlimit:10;stroke-dasharray:none;stroke-dashoffset:0;stroke-opacity:1;color-rendering:auto;image-rendering:auto;shape-rendering:auto;text-rendering:auto;enable-background:accumulate" id="use14498" d="m 968.75843,291.3827 -3.3439,-3.243 -4.10328,2.2052 2.051,-4.1825 -3.36519,-3.221 4.61152,0.6586 2.0234,-4.1959 0.79904,4.5893 4.61614,0.6253 -4.11772,2.1781 z"/>
        <path style="color:#000000;clip-rule:nonzero;display:inline;overflow:visible;visibility:visible;isolation:auto;mix-blend-mode:normal;color-interpolation:sRGB;color-interpolation-filters:linearRGB;solid-color:#000000;solid-opacity:1;vector-effect:none;fill:#ecbf76;fill-opacity:1;fill-rule:nonzero;stroke:none;stroke-width:0.920778;stroke-linecap:round;stroke-linejoin:round;stroke-miterlimit:10;stroke-dasharray:none;stroke-dashoffset:0;stroke-opacity:1;color-rendering:auto;image-rendering:auto;shape-rendering:auto;text-rendering:auto;enable-background:accumulate" id="use14500" d="m 1009.069,266.9739 -5.05,-2.2544 -3.6777,4.1306 0.5835,-5.4997 -5.06478,-2.2211 5.41098,-1.144 0.5472,-5.5034 2.7605,4.7923 5.4025,-1.1831 -3.7047,4.1063 z"/>
        <path style="color:#000000;clip-rule:nonzero;display:inline;overflow:visible;visibility:visible;isolation:auto;mix-blend-mode:normal;color-interpolation:sRGB;color-interpolation-filters:linearRGB;solid-color:#000000;solid-opacity:1;vector-effect:none;fill:#ecbf76;fill-opacity:1;fill-rule:nonzero;stroke:none;stroke-width:0.710366;stroke-linecap:round;stroke-linejoin:round;stroke-miterlimit:10;stroke-dasharray:none;stroke-dashoffset:0;stroke-opacity:1;color-rendering:auto;image-rendering:auto;shape-rendering:auto;text-rendering:auto;enable-background:accumulate" id="use14502" d="m 1006.1605,324.4184 -4.1955,-0.7761 -2.00998,3.7635 -0.55831,-4.23 -4.20045,-0.7485 3.85066,-1.8378 -0.58615,-4.2262 2.93793,3.094 3.8373,-1.8655 -2.0347,3.7503 z"/>
        <path style="color:#000000;clip-rule:nonzero;display:inline;overflow:visible;visibility:visible;isolation:auto;mix-blend-mode:normal;color-interpolation:sRGB;color-interpolation-filters:linearRGB;solid-color:#000000;solid-opacity:1;vector-effect:none;fill:#ecbf76;fill-opacity:1;fill-rule:nonzero;stroke:none;stroke-width:0.678714;stroke-linecap:round;stroke-linejoin:round;stroke-miterlimit:10;stroke-dasharray:none;stroke-dashoffset:0;stroke-opacity:1;color-rendering:auto;image-rendering:auto;shape-rendering:auto;text-rendering:auto;enable-background:accumulate" id="use14504" d="m 999.25279,381.8687 -2.13497,-3.4727 -3.9562,0.9834 2.64307,-3.1037 -2.15781,-3.4586 3.7684,1.5549 2.62252,-3.121 -0.31399,4.0645 3.77949,1.5277 -3.96258,0.9573 z"/>
        <path style="color:#000000;clip-rule:nonzero;display:inline;overflow:visible;visibility:visible;isolation:auto;mix-blend-mode:normal;color-interpolation:sRGB;color-interpolation-filters:linearRGB;solid-color:#000000;solid-opacity:1;vector-effect:none;fill:#ecbf76;fill-opacity:1;fill-rule:nonzero;stroke:none;stroke-width:0.754603;stroke-linecap:round;stroke-linejoin:round;stroke-miterlimit:10;stroke-dasharray:none;stroke-dashoffset:0;stroke-opacity:1;color-rendering:auto;image-rendering:auto;shape-rendering:auto;text-rendering:auto;enable-background:accumulate" id="use14506" d="m 1001.1323,380.6822 -4.14041,-1.8437 -3.01075,3.3879 0.47398,-4.5076 -4.15245,-1.8163 4.43353,-0.9417 0.44428,-4.5106 2.26595,3.9253 4.42657,-0.9737 -3.03296,3.3681 z"/>
        <path style="color:#000000;clip-rule:nonzero;display:inline;overflow:visible;visibility:visible;isolation:auto;mix-blend-mode:normal;color-interpolation:sRGB;color-interpolation-filters:linearRGB;solid-color:#000000;solid-opacity:1;vector-effect:none;fill:#ecbf76;fill-opacity:1;fill-rule:nonzero;stroke:none;stroke-width:0.93141;stroke-linecap:round;stroke-linejoin:round;stroke-miterlimit:10;stroke-dasharray:none;stroke-dashoffset:0;stroke-opacity:1;color-rendering:auto;image-rendering:auto;shape-rendering:auto;text-rendering:auto;enable-background:accumulate" id="use14508" d="m 925.14789,420.2106 -3.23792,-4.562 -5.32828,1.7048 3.33818,-4.4893 -3.2679,-4.5405 5.30096,1.788 3.30854,-4.5111 -0.062,5.594 5.31372,1.7497 -5.3394,1.6697 z"/>
        <path style="color:#000000;clip-rule:nonzero;display:inline;overflow:visible;visibility:visible;isolation:auto;mix-blend-mode:normal;color-interpolation:sRGB;color-interpolation-filters:linearRGB;solid-color:#000000;solid-opacity:1;vector-effect:none;fill:#ecbf76;fill-opacity:1;fill-rule:nonzero;stroke:none;stroke-width:0.725868;stroke-linecap:round;stroke-linejoin:round;stroke-miterlimit:10;stroke-dasharray:none;stroke-dashoffset:0;stroke-opacity:1;color-rendering:auto;image-rendering:auto;shape-rendering:auto;text-rendering:auto;enable-background:accumulate" id="use14510" d="m 848.08824,456.5454 -4.18831,-1.2105 -2.42179,3.6253 -0.14303,-4.3575 -4.19619,-1.1829 4.10017,-1.4821 -0.17171,-4.3565 2.67689,3.4412 4.08935,-1.5117 -2.4456,3.6093 z"/>
        <path style="color:#000000;clip-rule:nonzero;display:inline;overflow:visible;visibility:visible;isolation:auto;mix-blend-mode:normal;color-interpolation:sRGB;color-interpolation-filters:linearRGB;solid-color:#000000;solid-opacity:1;vector-effect:none;fill:#ecbf76;fill-opacity:1;fill-rule:nonzero;stroke:none;stroke-width:0.839511;stroke-linecap:round;stroke-linejoin:round;stroke-miterlimit:10;stroke-dasharray:none;stroke-dashoffset:0;stroke-opacity:1;color-rendering:auto;image-rendering:auto;shape-rendering:auto;text-rendering:auto;enable-background:accumulate" id="use14512" d="m 839.98567,404.9339 -4.26267,-2.6934 -3.85764,3.2472 1.24437,-4.8865 -4.28032,-2.6652 5.03187,-0.3261 1.21215,-4.8945 1.8654,4.6846 5.02936,-0.3624 -3.87893,3.2218 z"/>
        <path style="color:#000000;clip-rule:nonzero;display:inline;overflow:visible;visibility:visible;isolation:auto;mix-blend-mode:normal;color-interpolation:sRGB;color-interpolation-filters:linearRGB;solid-color:#000000;solid-opacity:1;vector-effect:none;fill:#ecbf76;fill-opacity:1;fill-rule:nonzero;stroke:none;stroke-width:0.708111;stroke-linecap:round;stroke-linejoin:round;stroke-miterlimit:10;stroke-dasharray:none;stroke-dashoffset:0;stroke-opacity:1;color-rendering:auto;image-rendering:auto;shape-rendering:auto;text-rendering:auto;enable-background:accumulate" id="use14514" d="m 804.69007,357.9094 -4.0605,-1.2654 -2.43534,3.4869 -0.0514,-4.2528 -4.06874,-1.2386 4.02897,-1.3627 -0.0794,-4.2524 2.54128,3.4104 4.01901,-1.3917 -2.45824,3.4708 z"/>
        <path style="color:#000000;clip-rule:nonzero;display:inline;overflow:visible;visibility:visible;isolation:auto;mix-blend-mode:normal;color-interpolation:sRGB;color-interpolation-filters:linearRGB;solid-color:#000000;solid-opacity:1;vector-effect:none;fill:#ecbf76;fill-opacity:1;fill-rule:nonzero;stroke:none;stroke-width:0.712491;stroke-linecap:round;stroke-linejoin:round;stroke-miterlimit:10;stroke-dasharray:none;stroke-dashoffset:0;stroke-opacity:1;color-rendering:auto;image-rendering:auto;shape-rendering:auto;text-rendering:auto;enable-background:accumulate" id="use14516" d="m 784.3283,339.3343 -3.23998,-2.7957 -3.64544,2.2415 1.65763,-3.9454 -3.25834,-2.7742 4.26452,0.3577 1.63161,-3.9562 0.97793,4.1662 4.26698,0.3269 -3.66013,2.2175 z"/>
        <path style="color:#000000;clip-rule:nonzero;display:inline;overflow:visible;visibility:visible;isolation:auto;mix-blend-mode:normal;color-interpolation:sRGB;color-interpolation-filters:linearRGB;solid-color:#000000;solid-opacity:1;vector-effect:none;fill:#ecbf76;fill-opacity:1;fill-rule:nonzero;stroke:none;stroke-width:0.745198;stroke-linecap:round;stroke-linejoin:round;stroke-miterlimit:10;stroke-dasharray:none;stroke-dashoffset:0;stroke-opacity:1;color-rendering:auto;image-rendering:auto;shape-rendering:auto;text-rendering:auto;enable-background:accumulate" id="use14518" d="m 785.79412,247.3465 -4.40034,-0.8186 -2.11248,3.946 -0.58126,-4.438 -4.40564,-0.7896 4.04139,-1.9239 -0.61047,-4.4341 3.07879,3.2488 4.02738,-1.953 -2.13841,3.9321 z"/>
        <path style="color:#000000;clip-rule:nonzero;display:inline;overflow:visible;visibility:visible;isolation:auto;mix-blend-mode:normal;color-interpolation:sRGB;color-interpolation-filters:linearRGB;solid-color:#000000;solid-opacity:1;vector-effect:none;fill:#ecbf76;fill-opacity:1;fill-rule:nonzero;stroke:none;stroke-width:0.800438;stroke-linecap:round;stroke-linejoin:round;stroke-miterlimit:10;stroke-dasharray:none;stroke-dashoffset:0;stroke-opacity:1;color-rendering:auto;image-rendering:auto;shape-rendering:auto;text-rendering:auto;enable-background:accumulate" id="use14520" d="m 909.96001,192.9596 -3.64204,-3.1383 -4.09371,2.521 1.85923,-4.4336 -3.66265,-3.1142 4.79118,0.3986 1.82999,-4.4459 1.10182,4.6798 4.79392,0.364 -4.11022,2.494 z"/>
        <path style="color:#000000;clip-rule:nonzero;display:inline;overflow:visible;visibility:visible;isolation:auto;mix-blend-mode:normal;color-interpolation:sRGB;color-interpolation-filters:linearRGB;solid-color:#000000;solid-opacity:1;vector-effect:none;fill:#ecbf76;fill-opacity:1;fill-rule:nonzero;stroke:none;stroke-width:0.924101;stroke-linecap:round;stroke-linejoin:round;stroke-miterlimit:10;stroke-dasharray:none;stroke-dashoffset:0;stroke-opacity:1;color-rendering:auto;image-rendering:auto;shape-rendering:auto;text-rendering:auto;enable-background:accumulate" id="use14522" d="m 830.63237,225.9745 -4.48814,-3.2654 -4.4711,3.2889 1.71873,-5.2777 -4.50956,-3.2358 h 5.5505 l 1.68393,-5.2889 1.71158,5.28 5.55037,-0.036 -4.49267,3.2594 z"/>
        <path id="path14606" style="fill:#000000;fill-opacity:0.13;stroke:none;stroke-width:4.47405;stroke-linecap:round;stroke-linejoin:bevel;stroke-miterlimit:4;stroke-dasharray:none" d="M 833.29742,281.2106 724.4294,390.0786 a 169.62718,169.62718 0 0 0 96.05475,96.0649 L 929.35722,377.2704 Z"/>
        <g id="use14656" transform="matrix(1.3524181,0,0,1.3524181,-3978.3545,857.0446)">
          <path style="color:#000000;font-style:normal;font-variant:normal;font-weight:normal;font-stretch:normal;font-size:medium;line-height:normal;font-family:sans-serif;font-variant-ligatures:normal;font-variant-position:normal;font-variant-caps:normal;font-variant-numeric:normal;font-variant-alternates:normal;font-variant-east-asian:normal;font-feature-settings:normal;font-variation-settings:normal;text-indent:0;text-align:start;text-decoration:none;text-decoration-line:none;text-decoration-style:solid;text-decoration-color:#000000;letter-spacing:normal;word-spacing:normal;text-transform:none;writing-mode:lr-tb;direction:ltr;text-orientation:mixed;dominant-baseline:auto;baseline-shift:baseline;text-anchor:start;white-space:normal;shape-padding:0;shape-margin:0;inline-size:0;clip-rule:nonzero;display:inline;overflow:visible;visibility:visible;opacity:1;isolation:auto;mix-blend-mode:normal;color-interpolation:sRGB;color-interpolation-filters:linearRGB;solid-color:#000000;solid-opacity:1;vector-effect:none;fill:#7894c2;fill-opacity:1;fill-rule:nonzero;stroke:none;stroke-width:0.259915;stroke-linecap:butt;stroke-linejoin:miter;stroke-miterlimit:4;stroke-dasharray:none;stroke-dashoffset:0;stroke-opacity:1;color-rendering:auto;image-rendering:auto;shape-rendering:auto;text-rendering:auto;enable-background:accumulate;stop-color:#000000;stop-opacity:1" d="m 3452.9526,-1221.4863 c 0,27.7489 -22.4949,50.2439 -50.2439,50.2439 -27.7489,0 -50.2439,-22.495 -50.2439,-50.2439 0,-27.749 22.495,-50.2439 50.2439,-50.2439 27.749,0 50.2439,22.4949 50.2439,50.2439 z" id="circle15100" transform="rotate(13.537631)"/>
          <path style="color:#000000;font-style:normal;font-variant:normal;font-weight:normal;font-stretch:normal;font-size:medium;line-height:normal;font-family:sans-serif;font-variant-ligatures:normal;font-variant-position:normal;font-variant-caps:normal;font-variant-numeric:normal;font-variant-alternates:normal;font-variant-east-asian:normal;font-feature-settings:normal;font-variation-settings:normal;text-indent:0;text-align:start;text-decoration:none;text-decoration-line:none;text-decoration-style:solid;text-decoration-color:#000000;letter-spacing:normal;word-spacing:normal;text-transform:none;writing-mode:lr-tb;direction:ltr;text-orientation:mixed;dominant-baseline:auto;baseline-shift:baseline;text-anchor:start;white-space:normal;shape-padding:0;shape-margin:0;inline-size:0;clip-rule:nonzero;display:inline;overflow:visible;visibility:visible;opacity:1;isolation:auto;mix-blend-mode:normal;color-interpolation:sRGB;color-interpolation-filters:linearRGB;solid-color:#000000;solid-opacity:1;vector-effect:none;fill:#708ab6;fill-opacity:1;fill-rule:nonzero;stroke:none;stroke-width:0.932167;stroke-linecap:butt;stroke-linejoin:miter;stroke-miterlimit:4;stroke-dasharray:none;stroke-dashoffset:0;stroke-opacity:1;color-rendering:auto;image-rendering:auto;shape-rendering:auto;text-rendering:auto;enable-background:accumulate;stop-color:#000000;stop-opacity:1" d="m 3631.7185,-362.59569 c -1.1922,-0.32232 -2.6804,-0.28815 -4.3861,0.3015 -11.0721,3.82817 -16.767,3.01969 -28.3383,1.19081 -11.5717,-1.82914 -16.8516,-6.50078 -25.4277,-10.09607 -5.3876,-2.25865 -10.7922,2.23809 -6.708,6.41528 10.6444,10.88679 15.3524,12.33856 30.3912,14.71579 12.6533,2.00002 19.3017,1.85562 29.1229,-2.45298 2.9404,-2.4642 5.5888,-5.25706 7.8936,-8.32398 -0.5284,-0.79608 -1.3986,-1.43965 -2.5476,-1.75035 z" id="path15102"/>
          <path style="color:#000000;font-style:normal;font-variant:normal;font-weight:normal;font-stretch:normal;font-size:medium;line-height:normal;font-family:sans-serif;font-variant-ligatures:normal;font-variant-position:normal;font-variant-caps:normal;font-variant-numeric:normal;font-variant-alternates:normal;font-variant-east-asian:normal;font-feature-settings:normal;font-variation-settings:normal;text-indent:0;text-align:start;text-decoration:none;text-decoration-line:none;text-decoration-style:solid;text-decoration-color:#000000;letter-spacing:normal;word-spacing:normal;text-transform:none;writing-mode:lr-tb;direction:ltr;text-orientation:mixed;dominant-baseline:auto;baseline-shift:baseline;text-anchor:start;white-space:normal;shape-padding:0;shape-margin:0;inline-size:0;clip-rule:nonzero;display:inline;overflow:visible;visibility:visible;opacity:1;isolation:auto;mix-blend-mode:normal;color-interpolation:sRGB;color-interpolation-filters:linearRGB;solid-color:#000000;solid-opacity:1;vector-effect:none;fill:#758fbb;fill-opacity:1;fill-rule:nonzero;stroke:none;stroke-width:0.932167;stroke-linecap:butt;stroke-linejoin:miter;stroke-miterlimit:4;stroke-dasharray:none;stroke-dashoffset:0;stroke-opacity:1;color-rendering:auto;image-rendering:auto;shape-rendering:auto;text-rendering:auto;enable-background:accumulate;stop-color:#000000;stop-opacity:1" d="m 3605.7365,-439.90722 c -0.1111,-0.0265 -0.2223,-0.0526 -0.3336,-0.0783 -12.9578,-2.99186 -26.5732,-0.72451 -37.8622,6.30513 12.2248,10.54389 23.3787,16.00234 32.4495,18.18634 13.2441,3.18884 26.8071,4.86539 40.4289,4.99774 5e-4,-0.002 7e-4,-0.003 0,-0.005 -0.1927,-0.4584 -0.3922,-0.91287 -0.5977,-1.36375 -0.2038,-0.44775 -0.4142,-0.89169 -0.6307,-1.3319 0,0 -0.01,-0.0149 -0.01,-0.0149 0,-0.005 -0.01,-0.0121 -0.01,-0.0176 -0.2105,-0.42719 -0.4266,-0.85094 -0.6483,-1.27071 0,0 -0.01,-0.0121 -0.01,-0.0121 0,0 -0.033,-0.0627 -0.033,-0.0627 -0.2177,-0.41031 -0.4407,-0.81682 -0.6689,-1.21987 0,0 -0.034,-0.0615 -0.034,-0.0615 0,0 -0.01,-0.008 -0.01,-0.008 -0.2286,-0.40242 -0.4633,-0.80097 -0.7027,-1.19609 -0.018,-0.0295 -0.036,-0.0589 -0.054,-0.0884 -0.2407,-0.3958 -0.4871,-0.78778 -0.7382,-1.17595 0,0 -0.04,-0.0617 -0.04,-0.0617 -0.2517,-0.38784 -0.5089,-0.77188 -0.7706,-1.15187 -0.021,-0.03 -0.041,-0.0599 -0.062,-0.0898 -0.2554,-0.36899 -0.5154,-0.73427 -0.7802,-1.09572 0,0 -0.014,-0.0193 -0.014,-0.0193 -0.022,-0.0298 -0.044,-0.0595 -0.066,-0.0892 -0.2644,-0.35881 -0.5333,-0.7137 -0.8069,-1.06491 0,0 -0.052,-0.0679 -0.052,-0.0679 0,0 -0.013,-0.0176 -0.013,-0.0176 -0.284,-0.36309 -0.5729,-0.72188 -0.8665,-1.07662 0,0 -0.037,-0.0444 -0.037,-0.0444 -0.299,-0.36068 -0.6034,-0.71722 -0.9123,-1.06904 0,0 -0.048,-0.0548 -0.048,-0.0548 -0.3067,-0.34838 -0.6176,-0.69218 -0.9337,-1.03168 0,0 -0.04,-0.0432 -0.04,-0.0432 -0.3252,-0.3484 -0.6546,-0.69243 -0.9892,-1.03119 2e-4,-9.5e-4 4e-4,-0.002 7e-4,-0.003 -0.3396,-0.34382 -0.6843,-0.68263 -1.0336,-1.01641 0,0 4e-4,-0.002 4e-4,-0.002 -6e-4,-6.7e-4 3e-4,-9.7e-4 5e-4,-0.002 -0.3509,-0.33514 -0.7064,-0.6651 -1.0666,-0.98979 -0.3612,-0.32543 -0.7269,-0.6457 -1.0971,-0.96045 -0.3644,-0.30973 -0.7328,-0.61395 -1.1058,-0.91313 0,0 -0.018,-0.0149 -0.018,-0.0149 -0.01,-0.005 -0.012,-0.009 -0.019,-0.0149 -0.3678,-0.29436 -0.7395,-0.58364 -1.1153,-0.86755 0,0 -0.017,-0.0134 -0.017,-0.0134 -0.01,-0.005 -0.011,-0.008 -0.016,-0.012 -0.3803,-0.28681 -0.7643,-0.56819 -1.1529,-0.84423 0,0 -0.01,-0.006 -0.01,-0.006 3e-4,-9.7e-4 -0.01,-0.004 -0.01,-0.006 -0.3867,-0.27458 -0.7781,-0.54329 -1.1727,-0.80696 0,0 -0.048,-0.0323 -0.048,-0.0323 -0.3964,-0.2642 -0.7964,-0.5229 -1.2003,-0.77591 -0.4064,-0.25442 -0.8162,-0.50288 -1.2301,-0.74583 0,0 -0.02,-0.012 -0.02,-0.012 2e-4,-9.7e-4 -0.01,-0.005 -0.013,-0.007 -0.4125,-0.24183 -0.8293,-0.47771 -1.249,-0.70789 0,0 -0.013,-0.007 -0.013,-0.007 2e-4,-9.7e-4 -0.01,-0.004 -0.01,-0.005 -0.4151,-0.22726 -0.8337,-0.44851 -1.2555,-0.66423 0,0 -0.064,-0.0325 -0.064,-0.0325 -0.4099,-0.20888 -0.823,-0.41249 -1.2393,-0.61038 0,0 -0.013,-0.006 -0.013,-0.006 0,0 -0.067,-0.0314 -0.067,-0.0314 -0.4239,-0.20058 -0.8516,-0.39549 -1.2818,-0.5845 0,0 -0.021,-0.0102 -0.021,-0.0102 2e-4,-7.5e-4 -0.01,-0.003 -0.012,-0.005 0,0 2e-4,-9.7e-4 2e-4,-9.7e-4 -0.4322,-0.18945 -0.8679,-0.37294 -1.3062,-0.55051 0,0 -0.061,-0.0249 -0.061,-0.0249 -0.4416,-0.17812 -0.886,-0.35021 -1.3334,-0.51611 0,0 -0.036,-0.0128 -0.036,-0.0128 -0.4465,-0.16521 -0.8961,-0.32438 -1.3484,-0.4772 0,0 -0.062,-0.0211 -0.062,-0.0211 -0.4577,-0.15401 -0.9181,-0.302 -1.3817,-0.44321 1e-4,-8e-5 0,8e-5 0,0 -0.4731,-0.14405 -0.9493,-0.28143 -1.428,-0.41183 -0.48,-0.13078 -0.9629,-0.25466 -1.4482,-0.37152 -0.042,-0.0101 -0.083,-0.0201 -0.1245,-0.03 z" id="path15104"/>
          <path style="fill:#708ab6;fill-opacity:1;stroke:none;stroke-width:0.264583px;stroke-linecap:butt;stroke-linejoin:miter;stroke-opacity:1" d="m 3600.2013,-389.18077 c 12.945,3.74834 21.9659,1.40469 10.691,-5.10474 -17.3184,-9.99867 -28.1068,-5.92579 -25.5626,-3.2714 3.3034,3.44665 10.5808,7.13369 14.8716,8.37614 z" id="path15106"/>
          <path style="fill:#b7c4e3;fill-opacity:1;stroke:none;stroke-width:0.264583px;stroke-linecap:butt;stroke-linejoin:miter;stroke-opacity:1" d="m 3587.7353,-402.02049 c 0.4542,3.24098 4.1768,7.08651 4.1768,7.08651 0,0 -6.352,-1.93247 -7.4269,-2.1913 -1.075,-0.25883 -1.0272,1.77828 2.8015,3.30028 3.9483,1.56957 12.3439,5.09792 11.5302,3.82065 -0.8141,-1.27724 -7.5498,-3.54956 -7.5498,-3.54956 0,0 4.606,0.26425 3.4862,-0.89788 -0.2926,-0.3037 -3.6335,-1.88594 -4.4086,-4.31776 -0.7752,-2.43182 -3.0825,-6.62501 -2.6094,-3.25094 z" id="path15108"/>
          <path style="fill:#b7c4e3;fill-opacity:1;stroke:none;stroke-width:0.264583px;stroke-linecap:butt;stroke-linejoin:miter;stroke-opacity:1" d="m 3625.1873,-384.06925 -0.9532,-0.32794 c 0,0 2.5403,0.61243 4.1294,0.76133 1.5923,0.14919 4.7256,0.75341 4.7256,0.75341 l -6.3844,-0.69345 c 0,0 -4.1059,-0.79673 -5.0096,-0.95166 -0.9036,-0.15491 -4.1564,-1.26969 -4.5808,-1.39869 0.8775,0.0487 4.3966,1.30334 8.073,1.85705 z" id="path15110"/>
          <path style="fill:#b7c4e3;fill-opacity:1;stroke:none;stroke-width:0.264583px;stroke-linecap:butt;stroke-linejoin:miter;stroke-opacity:1" d="m 3602.1174,-374.3318 c 0.9501,0.0786 9.0584,4.20203 13.6928,4.34407 4.5939,0.14079 10.1212,-0.96018 11.0082,-0.58502 1.5342,0.64884 -9.2434,2.77843 -15.8654,0.60539 -6.6219,-2.17299 -8.9791,-3.73764 -8.8356,-4.36444 z" id="path15112"/>
          <path id="path15114" style="fill:#b7c4e3;fill-opacity:1;stroke:none;stroke-width:0.264583px;stroke-linecap:butt;stroke-linejoin:miter;stroke-opacity:1" d="m 3548.3368,-411.7721 a 50.243901,50.243901 0 0 0 -0.5148,1.1767 c 5.3448,5.00881 16.418,13.24202 17.2754,13.09878 1.062,-0.17737 -12.6819,-9.67868 -14.7138,-11.97652 -0.6365,-0.71988 -1.3451,-1.51236 -2.0468,-2.29896 z"/>
          <g id="g15122" transform="translate(5.4227151,-2.4287276)">
            <circle style="color:#000000;clip-rule:nonzero;display:inline;overflow:visible;visibility:visible;isolation:auto;mix-blend-mode:normal;color-interpolation:sRGB;color-interpolation-filters:linearRGB;solid-color:#000000;solid-opacity:1;vector-effect:none;fill:#1a1a1a;fill-opacity:1;fill-rule:nonzero;stroke:none;stroke-width:0.5;stroke-linecap:round;stroke-linejoin:round;stroke-miterlimit:10;stroke-dasharray:none;stroke-dashoffset:0;stroke-opacity:1;color-rendering:auto;image-rendering:auto;shape-rendering:auto;text-rendering:auto;enable-background:accumulate" id="circle15116" cx="3634.9539" cy="-313.845" r="4.406167" transform="rotate(-1.4750002)"/>
            <circle r="4.406167" cy="-313.845" cx="3606.5962" id="circle15118" style="color:#000000;clip-rule:nonzero;display:inline;overflow:visible;visibility:visible;isolation:auto;mix-blend-mode:normal;color-interpolation:sRGB;color-interpolation-filters:linearRGB;solid-color:#000000;solid-opacity:1;vector-effect:none;fill:#1a1a1a;fill-opacity:1;fill-rule:nonzero;stroke:none;stroke-width:0.5;stroke-linecap:round;stroke-linejoin:round;stroke-miterlimit:10;stroke-dasharray:none;stroke-dashoffset:0;stroke-opacity:1;color-rendering:auto;image-rendering:auto;shape-rendering:auto;text-rendering:auto;enable-background:accumulate" transform="rotate(-1.4750002)"/>
            <path style="color:#000000;clip-rule:nonzero;display:inline;overflow:visible;visibility:visible;isolation:auto;mix-blend-mode:normal;color-interpolation:sRGB;color-interpolation-filters:linearRGB;solid-color:#000000;solid-opacity:1;vector-effect:none;fill:#1a1a1a;fill-opacity:1;fill-rule:nonzero;stroke:none;stroke-width:0.5;stroke-linecap:round;stroke-linejoin:round;stroke-miterlimit:10;stroke-dasharray:none;stroke-dashoffset:0;stroke-opacity:1;color-rendering:auto;image-rendering:auto;shape-rendering:auto;text-rendering:auto;enable-background:accumulate" d="m 3623.0501,-392.0389 c -2.4701,3.16855 -6.7073,4.27706 -10.82,4.38294 -4.0966,0.10546 -8.8518,-0.72546 -11.5403,-3.90904 -0.4394,-0.52028 -0.6966,-0.47918 -0.8802,0.0895 -0.539,5.68987 6.418,8.46134 12.333,8.34742 5.915,-0.11392 13.3996,-4.22819 11.8228,-8.97762 -0.2182,-0.65734 -0.5644,-0.38336 -0.9153,0.0668 z" id="path15120"/>
          </g>
        </g>
      </g>
      
    </g>
  </g>
</svg>