<svg xmlns:dc="http://purl.org/dc/elements/1.1/" xmlns:cc="http://creativecommons.org/ns#" xmlns:rdf="http://www.w3.org/1999/02/22-rdf-syntax-ns#" xmlns:svg="http://www.w3.org/2000/svg" xmlns="http://www.w3.org/2000/svg" xmlns:xlink="http://www.w3.org/1999/xlink" version="1.1" id="svg5553" viewBox="270.74 162.96 85.75 85.75">
  <defs id="defs5547">
    <radialGradient xlink:href="#linearGradient1459" id="radialGradient14804" gradientUnits="userSpaceOnUse" gradientTransform="matrix(1.028146,0,4.1358409e-7,2.1457152,8.7353782,813.93388)" cx="-258.58798" cy="-310.02478" fx="-258.58798" fy="-310.02478" r="51.92955"/>
    <linearGradient id="linearGradient1459">
      <stop style="stop-color:#666666;stop-opacity:0" offset="0" id="stop1455"/>
      <stop style="stop-color:#343434;stop-opacity:0.29426658" offset="1" id="stop1457"/>
    </linearGradient>
    <radialGradient xlink:href="#linearGradient1459" id="radialGradient15142" gradientUnits="userSpaceOnUse" gradientTransform="matrix(0.85010946,0,3.4196675e-7,1.7741573,3162.5201,291.2866)" cx="-258.58798" cy="-310.02478" fx="-258.58798" fy="-310.02478" r="51.92955"/>
  </defs>
  <metadata id="metadata5550">
    <rdf:RDF>
      <cc:Work rdf:about="">
        <dc:format>image/svg+xml</dc:format>
        <dc:type rdf:resource="http://purl.org/dc/dcmitype/StillImage"/>
        <dc:title/>
      </cc:Work>
    </rdf:RDF>
  </metadata>
  <g id="layer1">
    <g id="g18121" transform="matrix(0.25275158,0,0,0.25275158,214.05219,122.87938)">
     
      <g id="g18478">
        <circle style="fill:#44155d;fill-opacity:1;stroke:none;stroke-width:2.64583;stroke-linecap:round;stroke-linejoin:bevel;stroke-miterlimit:4;stroke-dasharray:none" id="circle14256" cx="393.90405" cy="328.20929" r="169.62718"/>
        <path style="color:#000000;clip-rule:nonzero;display:inline;overflow:visible;visibility:visible;isolation:auto;mix-blend-mode:normal;color-interpolation:sRGB;color-interpolation-filters:linearRGB;solid-color:#000000;solid-opacity:1;vector-effect:none;fill:#ecbf76;fill-opacity:1;fill-rule:nonzero;stroke:none;stroke-width:0.842273;stroke-linecap:round;stroke-linejoin:round;stroke-miterlimit:10;stroke-dasharray:none;stroke-dashoffset:0;stroke-opacity:1;color-rendering:auto;image-rendering:auto;shape-rendering:auto;text-rendering:auto;enable-background:accumulate" id="use14434" d="m 333.52819,222.1653 -3.51157,-3.6416 -4.53393,2.2443 2.37827,-4.4651 -3.53549,-3.6184 4.98144,0.8825 2.3488,-4.4807 0.7004,5.0103 4.98766,0.8465 -4.54861,2.2144 z"/>
        <path style="color:#000000;clip-rule:nonzero;display:inline;overflow:visible;visibility:visible;isolation:auto;mix-blend-mode:normal;color-interpolation:sRGB;color-interpolation-filters:linearRGB;solid-color:#000000;solid-opacity:1;vector-effect:none;fill:#ecbf76;fill-opacity:1;fill-rule:nonzero;stroke:none;stroke-width:0.949062;stroke-linecap:round;stroke-linejoin:round;stroke-miterlimit:10;stroke-dasharray:none;stroke-dashoffset:0;stroke-opacity:1;color-rendering:auto;image-rendering:auto;shape-rendering:auto;text-rendering:auto;enable-background:accumulate" id="use14436" d="m 326.43126,449.8157 -3.22524,-4.7001 -5.45609,1.6509 3.47348,-4.52 -3.25614,-4.6787 5.37189,1.9072 3.44364,-4.5427 -0.15345,5.6984 5.3855,1.8684 -5.46686,1.6149 z"/>
        <path style="color:#000000;clip-rule:nonzero;display:inline;overflow:visible;visibility:visible;isolation:auto;mix-blend-mode:normal;color-interpolation:sRGB;color-interpolation-filters:linearRGB;solid-color:#000000;solid-opacity:1;vector-effect:none;fill:#ecbf76;fill-opacity:1;fill-rule:nonzero;stroke:none;stroke-width:0.871419;stroke-linecap:round;stroke-linejoin:round;stroke-miterlimit:10;stroke-dasharray:none;stroke-dashoffset:0;stroke-opacity:1;color-rendering:auto;image-rendering:auto;shape-rendering:auto;text-rendering:auto;enable-background:accumulate" id="use14438" d="m 292.44385,252.5707 -4.37225,-2.8771 -4.06587,3.296 1.38518,-5.0474 -4.39111,-2.8482 5.22848,-0.2419 1.35191,-5.0564 1.84609,4.8976 5.22658,-0.2796 -4.08748,3.2692 z"/>
        <path style="color:#000000;clip-rule:nonzero;display:inline;overflow:visible;visibility:visible;isolation:auto;mix-blend-mode:normal;color-interpolation:sRGB;color-interpolation-filters:linearRGB;solid-color:#000000;solid-opacity:1;vector-effect:none;fill:#ecbf76;fill-opacity:1;fill-rule:nonzero;stroke:none;stroke-width:0.938112;stroke-linecap:round;stroke-linejoin:round;stroke-miterlimit:10;stroke-dasharray:none;stroke-dashoffset:0;stroke-opacity:1;color-rendering:auto;image-rendering:auto;shape-rendering:auto;text-rendering:auto;enable-background:accumulate" id="use14440" d="m 248.11118,313.9055 -4.49246,-3.4008 -4.60144,3.252 1.84616,-5.3236 -4.51477,-3.3712 5.63356,0.1112 1.81105,-5.3356 1.63549,5.392 5.63419,0.071 -4.62275,3.2217 z"/>
        <path style="color:#000000;clip-rule:nonzero;display:inline;overflow:visible;visibility:visible;isolation:auto;mix-blend-mode:normal;color-interpolation:sRGB;color-interpolation-filters:linearRGB;solid-color:#000000;solid-opacity:1;vector-effect:none;fill:#ecbf76;fill-opacity:1;fill-rule:nonzero;stroke:none;stroke-width:0.596313;stroke-linecap:round;stroke-linejoin:round;stroke-miterlimit:10;stroke-dasharray:none;stroke-dashoffset:0;stroke-opacity:1;color-rendering:auto;image-rendering:auto;shape-rendering:auto;text-rendering:auto;enable-background:accumulate" id="use14442" d="m 289.30834,411.6613 -3.50036,-0.7585 -1.78271,3.1065 -0.36031,-3.5635 -3.50529,-0.7354 3.2779,-1.4436 -0.38377,-3.561 2.38602,2.6711 3.26738,-1.4671 -1.80312,3.0947 z"/>
        <path style="color:#000000;clip-rule:nonzero;display:inline;overflow:visible;visibility:visible;isolation:auto;mix-blend-mode:normal;color-interpolation:sRGB;color-interpolation-filters:linearRGB;solid-color:#000000;solid-opacity:1;vector-effect:none;fill:#ecbf76;fill-opacity:1;fill-rule:nonzero;stroke:none;stroke-width:0.635493;stroke-linecap:round;stroke-linejoin:round;stroke-miterlimit:10;stroke-dasharray:none;stroke-dashoffset:0;stroke-opacity:1;color-rendering:auto;image-rendering:auto;shape-rendering:auto;text-rendering:auto;enable-background:accumulate" id="use14444" d="m 284.72251,343.6542 -3.6492,-1.1191 -2.17139,3.1392 -0.0634,-3.8165 -3.65648,-1.095 3.61022,-1.2393 -0.0885,-3.8159 2.2945,3.0503 3.60117,-1.2653 -2.19202,3.1248 z"/>
        <path style="color:#000000;clip-rule:nonzero;display:inline;overflow:visible;visibility:visible;isolation:auto;mix-blend-mode:normal;color-interpolation:sRGB;color-interpolation-filters:linearRGB;solid-color:#000000;solid-opacity:1;vector-effect:none;fill:#ecbf76;fill-opacity:1;fill-rule:nonzero;stroke:none;stroke-width:0.86106;stroke-linecap:round;stroke-linejoin:round;stroke-miterlimit:10;stroke-dasharray:none;stroke-dashoffset:0;stroke-opacity:1;color-rendering:auto;image-rendering:auto;shape-rendering:auto;text-rendering:auto;enable-background:accumulate" id="use14446" d="m 443.76858,398.1651 -5.10167,-0.8484 -2.35321,4.6054 -0.76966,-5.1142 -5.10715,-0.8148 4.62634,-2.312 -0.80332,-5.109 3.62866,3.6851 4.60952,-2.3452 -2.38348,4.5898 z"/>
        <path style="color:#000000;clip-rule:nonzero;display:inline;overflow:visible;visibility:visible;isolation:auto;mix-blend-mode:normal;color-interpolation:sRGB;color-interpolation-filters:linearRGB;solid-color:#000000;solid-opacity:1;vector-effect:none;fill:#ecbf76;fill-opacity:1;fill-rule:nonzero;stroke:none;stroke-width:0.631592;stroke-linecap:round;stroke-linejoin:round;stroke-miterlimit:10;stroke-dasharray:none;stroke-dashoffset:0;stroke-opacity:1;color-rendering:auto;image-rendering:auto;shape-rendering:auto;text-rendering:auto;enable-background:accumulate" id="use14448" d="m 429.33294,408.2994 -3.73729,-0.6506 -1.75156,3.365 -0.5362,-3.7555 -3.7415,-0.6259 3.40615,-1.6702 -0.56092,-3.7518 2.64116,2.7231 3.394,-1.6947 -1.77367,3.3534 z"/>
        <path style="color:#000000;clip-rule:nonzero;display:inline;overflow:visible;visibility:visible;isolation:auto;mix-blend-mode:normal;color-interpolation:sRGB;color-interpolation-filters:linearRGB;solid-color:#000000;solid-opacity:1;vector-effect:none;fill:#ecbf76;fill-opacity:1;fill-rule:nonzero;stroke:none;stroke-width:0.903284;stroke-linecap:round;stroke-linejoin:round;stroke-miterlimit:10;stroke-dasharray:none;stroke-dashoffset:0;stroke-opacity:1;color-rendering:auto;image-rendering:auto;shape-rendering:auto;text-rendering:auto;enable-background:accumulate" id="use14450" d="m 422.54868,300.4775 -4.14679,-3.4983 -4.58972,2.893 2.04571,-5.025 -4.16976,-3.4709 5.4112,0.3933 2.01257,-5.0384 1.29852,5.2677 5.41388,0.3543 -4.60867,2.8628 z"/>
        <path style="color:#000000;clip-rule:nonzero;display:inline;overflow:visible;visibility:visible;isolation:auto;mix-blend-mode:normal;color-interpolation:sRGB;color-interpolation-filters:linearRGB;solid-color:#000000;solid-opacity:1;vector-effect:none;fill:#ecbf76;fill-opacity:1;fill-rule:nonzero;stroke:none;stroke-width:0.842092;stroke-linecap:round;stroke-linejoin:round;stroke-miterlimit:10;stroke-dasharray:none;stroke-dashoffset:0;stroke-opacity:1;color-rendering:auto;image-rendering:auto;shape-rendering:auto;text-rendering:auto;enable-background:accumulate" id="use14452" d="m 411.169,191.9063 -3.97242,-3.1307 -4.18652,2.8382 1.74993,-4.7455 -3.99296,-3.1045 5.05403,0.1983 1.71864,-4.7569 1.37356,4.8677 5.05531,0.1619 -4.20512,2.8106 z"/>
        <path style="color:#000000;clip-rule:nonzero;display:inline;overflow:visible;visibility:visible;isolation:auto;mix-blend-mode:normal;color-interpolation:sRGB;color-interpolation-filters:linearRGB;solid-color:#000000;solid-opacity:1;vector-effect:none;fill:#ecbf76;fill-opacity:1;fill-rule:nonzero;stroke:none;stroke-width:0.753206;stroke-linecap:round;stroke-linejoin:round;stroke-miterlimit:10;stroke-dasharray:none;stroke-dashoffset:0;stroke-opacity:1;color-rendering:auto;image-rendering:auto;shape-rendering:auto;text-rendering:auto;enable-background:accumulate" id="use14454" d="m 444.85989,262.0323 -2.28535,-3.9042 -4.413,0.996 3.007,-3.3801 -2.31104,-3.8891 4.14369,1.8158 2.98466,-3.3998 -0.44601,4.5019 4.15667,1.7858 -4.41947,0.967 z"/>
        <path style="color:#000000;clip-rule:nonzero;display:inline;overflow:visible;visibility:visible;isolation:auto;mix-blend-mode:normal;color-interpolation:sRGB;color-interpolation-filters:linearRGB;solid-color:#000000;solid-opacity:1;vector-effect:none;fill:#ecbf76;fill-opacity:1;fill-rule:nonzero;stroke:none;stroke-width:0.658998;stroke-linecap:round;stroke-linejoin:round;stroke-miterlimit:10;stroke-dasharray:none;stroke-dashoffset:0;stroke-opacity:1;color-rendering:auto;image-rendering:auto;shape-rendering:auto;text-rendering:auto;enable-background:accumulate" id="use14456" d="m 396.78743,208.5616 -2.64853,-2.9414 -3.60528,1.6337 1.97902,-3.428 -2.66785,-2.9239 3.87164,0.8233 1.95639,-3.4409 0.41377,3.9365 3.87746,0.7953 -3.61596,1.6099 z"/>
        <path style="color:#000000;clip-rule:nonzero;display:inline;overflow:visible;visibility:visible;isolation:auto;mix-blend-mode:normal;color-interpolation:sRGB;color-interpolation-filters:linearRGB;solid-color:#000000;solid-opacity:1;vector-effect:none;fill:#ecbf76;fill-opacity:1;fill-rule:nonzero;stroke:none;stroke-width:0.690671;stroke-linecap:round;stroke-linejoin:round;stroke-miterlimit:10;stroke-dasharray:none;stroke-dashoffset:0;stroke-opacity:1;color-rendering:auto;image-rendering:auto;shape-rendering:auto;text-rendering:auto;enable-background:accumulate" id="use14458" d="m 398.0104,328.4102 -3.09292,-2.7645 -3.57123,2.1108 1.67345,-3.7959 -3.11107,-2.7441 4.12723,0.419 1.64841,-3.8069 0.87727,4.0546 4.13012,0.3891 -3.58506,2.0873 z"/>
        <path style="color:#000000;clip-rule:nonzero;display:inline;overflow:visible;visibility:visible;isolation:auto;mix-blend-mode:normal;color-interpolation:sRGB;color-interpolation-filters:linearRGB;solid-color:#000000;solid-opacity:1;vector-effect:none;fill:#ecbf76;fill-opacity:1;fill-rule:nonzero;stroke:none;stroke-width:0.661059;stroke-linecap:round;stroke-linejoin:round;stroke-miterlimit:10;stroke-dasharray:none;stroke-dashoffset:0;stroke-opacity:1;color-rendering:auto;image-rendering:auto;shape-rendering:auto;text-rendering:auto;enable-background:accumulate" id="use14460" d="m 462.84769,345.8864 -3.4962,-1.8818 -2.85205,2.7624 0.70931,-3.9067 -3.50853,-1.8587 3.93473,-0.5323 0.68357,-3.9112 1.72238,3.5775 3.93078,-0.5607 -2.87018,2.7436 z"/>
        <path style="color:#000000;clip-rule:nonzero;display:inline;overflow:visible;visibility:visible;isolation:auto;mix-blend-mode:normal;color-interpolation:sRGB;color-interpolation-filters:linearRGB;solid-color:#000000;solid-opacity:1;vector-effect:none;fill:#ecbf76;fill-opacity:1;fill-rule:nonzero;stroke:none;stroke-width:0.86046;stroke-linecap:round;stroke-linejoin:round;stroke-miterlimit:10;stroke-dasharray:none;stroke-dashoffset:0;stroke-opacity:1;color-rendering:auto;image-rendering:auto;shape-rendering:auto;text-rendering:auto;enable-background:accumulate" id="use14462" d="m 426.54413,312.9337 -2.70953,-4.4009 -5.01478,1.2499 3.34827,-3.937 -2.73848,-4.3829 4.77879,1.9682 3.32226,-3.9589 -0.39478,5.1531 4.79285,1.9337 -5.02291,1.217 z"/>
        <path style="color:#000000;clip-rule:nonzero;display:inline;overflow:visible;visibility:visible;isolation:auto;mix-blend-mode:normal;color-interpolation:sRGB;color-interpolation-filters:linearRGB;solid-color:#000000;solid-opacity:1;vector-effect:none;fill:#ecbf76;fill-opacity:1;fill-rule:nonzero;stroke:none;stroke-width:0.826956;stroke-linecap:round;stroke-linejoin:round;stroke-miterlimit:10;stroke-dasharray:none;stroke-dashoffset:0;stroke-opacity:1;color-rendering:auto;image-rendering:auto;shape-rendering:auto;text-rendering:auto;enable-background:accumulate" id="use14464" d="m 430.84356,476.6826 -4.41871,-2.2683 -3.49968,3.5247 0.79178,-4.9035 -4.43356,-2.2391 4.90825,-0.7618 0.75947,-4.9086 2.24156,4.4324 4.90261,-0.7971 -3.52281,3.5015 z"/>
        <path style="color:#000000;clip-rule:nonzero;display:inline;overflow:visible;visibility:visible;isolation:auto;mix-blend-mode:normal;color-interpolation:sRGB;color-interpolation-filters:linearRGB;solid-color:#000000;solid-opacity:1;vector-effect:none;fill:#ecbf76;fill-opacity:1;fill-rule:nonzero;stroke:none;stroke-width:0.714709;stroke-linecap:round;stroke-linejoin:round;stroke-miterlimit:10;stroke-dasharray:none;stroke-dashoffset:0;stroke-opacity:1;color-rendering:auto;image-rendering:auto;shape-rendering:auto;text-rendering:auto;enable-background:accumulate" id="use14466" d="m 485.06622,226.9001 -3.089,-2.9808 -3.77624,2.0415 1.88043,-3.859 -3.10857,-2.9604 4.2512,0.5963 1.85497,-3.8714 0.74692,4.2273 4.25538,0.5656 -3.78961,2.0167 z"/>
        <path style="color:#000000;clip-rule:nonzero;display:inline;overflow:visible;visibility:visible;isolation:auto;mix-blend-mode:normal;color-interpolation:sRGB;color-interpolation-filters:linearRGB;solid-color:#000000;solid-opacity:1;vector-effect:none;fill:#ecbf76;fill-opacity:1;fill-rule:nonzero;stroke:none;stroke-width:0.655368;stroke-linecap:round;stroke-linejoin:round;stroke-miterlimit:10;stroke-dasharray:none;stroke-dashoffset:0;stroke-opacity:1;color-rendering:auto;image-rendering:auto;shape-rendering:auto;text-rendering:auto;enable-background:accumulate" id="use14468" d="m 457.38636,306.4373 -2.85888,-2.7058 -3.4444,1.9056 1.68992,-3.5552 -2.87666,-2.6869 3.90335,0.509 1.66646,-3.5662 0.72245,3.8695 3.9069,0.4807 -3.45687,1.8829 z"/>
        <path style="color:#000000;clip-rule:nonzero;display:inline;overflow:visible;visibility:visible;isolation:auto;mix-blend-mode:normal;color-interpolation:sRGB;color-interpolation-filters:linearRGB;solid-color:#000000;solid-opacity:1;vector-effect:none;fill:#ecbf76;fill-opacity:1;fill-rule:nonzero;stroke:none;stroke-width:0.793374;stroke-linecap:round;stroke-linejoin:round;stroke-miterlimit:10;stroke-dasharray:none;stroke-dashoffset:0;stroke-opacity:1;color-rendering:auto;image-rendering:auto;shape-rendering:auto;text-rendering:auto;enable-background:accumulate" id="use14470" d="m 495.91262,329.906 -3.81715,-2.8524 -3.87431,2.7744 1.53327,-4.5119 -3.83586,-2.8272 4.76487,0.064 1.50352,-4.5219 1.4115,4.5514 4.76519,0.03 -3.89249,2.7489 z"/>
        <path style="color:#000000;clip-rule:nonzero;display:inline;overflow:visible;visibility:visible;isolation:auto;mix-blend-mode:normal;color-interpolation:sRGB;color-interpolation-filters:linearRGB;solid-color:#000000;solid-opacity:1;vector-effect:none;fill:#ecbf76;fill-opacity:1;fill-rule:nonzero;stroke:none;stroke-width:0.598217;stroke-linecap:round;stroke-linejoin:round;stroke-miterlimit:10;stroke-dasharray:none;stroke-dashoffset:0;stroke-opacity:1;color-rendering:auto;image-rendering:auto;shape-rendering:auto;text-rendering:auto;enable-background:accumulate" id="use14472" d="m 528.23141,383.4683 -3.41194,-1.1263 -2.10646,2.9109 0.0168,-3.5931 -3.41929,-1.1038 3.42252,-1.094 -0.007,-3.5931 2.09831,2.9168 3.41452,-1.1187 -2.12558,2.8969 z"/>
        <path style="color:#000000;clip-rule:nonzero;display:inline;overflow:visible;visibility:visible;isolation:auto;mix-blend-mode:normal;color-interpolation:sRGB;color-interpolation-filters:linearRGB;solid-color:#000000;solid-opacity:1;vector-effect:none;fill:#ecbf76;fill-opacity:1;fill-rule:nonzero;stroke:none;stroke-width:0.697066;stroke-linecap:round;stroke-linejoin:round;stroke-miterlimit:10;stroke-dasharray:none;stroke-dashoffset:0;stroke-opacity:1;color-rendering:auto;image-rendering:auto;shape-rendering:auto;text-rendering:auto;enable-background:accumulate" id="use14474" d="m 441.56647,353.7394 -3.29895,-2.578 -3.45579,2.3637 1.43234,-3.9342 -3.31587,-2.5562 4.18427,0.1469 1.40639,-3.9435 1.15362,4.0247 4.1852,0.1167 -3.47128,2.3409 z"/>
        <path style="color:#000000;clip-rule:nonzero;display:inline;overflow:visible;visibility:visible;isolation:auto;mix-blend-mode:normal;color-interpolation:sRGB;color-interpolation-filters:linearRGB;solid-color:#000000;solid-opacity:1;vector-effect:none;fill:#ecbf76;fill-opacity:1;fill-rule:nonzero;stroke:none;stroke-width:0.805117;stroke-linecap:round;stroke-linejoin:round;stroke-miterlimit:10;stroke-dasharray:none;stroke-dashoffset:0;stroke-opacity:1;color-rendering:auto;image-rendering:auto;shape-rendering:auto;text-rendering:auto;enable-background:accumulate" id="use14476" d="m 527.87042,265.2353 -3.16283,-3.6579 -4.44394,1.9069 2.50159,-4.1385 -3.18686,-3.6371 4.70889,1.1008 2.47428,-4.1549 0.40865,4.8185 4.7167,1.0667 -4.4564,1.8777 z"/>
        <path style="color:#000000;clip-rule:nonzero;display:inline;overflow:visible;visibility:visible;isolation:auto;mix-blend-mode:normal;color-interpolation:sRGB;color-interpolation-filters:linearRGB;solid-color:#000000;solid-opacity:1;vector-effect:none;fill:#ecbf76;fill-opacity:1;fill-rule:nonzero;stroke:none;stroke-width:0.819651;stroke-linecap:round;stroke-linejoin:round;stroke-miterlimit:10;stroke-dasharray:none;stroke-dashoffset:0;stroke-opacity:1;color-rendering:auto;image-rendering:auto;shape-rendering:auto;text-rendering:auto;enable-background:accumulate" id="use14478" d="m 510.39528,442.2636 -3.0463,-3.8673 -4.60819,1.7325 2.73671,-4.0924 -3.07172,-3.8472 4.73766,1.3386 2.70969,-4.1103 0.19132,4.9194 4.74718,1.3043 -4.6195,1.7022 z"/>
        <path id="path14604" style="fill:#000000;fill-opacity:0.13;stroke:none;stroke-width:4.41984;stroke-linecap:round;stroke-linejoin:bevel;stroke-miterlimit:4;stroke-dasharray:none" d="m 346.35995,282.0242 -109.7305,109.7305 a 169.62718,169.62718 0 0 0 88.75748,91.6281 L 436.55277,372.217 Z"/>
        <g id="use14654" transform="matrix(1.5041629,0,0,1.5041629,-4006.3242,470.9008)">
          <circle style="fill:#89e0e5;fill-opacity:1;stroke:none;stroke-width:0.264583;stroke-linejoin:bevel" id="circle15126" cx="-504.49835" cy="-2881.2395" r="42.411366" transform="rotate(98.063271)"/>
          <path id="path15128" style="fill:#ffffff;fill-opacity:0.0954732;stroke:none;stroke-width:0.217024;stroke-linejoin:bevel" d="m 2948.8499,-129.38535 a 22.978841,79.577178 8.063271 0 0 -14.1686,-44.77423 22.978841,79.577178 8.063271 0 0 -33.9137,75.567005 22.978841,79.577178 8.063271 0 0 11.5898,82.013563 22.978841,79.577178 8.063271 0 0 26.047,-39.076996 42.411364,42.411364 0 0 1 -1.0959,0.393366 21.068868,76.014021 8.063271 0 1 -23.4659,35.29536 21.068868,76.014021 8.063271 0 1 -10.1985,-78.217782 21.068868,76.014021 8.063271 0 1 31.5229,-72.307036 21.068868,76.014021 8.063271 0 1 12.7389,40.42438 42.411364,42.411364 0 0 1 0.944,0.68237 z"/>
          <path id="path15130" style="fill:#666666;fill-opacity:0.0620775;stroke:none;stroke-width:0.19247;stroke-linejoin:bevel" d="m 2946.5687,-130.9701 a 19.965904,72.034653 8.063271 0 0 -12.0049,-35.58812 19.965904,72.034653 8.063271 0 0 -29.8723,68.52153 19.965904,72.034653 8.063271 0 0 9.6642,74.123271 19.965904,72.034653 8.063271 0 0 21.4175,-30.853765 42.411364,42.411364 0 0 1 -18.2027,1.389801 42.411364,42.411364 0 0 1 -3.6251,-0.675756 23.985891,72.034653 8.063271 0 1 1.4126,-42.472461 23.985891,72.034653 8.063271 0 1 10.4401,-41.19344 42.411364,42.411364 0 0 1 3.6701,0.35773 42.411364,42.411364 0 0 1 17.1005,6.39121 z"/>
          <circle style="fill:url(#radialGradient15142);fill-opacity:1;stroke:none;stroke-width:0.216087;stroke-linecap:round;stroke-linejoin:round;stroke-miterlimit:4;stroke-dasharray:none;stroke-opacity:1" id="circle15132" cx="2913.6375" cy="-258.41168" r="42.411366" transform="matrix(0.99268012,-0.12077322,-0.12077322,-0.99268012,0,0)"/>
          <path style="color:#000000;clip-rule:nonzero;display:inline;overflow:visible;visibility:visible;isolation:auto;mix-blend-mode:normal;color-interpolation:sRGB;color-interpolation-filters:linearRGB;solid-color:#000000;solid-opacity:1;vector-effect:none;fill:#1a1a1a;fill-opacity:1;fill-rule:nonzero;stroke:none;stroke-width:0.339651;stroke-linecap:round;stroke-linejoin:round;stroke-miterlimit:10;stroke-dasharray:none;stroke-dashoffset:0;stroke-opacity:1;color-rendering:auto;image-rendering:auto;shape-rendering:auto;text-rendering:auto;enable-background:accumulate" d="m 2931.6813,-81.811105 c -1.7624,-2.083818 -2.9188,-5.25789 -2.5256,-8.024691 0.3984,-2.755156 2.3311,-5.535157 4.7505,-7.004422 0.4154,-0.203544 0.3999,-0.411775 0.04,-0.599702 -0.5751,-0.299325 -0.9954,-0.355033 -1.6265,-0.448268 -3.7719,-0.544457 -9.0047,1.77842 -9.5463,6.896856 -0.5416,5.118327 3.3838,9.231491 7.1561,9.772378 0.629,0.08911 1.0593,0.150055 1.6924,0.02836 0.4641,-0.07686 0.3886,-0.415906 0.059,-0.620514 z" id="path15134"/>
          <circle style="color:#000000;clip-rule:nonzero;display:inline;overflow:visible;visibility:visible;isolation:auto;mix-blend-mode:normal;color-interpolation:sRGB;color-interpolation-filters:linearRGB;solid-color:#000000;solid-opacity:1;vector-effect:none;fill:#1a1a1a;fill-opacity:1;fill-rule:nonzero;stroke:none;stroke-width:0.339651;stroke-linecap:round;stroke-linejoin:round;stroke-miterlimit:10;stroke-dasharray:none;stroke-dashoffset:0;stroke-opacity:1;color-rendering:auto;image-rendering:auto;shape-rendering:auto;text-rendering:auto;enable-background:accumulate" id="circle15136" cx="-495.0434" cy="-2900.7119" r="2.9931221" transform="rotate(98.159809)"/>
          <circle r="2.9931221" cy="-2900.7119" cx="-514.30658" id="circle15138" style="color:#000000;clip-rule:nonzero;display:inline;overflow:visible;visibility:visible;isolation:auto;mix-blend-mode:normal;color-interpolation:sRGB;color-interpolation-filters:linearRGB;solid-color:#000000;solid-opacity:1;vector-effect:none;fill:#1a1a1a;fill-opacity:1;fill-rule:nonzero;stroke:none;stroke-width:0.339651;stroke-linecap:round;stroke-linejoin:round;stroke-miterlimit:10;stroke-dasharray:none;stroke-dashoffset:0;stroke-opacity:1;color-rendering:auto;image-rendering:auto;shape-rendering:auto;text-rendering:auto;enable-background:accumulate" transform="rotate(98.159809)"/>
        </g>
      </g>
     
    </g>
  </g>
</svg>