<?xml version="1.0" encoding="UTF-8"?>
<svg width="31.168mm" height="30.857mm" version="1.1" viewBox="0 0 110.43626 109.33447" xmlns="http://www.w3.org/2000/svg" xmlns:xlink="http://www.w3.org/1999/xlink">
 <defs>
  <pattern id="m" patternTransform="matrix(.77226 0 0 1.1258 73.539 956.01)" xlink:href="#a"/>
  <pattern id="l" patternTransform="matrix(1.259 .20144 -.15009 .93807 65.054 953.18)" xlink:href="#a"/>
  <pattern id="k" patternTransform="matrix(.26429 .47371 -1.1684 .65187 116 1052)" xlink:href="#b"/>
  <pattern id="j" patternTransform="matrix(.22361 .44721 -1.7889 .89443 114 1052.2)" xlink:href="#b"/>
  <pattern id="b" width="2" height="1" patternTransform="translate(0) scale(10)" patternUnits="userSpaceOnUse">
   <rect y="-.5" width="1" height="2"/>
  </pattern>
  <pattern id="i" patternTransform="matrix(.38335 0 0 .56012 147.08 1052.2)" xlink:href="#a"/>
  <pattern id="a" width="10" height="10" patternTransform="translate(0) scale(10)" patternUnits="userSpaceOnUse">
   <circle cx="2.567" cy=".81" r=".45"/>
   <circle cx="3.048" cy="2.33" r=".45"/>
   <circle cx="4.418" cy="2.415" r=".45"/>
   <circle cx="1.844" cy="3.029" r=".45"/>
   <circle cx="6.08" cy="1.363" r=".45"/>
   <circle cx="5.819" cy="4.413" r=".45"/>
   <circle cx="4.305" cy="4.048" r=".45"/>
   <circle cx="5.541" cy="3.045" r=".45"/>
   <circle cx="4.785" cy="5.527" r=".45"/>
   <circle cx="2.667" cy="5.184" r=".45"/>
   <circle cx="7.965" cy="1.448" r=".45"/>
   <circle cx="7.047" cy="5.049" r=".45"/>
   <circle cx="4.34" cy=".895" r=".45"/>
   <circle cx="7.125" cy=".34" r=".45"/>
   <circle cx="9.553" cy="1.049" r=".45"/>
   <circle cx="7.006" cy="2.689" r=".45"/>
   <circle cx="8.909" cy="2.689" r=".45"/>
   <circle cx="9.315" cy="4.407" r=".45"/>
   <circle cx="7.82" cy="3.87" r=".45"/>
   <circle cx="8.27" cy="5.948" r=".45"/>
   <circle cx="7.973" cy="7.428" r=".45"/>
   <circle cx="9.342" cy="8.072" r=".45"/>
   <circle cx="8.206" cy="9.315" r=".45"/>
   <circle cx="9.682" cy="9.475" r=".45"/>
   <circle cx="9.688" cy="6.186" r=".45"/>
   <circle cx="3.379" cy="6.296" r=".45"/>
   <circle cx="2.871" cy="8.204" r=".45"/>
   <circle cx="4.59" cy="8.719" r=".45"/>
   <circle cx="3.181" cy="9.671" r=".45"/>
   <circle cx="5.734" cy="7.315" r=".45"/>
   <circle cx="6.707" cy="6.513" r=".45"/>
   <circle cx="5.73" cy="9.67" r=".45"/>
   <circle cx="6.535" cy="8.373" r=".45"/>
   <circle cx="4.37" cy="7.154" r=".45"/>
   <circle cx=".622" cy="7.25" r=".45"/>
   <circle cx=".831" cy="5.679" r=".45"/>
   <circle cx="1.257" cy="8.519" r=".45"/>
   <circle cx="1.989" cy="6.877" r=".45"/>
   <circle cx=".374" cy="3.181" r=".45"/>
   <circle cx="1.166" cy="1.664" r=".45"/>
   <circle cx="1.151" cy=".093" r=".45"/>
   <circle cx="1.151" cy="10.093" r=".45"/>
   <circle cx="1.302" cy="4.451" r=".45"/>
   <circle cx="3.047" cy="3.763" r=".45"/>
  </pattern>
  <radialGradient id="n" cx="13.372" cy="962.49" r="8.4274" gradientTransform="matrix(.67424 -.46107 .6126 .89583 -584.41 106.05)" gradientUnits="userSpaceOnUse">
   <stop stop-color="#ffcbcb" offset="0"/>
   <stop stop-color="#a36868" offset="1"/>
  </radialGradient>
 </defs>
 <g transform="translate(2.4164 -943.31)" fill-rule="evenodd">
  <path d="m12.902 947.65c-0.24936 7e-3 -0.38952 0.0634-0.37305 0.19531 0.19753 1.8756 0.49727 3.7312 2.4297 5.2598l1.0391 2.4082c-0.44224-0.38354-1.0914-0.95851-1.4453-1.2188-2.7053-1.989-6.4297-3.6914-6.4297-3.6914-1.7797-0.42977-4.4666-0.7845-5.0566-0.0391-0.29285 0.36998 0.63093 1.1782 1.0547 2.0527 0.14302 1.0713 1.5293 2.3757 2.7363 2.8965 0.84475 0.36443 1.7138 0.81749 2.375 1.5098 0.34178 0.35785 0.66766 0.70525 0.9707 1.0547-1.2245 0.5755-2.4367 1.1306-3.4258 1.5644-0.27138 0.23939 1.2769 0.47516 1.0195 0.70703-0.46278 0.41685-0.90356 0.81759-1.3164 1.1856-1.0191 0.90825-2.3174 0.62609-2.8105 1.2539 0.37109 0.59615 0.81445 0.87305 0.81445 0.87305-3.0966 3.3766-2.3284 6.513-1.7754 9.4531 0 0 1.1973-3.5223 3.3477-5.0274l2.2266-1.1484 0.36719-0.29492c-0.58959 1.0211-0.96444 2.0054-1.0234 2.9394-0.20978 3.3212 1.6361 6.8724-1.5176 11.117-2.4494 1.735-5.2197 5.5852-4.2266 7.8262 0.35561 1.0296 0.49631 2.1537 1.9629 2.6934 0.37703 4.767 3.0067 4.8776 4.2812 4.9238 0.55956-0.33787 1.0603-0.80843 1.4375-1.1738 1.6488 0.79408 3.9691-0.13941 5.0801-2.7871 1.0731-1.8198 0.96435-1.9256 2.8633-2.8144 2.5672-0.7529 5.021-2.2071 7.7617-2.8711 3.1955 0.91279 3.7562 4.5118 4.1309 8.9082 0.36264 4.2549 0.34274 9.2336 2.873 12.213 1.0311 1.214 1.4565 4.1748 1.5176 7.0137l-2.9043 6.3653c1.2381 4.2446 0.08567 7.4026-0.375 10.875l-1.3242 1.7109c-0.06754-0.019-0.11665-0.029-0.18945-0.051-0.16096-0.3788-0.48993-0.4581-1.625-0.1875-1.8241 0.6242-2.8152 1.7973-2.75 3.3125 0.16141 1.8989 2.0646 1.9053 3.3125 2.5625 3.5108 0.8777 3.4169 0.7729 5.0625 0.5625 1.2669-0.9188 1.7914-1.6237 1.9746-2.1777-0.15473 0.5503-0.40301 1.1203-0.80273 1.9257-0.37332 0.4209-0.56045 0.8117-0.61328 1.1739-0.1783-0.053-0.34785-0.125-0.49609-0.2344-1.7616 0.1867-4.2527 2.7973-4.1875 4.3125 0.16141 1.8989 1.3146 2.2803 2.5625 2.9375 3.89 1.2568 7.9961 0.4771 9.5625 0.1875 1.467-1.4646 2.1633-2.5455 1.2832-4.8399 0.05161 0 0.11527-0.01 0.16602-0.012 0.33523-1.8561-2.0601-3.4584-0.05469-4.6464 3.4893 0.4108-0.60631-3.4118-0.99805-4.9414-0.98717-1.9811-0.8052-4.1682 0.56445-6.6661 1.503-2.5997-0.03209-4.6817-1.2441-7.6777l0.50976-3.2168c0.40717-1.8076 1.2541-3.3403 3.8438-3.7812 20.445 6.0367 23.08-0.7204 30.982-0.8086-0.38249 3.0463-0.36748 6.3902-1.8516 9.4922-0.66685 1.1043-0.30037 1.6919-0.375 2.5 0.65336 0.9802 0.98416 2.3635 0.3125 5-0.88182 1.5133-1.6596 2.5063-2.375 3.1875-0.48058 1.0728-0.73401 1.8276-2 4-0.08943 0.2099-0.1291 0.4032-0.14258 0.5878-0.15541-0.3662-0.32285-0.7244-1.4199-0.4628-1.7616 0.1867-2.2527 1.2973-2.1875 2.8125 0.16141 1.8989 1.8146 2.0928 3.0625 2.75 3.5108 0.8777 4.4794 0.2729 6.125 0.062 2.739-1.9865 1.4656-3.3742 1.125-3.9375-0.01419-0.049-0.02906-0.072-0.04297-0.1192 0.12024 0 0.3025 0 0.41797-0.01 1.0748-1.8144 2.2924-3.5324 2.5625-6.3125 0.16012-0.9759 0.17876-1.881 1.625-3.5-0.42327-2.8516 0.52276-5.7031 1.1738-8.5547 0.77886 0.635 1.6418 1.2812 2.7168 1.9512 1.08 1.7258-1.6567 6.6715-2.5352 9.75-0.22612 1.5397-0.08117 1.843 1.1172 3.5918-1.1882 2.6659-1.8449 4.1371-2.8496 5.418l-1.7344 2.1992c-0.16541-0.2391-0.46151-0.3898-1.2773-0.1953-1.7616 0.1867-2.6902 2.4223-2.625 3.9375 0.16141 1.8989 2.8146 2.1553 4.0625 2.8125 3.5108 0.8777 7.2919 0.2729 8.625-0.5625 2.1765-1.7365 1.2781-4.3117 0.9375-4.875-0.05577-0.072-0.11367-0.1237-0.16992-0.1914 0.03265-0.01 0.06298-0.017 0.0957-0.027-0.23647-1.6162 0.66597-2.8124 1.6191-4.2051-0.39058-1.4508-1.7215-4.4497-1.3945-6.3594 1.2808-3.5811 1.896-2.9893 3.1016-5.5703 0.89615-2.8489 0.88427-4.3178-0.10547-6.3711-0.74526-3.6293-1.0436-8.2679 3.293-14.625 2.4036-4.2177 2.004-9.4301 1.7676-14.42 2.117 3.3844 2.2835 15.973 2.209 18.385-0.02364 0-0.05228-3e-4 -0.07422-0.01l-0.53125 3.7129-0.70703 4.42c-0.37574 1.8896-0.96852 7.1927 1.8574 11.844 0.88388 0.095 1.7665-0.7709 2.6504-1.5918 1.315-2.0906 1.6286-5.4334 2.0332-8.6621-0.31593-2.6091-0.16369-5.4317-1.1074-8.2617 0.0464-2.2532-0.91495-6.0798-1.1367-9.8653-0.2897-4.9449-0.29133-9.8751-1.1309-11.728-0.9593-2.1177-5.9073-8.3131-9.6973-9.043-1.0945-0.2108-4.2137-0.73836-5.4355-0.78906-4.9754-0.2065-13.045 2.6473-21.809 2.9746-5.7962 0.21647-13.185-1.4718-17.793-4.3809 0.34143 0.122 0.69099 0.23983 1.0098 0.37305 0 0-1.3434-2.952-3.8672-6.2148-2.2988-2.972-5.4745-6.414-8.207-8.8848-3.3599-3.038-5.6672-6.6295-11.939-7.7676 0.10871-0.091 0.21697-0.18141 0.32617-0.27148-1.0508-2.5759-4.0067-4.7452-6.6289-6.9844-1.3551-0.26527-3.0761-0.702-3.8242-0.68164zm21.762 88.451 0.51758 0.014c-0.01379 0.4445-0.05823 0.8276-0.13867 1.1934 0.05897-0.4835-0.1416-0.8344-0.29492-1.0879-0.02921-0.048-0.05525-0.074-0.08398-0.1192z" fill="#d3c0ae" stroke="#aa9688" stroke-width=".35433"/>
  <path d="m5.8587 967.95c-2.1504 1.5051-3.348 5.0279-3.348 5.0279-0.55305-2.9401-1.3212-6.0771 1.7754-9.4537 0 0-0.44345-0.27757-0.81455-0.87372 0.4931-0.62781 1.7924-0.34494 2.8114-1.2532 0.41284-0.36796 0.85221-0.76827 1.315-1.1851 0.25742-0.23187-1.2904-0.46887-1.019-0.70826 1.5912-0.69788 3.7915-1.694 5.6212-2.6187 2.3382-1.1817 5.7653-1.8678 7.783-1.7598 8.5043 0.4555 10.962 4.6322 14.787 8.0914 2.7326 2.4708 5.9091 5.9126 8.2078 8.8845 2.5238 3.2628 4.0441 5.9502 4.0441 5.9502-2.0576-0.8599-4.2454-2.0934-6.1554-3.5739-4.0227-3.1182-7.5197-7.1881-11.017-10.821-2.0605-2.1402-3.5939-4.0566-7.6386-4.487-6.7493-0.71815-9.2443 2.1477-12.694 4.6745l-1.9618 2.7797z" fill="#806641" stroke="#f00" stroke-width=".35433"/>
  <path d="m69.438 1036c-0.16096-0.3788-0.30243-0.7706-1.4375-0.5-1.7616 0.1867-2.2527 1.2973-2.1875 2.8125 0.16141 1.8989 1.8146 2.0928 3.0625 2.75 3.5108 0.8777 4.4794 0.2724 6.125 0.062 2.739-1.9865 1.4656-3.3742 1.125-3.9375-1.9583 0.2698-3.9167 0.028-5.875-0.1875-0.57687-0.027-0.72946-0.4785-0.8125-0.9995z" fill="#333" stroke="#f0f" stroke-width=".35433"/>
  <path d="m17.309 989.23c-1.8989 0.8889-1.7893 0.99337-2.8625 2.8131-1.111 2.6477-3.4311 3.581-5.0799 2.7869-0.37716 0.3654-0.87921 0.8375-1.4388 1.1754-1.2745-0.0462-3.9035-0.15728-4.2805-4.9243-1.4666-0.5397-1.6079-1.6639-1.9635-2.6935-0.99313-2.241 1.7783-6.0912 4.2277-7.8262 3.1537-4.2448 1.3075-7.7952 1.5173-11.116 0.12556-1.9878 1.6432-4.1969 3.7422-6.525 0.49633 0.90854 0.81051 3.1997 2.0695 4.0374 0.76437 0.50854 3.5628 0.47693 5.2686-0.20414 1.3351-0.53306 1.9976-1.464 3.0044-2.8452 0.84797-1.1633-0.20365-2.0996-0.9273-4.3501 6.8518-0.2373 8.9493 4.9176 12.42 8.0108 5.0125 4.4665 7.4293 6.912 12.718 10.305 4.6002 2.9513 12.062 4.6674 17.904 4.4492 8.7639-0.32728 16.833-3.1807 21.809-2.9742 1.2218 0.0507 4.3395 0.57925 5.434 0.79005 3.79 0.7299 8.7382 6.9239 9.6975 9.0416 0.83953 1.8534 0.84169 6.7832 1.1314 11.728 0.22254 3.7986 1.1894 7.6414 1.1357 9.8914-3.0855 1.4123-2.1187-0.905-4.1204-1.337 0.0803-2.215-0.06864-15.106-2.2081-18.526 0.23645 4.9898 0.63481 10.202-1.7688 14.42-4.3366 6.3571-4.0378 10.995-3.2925 14.625 0.98974 2.0533 1.0023 3.5225 0.10617 6.3714-1.2055 2.581-1.8213 1.9894-3.1021 5.5705-0.32699 1.9097 1.004 4.9077 1.3946 6.3585-0.95317 1.3927-1.8552 2.5902-1.6187 4.2064-4.9639 1.6223-9.1471 1.0059-9.8601-0.6307l1.9456-2.4672c1.0047-1.2809 1.6618-2.7526 2.85-5.4185-1.1984-1.7488-1.3438-2.0515-1.1177-3.5912 0.87847-3.0785 3.6159-8.0243 2.5359-9.7501-5.8062-3.6189-6.7654-6.7092-8.5772-9.4592-8.0251 0-10.554 6.8926-31.133 0.8163-2.5897 0.4409-3.4367 1.9729-3.8439 3.7805l-0.5094 3.2183c1.2121 2.996 2.7484 5.0778 1.2454 7.6775-1.3697 2.4979-1.5515 4.6836-0.56432 6.6647 0.39174 1.5296 4.4866 5.3528 0.99732 4.942-2.0054 1.188 0.38907 2.79 0.05384 4.6461-1.7282 0.1537-3.9778 0.3566-5.4889 0.1456-2.3956-0.3345-4.5308-1.7071-2.7886-3.6709 1.1154-2.2474 1.0952-2.6673 0.95395-5.9158 0.27028-1.2023 0.25888-3.1088-0.41009-6.6592-1.4767-1.0958-1.0097-3.0783-1.3599-6.7943 0.72119-2.6597 0.75586-10.38-1.0805-12.542-2.5303-2.9792-2.5093-7.9569-2.8719-12.212-0.3747-4.3964-0.93496-7.9954-4.1304-8.9082-2.7407 0.664-5.1957 2.1182-7.763 2.871z" fill="url(#i)" opacity=".335" stroke="#f60" stroke-width=".35433"/>
  <path d="m51.088 1004c7.8403 1.9941 14.978 5.3498 24.395-0.1767l0.53033 7.2478c-5.1924 1.2174-7.8436 2.7442-15.38 3.5355-4.8908-0.6234-10.312-0.2391-15.203-2.3864 2.5001-1.4206 4.8756-4.3981 5.6569-8.2202z" fill="#fff"/>
  <path d="m5.8336 980.59c2.8794-0.34889 6.5745 3.099 7.955 6.0104 4.8066-1.6214 10.669-3.0067 14.849-9.0156-0.64214 2.5463 0.28987 3.9682-3.3588 8.662l-9.1924 3.5355-2.8284 3.8891c-1.0616 1.0711-2.0121 1.9796-4.2426 1.4142l-1.4142 1.0607c-3.2625-0.49458-4.0429-4.3414-6.0104-8.2201 0.21268-2.909 1.2226-3.4256 1.8562-4.8614z" fill="#fff"/>
  <path d="m78.738 1041.9c-0.16096-0.3788-0.30243-0.7706-1.4375-0.5-1.7616 0.1867-2.6902 2.4223-2.625 3.9375 0.16141 1.8989 2.8146 2.1553 4.0625 2.8125 3.5108 0.8777 7.2919 0.2724 8.625-0.563 2.1765-1.7365 1.2781-4.3117 0.9375-4.875-1.9583 0.3651-6.7917 0.6292-8.75 0.1875-0.57687-0.027-0.72946-0.4785-0.8125-0.9995z" fill="#333" stroke="#f0f" stroke-width=".35433"/>
  <path d="m33.845 1014.5-2.9375 6.4375c1.2381 4.2446 0.08567 7.4026-0.375 10.875l-1.5 1.9375c0.20677 1.4975 1.082 1.8252 1.9375 2.1875l4.5 0.125c-0.08296-2.3311-0.38859-5.9982-0.625-9.25-2.7277-1.3728-0.68019-8.0803-1-12.312z" fill="#93755a" stroke="#0f0" stroke-width=".35433"/>
  <path d="m33.625 1014.4-2.9375 6.4375c1.2381 4.2446 0.08567 7.4026-0.375 10.875l-1.5 1.9375c0.20677 1.4975 1.082 1.8252 1.9375 2.1875l4.5 0.125c-0.08296-2.3311-0.38859-5.9982-0.625-9.25-2.7277-1.3728-0.68019-8.0803-1-12.312z" fill="url(#k)" opacity=".364" stroke="#0f0" stroke-width=".35433"/>
  <path d="m33.988 1042.3c-0.16096-0.3788-0.05243-1.2081-1.125-2-1.7616 0.1867-4.2527 2.7973-4.1875 4.3125 0.16141 1.8989 1.3146 2.2803 2.5625 2.9375 3.89 1.2568 7.9961 0.4766 9.5625 0.187 1.489-1.4865 2.1915-2.5715 1.25-4.9375-1.9583 0.2698-2.7917 0.3405-4.75 0.125-0.57687-0.027-3.2295-0.1035-3.3125-0.6245z" fill="#333" stroke="#f0f" stroke-width=".35433"/>
  <path d="m75.82 1011c-0.57514 3.3322-0.08103 6.5116-1.75 10-0.66685 1.1043-0.30037 1.6919-0.375 2.5 0.65336 0.9802 0.98416 2.3635 0.3125 5-0.88182 1.5133-1.6596 2.5063-2.375 3.1875-0.48058 1.0728-0.73401 1.8276-2 4-0.23096 0.5423-0.20653 0.9994 0.0625 1.375 0.70833 0.5202 1.4167 0.3031 2.125 0.375 1.8115-0.021 3.4378-0.041 4.75-0.062 1.0748-1.8144 2.2924-3.5324 2.5625-6.3125 0.16012-0.9759 0.17876-1.881 1.625-3.5-0.43911-2.9583 0.60024-5.9167 1.25-8.875z" fill="#93755a" stroke="#0f0" stroke-width=".35433"/>
  <path d="m75.5 1010.7c-0.57514 3.3322-0.081 6.5116-1.75 10-0.66685 1.1043-0.30037 1.6919-0.375 2.5 0.65336 0.9802 0.98416 2.3635 0.3125 5-0.88182 1.5133-1.6596 2.5063-2.375 3.1875-0.48058 1.0728-0.73401 1.8276-2 4-0.23096 0.5423-0.20653 0.9994 0.0625 1.375 0.70833 0.5202 1.4167 0.3031 2.125 0.375 1.8114-0.021 3.4378-0.041 4.75-0.062 1.0748-1.8144 2.2924-3.5324 2.5625-6.3125 0.16012-0.9759 0.17876-1.881 1.625-3.5-0.43911-2.9583 0.60025-5.9167 1.25-8.875z" fill="url(#j)" opacity=".364" stroke="#0f0" stroke-width=".35433"/>
  <path d="m25.809 985.63c2.5282-0.41163 4.0691 3.101 4.6846 4.6846 1.7397 4.4765 0.38377 9.8344 2.2097 14.142l-0.17678 4.1543c-1.0898-2.5254-3.0196-5.1229-3.4471-10.076-0.19203-3.5373 0.37392-7.616-1.3258-10.076z" fill="#fff"/>
  <path d="m98.641 1009.3-0.53033 3.7123-0.70711 4.4194c-0.37574 1.8896-0.96979 7.193 1.8562 11.844 0.88388 0.095 1.7678-0.77 2.6517-1.5909 1.315-2.0906 1.6284-5.4334 2.0329-8.6621-0.32095-2.6506 0.0224-5.0798-0.97227-7.955-0.70711 0.1841-1.4142 0.4919-2.1213 0-0.84465-0.9135-1.6004-1.5603-2.2097-1.7677z" fill="#806641" stroke="#da3f00" stroke-width=".35433"/>
  <path d="m20.935 960.96c0-0.10072-2.414-2.9771-4.9396-5.0667-0.34978-0.28939-1.3279-1.1745-1.7637-1.4949-2.7053-1.989-6.4291-3.6918-6.4291-3.6918-1.7797-0.42977-4.4672-0.78463-5.0572-0.0392-0.29285 0.36998 0.63043 1.1776 1.0542 2.0521 0.14302 1.0713 1.5301 2.3758 2.7371 2.8965 0.84474 0.36443 1.7133 0.81868 2.3745 1.511 0.88421 0.92579 1.7323 1.775 2.0605 2.7982 0.86481 2.6967 0.24566 7.4274 2.7079 7.5158 2.1215 0.0834 3.9177 0.16776 5.2296-0.47793 2.0607-1.0142 2.9708-3.5995 2.0259-6.003z" fill="#fff" stroke="#f0f" stroke-width=".35433"/>
  <path d="m20.935 960.46c0-0.10072-2.414-2.9771-4.9396-5.0667-0.34978-0.28939-1.3279-1.1745-1.7637-1.4949-2.7053-1.989-6.4291-3.6918-6.4291-3.6918-1.7797-0.42977-4.4672-0.78463-5.0572-0.0392-0.29285 0.36998 0.63043 1.1776 1.0542 2.0521 0.14302 1.0713 1.5301 2.3758 2.7371 2.8965 0.84474 0.36443 1.7133 0.81868 2.3745 1.511 0.88421 0.92579 1.7323 1.775 2.0605 2.7982 0.86481 2.6967 0.24566 7.4274 2.7079 7.5158 2.1215 0.0834 3.9177 0.16776 5.2296-0.47793 2.0607-1.0142 2.9708-3.5995 2.0259-6.003z" fill="#d3c0ae" stroke="#f0f" stroke-width=".35433"/>
  <path d="m21.057 960.72c0-0.10072-2.414-2.9771-4.9396-5.0667-0.34978-0.28939-1.3279-1.1745-1.7637-1.4949-2.7053-1.989-6.4291-3.6918-6.4291-3.6918-1.7797-0.42977-4.4672-0.78463-5.0572-0.0392-0.29285 0.36998 0.63043 1.1776 1.0542 2.0521 0.14302 1.0713 1.5301 2.3758 2.7371 2.8965 0.84475 0.36443 1.7133 0.81868 2.3745 1.511 0.88421 0.92579 1.7323 1.775 2.0605 2.7982 0.86481 2.6967 0.24566 7.4274 2.7079 7.5158 2.1215 0.0834 3.9177 0.16776 5.2296-0.47793 2.0607-1.0142 2.9708-3.5995 2.0259-6.003z" fill="url(#l)" opacity=".389" stroke="#f0f" stroke-width=".35433"/>
  <path d="m15.866 955.53-1.1049-2.5633c-1.9324-1.5286-2.2332-3.3835-2.4307-5.2591-0.0659-0.52755 2.3917 0.13244 4.1984 0.48613 2.6222 2.2392 5.5783 4.4068 6.6291 6.9827-2.5968-0.49135-5.0485-0.45051-7.292 0.35355z" fill="url(#m)" opacity=".389" stroke="#f0f" stroke-width=".35433"/>
  <path d="m28.8 1033.4c-0.16096-0.3788-0.48993-0.4581-1.625-0.1875-1.8241 0.6242-2.8152 1.7973-2.75 3.3125 0.16141 1.8989 2.0646 1.9053 3.3125 2.5625 3.5108 0.8777 3.4169 0.7724 5.0625 0.562 2.739-1.9865 2.0906-2.9992 1.75-3.5625-1.9583 0.2698-3.6667-0.034-5.0625-1.25-0.57687-0.027-0.60446-0.916-0.6875-1.437z" fill="#333" stroke="#f0f" stroke-width=".35433"/>
  <path transform="translate(0 946.06)" d="m11.591 0.79442c-0.86822 0.53369 0.2726 1.4243 0.29501 2.089 0.05039 1.4947 1.201 3.0999 2.2949 4.3967-1.4937-1.0355-4.3087-2.9692-5.962-3.7528-0.6762-0.17928-1.3655-0.27149-2.0566-0.36719-1.6082-0.078317-3.1468-0.033144-4.1163 0.70434 0.27077 2.3724 3.0168 6.2762 5.7452 6.6589 0.52191 0.38338 0.92992 0.86864 1.2656 1.4141-0.46711 0.3953-3.4396 1.428-3.8795 1.8557 1.3721 0.07422 1.653 0.25066 1.2404 0.70126-0.41259 0.4506-4.3913 2.3244-4.3347 3.186 0.85209-0.24332 1.8946-0.30568 1.5364 0.16164-3.321 2.7573-1.9792 6.6881-1.1916 10.363 0.73332-2.086 2.5223-5.6098 4.605-6.3951-0.36643 5.1154 1.2597 11.248-3.7241 14.258-4.2504 3.9876-1.3617 8.7539 0.85742 12.551 1.0049 1.4116 2.6692 2.2619 3.9207 2.1997 0.5108-0.02538 0.78499-1.0384 1.271-1.2228 0.69231-0.26272 1.5431 0.2027 2.2663 0.051 0.89044-0.18679 1.6559-0.73334 2.1689-1.5375 1.8963-2.9729 3.2864-4.8583 7.4668-5.3693 5.1167-4.813 7.646 2.5541 6.8867 6.9297-0.04461 5.2399 1.9697 10.069 4.2402 14.566 0.30508 1.4625 0.34586 2.9476 0.28906 4.4375-0.84086 2.0912-1.6983 4.1766-2.7422 6.1348 1.5337 4.0225 0.55087 8.0619-1.0469 11.561-4.0655-0.9308-7.8122 5.1836-2.8809 6.8438 1.0282 0.53624 2.8077 0.99157 4.6016 1.1133-4.3306 1.7229-3.8005 8.4527 2.1055 8.2891 3.5431 0.5807 9.3767 1.2156 10.828-2.8359-0.44096-0.82567-0.47157-2.3316-0.84375-3.2676 0.20952-0.6287-0.02262-2.0147-0.48732-3.21 0.4688-1.5041 1.3948 0.62224 1.5935-0.39932 0.71795-1.183-0.48711-3.2575-1.1921-4.2207-1.0833-1.3857-1.8781-3.3806-1.6867-4.6562 0.31629-2.1076 2.2546-3.475 2.1428-5.9034-0.13205-2.8688-2.72-5.1147-1.2212-7.9669 1.0622-6.2071 7.9636-1.1574 11.898-1.163 6.4766 1.1761 13.002-0.22969 19.096-2.4336 0.59682-0.2828 1.1114-0.42103 1.5684-0.45312 0.01291 2.6055-5e-3 5.2063-0.75195 7.7246-1.7827 2.8869 2.0683 7.9688-2.248 10.344-0.57014 1.0591-1.3628 2.6338-1.8086 4.1191-4.6124-0.38863-6.6183 5.9374-1.3359 7.0405 1.5685 0.79058 4.4626 1.2992 6.6113 0.52788-2.132 2.3546-0.35715 7.0634 4.1074 6.7461 3.5433 0.5782 9.3767 1.2175 10.828-2.8359-0.43975-0.83643-0.47247-2.3492-0.85156-3.2832 0.60166-0.64608 0.96912-2.0056 1.0945-3.2049 0.2037-0.77502 0.42039-0.04675 1.0427-0.31556 0.37816-0.62387-0.59098-2.0768-1.0355-3.1-0.85896-1.9773-1.6689-4.1909 0.92564-6.4147 2.596-3.9233 2.7416-8.1067 0.69531-12.07-0.6022-5.3257 2.9512-9.5853 5.0293-14.111 0.7405-2.256 1.007-5.474 1.1133-1.2168 0.86058 2.5707-0.85916 6.5152 0.3125 8.709-1.2199 1.9059-0.58621 5.4551-1.9512 7.5371 0.37267 4.1932 0.88358 9.9388 2.9141 11.537 4.9026-0.8331 5.0172-6.9887 5.377-10.918-0.32713-1.7522 0.54657-6.8101-0.82812-8.2656 0.37424-2.1669-0.93353-5.8131-0.94727-7.8379-0.81648-4.8991 0.78363-10.304-1.5644-14.854-3.0867-4.9848-7.9382-9.0087-13.98-9.3867-7.6493-1.1189-15.004 2.502-22.637 2.6328-5.8559 0.57493-11.653-0.82532-16.764-3.5762-0.071604-1.1361-1.1019-2.3588-2.2164-3.5648-1.1144-1.206 0.33863-0.4507 0.68182-1.2548-0.62854-0.87675-4.7222-3.9008-5.4521-4.6757-0.72987-0.77489-1.6757-0.93581-0.29527-1.699-0.72309-0.66218-3.4486-1.8407-4.181-2.4929-0.73243-0.65221-2.4328-2.2807-0.39856-2.2959-1.2088-1.1614-4.4292-1.9011-5.4166-3.2815-0.93872-1.0768-0.90286-1.4218 0.042539-1.9195-1.2201-0.63026-5.5523-1.8551-6.9187-2.1284-1.854-2.4156-4.0409-4.5686-6.4629-6.4316-1.4946-0.75953-4.0278-0.97715-5.5478-1.0942zm1.7128 1.4101c1.0094 0.19324 2.1412 0.071622 3.04 0.6214 1.8877 1.1547 4.1897 3.5063 5.5605 5.2163-1.5415-0.12647-4.0538-0.20011-5.4998 0.43627-0.49781-0.67949-0.54172-1.367-1.2796-2.0198-1.3491-1.1936-2.5091-2.8018-1.821-4.2542zm11.433 10.902c-1.5661-0.56205-2.5461-0.72038-4.2736-0.53443-0.85645-0.73093-2.0179-1.8652-2.9098-2.6912 0.73552-0.14892 1.5578-0.21436 2.24-0.26539 0.90244-0.035164 1.7802 0.038447 2.6348 0.18945l2.793 0.83008c3.0465 1.2914 6.1574 3.0698 8.003 5.9457 3.4805 2.4311 12.217 12.848 11.985 14.012-0.73883-0.33914-2.0776-1.0428-3.2486-1.9493-3.1675-2.4522-7.0994-6.3507-9.3477-8.6137-1.7453-1.7567-2.9008-3.9907-4.7314-5.1492-0.96659-0.61171-1.743-1.271-3.1445-1.7739zm-9.4883-3.3035c0.47854 0.44853 1.1334 0.89855 1.582 1.3379 0.43348 0.44123 0.85356 0.70855 1.4163 1.1648l1.7106 1.9778c1.1634 1.7356 0.96669 4.3356-0.44726 5.3828l-1.7207 0.6582c-0.30825 0.04727-0.6448 0.0764-1.0156 0.08398-3.1215 1.0191-4.2281-0.632-4.541-2.8242l-0.36328-2.5449c-0.12913-0.90458-0.17329-1.8385-0.67383-2.5137l-1.2148-1.6387c-1.0278-1.3864-2.1257-1.7967-2.9786-2.2543-1.9129-1.0262-2.0497-1.5744-3.3984-3.9957 3.3423-0.049335 7.4859 1.6194 10.066 3.8164zm-5.366 2.7623c1.0392 0.63596 1.1948 2.4331 0.86941 3.3441-1.3367 1.0908-2.7438 2.5762-3.6089 4.0674-1.2959 0.70244-3.5765 3.5333-4.4953 5.2376-0.74064-2.6465 1.0037-6.1778 2.3589-8.0152 0.34674-0.4701-0.58469-0.14166-1.104-0.55088 1.3368-0.32083 2.2902-0.40703 2.5175-0.64575 0.42565-0.51657 1.0328-1.1464 1.6628-1.7619 0.31499-0.30772 0.10536-0.43507-0.29519-0.71963 0.30656-0.28456 1.8364-0.72633 2.0949-0.95581zm6.7683 13.23c-0.36265 0.2129-0.56992 1.0009-0.85938 1.4434-0.29707-0.39386-0.96756-0.88909-1.5879-0.76758-1.2256 0.2719-1.7481 0.75883-1.8404 1.2841-0.12088 0.68796 0.4963 1.4417 1.2389 1.8643-0.38887 0.27043-0.84309 0.44954-1.4043 0.46289 0.26161 0.97087 1.3713 0.71805 2.543 0.01563 0.37544-0.22508 0.78936-0.57746 1.1348-1.1426 0.69519-1.1374 1.1174-1.8931 0.77539-3.1602zm-1.752 1.4863c0.30722 0.27033 0.40398 0.66069 0.37891 0.75781-0.0735 0.28466-0.67653 0.92669-0.96094 1-0.5741 0.14798-1.0601-0.46338-1.0984-1.0192-0.02318-0.33705 0.34636-0.58851 0.57488-0.71384 0.26053-0.14289 0.81005-0.28475 1.1055-0.02475zm84.283 36.975c0.11622 0.04828 1.0615 1.2766 1.1924 1.315 0.64689 0.18974 1.5632 0.01322 2.0216 0.02022 1.2956 1.9426 0.4685 7.2009 0.52546 10.149 0.0224 1.295-0.832 4.1937-1.6514 5.3811-0.27596 0.39995-1.5585 1.1387-1.8299 1.3219-0.31169-0.64069-0.69349-1.4667-0.6898-2.9671 0.0058 0.01812 2.7762-4.701 2.8927-5.7727 0.0693-0.6377 0.6851-4.5521 0.31275-4.6569-0.34111-0.04236-1.0779 4.2772-1.172 4.9028-0.12155 0.80837-2.4267 5.0037-2.5319 4.3138-0.51089-1.4094-0.61586-4.1398-0.70017-5.6837-0.02699-0.49415 0.36174-0.77028 0.72175-1.312 0.04605-0.0693 0.82456-1.102 1.442-1.2496 0.47169-0.11278 1.4204-2.7463 1.0383-2.7809-0.19169-0.01735-1.0319 2.1348-1.4592 2.3442-0.5741 0.28134-0.99246 0.7712-0.98811 0.68809 0.10945-2.0889 0.46288-4.1557 0.87543-6.0133zm-22.941 2.5018c1.608 1.4467 2.2592 4.8909 4.5156 6.4277-0.56835 2.5769-0.97551 5.1832-1.043 7.8438-2.388 2.307-1.1792 7.9426-4.0304 9.4414-0.29654 0.0745-1.3065-0.06183-1.6173 0.03489-1.3021 0.07314-3.4026 0.3008-3.8112-0.1736-0.24536-0.28489 0.47086-2.2531 1.2709-3.2809 0.81374-1.7546 2.021-2.89 2.6925-4.5751 0.71377-1.7911 0.8453-4.1343 0.05696-6.0991 1.0828-3.1112 1.8981-6.3518 1.9659-9.6191zm-40.166 22.285c0.06663-2.941-0.61795-5.8981-0.99609-8.8281-2.7737-2.9366 0.15346-7.4611-0.62305-11.215l0.07426-2.2715c0.0046-1.6701-0.3774-2.7555-1.0273-4.2441 0.01024-2.0677-0.03994-5.6707 0.31942-8.3715 0.20389-1.5323 0.12466-2.3149 0.81535-3.5113 0.41328-0.7159 1.0307-1.88 0.59766-2.3398-0.82896 0.85352-2.0664 3.1753-2.445 4.5881-0.64384 2.4028-1.0744 5.4526-0.91831 7.2654-0.45169-1.1042-1.2472-4.556-1.3711-5.7734-1.4162-4.6456 1.0639-10.322-3.0766-13.814-0.23778-0.1665-0.73913-0.74176-0.97415-0.8521 0.94117-1.5562 1.6954-2.4827 2.1659-4.3237 0.59061-2.3108 0.69849-5.2573 0.10359-7.565-0.35051 1.2843-0.32826 2.5223-0.51153 4.0046-0.1749 1.4146-0.64371 3.3576-1.3576 5.0677-0.37405 0.89599-1.1277 1.5593-1.707 2.5513-2.861 0.24296-6.3314 3.2205-9.4298 3.5073-1.8991 1.6562-3.5156 6.6375-5.9321 5.3675 0.020075-0.80398 1.5246-1.5702 1.8267-2.406 0.37132-0.75901 0.30045-2.949-0.21098-3.7304-0.67754 0.41679-0.19027 1.8216-0.60757 2.9549-0.26363 0.71598-1.4459 1.2705-1.7446 1.5674-1.0918 1.0855-0.00171 2.6338-2.0458 2.4412-1.2732-0.37774-2.0287-1.3318-2.6367-3.1503 0.27872-0.0613 1.0972-0.15356 1.2948-1.1155 0.42782-1.4477-0.94059-2.6769-1.547-2.7081-0.35119 0.19401-0.89975 1.1108-1.0881 1.293-0.54634-0.3411-0.71597-1.0567-0.71484-2.0957 0.10106-4.6114 5.7692-5.4521 5.8691-10.312 0.071805-3.4923-0.59095-7.3479 0.65625-10.438 0.67165-0.84004 1.3752-1.6464 2.1523-2.3789 0.71364 2.6321 1.8894 4.552 5.8984 3.3496 0.96449 0.07872 1.8247-0.09196 2.5645-0.43164l1.9082-1.5762c1.1185-1.5562 1.322-3.7137 0.26953-5.4004 1.5458-0.03461 3.2701 0.58511 4.4121 1.2715 0.85431 0.49796 1.2919 0.85794 2.248 1.75 0.29328 0.27422 0.57762 0.56511 0.86133 0.85742 0.18029 0.24163 0.35913 0.48633 0.51953 0.75 0.82046 0.85575 1.658 1.6953 2.5039 2.5273 0.81653 0.88181 1.6514 1.7222 2.5508 2.4258 0.52609 0.48547 1.0557 0.96708 1.5918 1.4414 2.7507 2.5181 5.698 4.9466 8.8848 6.9375 4.3634 2.8685 10.639 4.7918 15.18 4.8906 8.5902 0.6583 16.803-2.8692 25.311-2.8867 5.3711 0.36009 10.246 3.0461 13.145 7.6543 3.1954 4.3341 1.1784 10.157 2.0938 15.139 0.27755 2.2676 2.0492 10.65-1.2285 6.3398-0.17827-6.2613 0.4273-12.969-2.2344-18.789-1.0889-1.9473-2.0535-3.4941-1.5332-0.29883 0.45927 5.7719 0.48748 12.188-3.2188 16.777-2.2128 3.9487-3.8304 9.1739-2.1562 13.459 3.0799 3.5511-2.1247 7.9824-2.6797 11.729-0.87429 3.9958 3.6814 5.4402-0.44141 8.5391-0.15258 0.76272-1.4136 1.3783-2.8313 1.6609-1.1619 0.23158-2.4106 0.36062-3.3984 0.22656-0.74478-0.10107-1.8143-0.56909-1.694-1.0768 0.08295-0.3502 0.83528-1.0686 1.5524-1.6334 0.74147-2.1589 2.3143-3.6087 2.7363-5.4166 0.23128-0.99084 0.12566-1.5766-0.90722-2.876-1.0088-3.855 5.1035-8.6253 2.0364-11.82-0.78447-0.36349-1.4948-0.8261-2.1445-1.3555l-1.4883-1.4492c-1.7187-1.9375-3.3529-4.4566-4.3443-6.4151 0.22526-1.3297 0.09518-2.4927-0.06445-3.854-0.3736-3.186-1.459-6.0463 0.0015-8.8363 0.42983-0.82115 1.2415-2.9503 0.80932-3.0826s-1.5654 1.6384-1.8615 2.5251c-0.99753 2.9874-1.0814 6.0006-0.62841 9.5731 0.19794 1.5611-0.09239 2.4466-0.09563 3.5132-5.1741 0.75516-10.692 3.8143-16.104 3.3032-3.9092 0.01898-7.758-0.80697-11.535-1.7168 1.5633-1.0746 2.7946-3.9436 3.25-5.0293 1.0287-2.4527 2.1004-8.0929 1.0215-9.2227-0.76805 5.121-1.54 11.342-6.6113 13.686-0.01815-0.0044-0.03654-0.0092-0.05469-0.01367-4.2562 0.4733-4.2609 3.2546-5.2695 6.4863-0.06095 2.3951 0.8517 3.1625 1.4096 4.7145 0.23633 0.6574 0.69902 2.8573-0.1332 3.7588-1.1553 1.3944-1.4378 3.5583-1.2691 4.8786 0.27621 2.1626 1.4982 2.2636 1.9132 4.5538 0.05031 0.30678 1.3617 1.2707 1.2261 1.7379-0.1356 0.46719-0.92271 0.34926-1.5339 0.1717-0.58406 0.68712-0.70867 1.2622-0.67388 2.1536 0.03478 0.89134 0.67091 2.1873 0.45928 2.4599-1.095 0.10473-3.704 0.08272-4.7379 0.03025-0.62836-0.14127-1.2196-0.37335-1.7891-0.68359-0.25462-0.42582-0.67489-1.1006-0.0401-2.1191 0.76963-0.52157 1.2095-1.3162 1.1074-2.457zm-3.5312-16.635c-0.14357 2.1948 0.11723 6.1627 0.79492 8.207 1.7291 1.657 0.41819 4.4495 0.99805 6.7441 0.17986 0.52254 0.19792 1.1064 0.13281 1.7207-0.63379 0.03528-1.3707 0.17155-2.0977 0.24219-2.313-0.26747-4.267-1.2738-1.4082-3.2305 0.50731-1.2233 0.88478-3.2454 0.96676-5.0458 0.09437-2.0726-0.26534-4.3077-0.63472-6.2335 0.20514-0.27146 1.0754-2.1156 1.248-2.4043zm49.844 1.5957c4.2035 3.4561-3.7592 9.4397-0.05859 14.137-0.64338 2.0765-2.0919 4.5521-3.6875 6.6094-0.27828-0.10298-0.56557-0.1748-0.86719-0.17383-0.36934 0.02713-0.71024 0.08481-1.0234 0.16797 0.77409-0.77603 1.091-1.829 0.54883-3.1953 0.0037-0.07636-0.01107-0.12542-0.01172-0.19531 0.22862-0.312 0.37524-0.74006 0.39844-1.3418 1.9681-2.6833 2.0908-6.1613 3.7598-8.5449 0.01118-2.5434 0.39321-5.0184 0.9414-7.4629zm-54.092 13.553c0.1645 1.378 0.96014 2.4075 2.1953 2.6934 1.0389 0.37126 2.3628 0.35098 3.4375 0.37891-0.05463 0.17302-0.10313 1.0948-0.16016 1.2676-0.33151 0.16369-0.71231 0.88875-1.4272 1.1456-1.4465 0.3512-5.7326-0.58391-7.0127-1.8976-0.90101-0.9247 0.27415-2.6406 2.9673-3.5878zm40.529 2.7793c0.26382 1.33 1.8276 1.318 3.5651 1.2661 2.6255-0.07831 5.0482-0.06995 1.8919 2.5971-2.4607 1.6534-11.779-1.5085-5.457-3.8633zm-36.076 4.6562c0.60138 2.1939 2.0987 2.6846 4.0913 2.6148 1.2123 0.05481 2.5064-0.05347 3.6172-0.22756 0.31709 0.0505 0.60588 0.74809 0.8418 0.88239 0.8638 4.7763-8.2693 2.946-10.945 1.6895-2.9802-1.3143 0.72623-4.4498 2.3951-4.9591zm44.744 0.73047c0.28828 0.86503 0.64863 1.1178 1.2842 1.445 0.58139 0.29941 1.2466 0.88399 2.0156 0.77983 0.57352-0.07768 1.1794-0.12295 1.793-0.15625 1.2523-0.06797 2.4923-0.13433 3.6172-0.33984 1.8469-0.33743 2.0027 0.41937 2.0511 0.92191 0.25251 2.6233-3.0384 3.9746-6.3142 3.6498-2.3869-0.23667-4.9011-1.0292-6.0575-1.7418-1.605-1.1095 0.44114-3.9177 1.6106-4.5587z" color="#000000" color-rendering="auto" fill="#564c48" image-rendering="auto" shape-rendering="auto" solid-color="#000000" style="block-progression:tb;isolation:auto;mix-blend-mode:normal;text-decoration-color:#000000;text-decoration-line:none;text-decoration-style:solid;text-indent:0;text-transform:none;white-space:normal"/>
  <path d="m3.7123 951.97c1.2447-1.5036 7.5545 0.9329 11.49 5.5685 1.9427 2.2879 4.5313 4.1603 4.5962 8.2201-0.35082 0.55058-3.0114 1.3343-5.4801 1.4142-1.1394 0.2071-1.983-1.3605-2.6516-3.9775-0.39331-1.7582 0.23257-3.0068-1.4142-5.3917-0.81695-1.0031-1.3689-2.0503-3.5355-2.8284-1.5181-0.61447-2.428-1.685-3.0052-3.0052z" fill="url(#n)" stroke="#533d3d" stroke-width=".70866"/>
  <path transform="matrix(.95256 -.30435 .30435 .95256 0 0)" d="m-281.51 932.28a1.3258 0.97227 0 0 1 -1.3252 0.97227 1.3258 0.97227 0 0 1 -1.3264 -0.97139 1.3258 0.97227 0 0 1 1.324 -0.97315 1.3258 0.97227 0 0 1 1.3276 0.97052" color="#000000" fill="#2dba52"/>
  <path d="m14.849 974.09a0.57452 0.92808 0 0 1 -0.57427 0.92808 0.57452 0.92808 0 0 1 -0.57478 -0.92725 0.57452 0.92808 0 0 1 0.57375 -0.92891 0.57452 0.92808 0 0 1 0.5753 0.92641" color="#000000"/>
 </g>
</svg>
