<?xml version="1.0" encoding="UTF-8"?>
<svg width="32mm" height="31mm" version="1.1" viewBox="0 0 113.38582 109.84252" xmlns="http://www.w3.org/2000/svg" xmlns:xlink="http://www.w3.org/1999/xlink">
 <defs>
  <pattern id="i" xlink:href="#g" patternTransform="matrix(1.5943 0 0 1.1788 .36472 -.34252)"/>
  <pattern id="g" width="10" height="10" patternTransform="translate(0) scale(10)" patternUnits="userSpaceOnUse">
   <circle cx="2.567" cy=".81" r=".15"/>
   <circle cx="3.048" cy="2.33" r=".15"/>
   <circle cx="4.418" cy="2.415" r=".15"/>
   <circle cx="1.844" cy="3.029" r=".15"/>
   <circle cx="6.08" cy="1.363" r=".15"/>
   <circle cx="5.819" cy="4.413" r=".15"/>
   <circle cx="4.305" cy="4.048" r=".15"/>
   <circle cx="5.541" cy="3.045" r=".15"/>
   <circle cx="4.785" cy="5.527" r=".15"/>
   <circle cx="2.667" cy="5.184" r=".15"/>
   <circle cx="7.965" cy="1.448" r=".15"/>
   <circle cx="7.047" cy="5.049" r=".15"/>
   <circle cx="4.34" cy=".895" r=".15"/>
   <circle cx="7.125" cy=".34" r=".15"/>
   <circle cx="9.553" cy="1.049" r=".15"/>
   <circle cx="7.006" cy="2.689" r=".15"/>
   <circle cx="8.909" cy="2.689" r=".15"/>
   <circle cx="9.315" cy="4.407" r=".15"/>
   <circle cx="7.82" cy="3.87" r=".15"/>
   <circle cx="8.27" cy="5.948" r=".15"/>
   <circle cx="7.973" cy="7.428" r=".15"/>
   <circle cx="9.342" cy="8.072" r=".15"/>
   <circle cx="8.206" cy="9.315" r=".15"/>
   <circle cx="9.682" cy="9.475" r=".15"/>
   <circle cx="9.688" cy="6.186" r=".15"/>
   <circle cx="3.379" cy="6.296" r=".15"/>
   <circle cx="2.871" cy="8.204" r=".15"/>
   <circle cx="4.59" cy="8.719" r=".15"/>
   <circle cx="3.181" cy="9.671" r=".15"/>
   <circle cx="5.734" cy="7.315" r=".15"/>
   <circle cx="6.707" cy="6.513" r=".15"/>
   <circle cx="5.73" cy="9.67" r=".15"/>
   <circle cx="6.535" cy="8.373" r=".15"/>
   <circle cx="4.37" cy="7.154" r=".15"/>
   <circle cx=".622" cy="7.25" r=".15"/>
   <circle cx=".831" cy="5.679" r=".15"/>
   <circle cx="1.257" cy="8.519" r=".15"/>
   <circle cx="1.989" cy="6.877" r=".15"/>
   <circle cx=".374" cy="3.181" r=".15"/>
   <circle cx="1.166" cy="1.664" r=".15"/>
   <circle cx="1.151" cy=".093" r=".15"/>
   <circle cx="1.151" cy="10.093" r=".15"/>
   <circle cx="1.302" cy="4.451" r=".15"/>
   <circle cx="3.047" cy="3.763" r=".15"/>
  </pattern>
  <pattern id="h" xlink:href="#f" patternTransform="matrix(1.05 0 0 1 .36472 .65748)"/>
  <pattern id="f" width="10" height="10" patternTransform="translate(0) scale(10)" patternUnits="userSpaceOnUse">
   <circle cx="2.567" cy=".81" r=".45"/>
   <circle cx="3.048" cy="2.33" r=".45"/>
   <circle cx="4.418" cy="2.415" r=".45"/>
   <circle cx="1.844" cy="3.029" r=".45"/>
   <circle cx="6.08" cy="1.363" r=".45"/>
   <circle cx="5.819" cy="4.413" r=".45"/>
   <circle cx="4.305" cy="4.048" r=".45"/>
   <circle cx="5.541" cy="3.045" r=".45"/>
   <circle cx="4.785" cy="5.527" r=".45"/>
   <circle cx="2.667" cy="5.184" r=".45"/>
   <circle cx="7.965" cy="1.448" r=".45"/>
   <circle cx="7.047" cy="5.049" r=".45"/>
   <circle cx="4.34" cy=".895" r=".45"/>
   <circle cx="7.125" cy=".34" r=".45"/>
   <circle cx="9.553" cy="1.049" r=".45"/>
   <circle cx="7.006" cy="2.689" r=".45"/>
   <circle cx="8.909" cy="2.689" r=".45"/>
   <circle cx="9.315" cy="4.407" r=".45"/>
   <circle cx="7.82" cy="3.87" r=".45"/>
   <circle cx="8.27" cy="5.948" r=".45"/>
   <circle cx="7.973" cy="7.428" r=".45"/>
   <circle cx="9.342" cy="8.072" r=".45"/>
   <circle cx="8.206" cy="9.315" r=".45"/>
   <circle cx="9.682" cy="9.475" r=".45"/>
   <circle cx="9.688" cy="6.186" r=".45"/>
   <circle cx="3.379" cy="6.296" r=".45"/>
   <circle cx="2.871" cy="8.204" r=".45"/>
   <circle cx="4.59" cy="8.719" r=".45"/>
   <circle cx="3.181" cy="9.671" r=".45"/>
   <circle cx="5.734" cy="7.315" r=".45"/>
   <circle cx="6.707" cy="6.513" r=".45"/>
   <circle cx="5.73" cy="9.67" r=".45"/>
   <circle cx="6.535" cy="8.373" r=".45"/>
   <circle cx="4.37" cy="7.154" r=".45"/>
   <circle cx=".622" cy="7.25" r=".45"/>
   <circle cx=".831" cy="5.679" r=".45"/>
   <circle cx="1.257" cy="8.519" r=".45"/>
   <circle cx="1.989" cy="6.877" r=".45"/>
   <circle cx=".374" cy="3.181" r=".45"/>
   <circle cx="1.166" cy="1.664" r=".45"/>
   <circle cx="1.151" cy=".093" r=".45"/>
   <circle cx="1.151" cy="10.093" r=".45"/>
   <circle cx="1.302" cy="4.451" r=".45"/>
   <circle cx="3.047" cy="3.763" r=".45"/>
  </pattern>
  <radialGradient id="j" cx="94.715" cy="17.104" r="7.6845" gradientTransform="matrix(.99684 .079415 -.081333 1.0209 1.6902 -6.9828)" gradientUnits="userSpaceOnUse">
   <stop stop-color="#ff4e56" offset="0"/>
   <stop stop-color="#ff5d5b" offset=".61813"/>
   <stop stop-color="#cf0502" offset="1"/>
  </radialGradient>
 </defs>
 <g transform="translate(2.9101 1.4672)">
  <path d="m56.226 79.838 6.0104 0.88388c3.0942 3.6092 5.9635 7.2184 8.3527 10.828 0.52254-0.7955 0.76231-1.591 3.0936-2.3865 1.4917-0.3214 3.0309 0.30867 4.6404 2.3423l-2.8284-0.08839-2.2539 1.4142 8.5737 1.6352c1.9966 1.7088 2.043 3.4177 2.3423 5.1265l-4.2868-2.961c-2.3804 0.48474-5.1429-1.5714-7.513-1.149 0.78397 1.4142 1.7589 2.8284 1.4142 4.2426l-0.57452 1.2816c-1.2362-2.4376-2.79-3.1284-4.2426-4.3752l-3.2262-3.4471-3.5797 1.149c-0.7754 0.55355-0.89006 1.5476-0.97227 2.5633-0.66823 0.06014-1.004-0.87713-1.3258-1.8562-0.53353-0.91415 0.60754-1.4096 1.4142-1.9887 0.80518-1.1131 2.0287-1.9473 4.2426-2.1213l-3.3588-3.3146z" fill="#9c862b" fill-rule="evenodd" stroke="#6f0" stroke-width=".29055"/>
  <path d="m57.617 80.435-1.9854-0.16295c1.5262 1.9937 1.7626 2.617 4.5786 5.9812 0.1212 0.14479 4.0282 3.588 4.3995 4.2961-1.9716 0.42177-3.3049 0.89658-3.9085 2.4672-1.324 0.41724-1.4382 1.6431-1.3271 2.3539 0.11417 0.73065 0.4617 1.2808 0.98828 1.5957l1.2763 0.76319-0.08882-0.99171c-0.1903-2.1247 1.316-2.336 2.2262-2.1913 0.49487 0.07868 1.321-0.45101 1.958-0.54633 1.0852 1.087 1.9465 3.0109 3.3938 3.8343 1.4472 0.82333 2.6381 1.6738 3.381 3.5498l0.39062 0.98633 0.90039-0.55859c1.4172-0.87921-9.58e-4 -4.7538-0.65768-5.8525 1.0605 0.1681 1.5515 0.42935 1.9585 0.53416 1.2942 0.33327 2.7146 0.74607 4.0048 0.94319s2.4745 0.75879 3.7179 1.922c0 0 1.2724 1.3265 1.5985 1.189 0.32608-0.13753 0.0036-1.9953 0.0036-1.9953-0.04749-1.1382-0.56119-2.135-1.147-3.0394-0.58577-0.90439-1.4964-1.6579-2.1135-1.7633l-6.6845-1.1414c0.09924-0.05052 0.45972-0.69165 1.7087-0.80224 0.9744-0.08628 2.6591 0.51859 3.1253 0.41681-0.20948-0.56628-1.6552-2.0581-2.4068-2.7065-1.049-0.90497-2.27-1.0602-3.5023-0.88435-1.1212 0.16001-2.2984 1.3601-2.9526 2.197 0 0-2.5008-3.8232-3.8694-5.65-1.3146-1.7547-4.1641-5.0918-4.1641-5.0918l-1.3711 1.123s3.192 2.9155 4.5922 4.607c1.8201 2.1986 5.0777 7.0551 5.0777 7.0551 0.09889-0.39808 0.21543-0.80009 0.64568-1.2718 0.80281-0.88019 1.3138-1.5493 2.0218-1.6968 0.70805-0.14759 1.7615-0.12305 1.9586-0.0931 0.43203 0.06564 1.7165 0.68812 2.0332 1.2092-0.94629-0.428-2.1317-0.08452-2.642 0.14777-1.3062 0.59453-1.7296 1.0186-2.2776 1.5921 0.36598 0.57599 3.1039 0.81808 3.5836 0.92276l4.8558 1.0597c0.66271 0.14462 1.7773 1.6363 1.9122 2.8873-0.6753-0.33124-2.578-1.5498-3.5925-1.6657-1.0145-0.11584-2.1623-0.17079-3.4777-0.50951-1.3153-0.33872-1.9724-0.8961-3.3162-0.64237l-1.8255-1.3446-0.25771 0.22965c1.1511 1.1243 1.7675 2.355 2.5239 3.5279 0.50161 0.77782 0.57322 1.757 0.47535 2.2316-0.90191-1.4061-1.9677-2.4271-3.4165-3.3197s-2.5264-2.2891-3.8432-3.5338c-1.004 0.27078-2.0828 0.27876-2.8516 0.53125-0.57048 0.18738-2.6308 1.4311-2.27 2.9689-0.43909-0.07497-1.4094-1.9946 0.56056-2.6701 0.37978-0.58464 1.145-1.4622 2.5281-1.8256 1.3831-0.36344 1.838-0.2153 1.9255-0.68023s-1.3257-1.5047-1.8022-1.921c-0.46722-0.40828-2.6617-3.1638-2.727-3.2501-1.8948-2.5059-2.5503-3.5473-3.8255-5.3209z" color="#000000" color-rendering="auto" fill="#2c2a1c" fill-rule="evenodd" image-rendering="auto" shape-rendering="auto" solid-color="#000000" style="block-progression:tb;isolation:auto;mix-blend-mode:normal;text-decoration-color:#000000;text-decoration-line:none;text-decoration-style:solid;text-indent:0;text-transform:none;white-space:normal"/>
  <path d="m37.62 83.683 2.5633 10.341-3.6239 1.9003c-0.98745 1.5024-1.7793 3.0863-1.37 5.1707 1.785-1.4562 3.7276-3.7002 5.3033-4.1101l5.1265 3.5355c1.0018 1.0091 1.9796 2.0301 2.5191 3.2704 0.42503-0.62935 0.86422-1.2375 1.0607-2.2097l-1.9003-2.7842-1.4142-1.3258 1.7678 0.57452 3.5797 1.812 4.6846 0.66292 2.3865 1.1932c0.24174-1.096-0.68251-2.4835-1.3258-3.8007-2.1361-0.669-4.2721-0.79448-6.4082-1.149-1.2628-0.17805-2.5988 0.45016-3.7565-0.88388l3.403-1.0165 3.0494 0.88388c-0.60856-1.0146-0.91884-2.1534-2.8726-2.6075l-4.8614 0.7955c-0.36861-0.99313-0.80858-1.9455-1.9887-2.4749 0 0-1.3258-7.7782-1.7236-7.734-0.39775 0.04419-4.1984-0.04419-4.1984-0.04419z" fill="#ba9509" fill-rule="evenodd" stroke="#a40" stroke-width=".29055"/>
  <path d="m96.079 13.395c-3.0403-1.3057-6.0807-1.0363-9.121-0.67563-3.9037 1.4263-6.8121 3.4746-9.9092 5.405l-6.3059 8.4454-15.765 3.0403c-4.8796 2.0234-9.7591 2.424-14.639 1.6891-3.9898-0.20792-6.8202-2.2194-9.9092-3.8286-2.3456-2.9657-4.2323-6.5155-7.6571-8.1076-1.4078-2.6047-2.9908-5.0693-5.9681-6.4185-2.7495-2.3679-5.4479-4.5148-7.8824-5.5176-1.4696 0.033377-2.8622 0.14766-2.2521 2.3647l1.6891 3.6034c-1.4359-0.17384-2.8541-0.72108-4.3916 1.2387-1.3706 0.36083-2.5555 0.86096-2.2521 2.4773 0.72228 1.1636 1.9635 2.3272 2.0269 3.4908-0.56722 1.8029 0.12444 3.2282 0.56303 4.7294-0.27699 1.1785-0.19774 1.841 1.2057 3.7546l1.0464 3.3395c-2.5356 1.6373-1.6765 3.0749-0.67563 4.5042-1.2388 1.4263-2.2876 2.8692-1.1261 4.5042l2.7025 2.4773c-0.25736 5.1791 1.5915 5.4877 2.9277 6.9815 0.0046 2.2546 1.2366 4.0039 3.0403 5.5176-0.32194 0.91105-0.74451 1.7718-0.45608 2.988 1.4109 0.54881 2.8524 1.2197 4.0594 0.95314-0.21554 1.9591-1.0134 3.9829 0.56302 5.7429l2.7025 0.45042c0.8262 1.8734 1.0522 4.0968 3.0403 5.2924l3.9412-0.45042c1.2238 1.4984 2.514 2.8421 4.0538 3.6034 0.85915 2.7385 2.4205 5.0705 5.2924 6.6437l2.0269 1.6891 3.9412 0.33782 2.3647-3.6034 6.6437-4.842c1.2219 2.0811 2.8968 3.7094 5.1798 4.7294l5.2924 0.67563c1.3081-1.4855 1.9792-3.2894 1.8017-5.5176l0.22521-5.405 5.9681-1.6891c3.508-1.4725 6.9814-3.0236 9.3462-7.0941l8.1076-12.837 5.0672-14.639c0.61686-2.9097 1.5427-6.5114 0.54253-8.6126l-1.9949 0.63062c-1.3936-0.1397-0.6533-1.1767-0.75643-2.3091-1.1953-0.96174-1.9858-2.0921-1.911-3.5831 0.58017-1.5203 1.1921-2.9771 2.1897-3.6627 1.2789-1.4391 3.4377-1.8727 5.4209-2.5068z" fill="#fff" fill-rule="evenodd" stroke="#fc0" stroke-width=".29055"/>
  <path d="m96.285 13.223c-3.0403-1.3057-6.0807-1.0363-9.121-0.67563-3.9037 1.4263-6.8121 3.4746-9.9092 5.405l-6.3059 8.4454-15.765 3.0403c-4.8796 2.0234-9.7591 2.424-14.639 1.6891-3.9898-0.20792-6.8202-2.2194-9.9092-3.8286-2.3456-2.9657-4.2323-6.5155-7.6572-8.1076-1.4078-2.6047-2.9908-5.0693-5.9681-6.4185-2.7495-2.3679-5.4479-4.5148-7.8824-5.5176-1.4696 0.03338-2.8622 0.14766-2.2521 2.3647l1.6891 3.6034c-1.4359-0.17384-2.8541-0.72108-4.3916 1.2387-1.3706 0.36083-2.5555 0.86096-2.2521 2.4773 0.72228 1.1636 1.9635 2.3272 2.0269 3.4908-0.56722 1.8029 0.12444 3.2282 0.56303 4.7294-0.27699 1.1785-0.19775 1.841 1.2057 3.7546l1.0464 3.3395c-2.5356 1.6373-1.6765 3.0749-0.67563 4.5042-1.2388 1.4263-2.2876 2.8692-1.126 4.5042l2.7025 2.4773c-0.25736 5.1791 1.5914 5.4877 2.9277 6.9815 5e-3 2.2546 1.2366 4.0039 3.0403 5.5176-0.32195 0.91105-0.74451 1.7718-0.45608 2.988 1.4109 0.54882 2.8524 1.2197 4.0594 0.95315-0.21554 1.9591-1.0134 3.9829 0.56303 5.7429l2.7025 0.45042c0.8262 1.8734 1.0522 4.0968 3.0403 5.2924l3.9412-0.45043c1.2238 1.4984 2.514 2.8422 4.0538 3.6034 0.85915 2.7385 2.4204 5.0705 5.2924 6.6437l2.0269 1.6891 3.9412 0.33781 2.3647-3.6034 6.6437-4.842c1.2219 2.0811 2.8968 3.7094 5.1798 4.7294l5.2924 0.67563c1.3081-1.4855 1.9792-3.2894 1.8017-5.5176l0.22521-5.405 5.9681-1.6891c3.508-1.4725 6.9814-3.0236 9.3462-7.0941l8.1076-12.837 5.0672-14.639c0.61686-2.9097 1.5427-6.5114 0.54254-8.6126l-1.995 0.63062c-1.3936-0.1397-0.6533-1.1767-0.75642-2.3091-1.1953-0.96174-1.9858-2.0921-1.911-3.5831 0.58017-1.5203 1.1921-2.9771 2.1897-3.6627 1.2789-1.4391 3.4377-1.8727 5.4209-2.5068z" fill="#a0381e" fill-rule="evenodd" stroke="#fc0" stroke-width=".29055"/>
  <path d="m96.185 13.555c-3.0403-1.3057-6.0807-1.0363-9.121-0.67563-3.9037 1.4263-6.8121 3.4746-9.9092 5.405l-6.3059 8.4454-15.765 3.0403c-4.8796 2.0234-9.7591 2.424-14.639 1.6891-3.9898-0.20792-6.8202-2.2194-9.9092-3.8286-2.3456-2.9657-4.2323-6.5155-7.6572-8.1076-1.4078-2.6047-2.9908-5.0693-5.9681-6.4185-2.7495-2.3679-5.4479-4.5148-7.8824-5.5176-1.4696 0.03338-2.8622 0.14766-2.2521 2.3647l1.6891 3.6034c-1.4359-0.17384-2.8541-0.72108-4.3916 1.2387-1.3706 0.36083-2.5555 0.86096-2.2521 2.4773 0.72228 1.1636 1.9635 2.3272 2.0269 3.4908-0.56722 1.8029 0.12444 3.2282 0.56303 4.7294-0.27699 1.1785-0.19775 1.841 1.2057 3.7546l1.0464 3.3395c-2.5356 1.6373-1.6765 3.0749-0.67563 4.5042-1.2388 1.4263-2.2876 2.8692-1.126 4.5042l2.7025 2.4773c-0.25736 5.1791 1.5914 5.4877 2.9277 6.9815 5e-3 2.2546 1.2366 4.0039 3.0403 5.5176-0.32195 0.91105-0.74451 1.7718-0.45608 2.988 1.4109 0.54882 2.8524 1.2197 4.0594 0.95315-0.21554 1.9591-1.0134 3.9829 0.56303 5.7429l2.7025 0.45042c0.8262 1.8734 1.0522 4.0968 3.0403 5.2924l3.9412-0.45043c1.2238 1.4984 2.514 2.8422 4.0538 3.6034 0.85915 2.7385 2.4204 5.0705 5.2924 6.6437l2.0269 1.6891 3.9412 0.33781 2.3647-3.6034 6.6437-4.842c1.2219 2.0811 2.8968 3.7094 5.1798 4.7294l5.2924 0.67563c1.3081-1.4855 1.9792-3.2894 1.8017-5.5176l0.22521-5.405 5.9681-1.6891c3.508-1.4725 6.9814-3.0236 9.3462-7.0941l8.1076-12.837 5.0672-14.639c0.61686-2.9097 1.5427-6.5114 0.54254-8.6126l-1.995 0.63062c-1.3936-0.1397-0.6533-1.1767-0.75642-2.3091-1.1953-0.96174-1.9858-2.0921-1.911-3.5831 0.58017-1.5203 1.1921-2.9771 2.1897-3.6627 1.2789-1.4391 3.4377-1.8727 5.4209-2.5068z" fill="url(#h)" fill-rule="evenodd" opacity=".299" stroke="#fc0" stroke-width=".29055"/>
  <path d="m92.465 12.619-2.9168-2.74c-0.28302-1.9792 0.38435-2.3744 0.7513-3.2704 1.1546-1.2765 2.3964-0.37151 3.6681 1.2816l1.0607-4.3752c0.70591 0.72303 1.5819 1.276 1.5026 2.7842-0.20056 1.3929-0.78974 3.2391-0.35355 3.8891 0.64818-0.37523 1.2964-1.7655 1.9445-3.0494l0.92808-2.2539c0.28009 0.76589 0.99563 1.2208 0.53033 2.5191-0.41087 2.0903-1.1033 4.7155-0.39775 4.6846 2.3056-1.2916 1.7086-3.4368 2.2097-5.2591 1.3433 0.76706 1.9095 2.0781 2.0771 3.6681l-1.9004 3.5355c0.78142 1.1921 1.309 2.4036 0.57452 3.7123l-1.2816-0.22097-0.7513 1.37-3.0494 0.39775 0.7513 1.4584 2.2981 0.88388c0.43376 1.4453 0.20697 2.5132-0.17677 3.4913-0.8243 1.166-1.5788 2.5646-2.74 2.6075-1.3968 0.17005-2.5659-0.22901-3.4913-1.2374l-0.83969-1.7678c-0.73657 0.9637-1.4731 0.81357-2.2097 0.7513l-0.70711-3.0494c-0.55448-0.69357-1.3098-0.78462-1.5468-2.4307l1.4584-3.403 2.0771-1.9445c1.4086-0.70636 3.0457-0.84147 4.6846-0.97227z" fill="#fff" fill-rule="evenodd" stroke="#f00" stroke-width=".29055"/>
  <path d="m92.496 12.673-2.9168-2.74c-0.28302-1.9792 0.38435-2.3744 0.7513-3.2704 1.1546-1.2765 2.3964-0.37151 3.6681 1.2816l1.0607-4.3752c0.70591 0.72303 1.5819 1.276 1.5026 2.7842-0.20056 1.3929-0.78974 3.2391-0.35355 3.8891 0.64818-0.37523 1.2964-1.7655 1.9445-3.0494l0.92808-2.2539c0.28009 0.7659 0.99562 1.2208 0.53033 2.5191-0.41088 2.0903-1.1033 4.7155-0.39775 4.6846 2.3056-1.2916 1.7086-3.4368 2.2097-5.2591 1.3433 0.76706 1.9095 2.0781 2.0771 3.6681l-1.9004 3.5355c0.78142 1.1921 1.309 2.4036 0.57452 3.7123l-1.2816-0.22097-0.7513 1.37-3.0494 0.39775 0.7513 1.4584 2.2981 0.88388c0.43376 1.4453 0.20697 2.5132-0.17678 3.4913-0.8243 1.166-1.5788 2.5646-2.74 2.6075-1.3968 0.17005-2.5659-0.22901-3.4913-1.2374l-0.83969-1.7678c-0.73657 0.9637-1.4731 0.81357-2.2097 0.7513l-0.7071-3.0494c-0.55449-0.69357-1.3098-0.78462-1.5468-2.4307l1.4584-3.403 2.0771-1.9445c1.4086-0.70636 3.0457-0.84147 4.6846-0.97227z" fill="url(#j)" fill-rule="evenodd" stroke="#f00" stroke-width=".29055"/>
  <path d="m92.396 12.755-2.9168-2.74c-0.28302-1.9792 0.38435-2.3744 0.7513-3.2704 1.1546-1.2765 2.3964-0.37151 3.6681 1.2816l1.0607-4.3752c0.70591 0.72303 1.5819 1.276 1.5026 2.7842-0.20056 1.3929-0.78974 3.2391-0.35355 3.8891 0.64818-0.37523 1.2964-1.7655 1.9445-3.0494l0.92808-2.2539c0.28009 0.7659 0.99562 1.2208 0.53033 2.5191-0.41088 2.0903-1.1033 4.7155-0.39775 4.6846 2.3056-1.2916 1.7086-3.4368 2.2097-5.2591 1.3433 0.76706 1.9095 2.0781 2.0771 3.6681l-1.9004 3.5355c0.78142 1.1921 1.309 2.4036 0.57452 3.7123l-1.2816-0.22097-0.7513 1.37-3.0494 0.39775 0.7513 1.4584 2.2981 0.88388c0.43376 1.4453 0.20697 2.5132-0.17678 3.4913-0.8243 1.166-1.5788 2.5646-2.74 2.6075-1.3968 0.17005-2.5659-0.22901-3.4913-1.2374l-0.83969-1.7678c-0.73657 0.9637-1.4731 0.81357-2.2097 0.7513l-0.7071-3.0494c-0.55449-0.69357-1.3098-0.78462-1.5468-2.4307l1.4584-3.403 2.0771-1.9445c1.4086-0.70636 3.0457-0.84147 4.6846-0.97227z" fill="url(#i)" fill-rule="evenodd" opacity=".31" stroke="#f00" stroke-width=".29055"/>
  <path d="m42.464 83.659-1.2942 0.42599c0.84207 2.2458 1.3998 3.7502 1.7883 6.1711 0.38844 2.4209 0.88231 2.7022 1.0918 2.9029 0.52865 0.76638 0.97211 0.42391 1.1387 1.4017 1.5503-0.18655 3.1421-0.55445 4.6613-0.83325 0.70244-0.12891 2.0632 0.03524 2.619 1.4708-0.02036 0.01712-2.0958-0.96529-3.1133-0.77002-1.1101 0.21303-1.4225 0.854-2.2075 0.93736-0.97372 0.1034-2.2954-0.37823-2.2954-0.37823l2.0997 1.5697c1.8717 1.3992 5.4483 0.16982 8.9659 1.4986 0.50551 0.18445 1.4341 2.1287 1.6292 2.3863-0.53818-0.21161-2.1592-1.1561-3.0406-1.1074-0.88139 0.0487-2.7648 0.03865-4.3333-0.42897-1.5685-0.46763-2.0321-1.1586-3.0775-1.4349l-2.4626-0.4856c0.67296 0.43074 1.9498 1.1289 2.8048 2.4568 0.70038 1.0877 0.7807 2.5202 0.76387 3.1404-0.39802-0.25485-2.4848-3.3154-3.323-3.581-0.83818-0.26559-0.99507-0.57459-1.3644-1.4303-0.50421-0.06677-0.97108-0.3121-1.4043-0.50586-0.12171-0.11449-0.25646-0.35893-0.57227-0.80078l-0.5293-0.74219c-0.39773 0.40629-1.0543 0.71761-1.375 0.88086-0.32054 0.11478-0.88285 0.34582-1.7656 0.82226-0.60605 0.24173-1.7284 2.3238-2.0207 2.7762 0.02784-0.24486 0.40862-2.6023 0.5837-2.8279 0.82589-1.0644 1.3618-1.6593 2.1963-1.9136 0.83446-0.25432 1.7471-0.27947 2.0258-0.945 0.27868-0.66553 0.67076-1.1347-0.13638-3.1365-0.80714-2.0017-1.4709-4.7217-1.9515-7.3926l-1.4908-0.56019c0.49041 2.7259 0.93535 6.4536 2.2564 9.5836 0.24707 0.73611 0.18858 1.0496-0.78195 1.3913-0.97054 0.34171-2.5087 0.95325-3.3214 2.868s-0.67443 3.47-0.53443 4.1986c0.14 0.72855 0.2527 0.89477 0.46592 1.0187s0.28289-0.44151 0.97899-1.086c0.6961-0.64448 1.2583-0.73464 1.6187-1.33 0.36038-0.59537 0.85699-1.0353 1.3152-1.2906 0.51049-0.24813 0.99286-0.45784 1.4816-0.6762 0.10822 0.15222 0.17067 0.29215 0.3418 0.45312 0.32378 0.30458 0.85138 0.49235 1.4297 0.67188 0.56333 0.99358 1.4422 1.7158 2.7072 1.9628 1.2651 0.24697 1.6431 1.3323 2.4139 2.5412l0.60938 0.95703 0.7793-0.82226c0.82869-0.87347 0.97616-1.9903 0.70898-2.7891-0.17867-0.5342-2.1334-2.301-2.3805-2.6268 0.35987 0.11684 2.2391 1.6769 2.6149 1.7889 1.6501 0.49197 3.3832 0.922 4.5517 0.85315 1.1685-0.0689 1.9855 0.38938 3.1456 1.0923l1.5762 0.95508-0.24023-1.8281c-0.09113-0.69347-0.18918-1.4767-0.58203-2.2402-0.39285-0.76353-1.1245-1.4515-2.8966-1.635-1.515-0.40388-6.3339-0.9015-7.1514-1.1642-0.54927-0.49268 2.7747-0.57266 2.8664-0.58166 0.09175-9e-3 1.7988 0.40936 2.7118 1.1777 0.17426-1.5055-0.66385-2.702-1.6669-3.457-0.76473-0.57564-1.8892-0.75181-2.4964-0.63747l-3.6755 0.69215c-0.20579-0.512-0.40667-0.93309-0.67464-1.1897-0.395-0.3782-0.867-0.53794-1.0471-0.79458-0.30202-3.7265-0.99506-5.649-1.7353-7.6232z" color="#000000" color-rendering="auto" fill="#372c00" fill-rule="evenodd" image-rendering="auto" shape-rendering="auto" solid-color="#000000" style="block-progression:tb;isolation:auto;mix-blend-mode:normal;text-decoration-color:#000000;text-decoration-line:none;text-decoration-style:solid;text-indent:0;text-transform:none;white-space:normal"/>
  <path d="m8.7964 6.7063c-0.18073-0.00771-0.36181-4e-3 -0.54297 0.00977-0.48308 0.036703-0.96814 0.1508-1.4512 0.35156-2.244 1.7433-0.46619 3.3635 0.31445 5.1953-1.8912-0.26879-3.0888 0.21286-3.8164 1.875-1.2597 0.3968-2.0042 1.1134-2.2461 2.2676-0.34076 1.6256 0.93612 2.6526 1.9707 3.6641-0.14953 0.74072-0.32796 1.4778-0.2793 2.3223 0.053544 0.92925 0.42191 1.9039 1.0254 2.8105-0.12383 0.57295-0.30389 1.1675-0.20508 2.0117 0.092163 0.78739 0.57666 1.5872 1.25 2.3242-0.99906 1.1475-1.4235 1.5963 0.34375 2.6133-0.70978 0.71388-1.6343 1.2525-1.7207 2.0898-0.10026 0.97196 0.15793 2.011 1.6133 2.6094-1.3765 0.82543-1.7739 1.7766-1.8555 3.1699-0.081779 1.3977 1.3353 3.3435 3.5723 4.0762-1.0334 2.6985 0.425 6.8284 2.7988 7.416-0.82525 2.439 1.0912 4.0908 2.5098 5.4863-0.59377 1.0591-0.20369 2.1204 0.45117 2.8398 0.80109 0.88003 2.507 1.1409 3.9157 1.3712-0.73192 2.3368-0.27698 4.7218 0.85579 5.8573 0.69166 0.6933 2.162 0.40014 3.0167 0.65943 0.05908 1.3796 0.7639 3.0066 1.9169 4.2019 1.4179 1.4699 3.1734 0.91532 4.9747 0.63345-0.11726 2.1639 1.2353 2.5299 2.8788 2.6244 1.2968 2.5001 2.6298 5.5526 6.127 7.3105 0.94241 1.7461 2.4358 1.6222 3.9082 1.7246 1.6326 0.11358 2.9345 0.50435 3.7637-0.70898 1.0999-1.1285 1.3049-2.2354 1.6484-2.875 0.84785-0.05894 1.9608 0.10574 2.7129-0.32617 1.3873-1.016 1.9202-2.2923 2.9004-3.4824 1.4893 1.489 2.8004 3.4847 4.7207 3.7031 0 0 0.01172 0.0013 0.01758 2e-3 0.0059 6.67e-4 -1.3363-0.43529 0.01758 2e-3 1.7584 0.56731 2.5308 0.86614 4.1855 0.83203 0.67275-0.01387 2.572-0.01109 3.1582-0.55469 0.58619-0.5436 1.1839-0.66578 1.4824-1.6895 0.35509-1.2174 0.24007-2.6066 0-3.7246 0.55078-1.2978 0.98368-2.9519 0.89258-5.1309 0.73817-0.14699 1.5692-0.6833 2.209-0.65234 1.9535 0.09452 3.5236-0.65184 4.7988-1.3555 1.2467-0.68789 2.9966-1.2108 4.4941-2.5859 3.3667-3.0916 4.6274-6.1337 8.25-11.385 4.1455-6.0091 5.1144-12.245 6.8574-17.367 1.0277-3.0201 1.5445-6.1881 1.9102-8.8984 0.10276-0.76159-0.24103-1.141 0.08398-1.9043-0.35444-0.4754-0.70198-1.0513-0.97852-2.3965l0.3457-1.5254c0.20343-0.89938-2.0861 0.21137-0.69922 1.1719 0.19703 1.327-1.1343 1.6036-1.8164 1.0938-0.45561-0.34058 0.01769-0.95247-0.5332-2.2598-0.10231-0.24278-0.6725-1.0811-0.87305-1.252-0.1702-0.145-0.38312-1.1446 0.50781-1.5781 0.81195-0.3951 1.9198-0.18734 2.1836-0.67969 0.29959-0.55911-1.5316-2.5163-0.8457-2.9023 0.86992-0.48969 2.4616-1.282 3.2461-1.2676 0.83334 0.01529 1.2888-0.06233 2.1914 0.7207l1.4375 1.248c1.3555 1.1759 1.2908-0.02793 1.0078-0.55664-1.4129-2.6396-4.1288-3.6154-6.7324-3.8809-2.3158-0.23612-4.5585-0.32063-6.5801 0.35742-2.6375 0.88464-5.468 2.1171-7.5879 3.4941-2.0602 1.3383-3.3631 3.2898-4.5957 5.0273-1.2326 1.7376-2.3845 3.252-3.8516 4.0859-3.4358 1.9529-8.1964 1.6154-12.92 2.7188-4.0846 0.9541-7.6351 2.8937-11.037 2.8301-4.8883-0.09137-9.9035-0.39172-13.734-3.2109-1.4314-1.0534-2.5527-3.5103-3.7207-4.5977-1.2388-1.1533-2.1645-1.8884-2.8457-2.4551-1.7059-1.4192-3.3576-2.7048-4.0879-4.2227-0.91743-1.9068-2.4073-3.0488-3.791-3.7285-2.1775-1.0697-3.6181-2.6948-5.4004-4.0859-1.2018-0.93808-2.4537-1.5085-3.7188-1.5625zm0.51953 2.3555c0.61643 0.053964 1.317 0.48618 1.9004 0.93164 0.61986 0.47328 1.7125 1.3648 2.1875 1.8848 1.2217 1.3375 2.8197 1.9215 4.0078 2.5996 1.1881 0.67812 2.3489 1.7018 2.9219 2.8926 1.1418 2.3732 2.7678 3.5241 4.4922 4.7207 1.8137 1.2585 2.5866 2.6004 3.6055 4.293 0.48532 0.80623 2.4081 2.2753 3.5176 2.8691 4.9173 2.632 8.7538 3.4314 14.094 3.5312 4.4242 0.0827 8.1965-1.4588 11.734-2.2852 4.1072-0.95938 9.2277-0.48536 13.676-3.0137 2.1574-1.2263 3.5166-3.1541 4.7637-4.9121s2.2745-3.5626 3.5176-4.7402c1.7303-1.6391 4.2543-2.7538 6.4414-3.6328 1.2729-0.5116 5.4595-1.2456 7.8809-0.62305-1.6246 0.07713-3.7446 1.3729-4.6699 2.7383-0.69466 1.025-1.4663 2.3298-1.5117 3.4609-0.03328 0.828 0.35048 1.6401 0.55273 2.2676 0.17123 0.53121 0.70953 0.8161 1.3301 1.2109 0.15073 0.61799-0.08711 1.6298 0.20508 2.0645 0.53868 0.80134 2.0686 1.2546 2.8691 0.15625 0.48081 2.6141-0.76523 6.8499-2.1426 10.773-1.9287 5.4943-3.923 11.032-7.6465 16.43-3.7321 5.4098-4.9009 8.2148-7.834 10.908-0.88363 0.81144-2.3634 1.3194-3.9473 2.1934-1.2238 0.67527-2.3533 1.0829-3.002 1.0332-2.0216-0.15501-3.5883 0.94712-5.2227 2.0195 0.64968 2.266-0.57028 4.577-1.2598 6.3184 0.3459 0.96315 0.39638 2.0208 0.28906 2.9531-0.06371 0.55346-0.0816 1.4214-0.35156 1.7246-0.12394 4e-3 -2.5101-0.04004-3.3711-0.25977-0.96288-0.44672-1.1929-1.4089-2.7266-1.832-1.5336-0.42313-2.5984-1.4665-2.1191-2.5664 0.47931-1.0999 1.6399-2.5672 2.752-3.1992 0.56724-0.32241 2.1612 1.3361 3.043 1.2324 1.1146-0.13106 2.831-2.8248 2.584-3.2188-0.5396-0.86075-2.0154 1.7987-2.748 1.8652-1.088 0.09879-2.3045-2.0403-3.1875-1.4941-2.4197 1.4965-2.6693 2.7411-3.5957 2.666-0.10885-0.0088-1.7086 1.1833-2.1816 1.9023-0.57722 0.8775-1.5978 0.62321-2.2305 1.3008-0.15596 0.70985-0.68809 1.2194-1.0977 1.627-0.99838 0.39898-1.2378 1.4941-2.2656 1.4512-1.2572 1.9598-2.3776 3.8667-3.9336 3.7617-1.5119-0.10202-2.7622-0.75939-3.3184-2.0215-3.1367-1.5884-4.1269-4.656-5.5312-7.2832-3.0095-0.49514-2.7759-1.9144-3.4395-3.9492-0.95874 0.50424-3.646 1.1525-4.6229 0.85592-1.9295-0.58587-1.9906-2.9372-2.1232-4.686-0.7475-0.34558-2.5709-0.21806-3.0874-0.77962-1.9085-2.0747-1.1677-3.1872-0.15475-5.3141-1.5794 0.04399-3.6754-0.66493-4.1119-1.0777-0.60942-0.57624-0.43443-1.2671 0.17246-1.5922 0.92116-0.49345 1.7865-0.91762 2.4414-1.6074 0.80804-0.85106 3.6688-3.8046 3.2324-4.043-0.43642-0.2384-3.6268 2.4883-4.2207 3.127-0.36683 0.39446-0.89778 0.59322-1.4727 0.75195-1.562-1.4852-2.6966-3.0162-2.6562-4.123 0.04402-1.2084 0.57925-1.7983 0.89844-1.9746 1.1205-0.61886 3.5493-1.3149 3.375-1.7188-0.1743-0.40387-3.025 0.27557-3.8516 0.72461-0.45802 0.24883-0.95693 0.74746-1.4141 1.252-1.5159-1.2557-2.709-2.7363-1.7109-4.9688 0.60374-0.03353 1.1956-0.13322 1.6504-0.22461 0.99268-0.19946 3.3541-2.1577 3.1621-2.5566-0.19199-0.39897-2.8116 1.1975-3.5977 1.3555-0.65331 0.13127-2.439-0.40269-2.8145-0.63867-1.2062-0.75817-1.6825-1.3538-1.8926-2.5293-0.080101-0.44821 0.48169-1.8342 1.5137-2.0645 0.83034 0.25044 1.652 0.30551 2.418 0.20117 1.1513-0.15683 3.7688-1.379 3.6582-1.748-0.11062-0.36904-3.0747 0.60894-3.9238 0.72461-0.7751 0.10558-1.9333-0.28162-2.6816-0.87109-0.54978-0.43307-0.90862-1.1261-0.83594-1.6133 0.11994-0.80384 1.7007-1.2485 2.3652-1.3145 1.0942-0.10866 2.1071 0.6002 2.916 0.58398 1.3233-0.02652 2.6763-1.5379 2.6113-1.8047-0.06498-0.26678-1.4313 0.42167-2.8633 0.45508-0.80423 0.01876-1.9244-0.36154-2.8984-0.91602-0.9232-0.52551-1.6112-1.4816-1.416-1.6523 1.3791 0.82718 3.1968 0.63255 4.1855 0.45117 0.82968-0.1522 2.9337-1.3702 2.752-1.6328-0.18179-0.26257-2.4558 0.5396-3.1777 0.49805-1.72-0.099-3.1745-0.60187-4.5215-1.584-0.84108-0.61327-0.90717-1.9168-0.89453-2.0352 0.78645 1.0538 2.6204 1.1454 3.1191 1.209 1.0592 0.13503 4.2927-0.27956 4.1934-0.73242-0.09933-0.45286-3.2875-0.09718-4.1836-0.41016-1.6231-0.5669-3.2912-2.64-3.3184-4.3223 0.65509 0.65039 1.7197 1.2884 2.1055 1.541 0.83817 0.54894 3.3688 0.97528 3.457 0.6582 0.088257-0.31708-2.2392-1.2584-2.8809-1.6895-0.85703-0.57571-1.8322-1.2084-2.2129-1.752l-1.9219-2.7441c-0.34161-0.48775-0.75601-1.8515 0.75391-1.8574 1.4307 0.57346 2.8818 1.0275 3.9316 1.9512 1.8373 1.6165 3.0994 3.3742 3.4688 5.5156 1.182 0.47487 2.4946 0.73558 3.666 0.74023 0.75767 3e-3 2.9282-0.73349 2.9102-1.1699-0.01803-0.43643-2.2825 0.01696-2.8008 0.05078-0.45311 0.02957-1.8279-0.26684-2.8223-0.57812-0.50142-2.0306-1.5199-3.9873-3.5938-5.4766-1.2949-0.9299-2.4565-1.5344-3.5723-1.9414 0.8862-0.44592 2.0453-0.72719 3.1113-0.63477 1.4136 0.12256 2.3557 1.537 3.9824 1.666 0.68809 1.4148 1.602 1.9434 2.4004 2.4004 1.0829 0.61976 4.5046 0.89381 4.6426 0.48828 0.13802-0.40553-3.3166-0.6457-4.1387-1.3613-0.83395-0.72598-1.4125-1.9034-2.2773-2.8125-1.3479-0.025495-2.7173-0.40975-3.457-1.3086-0.93971-1.1419-1.8666-2.6461-0.97852-3.7012 0.26707-0.31727 0.6067-0.42105 0.97656-0.38867z" color="#000000" color-rendering="auto" fill="#2e0303" fill-rule="evenodd" image-rendering="auto" shape-rendering="auto" solid-color="#000000" style="block-progression:tb;isolation:auto;mix-blend-mode:normal;text-decoration-color:#000000;text-decoration-line:none;text-decoration-style:solid;text-indent:0;text-transform:none;white-space:normal"/>
  <path d="m43.058 33.398c-1.009-0.04289-3.3297 0.32196-6.4805 1.5332-4.201 1.615-8.971 2.9626-11.396 6.2461-0.67284 0.91084-1.3048 1.974-1.1211 3.3652 0.09187 0.6956 0.51506 1.6251 1.2793 1.375 1.0906-0.35687 1.5079-0.52477 1.6797-0.46289-0.0083 0.25773-1.2852 1.2075-1.6973 2.2773-0.21866 0.56776-0.53791 1.3113 0.18945 1.584 0.22874 0.08577 2.184-0.43078 2.4121-0.41016 0.21849 0.57766 0.5377 1.1076 1.0645 1.4531 0.91521 0.60034 1.8977 0.64751 3.0723 0.64258 1.9744-0.0083 4.2091 0.26495 6.5527-0.18555 1.4446-0.27768 2.9329 0.5813 4.7793 1.9004s3.8938 3.0497 6.6094 3.2949c1.0197 0.09207 5.5974-2.9418 5.3633-3.5859-0.23414-0.64411-5.3238 1.9543-5.4453 1.9434-1.5573-0.14061-3.5758-1.7952-5.5-3.1699s-3.5732-3.1357-6.3418-2.6035c-1.7723 0.34067-3.4872 0.82936-5.6914 0.80859-1.7438-0.01643-1.9127-0.8034-1.4062-1.1953 0.80332-0.6216 1.6732-0.76033 2.3105-1.1895 0.99023-0.66674 1.8012-1.4393 3.0215-2.4473 2.4947-2.0607 0.93809-1.6622-0.83008-0.76367-1.3324 0.67707-2.0914 1.433-3.0234 2.0156-0.4917 0.30736-1.0598 0.57746-1.6777 0.79102-0.1711 0.05913-0.45867 0.15062-1.4334 0.62777-0.97472 0.47715-2.9723 1.6217-2.9533 0.83707 0.01639-0.67919 1.4596-1.9429 2.5938-2.8496 1.1342-0.90667 1.5415-1.3433 2.4434-1.8652 0.55855-0.32325 1.3593-0.76088 2.4902-0.95703 3.2931-0.57114 1.7494-0.97941 0.58594-0.95508-3.3974 0.07105-3.2762 1.3401-5.5508 2.3164-0.8871 0.38077-2.1476 0.40314-2.791 0.38672-0.23757-1.1513 1.0548-2.2788 1.4102-2.7598 1.651-2.235 5.5248-3.9072 9.541-5.4512s6.604-2.028 6.4961-2.3828c-0.02698-0.0887-0.21835-0.14977-0.55469-0.16406z" color="#000000" color-rendering="auto" fill="#280000" fill-rule="evenodd" image-rendering="auto" shape-rendering="auto" solid-color="#000000" style="block-progression:tb;isolation:auto;mix-blend-mode:normal;text-decoration-color:#000000;text-decoration-line:none;text-decoration-style:solid;text-indent:0;text-transform:none;white-space:normal"/>
  <path d="m57.416 30.781c-0.27566 0.23413 0.65657 1.6811 1.2268 2.1349 1.4323 1.1397 2.2515 1.479 3.9677 1.2489-0.87952 0.51532-2.5664 2.307-1.8144 3.2762 1.3403 1.7275 4.2034 0.13362 5.9324 0.31179-0.8441 1.1032-2.3428 3.6169-1.4295 3.9208-0.06387 1.2421 2.4887 0.84511 3.0271 0.65461-0.44529 1.1237-0.92347 2.0286-0.26009 2.8696 0.77772 0.98604 2.0503 0.34029 3.6232-0.07687-0.74387 1.3828-0.41413 2.5905 0.23364 2.9796 0.65461 0.39325 3.5435-1.2198 4.2471-1.4894 0.42685 1.3088 0.76697 3.0923 1.7487 3.4392 1.1546 0.40792 2.69-1.2742 3.4388-2.8297 0.72862 1.8967-0.23036 3.7041 1.1402 3.9887 1.4403 0.29907 1.4497-1.0904 2.6384-2.4074 0.9819-1.0878 0.83365-1.9399 1.5124-3.6388-1.552 0.95979-3.0574 3.6435-3.5582 3.9503-0.52888 0.32401-1.26-3.6757-1.4953-4.2465-0.87543 0.68601-2.324 3.1636-3.2441 3.0084-0.93843-0.15832-0.95727-2.4672-1.0904-3.7979-1.0135 0.34595-3.0688 2.4593-4.1156 2.1119-0.85771-0.28467 0.26176-2.9026 1.5146-3.9781-2.1337 0.74711-3.0485 1.774-4.6959 1.1724-0.7765-0.28355 0.15645-2.4941 0.94134-3.8727-0.61605 0.49864-2.5969 1.2222-3.8816 1.1394-1.2847-0.08278 0.42323-2.2912 0.90345-2.8079 0.68221-0.67521 1.3863-1.328 2.0783-1.9931-2.3346 0.11076-5.4211 1.7819-7.0137 0.05273-1.0135-1.1005 2.1035-2.2534 1.7298-2.7336-0.37367-0.48021-2.257-0.26005-4.4734-1.3182-0.50775-0.2424-2.5562-1.3035-2.8318-1.0693z" color="#000000" color-rendering="auto" fill="#401818" fill-rule="evenodd" image-rendering="auto" shape-rendering="auto" solid-color="#000000" style="block-progression:tb;isolation:auto;mix-blend-mode:normal;text-decoration-color:#000000;text-decoration-line:none;text-decoration-style:solid;text-indent:0;text-transform:none;white-space:normal"/>
  <path d="m90.699 10.019c-0.53657-0.68768-0.19145-1.6804 0.11214-2.3183 0.2075-0.43601 1.108-0.80426 1.274-0.68508s1.0062 0.7978 1.1127 1.0727c0.21299 0.54987 0.2668 1.9412 0.2668 1.9412 0.59397 0.05217 1.8522-3.8539 2.0667-5.3421 0.64246 0.87214 0.37688 2.625 0.17652 3.4411-0.06659 0.27123-0.31415 2.0751 0.17226 2.6898 0.68189-0.24357 1.3876-0.77998 1.8562-1.6231 0.15645-0.28151 1.1553-3.0116 1.3078-3.2867 0.51592 0.39032-0.10541 2.8051-0.22555 3.202-0.25791 0.85206-0.59652 2.3827 0.03118 3.5543 0.71215-0.20782 1.4525-0.3823 2.0966-1.4121 0.27169-0.43438 1.0837-2.1745 0.91743-3.3303 0.83069 0.93748 0.67332 1.7397 0.25187 3.084-0.37496 1.1961-0.91009 1.9667-1.3651 2.9501 0.67949 1.1403 1.2484 1.6816 0.28599 3.1074-0.612 0.04717-0.76735 0.41851-1.0332 0.85352-0.54036-0.14671-1.118 0.19772-1.9499 0.50282-0.83319 0.30557-1.944 0.51158-1.814 1.1655 0.17758 0.89351 0.86331 1.4397 1.6257 1.7918 0.05633 0.42414-0.12441 0.55852-0.71715 0.85605-1.1235 0.56394-3.2751 1.1972-3.1666 1.2358 0.07996 0.02847 2.1883-0.37669 3.5001-0.87047 0.66636-0.25084 1.0193-0.57656 1.2383-0.90294 0.22643 0.06839 0.44551 0.12458 0.64584 0.17262 0.49025 0.77391 0.33605 2.2254-0.03872 2.6459-0.38284 0.42962-1.158 1.789-1.6026 1.9873-1.1507 0.51348-2.5806 0.48427-3.2339-0.21054-0.58726-0.62455-1.1834-1.9686-1.1834-1.9686l-0.5933 0.4425s-0.05844 0.8943 0.62138 1.6603c0.67982 0.76598 1.9543 2.2686 3.2492 2.2701 0.87734 9.84e-4 1.7506-0.74805 2.3333-1.2792 0.58268-0.53117 1.1889-1.3674 1.5244-2.042 0.49492-0.99531 0.19771-2.2802 0.15502-3.2675-0.0636-0.31526-0.26927-0.4132-0.84764-0.65527-0.72727-0.05131-1.734-0.9086-1.9845-1.2028-0.38328-0.45007 0.23634-0.95821 0.39318-0.98289 0.90731-0.14279 3.1281 1.1638 3.9362 0.47589 0.33952-0.28903-1.1983-1.1426-1.033-1.5401 0.33182-0.58708 0.937-0.12445 1.3646 0.06089 0.23789-0.388 0.47771-0.77504 0.56925-1.2362 0.39718-2.0009-0.40489-2.2381-0.76436-2.9442 0.60594-0.60382 1.3873-1.9361 1.5751-2.8265 0.22223-1.0535-0.032-2.9826-1.5182-4.2275l-1.2934-1.0833c-4e-3 0.080768 0.0209 1.6492-0.40524 3.1019-0.28169 0.96025-0.51476 1.4171-1.3562 2.421 0.13952-0.92908 1.0659-3.5029 0.98832-4.8837-0.0206-0.3659-0.52528-1.6817-1.3068-2.5465-0.40735 0.27326-0.44851 1.4858-0.81594 2.2178-0.65934 1.3135-1.3754 2.447-1.6561 3.0432 0.09716-0.46529 0.55905-2.3885 0.5136-2.9229-0.06389-0.75099-0.40596-2.1193-1.0835-2.758-0.39642-0.37369-1.027-1.2555-1.5678-1.1959 0.09563 0.78633 0.06999 1.512 0.0169 2.224-0.04954 0.66446-0.30831 1.6234-0.65039 2.3522-0.28672-0.82114-0.93115-1.3557-1.5495-1.4689-1.0095-0.18474-2.1414 0.51981-2.6054 1.2468s-0.6021 1.6005-0.57099 2.4305c0.02482 0.66222 0.53694 1.4725 0.88651 1.9249 0.34957 0.45237 1.1098 0.83024 1.5214 1.1867 0.82321 0.7129 1.5706 0.8082 1.5706 0.8082l1.0473-0.55929s-0.75606-0.52345-1.3578-0.98854c-1.1503-0.88904-1.6774-1.2559-1.9141-1.5592z" color="#000000" color-rendering="auto" fill="#800000" fill-rule="evenodd" image-rendering="auto" shape-rendering="auto" solid-color="#000000" style="block-progression:tb;isolation:auto;mix-blend-mode:normal;text-decoration-color:#000000;text-decoration-line:none;text-decoration-style:solid;text-indent:0;text-transform:none;white-space:normal"/>
  <path d="m96.62 19.734c0.86548 0.83138 1.8061 1.5313 3.1378 1.5468l5.7452 3.9333c0.52605-0.78853 0.79848-1.7461 0.61872-3.0052-0.87123-1.5426-2.1081-2.9938-3.4472-4.4194-0.63877-0.35107-1.3207-0.44326-2.0771-0.08839l-0.17678 1.37c-1.3101-0.42689-2.6068-0.65292-3.8007 0.66291z" fill="#ffd723" fill-rule="evenodd" stroke="#f60" stroke-width=".29055"/>
  <path d="m101.48 16.261c0.0843 0.41746-0.39599 0.51642-0.39934 0.79867-0.22413 0.04285-0.69356-0.10606-1.0443 0.91163-0.25232-0.16043-0.62911-0.06285-1.1688 0.16418-1.2846 0.54042-1.1484 0.38102-2.0643 0.71966-0.4358 0.16114-0.89561 0.34645-0.43014 1.327 0.71461 1.5053 2.759 1.1443 3.7521 1.9716l2.7852 2.3203c0.89425 0.74498 1.9531 1.0863 3.0156 1.1133l0.25591-0.92964c0.269-0.97723 0.47321-1.6778 0.3457-2.4668s-0.58388-1.4215-1.2734-2.1992l-2.4746-2.791c-0.4162-0.49146-0.82056-1.0206-1.2996-0.93959zm2.9259 4.3291c0.62736 0.70779 0.87091 1.1322 0.98895 1.3863 0.27839 0.59911 0.47917 1.226 7e-3 2.0657 0 0-1.0634-1.2201-1.637-1.7028-0.78118-0.6575-1.9688-1.2545-2.5957-1.4967-0.43237-0.16702-1.3428-0.62992-1.9342-0.56871-0.62522 0.0647-1.1623 1.58e-4 -1.2438-0.52058 0.42875-0.18386 0.89168-0.28695 1.5527-0.17188l1.1508 0.29394c0.4979 0.24022 0.93909 0.08354 1.3858-0.03478 0.57244-0.15867-0.55602-0.97075-0.87641-1.1849-0.33976-0.67772 0.6454-0.8746 1.203-0.33548 0.7638 0.45254 1.3522 1.5398 1.9993 2.2699z" color="#000000" color-rendering="auto" fill="#b98b00" fill-rule="evenodd" image-rendering="auto" shape-rendering="auto" solid-color="#000000" style="block-progression:tb;isolation:auto;mix-blend-mode:normal;text-decoration-color:#000000;text-decoration-line:none;text-decoration-style:solid;text-indent:0;text-transform:none;white-space:normal"/>
  <path d="m96.444 18.364c-0.61608 0.58138-1.5845 0.56155-2.1762-0.04456-0.59174-0.60613-0.58834-1.5747 0.0077-2.1767 0.59598-0.60197 1.5645-0.61504 2.2133 0.0084 0.60764 0.66359 0.57136 1.6315-0.04472 2.2129z" fill="#422020" stroke="#9e0000" stroke-linecap="round" stroke-linejoin="round" stroke-width=".35433"/>
  <path d="m96.117 17.935c-0.36137 0.34101-0.92939 0.32938-1.2765-0.02614-0.34709-0.35553-0.3451-0.92367 0.0045-1.2768 0.34958-0.35309 0.91767-0.36076 1.2982 0.0049 0.35641 0.38924 0.33514 0.95698-0.02623 1.298z" stroke="#eee" stroke-linecap="round" stroke-linejoin="round" stroke-width=".35433"/>
 </g>
</svg>
