<?xml version="1.0" encoding="UTF-8"?>
<svg width="31.859mm" height="31.828mm" version="1.1" viewBox="0 0 112.88494 112.7758" xmlns="http://www.w3.org/2000/svg" xmlns:xlink="http://www.w3.org/1999/xlink">
 <defs>
  <linearGradient id="a">
   <stop stop-color="#a4a4a4" offset="0"/>
   <stop stop-color="#434343" offset="1"/>
  </linearGradient>
  <linearGradient id="v">
   <stop stop-color="#6b2d09" offset="0"/>
   <stop stop-color="#422513" offset="1"/>
  </linearGradient>
  <pattern id="ae" xlink:href="#u" patternTransform="scale(.98439 1.0197)"/>
  <pattern id="ab" xlink:href="#u" patternTransform="matrix(.67825 0 0 .91183 .88961 .51272)"/>
  <pattern id="u" width="10" height="10" patternTransform="translate(0) scale(10)" patternUnits="userSpaceOnUse">
   <circle cx="2.567" cy=".81" r=".45"/>
   <circle cx="3.048" cy="2.33" r=".45"/>
   <circle cx="4.418" cy="2.415" r=".45"/>
   <circle cx="1.844" cy="3.029" r=".45"/>
   <circle cx="6.08" cy="1.363" r=".45"/>
   <circle cx="5.819" cy="4.413" r=".45"/>
   <circle cx="4.305" cy="4.048" r=".45"/>
   <circle cx="5.541" cy="3.045" r=".45"/>
   <circle cx="4.785" cy="5.527" r=".45"/>
   <circle cx="2.667" cy="5.184" r=".45"/>
   <circle cx="7.965" cy="1.448" r=".45"/>
   <circle cx="7.047" cy="5.049" r=".45"/>
   <circle cx="4.34" cy=".895" r=".45"/>
   <circle cx="7.125" cy=".34" r=".45"/>
   <circle cx="9.553" cy="1.049" r=".45"/>
   <circle cx="7.006" cy="2.689" r=".45"/>
   <circle cx="8.909" cy="2.689" r=".45"/>
   <circle cx="9.315" cy="4.407" r=".45"/>
   <circle cx="7.82" cy="3.87" r=".45"/>
   <circle cx="8.27" cy="5.948" r=".45"/>
   <circle cx="7.973" cy="7.428" r=".45"/>
   <circle cx="9.342" cy="8.072" r=".45"/>
   <circle cx="8.206" cy="9.315" r=".45"/>
   <circle cx="9.682" cy="9.475" r=".45"/>
   <circle cx="9.688" cy="6.186" r=".45"/>
   <circle cx="3.379" cy="6.296" r=".45"/>
   <circle cx="2.871" cy="8.204" r=".45"/>
   <circle cx="4.59" cy="8.719" r=".45"/>
   <circle cx="3.181" cy="9.671" r=".45"/>
   <circle cx="5.734" cy="7.315" r=".45"/>
   <circle cx="6.707" cy="6.513" r=".45"/>
   <circle cx="5.73" cy="9.67" r=".45"/>
   <circle cx="6.535" cy="8.373" r=".45"/>
   <circle cx="4.37" cy="7.154" r=".45"/>
   <circle cx=".622" cy="7.25" r=".45"/>
   <circle cx=".831" cy="5.679" r=".45"/>
   <circle cx="1.257" cy="8.519" r=".45"/>
   <circle cx="1.989" cy="6.877" r=".45"/>
   <circle cx=".374" cy="3.181" r=".45"/>
   <circle cx="1.166" cy="1.664" r=".45"/>
   <circle cx="1.151" cy=".093" r=".45"/>
   <circle cx="1.151" cy="10.093" r=".45"/>
   <circle cx="1.302" cy="4.451" r=".45"/>
   <circle cx="3.047" cy="3.763" r=".45"/>
  </pattern>
  <pattern id="af" xlink:href="#y" patternTransform="matrix(.84691 -.3127 .82645 2.2383 61.5 2.25)"/>
  <pattern id="y" width="1.5" height="1" patternTransform="translate(0) scale(10)" patternUnits="userSpaceOnUse">
   <rect y="-.5" width="1" height="2"/>
  </pattern>
  <radialGradient id="ag" cx="87.029" cy="7.904" r="1.6754" gradientTransform="matrix(1 0 0 2.0914 0 -8.6265)" gradientUnits="userSpaceOnUse">
   <stop stop-color="#370000" offset="0"/>
   <stop stop-color="#200" offset="1"/>
  </radialGradient>
  <pattern id="ad" xlink:href="#w" patternTransform="matrix(.47855 -.47855 4.0267 4.0267 -7.75 -88.75)"/>
  <pattern id="w" width="3" height="1" patternTransform="translate(0) scale(10)" patternUnits="userSpaceOnUse">
   <rect y="-.5" width="1" height="2"/>
  </pattern>
  <linearGradient id="z" x1="25.344" x2="25.195" y1="68.155" y2="57.194" gradientUnits="userSpaceOnUse" xlink:href="#v"/>
  <pattern id="ac" xlink:href="#x" patternTransform="matrix(.44813 -.37344 3.0409 3.6491 37.25 -70.5)"/>
  <pattern id="x" width="3" height="1" patternTransform="translate(0) scale(10)" patternUnits="userSpaceOnUse">
   <rect y="-.5" width="1" height="2"/>
  </pattern>
  <linearGradient id="aa" x1="55.771" x2="58.647" y1="75.134" y2="69.389" gradientUnits="userSpaceOnUse" xlink:href="#v"/>
  <radialGradient id="ah" cx="96.002" cy="32.272" r="5.4954" gradientTransform="matrix(2.7515 -.9781 .94458 2.6572 -198.63 48.647)" gradientUnits="userSpaceOnUse">
   <stop stop-color="#b7a89d" offset="0"/>
   <stop stop-color="#e6c8b2" offset=".53612"/>
   <stop stop-color="#ffc9a3" offset=".62508"/>
   <stop stop-color="#ffc9a3" offset="1"/>
  </radialGradient>
  <radialGradient id="ai" cx="90.189" cy="19.794" r="1.2188" gradientTransform="matrix(.58127 .82678 -1.5314 1.0766 68.044 -76.39)" gradientUnits="userSpaceOnUse">
   <stop stop-color="#edd1d1" offset="0"/>
   <stop stop-color="#6f1111" offset=".41026"/>
   <stop stop-color="#5e0000" offset="1"/>
  </radialGradient>
  <radialGradient id="aj" cx="8.4852" cy="94.875" r="4.0532" gradientTransform="matrix(1 0 0 .64764 0 33.719)" gradientUnits="userSpaceOnUse" xlink:href="#a"/>
  <radialGradient id="ak" cx="8.4852" cy="94.875" r="4.0532" gradientTransform="matrix(1 0 0 .64764 27.312 34.778)" gradientUnits="userSpaceOnUse" xlink:href="#a"/>
  <radialGradient id="am" cx="8.4852" cy="94.875" r="4.0532" gradientTransform="matrix(1 0 0 .64764 43.045 36.192)" gradientUnits="userSpaceOnUse" xlink:href="#a"/>
  <radialGradient id="al" cx="8.4852" cy="94.875" r="4.0532" gradientTransform="matrix(1 0 0 .64764 65.584 40.258)" gradientUnits="userSpaceOnUse" xlink:href="#a"/>
 </defs>
 <g transform="translate(3.408 3.239)">
  <path d="m19.205 25.603c-0.71699-0.76896-1.68-1.2919-3.3909-1.0669l-2.0329 1.8562-3.0052 0.97227c-1.1405 1.9037-2.3512 3.1759-3.2704 7.0711l-2.1213 7.6898-0.26516 6.364-1.591 6.0988-0.70711 10.341-1.6794 6.6291-0.97227 11.049c0.52988-1.2628 0.83044-0.46178 1.591-3.8007l0.26516 4.0659c0.37748-1.1473 0.52032-3.4677 1.3258-2.4749l0.53033 2.2981c1.1367 0.57743 1.0846-2.8075 1.591-4.331 0.29615 1.6624 0.16692 3.9628 1.3258 4.331 0.41248-1.0607 0.82496-0.94281 1.2374 0.35355 1.549 1.5002 1.4709 0.39718 1.9445 0.17678l-0.26516-3.0052c0.61015 0.99796 0.99356 2.6762 2.0329 2.3865 0.70544-1.0501 0.89708-3.3847 1.149-5.5685l-0.61872-5.8336-0.44194-5.0381v-5.0381l0.97227-6.2756-1.6794-10.076-0.35355-10.076 1.4142-4.1543c1.6241-1.3935 3.2483-2.7527 4.8724-2.1519z" fill="#f5bd59" fill-rule="evenodd"/>
  <path d="m16.959 23.992c-0.95799-0.03374-1.8985 0.16309-2.1934 0.44141-0.42426 0.40048-0.76612 0.72253-1.1113 0.98828-0.39502 0.3041-0.93976 0.51144-1.5234 0.75391-0.58367 0.24246-1.4036 0.33933-1.8906 0.89258-2.8354 3.2209-3.8824 9.1548-4.9355 13.098-0.73254 2.7427-0.11494 5.7154-0.61328 8.3359-0.35875 1.8865-1.359 3.7912-1.7324 5.7773-0.68338 3.6348-0.30849 7.47-0.76367 10.982-0.29739 2.2949-1.3263 4.4219-1.6094 6.8887-0.34411 2.9987-0.44489 8.0179-0.44726 8.2188-0.02848 2.4045 0.11932 2.958 0.58984 0.12305 0.03288-0.19814 0.698-5.2251 1.0391-8.1973 0.26331-2.2945 1.3202-4.4464 1.6387-6.9043 0.47276-3.6481 0.22813-7.4976 0.87891-10.959 0.35469-1.8866 1.0113-3.7595 1.3887-5.7441 0.52584-2.7651 0.44679-5.5536 1.1289-8.1074 1.0666-3.9934 1.7825-9.7192 4.375-12.664 0.30985-0.35197 0.77937-0.58521 1.3359-0.81641 0.55656-0.2312 1.1913-0.45319 1.752-0.88476 0.46765-0.36002 0.80742-0.67832 1.0879-0.97266 0.32874-0.34499 2.3117-1.039 3.0566-0.43945l0.15625-0.46875c-0.45137-0.21808-1.0326-0.32155-1.6074-0.3418zm-3.6699 5.4082c-0.15318 0.04225-0.51598 0.28911-1.1562 0.76758-0.33393 0.24954-0.47959 0.51611-0.61719 0.88672-0.1376 0.3706-0.43958 0.76549-0.54297 1.3008-0.20678 1.0706-0.45637 2.5412-0.56055 4.0195-0.20835 2.9566 0.06011 6.2622 0.35156 8.2812 0.81287 5.6313 1.7332 7.7446 1.4961 10.469-0.02311 0.26558-0.12436 0.64715-0.17578 0.9082-0.10516 0.53388-0.24248 1.2449-0.37891 2.0273-0.27285 1.5649-0.5423 3.4021-0.51953 4.748 0.03204 1.8938 0.26856 3.4615 0.41211 5.2715 0.16686 2.1039 0.27226 4.071 0.53906 6.1484 0.35448 2.7601 0.16047 5.168-0.30274 7.2578-0.20786 0.93779 0.14507 1.2732 0.5293 0.16211 0.75166-2.1737 1.4141-4.656 1.0469-7.5156-0.26086-2.0311-0.36705-3.9195-0.53516-6.0391-0.14671-1.8499-0.37742-3.3272-0.4082-5.1465-0.02017-1.1918 0.17262-2.4545 0.44141-3.9961 0.1344-0.77081 0.36032-1.788 0.4707-2.3184 0.07129-0.34256 0.16644-1.1329 0.19141-1.4355 0.25718-3.118-1.0875-6.9145-1.5957-10.555-0.26052-1.8662-0.67527-5.2319-0.4707-8.1348 0.10228-1.4514 0.22581-2.8016 0.41992-3.8066 0.09706-0.50251 0.17339-0.98233 0.2793-1.2676s0.37797-0.5709 0.42578-0.64844c0.58919-0.95554 0.91546-1.4552 0.66016-1.3848zm-3.0684 3.4102c-0.11977-0.0094-0.32938 0.14459-0.46094 0.32812-0.71438 0.99666-1.1365 2.9899-1.4688 5.1484-0.33226 2.1585-0.61818 4.3966-0.88086 5.5215-0.53153 2.2762-0.8893 4.4964-1.084 6.8281-0.18784 2.2498-0.68839 5.4948-1.1895 7.6953-0.65631 2.8822-0.28695 5.9539-0.94336 8.5762-0.48962 1.956-1.2228 3.9439-1.4023 6.0781-0.11011 1.3092 0.2396 3.3568 0.39258 5.1113 0.15298 1.7546 0.44541 2.9644 0.48828 3.168 0.38879 1.8458 0.52977 1.5343 0.42969-0.0918-0.01278-0.2076-0.30188-1.6794-0.45312-3.4141s-0.33294-3.5407-0.23633-4.6895c0.16448-1.9557 0.93047-3.8924 1.4375-5.918 0.71958-2.8746 0.28493-5.8923 0.88672-8.5352 0.51615-2.2668 1.0176-5.5805 1.2109-7.8965 0.1906-2.2828 0.60355-4.4505 1.125-6.6836 0.29175-1.2494 0.56518-3.5225 0.89453-5.6621s0.82036-4.2039 1.1719-4.9141c0.23172-0.46817 0.2018-0.64098 0.08203-0.65039zm-0.34766 8.5352c-0.07244 0.01863-0.18807 0.32764-0.34961 0.86914-0.16259 0.54502-0.20511 0.94471-0.33203 1.625-0.17541 0.94019-0.29794 1.3651-0.4082 2.2363-0.22053 1.7424-0.52901 3.5778-0.67188 4.0879-0.60743 2.1688-0.17422 4.6202-0.39453 6.582-0.19665 1.7511-0.49318 3.1891-0.81641 4.9531-0.1105 0.60303-0.01081 1.4819 0.06836 2.4375 0.07916 0.95557 0.15325 1.9567 0.11523 2.3379-0.21619 2.1677-0.50531 4.3783-0.63281 6.5879-0.1613 2.7952 0.037972 8.4876 0.058594 8.6523 0.16602 1.3267 0.33203 1.0708 0.49805-0.01367 0.02513-0.16417-0.03165-5.6745 0.12891-8.457 0.12468-2.1607 0.47511-4.4817 0.69336-6.6699 0.06193-0.62093-0.16136-1.6924-0.24023-2.6445-0.07888-0.95213-0.0605-2.0646-0.01758-2.2988 0.32105-1.7521 0.6239-2.9097 0.82617-4.7109 0.24473-2.1792-0.15315-4.8924 0.36328-6.7363 0.19996-0.71394 0.47754-2.2156 0.70117-3.9824 0.11181-0.88341 0.16045-1.761 0.25781-2.4746 0.09212-0.67515 0.2278-0.94202 0.24024-1.5039 0.0138-0.62383-0.01545-0.89558-0.08789-0.87695zm0.4043 6.1504c-0.08881-0.03047-0.13599 0.27159-0.13477 0.61719 7.71e-4 0.21835 0.37169 4.8818 0.2207 7.2051-0.1409 2.1682-1.3006 4.6072-1.1367 7.1348 0.12303 1.897 0.56587 3.8855 0.75781 5.7031 0.2301 2.179-0.30978 4.3776-0.62891 6.6973-0.10287 0.74775-4.4e-4 1.4429 0.09961 2.0137 0.10005 0.57074 0.07164 1.3302 0.02539 1.9258-0.09863 1.2701 0.20232 3.1316 0.28125 3.2949 0.75216 1.5569 0.57174 0.21698 0.5293-0.12695-0.14352-1.163-0.39835-2.2909-0.31445-3.3711 0.05795-0.74624 0.18602-1.4617 0.08789-2.0215s-0.17431-1.0551-0.09375-1.6406c0.30933-2.2484 0.88695-4.5329 0.63281-6.9395-0.19806-1.8756-0.57409-3.9157-0.69141-5.7246-0.13795-2.1271 1.1001-4.332 1.2617-6.8184 0.16606-2.5554-0.63967-7.261-0.69336-7.4727-0.0813-0.32051-0.14984-0.45828-0.20312-0.47656zm-4.0918 15.609c-0.085022 0.0039-0.16206 0.32066-0.14453 0.88281 0.00453 0.14521-0.092812 1.3367-0.28125 2.5527-0.18424 1.189-0.55412 2.3278-0.82422 2.8359-0.59182 1.1135-0.77373 2.6212-0.80469 3.7207-0.05967 2.1188 1.0062 3.8522 1.1289 5.6191 0.07148 1.0296-0.24505 3.3251-0.28711 3.4414-0.31719 0.87704 0.05225 0.71135 0.24219 0.0957 0.03646-0.11818 0.62022-2.281 0.53125-3.5625-0.14466-2.0836-1.0627-3.9129-1.0137-5.6523 0.02471-0.87738 0.06468-2.4595 0.74023-3.4824 0.3108-0.47061 0.75083-1.5566 0.91797-2.7637 0.16833-1.2157-0.00595-2.5347-0.00977-2.6953-0.01637-0.6883-0.11029-0.99611-0.19531-0.99219zm2.2129 0.69141c-0.09124 0.02625-0.08265 0.60399 0.0625 1.6914 0.02739 0.2052-0.04857 3.5458-0.08594 5.1738-0.06009 2.6182-0.93416 5.3517-0.95117 8.2012-0.0081 1.3615 0.26675 2.4442 0.3418 2.6289 0.67934 1.672 0.85146 2.0453 0.41406-0.2207-0.03779-0.19576-0.18634-1.2297-0.17969-2.3438 0.0156-2.6133 0.93475-5.399 1-8.2422 0.04227-1.8417-0.0208-5.0656-0.06641-5.2676-0.25342-1.122-0.44392-1.6473-0.53516-1.6211zm-5.8809 7.9531c-0.08666-0.02145-0.21802 0.48885-0.33008 0.76367-0.05334 0.13081-0.37366 2.45-0.41992 3.7188-0.07867 2.1575 0.54275 5.2438 0.46289 5.7188-0.24137 1.4355 0.13314 0.70186 0.31445 2e-3 0.2066-0.79756-0.32116-3.6144-0.24414-5.7266 0.04461-1.2235 0.30984-3.556 0.30859-3.6973-5e-3 -0.56175-0.0398-0.76643-0.0918-0.7793z" color="#000000" color-rendering="auto" fill="#7a540f" fill-rule="evenodd" image-rendering="auto" shape-rendering="auto" solid-color="#000000" style="block-progression:tb;isolation:auto;mix-blend-mode:normal;text-decoration-color:#000000;text-decoration-line:none;text-decoration-style:solid;text-indent:0;text-transform:none;white-space:normal"/>
  <path d="m95.263 1.1712c-0.08585 0.00399-2.0126 2.0436-2.0126 2.0436l-1.9219 0.68555c-0.49298 0.81833-0.9857 1.0128-1.6728 1.4779l-0.39016-2.5214-0.5669-1.7637c-1.5792 0.52153-2.2488 2.0284-3.2783 2.8248l-1.5915 2.6493c-0.64387-0.14316-3.0643-0.85193-6.0784-0.26845l-7.6206 3.4223 2.1509 1.5732c0.62871 0.53099-1.9465 2.133-4.0928 3.3169l-2.7456 3.0947 1.6723 1.4375-5.8018 2.2178 0.01517 1.7822-5.2027 0.84283-2.6152 2.2695c-1.2 0.12583-3.1972-0.37618-4.3873-0.19098l-12.727-3.0068c-4.233-1.0907-8.4009-1.2797-11.932-0.26509-3.0209 0.90556-5.138 2.8355-7.5129 3.8898-4.2526 3.0863-4.9088 4.2771-6.0691 6.616l-0.62109 5.9395 0.48633 5.6152-0.0918 8.9727-2.082 8.4668-2.0547 7.0039c-0.78623 3.4304-0.90412 6.0014-0.91602 8.7148l-0.93842 4.1782c0.063352 1.4283-0.8345 3.0555-1.503 4.2437l0.17773 7.1582 0.61822 4.1557c2.7486 0.36208 4.706 0.90465 6.9833 0.79546l-2.4766-9.7227 0.4707-5.123c0.68289-2.4845 0.90417-4.7937 1.5898-6.5449l2.1309-4.709c-1.6946 2.8611 0.73595-2.6221 1.4668-5.1895l5.9219-9.8125c0.50357-0.5177 1.6326-1.3673 2.0801-1.9785l0.48242 6.2207-2.2539 8.6523 2.8477 8.418 2.4336 9.3477 4.2168 5.8809 0.25391 3.9082 7.793 1.2715v-1.8574c-1.6736-2.905-3.3098-5.9842-5.9257-8.418-1.9951-5.6048-2.9335-8.5247-4.0615-11.469l-0.17728-2.8282c1.3297-1.2638 0.99232-3.4371 1.2378-5.5683l2.8291-5.7456 1.4863-4.6367c2.9516 1.663 9.2626 3.6154 12.214 4.2842l11.047-0.08996c-1.472 3.3498-2.8374 7.5721-4.3295 11.138l-3.1836 9.6348c-2.2963 4.2538-1.5532 5.7495-2.3862 8.749l-0.70561 4.2432 0.79454 3.4472c2.2686 1.1212 2.4167 1.3164 4.6853 1.5029 1.5218-0.16114 2.351-0.15985 2.8268-0.53021l-1.5908-8.4848 0.88373-6.0991 0.44336-2.918c2.3989-3.2875 2.7474-3.2692 4.6873-7.9336 0.20658 0.37576 0.93363-1.8078 2.2946-3.9976l0.61968 7.6896c0.87162 1.802 2.7775 5.0738 3.0928 6.8053 0.26932 2.9493 0.6573 5.9876 1.8569 9.6347l1.5024 3.8018c-0.03881 1.8898 0.75806 3.3618 1.1484 5.0371 1.591 1.6111 3.6244 0.42697 5.2154 0.53021l2.9168-0.53024-1.4139-2.8286-1.1494-3.27c-2.9955-3.5-3.7887-4.9279-5.0386-7.3369-0.40061-2.0294-1.3779-3.9418-0.70703-6.1855l0.70703-5.3047c-0.95011-3.9021-1.6842-7.1234-1.768-12.108 0.54338-2.3743 0.02253-5.0535 2.1215-6.9834 2.5656-1.3819 3.8707-4.338 5.5684-6.8047 1.1995-2.6786 1.7845-6.416 1.8555-9.546 1.4142-1.3194 2.1228-2.1124 3.537-5.3051 0.97227-1.9764 1.9437-4.5946 2.916-6.3638l5.3921 2.83c2.1977 0.29464 3.6259 1.9548 4.2422 4.419 0.8445 1.9743 1.0709 2.619 2.3861 3.1811l3.8009-0.4424c1.4509-0.01268 2.4955 0.70765 3.2704-0.88228 2.2413-1.8629 1.4424-3.389 1.7676-5.0391l-2.916-6.4512c-1.3892-3.1336-3.0272-6.7231-2.6523-10.077 0.32528-1.5026 0.88614-2.1213-0.88373-3.6239l-1.5499-2.502c0.97881 1.7046 0.88956 0.29006 1.1328-1.1289 0.20347-1.6626 0.009402-3.0452-1.2518-4.8706-0.098461-0.085802-0.19646-0.77168-1.0904-1.1969 0.32493-1.6441 0.4529-2.4214 0.35011-4.223-0.2074-0.36415-0.41628-1.4144-0.68275-1.3371z" fill="#8b3c0c" fill-rule="evenodd" stroke="#00f" stroke-width=".29055"/>
  <path d="m57.341 62.162-4.773 11.402-3.182 9.6343c-2.2963 4.2538-1.9954 6.2813-2.8284 9.2808l-0.26516 3.7123 3.0936 1.1e-5c1.0312-0.11629 1.8856-0.09813 4.1543 0.08839-0.246-0.77988-0.29896-1.4858-0.53033-2.4749l-0.53033-1.9445 1.4142-5.8336 0.44194-2.9168c2.4337-3.3351 4.5779-7.5384 6.5407-12.286z" fill="url(#aa)" fill-rule="evenodd" stroke="#f0f" stroke-width=".29055"/>
  <path d="m57.341 62.162-4.773 11.402-3.182 9.6343c-2.2963 4.2538-1.9954 6.2813-2.8284 9.2808l-0.26516 3.7123 3.0936 1.1e-5c1.0312-0.11629 1.8856-0.09813 4.1543 0.08839-0.246-0.77988-0.29896-1.4858-0.53033-2.4749l-0.53033-1.9445 1.4142-5.8336 0.44194-2.9168c2.4337-3.3351 4.5779-7.5384 6.5407-12.286z" fill="url(#ac)" fill-rule="evenodd" opacity=".32" stroke="#f0f" stroke-width=".29055"/>
  <path d="m21.874 54.95 1.2374 6.4524-3.0052 8.3085 3.0052 9.104 2.6517 9.1924 4.1543 6.0988 0.08839 1.3258c0.57249 0.61415 1.3142 0.38214 2.1213-0.17677l3.8891-1.5026c-0.87814-1.2256-1.3615-2.3392-3.9775-4.773-2.0341-4.5234-3.9697-8.973-4.1543-12.109l0.08839-2.4749c1.3297-1.2638 1.0804-3.7908 1.3258-5.922l3.0052-5.4801 1.5026-4.6846c-2.4567-0.68633-3.5223-2.4855-4.8614-4.0659l-2.6516-4.0659-1.3258-0.44194z" fill="url(#z)" fill-rule="evenodd" stroke="#f0f" stroke-width=".29055"/>
  <path d="m21.874 54.95 1.2374 6.4524-3.0052 8.3085 3.0052 9.104 2.6517 9.1924 4.1543 6.0988 0.08839 1.3258c0.57249 0.61415 1.3142 0.38214 2.1213-0.17677l3.8891-1.5026c-0.87814-1.2256-1.3615-2.3392-3.9775-4.773-2.0341-4.5234-3.9697-8.973-4.1543-12.109l0.08839-2.4749c1.3297-1.2638 1.0804-3.7908 1.3258-5.922l3.0052-5.4801 1.5026-4.6846c-2.4567-0.68633-3.5223-2.4855-4.8614-4.0659l-2.6516-4.0659-1.3258-0.44194z" fill="url(#ad)" fill-rule="evenodd" opacity=".287" stroke="#f0f" stroke-width=".29055"/>
  <path d="m46.757 100.38-0.61872-3.182 2.5633-0.88388 4.773 1e-6 1.149 4.9498c-2.7703 1.0383-5.3246 0.13311-7.8666-0.88388z" fill="url(#am)" fill-rule="evenodd" stroke="#f00" stroke-width=".29055"/>
  <path d="m58.268 62.33c-0.71779-0.04273-2.1543 0.37423-2.6328 0.17773-1.4661 3.6117-1.7808 5.4618-2.8906 9.2266-0.47455 1.6098-1.7565 4.106-2.1367 5.7734-0.58519 2.5661-1.6738 4.9048-2.6035 7.0371-0.64845 1.4872-1.2619 3.4426-1.7148 5.1016-1.2131 4.4431 0.1588 3.8036-0.4043 5.3535-0.87351 1.4133-0.97441 3.8448-0.35352 5.5449 0.99066 0.8336 2.0208 0.84187 3.1973 1.1934 1.731 0.62623 4.4931 0.93713 6.252 0.16016 1.4783-1.0399-0.34182-3.0154-0.46094-4.3965-0.40738-1.5467-0.73071-3.6723-1.1504-5.2129-0.22337-1.3943 0.97927-3.2198 1.3438-5.8789 0.16568-1.2088 0.04633-1.8338 0.7207-3.1152 0.50028-0.95064 1.3464-2.7814 1.6504-3.1816 0.67714-0.89152 1.8742-2.5175 2.4258-3.8789 0.58302-1.439 1.021-2.9879 1.8906-4.2734 0.31588-0.41891-0.63202-0.89058-0.86719-1.332-1.0471 0.12119-1.5497 2.1563-1.9863 3.1777-0.80433 1.8817-1.802 3.6335-2.9473 5.3613-1.6673 2.5155-2.5243 5.422-2.7676 8.541-0.12851 1.6478-0.74242 2.3053-0.94336 3.8867-0.13356 1.0512 0.18187 2.4178 0.32031 3.2578 0.06171 0.14487 0.16503 0.48311 0.28516 0.91016-0.89048-0.07811-1.7906-0.14163-2.7051-0.11133-0.79374 0.0263-1.5947 0.12833-2.4004 0.33203 0.03139-0.03777 0.0533-0.07875 0.08789-0.11523 0.49852-1.603 0.11725-2.0518 0.17188-3.7656 0.06618-2.0762 0.80323-5.5008 1.668-6.9082 0.96079-1.5638 1.2729-3.2898 1.8184-5.0371 0.48645-1.5583 1.4187-2.8477 1.7285-4.4531 0.28438-1.4735 0.92222-2.7654 1.4785-4.1953 1.4619-3.7576 2.143-5.942 4.1836-9.1309-0.06836-0.02808-0.15527-0.04272-0.25781-0.04883zm-8.4336 34.387c0.96666-0.03118 1.9504 0.04607 2.9492 0.13867 0.25169 1.0208 0.5403 2.3342 0.79297 3.7617-1.5949 0.26011-4.8262-0.15433-6.2285-0.89258-0.32555-0.78094-0.56548-1.6648-0.48242-2.4688 0.98052-0.35128 1.9669-0.50675 2.9688-0.53906z" color="#000000" color-rendering="auto" fill="#130700" fill-rule="evenodd" image-rendering="auto" shape-rendering="auto" solid-color="#000000" style="block-progression:tb;isolation:auto;mix-blend-mode:normal;text-decoration-color:#000000;text-decoration-line:none;text-decoration-style:solid;text-indent:0;text-transform:none;white-space:normal"/>
  <path d="m30.759 98.785c-0.95173-0.85442-1.198-1.7088-0.97227-2.5633 1.216-0.45493 2.3126-0.84169 5.1265-2.2097l1.9445 0.26516c0.63073 1.631 2.4376 2.7556 2.0329 4.5962-2.6222 0.91749-5.5095 0.07812-8.1317-0.08839z" fill="url(#ak)" fill-rule="evenodd" stroke="#f00" stroke-width=".29055"/>
  <path d="m23.082 54.309-1.9844 1.6016c0.67135 2.7135 1.554 4.4435 0.63281 7.1797-0.69963 2.9109-3.1594 5.4926-2.0469 8.5488 0.94756 2.3073 1.7867 4.1343 2.5918 6.6094 1.0213 3.1397 1.6314 7.3885 2.6973 10.359 1.1134 2.2043 2.622 3.9359 4.3105 5.7344-0.01854 0.73325-0.39229 2.3152 0.31836 3.7363 0.91636 1.3761 2.9112 1.4503 4.543 1.6289 2.0292 0.22211 3.2815 0.28101 5.2207-0.32812 0.26133-2.1576-1.4572-4.6417-2.7051-6.1426-1.3173-1.5492-2.6305-3.0895-3.75-4.7871-0.16856-1.8789-2.006-3.5068-2.3477-5-0.88187-3.1008-1.9737-5.6142-1.9551-8.8711 1.2786-1.3712 1.2414-3.0013 0.99805-4.6816 0.27407-2.9151 3.2556-4.8061 3.9688-7.5703 0.33129-1.2798 0.9616-2.2515 1.1211-3.4199-0.51647-0.02595-2.2035-1.5044-2.4648-1.0195-0.70756 2.4453-0.4993 5.3917-2.0312 7.5215-1.386 1.9269-1.8874 4.154-2.0527 6.4824-0.68704 1.6119-1.5787 3.2115-1.1797 4.957 0.45104 3.124 1.3465 5.6518 2.8223 8.4336 0.68993 1.3005 1.0993 3.0923 1.8457 4.2422 1.0376 1.027 2.149 2.3871 3.2305 3.8281-0.14133 0.03539-0.2793 0.07925-0.41406 0.13086-0.52682 0.20176-1.0207 0.50347-1.5098 0.80859-0.84576 0.52763-1.6714 1.0203-2.459 1.1641-0.08031-0.46264-0.06149-0.99089 0.21094-1.5996-2.1317-2.366-4.1642-4.7972-4.957-7.9629-0.71752-2.4242-1.4223-5.3466-2.1875-7.8906-0.75856-2.5219-1.0406-5.113-1.9883-7.4395-0.54102-2.2591 1.097-3.9287 1.6191-6.0645 0.84802-2.4938 1.068-5.1895 0.43555-7.7598-0.155-0.81435-0.33193-1.6255-0.5332-2.4297zm12.293 40.025c0.07765-0.0081 0.14722 0.01263 0.2207 0.01758 0.66375 0.91883 1.3124 1.8435 1.9023 2.7266 0.1458 1.1383-2.2677 0.64007-3.1172 0.66602-1.3357 0.0408-2.2492-0.02189-3.2422-0.41211 0.0015-0.21127-0.14491-0.50626-0.30273-0.8418 1.0087-0.21824 1.883-0.80719 2.668-1.2969 0.48068-0.29987 0.92954-0.56685 1.3262-0.71875 0.19832-0.07595 0.37723-0.12318 0.54492-0.14062z" color="#000000" color-rendering="auto" fill="#130700" fill-rule="evenodd" image-rendering="auto" shape-rendering="auto" solid-color="#000000" style="block-progression:tb;isolation:auto;mix-blend-mode:normal;text-decoration-color:#000000;text-decoration-line:none;text-decoration-style:solid;text-indent:0;text-transform:none;white-space:normal"/>
  <path d="m89.49 6.5019 2.055-2.7621 1.9224-0.68501 1.3921-1.7015c0.39204-0.38072 0.67364 0.0669 0.95018 0.55243 0.15276 2.6773 0.0108 5.246-0.95018 7.513l-2.6516-2.0771z" fill="url(#ae)" fill-rule="evenodd" stroke="#a00" stroke-width=".29055"/>
  <path d="m94.842 0.72852c-0.70628 0.21901-1.1011 1.1269-1.571 1.6535-0.31924 0.35778-1.0675 0.35956-1.456 0.61818-0.85824 0.57138-1.6755 1.1691-2.1518 2.0989-0.15158 0.27283-0.57588 0.76877-0.80476 0.98519l1.58 0.58495c0.15675-0.66671 0.55713-1.6845 1.2002-2.2677 0.6186-0.56101 1.3167-0.54786 2.0053-1.0051 0.57239-0.38006 0.84303-1.4062 1.4949-1.6464 0.30798-0.11346 0.27762 0.39413 0.31245 0.7066 0.17676 1.5856-0.05772 3.1948-0.37513 4.7535-0.12173 0.5978-0.13349 1.3323-0.39846 1.8854l0.54756 0.39403c0.6041-1.2709 1.0735-2.7321 1.2152-4.1179 0.12212-1.1944 0.19475-2.4164-0.024081-3.6066-0.082728-0.44997-0.24996-1.1959-0.68747-1.3459-0.24126-0.082745-0.64122 0.23323-0.88698 0.30943z" color="#000000" color-rendering="auto" fill="#2b1000" fill-rule="evenodd" image-rendering="auto" shape-rendering="auto" solid-color="#000000" style="block-progression:tb;isolation:auto;mix-blend-mode:normal;text-decoration-color:#000000;text-decoration-line:none;text-decoration-style:solid;text-indent:0;text-transform:none;white-space:normal"/>
  <path d="m99.148 20.25c0.32528-1.5026 0.35566-3.0052-1.4142-4.5078l-1.591-5.1265c-0.56873-1.208-2.1579-2.416-3.8891-3.6239-2.536-0.8314-4.8297-0.93634-6.8943-0.35355l-5.3033 2.2981-9.4576 8.5737-6.8943 5.1265c-4.1578 3.3377-8.9286 2.9973-13.523 3.7123l-13.612-3.182c-4.233-1.0907-8.3128-1.7217-11.844-0.70711-5.3633 1.9396-8.0086 4.1056-10.607 6.2756-2.3556 2.071-3.4364 4.3241-4.1543 6.6291l0.88388 12.463-0.61872 9.9879-3.3588 8.8388-2.0329 14.938-1.4142 4.5078-0.17678 8.3085 3.0936-1.1491c1.6879 0.0085 2.9376-0.06758 3.5355 0.0884l-1.149-4.8614 0.88388-9.6343 4.773-11.932 5.922-9.8111c1.691-1.7385 3.0816-3.9779 4.0659-6.8943 0.88538-0.86491 1.5559-0.22573 2.2097 0.53033 1.1462 2.9679 2.8023 5.2221 5.1265 6.5407 3.565 1.8829 7.13 4.3188 10.695 5.1265l11.049 0.97228 4.331-1.149c0.13105 3.7782 1.7853 6.9036 3.5355 9.9879l0.17678 6.6291 2.5633 5.6568 1.9446 10.695 1.7678 3.6239 0.08839 2.0329c1.2374-0.42181 1.8562-0.81034 3.4471-0.7071 1.4124-0.27718 2.8462-0.5865 3.8007-0.17678-0.26275-1.0336-0.84737-1.7454-1.3258-2.5633l-0.61872-1.0606c-2.9955-3.5-1.9321-3.1595-3.182-5.5685-0.40061-2.0294-1.378-3.9435-0.7071-6.1872l0.7071-5.3033c-0.95011-3.9021-2.3027-7.301-2.3865-12.286 0.54338-2.3743 0.64104-4.876 2.74-6.8059 2.5656-1.3819 3.8708-4.3392 5.5685-6.8059 1.1995-2.6786 1.078-5.8856 1.149-9.0156 1.4142-1.3194 2.8284-3.083 4.2426-6.2756 0.97227-1.9764 1.9445-4.8599 2.9168-5.922l5.1265 3.182 3.8891 3.8891c0.84449 1.9743 1.8667 3.4154 3.182 3.9775l3.0936-0.61872c1.4509-0.0127 3.0258 0.26411 3.8007-1.3258 2.2413-1.8629 1.4426-3.3881 1.7678-5.0381l-2.9168-6.4524c-1.3892-3.1336-3.3801-6.1919-3.0052-9.5459z" fill="url(#ab)" fill-rule="evenodd" opacity=".307" stroke="#ff0" stroke-width=".29055"/>
  <path d="m94.399 16.364c-0.21735 0.37543 0.978 2.5623 1.7678 3.8891 0.4563 0.76658 0.8651 2.8216 1.5134 4.5082s1.536 3.0048 1.536 3.0048c0.76658 1.8862 0.32853 2.5677 0.35355 3.7123 0.12198 0.79286 2.0033 2.7378 2.2539 3.4471-0.063-0.20928-1.6834-0.51326-1.8562-0.44194-1.7986 0.7425-1.5037 1.4611-1.6794 2.3865-0.83214-1.0066-1.6809-1.8392-2.74-1.37-1.7812 0.78982-1.6635 4.1987-1.37 5.1265 1.6647 3.5108 3.6944 2.7672 5.5685 1.9004 3.0186 0.49321 4.262-0.8734 4.8172-2.961 0.9288-2.1758 0.0831-3.419 0.0442-4.9497l-4.0659-8.1317-1.9445-5.2149s-0.80493-1.6286-1.2374-2.5191c-0.59644-1.228-0.50085-2.7142-1.0795-3.9507-0.37755-0.80676-0.77-2.5648-1.6605-2.5458-0.50915 0.01084 0.2208 3.347-0.22097 4.1101z" fill="url(#ah)" fill-rule="evenodd"/>
  <path d="m3.7123 97.902-0.61872-3.182 3.182-1.5026 4.0659 0.44194 0.53033 4.5078z" fill="url(#aj)" fill-rule="evenodd" stroke="#f00" stroke-width=".29055"/>
  <path d="m69.296 104.44-1.4142-3.2704 3.9775-1.4142 3.4471 0.08839 2.3865 4.9497c-2.5265 1.3807-5.4016 0.8439-8.3969-0.35356z" fill="url(#al)" fill-rule="evenodd" stroke="#f00" stroke-width=".29055"/>
  <path d="m88.367 5.5938c-5.75-0.10493-10.544 3.9664-14.469 7.6914-3.4216 3.2472-6.871 6.9106-10.959 9.3516-2.5078 1.4975-5.2566 2.5357-8.3867 2.7344-6.6796 0.42397-12.772-1.9923-19.146-3.25-5.5722-1.0994-11.526-1.0878-16.424 2.1641-4.0087 2.6616-8.9346 5.8637-9.4629 11.016-0.55759 5.4375 0.71657 10.923 0.41602 16.426-0.17022 3.1162-0.27811 6.1638-1.623 9.0527-3.1474 6.7607-2.9493 12.482-3.8223 19.805-0.28208 2.3662-1.6486 4.5665-1.7188 5.8242-0.091266 1.6371 0.35246 3.848 0.30078 5.416-0.041234 1.251-0.60498 1.3355-1.0547 2.5488 0.459 2.0789 0.64821 2.9804 1.2109 4.209 1.264 0.44662 2.877 0.3546 4.3828 0.36524 2.0362 0.01438 4.2713 0.18862 4.3398-0.52734 0.12324-1.2878-0.78684-4.5254-1.3516-6.748-0.99006-3.8966-1.0845-7.3147-0.26562-11.27 0.49049-2.3688 1.6236-5.3721 3.0391-7.459 1.0349-1.5259 0.99572-3.4614 1.6504-5.1152 0.48181-1.2171 1.5536-2.8315 2.2988-4.0078 2.5544-4.0317 4.7594-6.4407 6.6094-10.818 0.65184-1.5424 1.0437-2.7437 1.5195-2.7168 0.78524 0.04445 1.2042 2.4677 2.3789 3.9844 2.5432 3.2835 6.7008 5.9556 10.732 7.5 5.4228 2.0774 10.586 3.0173 15.893 2.1426 2.6936-0.44401 3.1473 1.6327 3.6699 3.3691 0.74281 2.4679 1.7117 3.6731 2.8066 5.4336-0.10514 2.4356-0.25723 4.9596 0.14258 6.5527 0.41112 1.6383 1.72 2.4234 2.4062 4.7422 0.53261 1.7998 0.59124 4.4316 1.1562 7.3281 0.58079 2.9774 1.5751 5.719 2.3652 7.4766 0.47094 1.0475 0.36204 1.6016 0.51367 3.0781 0.57363 2.5232 1.0405 3.7727 3.791 4.0039 2.909 0.24453 6.5164-7e-3 7.5625-0.3789 0.0112-1.3394-1.6506-2.9707-2.4863-4.334-0.7722-1.2596-0.68946-2.2673-1.5059-3.5234-1.0707-1.6475-2.7518-4.0443-3.3008-5.4785-1.4426-3.7692-2.0964-4.0359-1.3691-7.9688 0.2511-1.358 0.87806-2.6367 0.70312-4.9609-0.08879-1.1797-0.72128-2.2917-1.0469-3.6777-0.56833-2.4193-1.0242-5.2191-1.1895-6.6719-0.18376-1.6151 0.0189-2.4828 0.41992-4.8984 0.9417-1.7254 1.9283-2.5303 3.2734-3.916 2.1436-2.2084 3.2105-3.2018 4.5156-6.0352 1.7879-3.8814 0.48121-7.0573 1.2812-8.7598 1.2298-2.6169 3.1062-5.0954 4.2227-7.8652 0.52652-1.7514 0.99442-3.1589 1.6973-3.8027 0.77512-0.71005 1.0498 0.95742 3.3164 1.8516 1.2603 0.49718 1.8933 0.50387 2.6777 1.2012 0.89765 0.79794 2.6144 2.1695 3.1367 3.8555 0.31322 1.0111 1.0036 2.4682 2.1562 3.0215 1.6055 0.77058 3.5638 1.1714 4.5762-0.37891 2.8236 0.75534 3.8277-0.38872 5.1387-3.0703 1.4499-2.9658 0.7944-4.5076-0.14453-6.6738-1.225-2.8263-3.149-5.6517-3.8906-8.0703-0.50005-1.6309-1.4658-4.1471-1.1973-4.6562 1.0932-2.0726-0.10719-4.3885-1.8535-6.1758-0.08956-4.2079-4.3833-8.8397-9.6328-8.9355zm0.61328 1.3125c5.59 0.15075 6.7704 4.8991 7.9707 8.6895 0.90413 1.4503 2.5129 2.765 1.373 5.2441-0.22064 0.47989 0.27548 2.9804 1.166 5.2969 0.51585 1.3418 1.2891 2.5244 1.8828 3.4121 1.8834 2.816 3.3304 7.2221 2.1973 9.8672-0.53965 1.2597-1.7857 3.1141-3.875 2.3008-1.4117 0.54954-3.1242 0.20474-3.959-0.32227-0.91826-0.57968-0.92062-1.4184-1.6797-2.4492-1.5814-2.1475-3.3096-4.3917-4.832-4.7305-2.0637-0.45922-2.9411-1.5671-3.3203-1.9082-0.94913-0.85368-1.3775-0.98184-1.9746-1.6875-0.61804-0.73041-0.88934-1.2182-1.2129-1.9766-0.41589-0.97482 0.15934-2.4822 0.74023-3.2773 0.50919-0.69699 0.0788-0.74278-0.27734-0.49609-0.20639 0.14296-1.5829 1.6828-1.2969 3.9082 0.11067 0.86105 0.52297 1.7961 1.0762 2.6016 0.16213 0.23606 0.33159 0.42719 0.50391 0.63867-0.7381 1.1766-1.0654 3.9636-2.4219 5.9746-1.6348 2.4237-3.1502 4.3755-4.3496 5.9316-0.46264 2.862-0.38093 5.5713-1.3828 8.2402-0.83963 2.2367-1.924 4.228-4.123 5.791-0.85474 0.60753-1.9239 2.0682-2.8184 3.5215-0.13263-1.248-0.48894-2.1222-0.8418-3.3809-0.53737-1.9169-0.85734-3.2399-3.2188-4.6523-1.0198-0.60998-1.6609-0.36171-0.31055 0.71289 1.9629 1.5621 2.0179 2.4859 2.5059 4.2266 0.46036 1.6422 0.52705 3.4435 0.78711 5.2617-0.1279 2.5494-0.18255 5.8091 0.55859 9.0898 0.76285 3.3768 1.8962 6.7486 0.76953 10.295-0.85084 4.725 0.38947 7.8519 2.5391 12.041 1.0215 1.0141 1.7857 2.585 2.9609 3.5039 0.26097 0.20405 0.42854 0.44395 0.54297 0.70898-0.67697 0.02844-1.8501 0.04493-3.1387 0.19336-1.0223 0.11777-2.0689 0.29537-2.9141 0.70117 0.03727-0.55137 0.13206-1.1465-0.05664-1.7285-0.55272-1.7047-1.9206-3.5334-2.0996-5.627-0.24865-2.9079-1.4734-8.1089-2.1289-10.049-0.80772-1.7975-1.7925-3.1261-1.9902-4.498-0.28307-1.9642 0.38987-3.9216-0.07422-6.666-1.3576-1.8331-1.967-4.3177-2.5566-6.4219-0.18971-0.67703-0.4766-1.3523-0.63086-2-0.31463-1.3211-0.42608-2.7046-0.99609-3.9473-0.36744-0.80105-1.0978-1.3334-1.8828-1.6914-0.44738-0.204-0.80966-0.53234-1.2129-0.90234-0.77205-0.70844-0.7781-1.2842-0.51758-2.3281 0.24282-0.97306 0.66008-1.7752 0.90234-2.748 0.66547-2.6724 0.25758-2.795-0.99414-0.27539-0.71816 1.4456-1.3649 2.3443-1.4141 3.375-0.05135 1.0755 0.10103 2.5506 0.81641 3.418 0.6466 0.78397 1.8078 0.8628 2.4863 1.5801 0.49444 0.52269 0.29906 0.95668 0.47656 1.6484-1.736 0.43651-4.2026 0.58956-5.1777 0.66016-5.1265 0.37117-8.4708-0.36553-16.098-3.5957-7.2361-3.0647-7.5513-8.9375-10.07-9.1855 0.6318-1.3046 1.1009-4.0123 1.2598-5.2363 0.23553-1.8146 0.52614-2.6349 1.0332-3.4004 0.36786-0.55534 0.82822-1.3334 1.5645-2.2363 2.037-2.4981 1.0988-2.1028-0.23242-0.51953-0.91097 1.0834-2.9858 2.3038-3.2051 6.1035-0.18078 3.1326-1.761 5.0451-2.6953 7.4336-1.6368 4.1842-4.4688 6.71-6.8555 10.439-1.0623 1.6599-2.0598 3.284-2.8984 4.9863-0.72579 1.4734-1.2663 3.0231-1.7598 4.6699-0.66176 2.2084-2.2643 4.11-2.4687 6.5703-0.31692 3.8146-1.3713 7.523-0.91406 11.383 0.1103 0.93116 0.42464 2.2453 0.78516 3.4961-0.77757-0.14314-1.5893-0.21106-2.4121-0.10547-0.74819 0.096013-1.496 0.3578-2.209 0.7832 0.10601-0.73578 0.13115-1.4752 0.125-2.2266-0.012603-1.5404-0.47015-3.0057-0.30469-4.7305 0.17601-1.8347 1.4991-4.2058 1.7891-5.8359 0.58157-3.2699 0.44601-6.7983 0.98438-10.094 0.63978-3.9163 2.0464-7.5702 3.7773-11.184 1.5038-3.1391 0.66185-6.8351 1.0098-10.199 0.52688-5.0946-1.7295-10.401-0.08203-15.27 1.5277-4.5145 6.1079-7.0674 10.178-9.2539 6.4213-3.4499 13.906-1.0917 20.346 0.74805 7.1686 2.0479 14.766 2.2326 21.27-1.6289 3.7625-2.2339 7.55-5.8384 11.15-9.3223 4.1383-4.0045 8.7842-7.2834 13.18-7.6289 0.41319-0.032475 0.80507-0.0413 1.1777-0.03125zm-81.461 86.883c0.61285 0.0073 1.2326 0.10866 1.8379 0.25391 0.098124 0.29997 0.19692 0.61076 0.29297 0.87305 0.46081 1.2584 0.89564 2.6037-0.28906 2.7598-0.8517 0.11221-3.6785-0.25995-4.7969-0.45703-0.00187-1.1792-0.25298-1.587-0.31836-2.2559 0.77896-0.67841 1.6084-1.0172 2.4785-1.1289 0.26221-0.03365 0.52762-0.04811 0.79492-0.04492zm67.383 6.5488c0.06796 0.56206 0.1065 1.1565 0.33984 1.7227 0.313 0.75937 1.0338 1.2002 1.2734 2.0449-1.6724 0.5657-4.999 0.29134-6.1934-0.2207-0.64556-0.27675-1.1842-1.2641-1.4805-2.4785-0.02297-0.0309-0.03346-0.0657-0.05273-0.0977 0.64536-0.36891 1.7367-0.64673 2.8535-0.77539 1.3026-0.15006 2.5391-0.15552 3.2598-0.19531z" color="#000000" color-rendering="auto" fill="#2b1000" fill-rule="evenodd" image-rendering="auto" shape-rendering="auto" solid-color="#000000" style="block-progression:tb;isolation:auto;mix-blend-mode:normal;text-decoration-color:#000000;text-decoration-line:none;text-decoration-style:solid;text-indent:0;text-transform:none;white-space:normal"/>
  <path d="m84.335 6.52c-1.5553-0.63973-2.8694-1.4548-6.1875-0.8125l-8.0625 3.6875 2.0625 1.75c0.62871 0.53099-1.4162 1.6911-3.5625 2.875l-3.1875 3.625 1.9375 1.4375-5.625 1.6875-0.25 2.3125-4.9375 0.3125-4.25 3.6875-5.3125 4c-1.9391 1.75-2.3601 3.5-2.3125 5.25 1.7302-2.6298 3.51-4.5169 5.4062-4.6562-2.0974 2.3052-3.1143 4.3703-3.7188 6.3438l2.375 1.625c0.94541-1.6467 1.8342-2.6702 2.6133-2.4879-0.64959 1.4751-1.1173 2.9503-0.61329 4.4254 0.74952 0.4248 1.4666 1.4015 2.375-0.875 0.60538 1.3909 0.65466 3.1155 2 4.0625 0.96012 0.15357 1.6436 0.72209 1.9375 1.875 0.79167 0.78724 1.5833 1.6332 2.375 1.125 0.90405 0.69542 1.7391 1.1493 2.3125 0.6875 0.51659-0.97112 1.1119-2.8084 1.7952-5.6127 0.60988 1.8085 0.6034 4.2333 2.2673 4.9877l2.4375-0.3125c-0.2539 0.55858 1.9454 3.1577 2.5 1.625 0.10634-0.29386 1.5-4.5625 1.5-4.5625 0.62597-0.91522 0.76156-2.566 2.625-1.625 0.43143-2.2326 0.85681-4.4894 1.125-7.375l0.4375-8.6875c0.27891-0.76468 0.43536-3.2029 1.1875 2.5 0.71411 2.6671 0.59732 4.6695 0.5 6.6875 1.2715-0.94364 1.6012-3.0384 1.375-5.8125l-0.3125-5.875c0.13441-1.7072 0.14286-3.7083 0.75-4.3125l1.4375 7.8125-0.1875-10.25c0.08667-1.9145 0.89269-3.9189 2.3125-6z" fill="#f5bd59" fill-rule="evenodd"/>
  <path d="m95.682 36.992c-0.01384-0.72802-0.84698-0.42395-0.94922 0.47461-0.05 0.43944 0.57435 2.3418 1.7154 2.9297 0.8751 0.45089 1.3412 2.4863 1.3412 2.4863l0.89648-0.57226s-0.3797-2.0809-1.2488-2.5026c-0.98499-0.47798-1.7459-2.3317-1.7551-2.8158z" color="#000000" color-rendering="auto" fill-rule="evenodd" image-rendering="auto" shape-rendering="auto" solid-color="#000000" style="block-progression:tb;isolation:auto;mix-blend-mode:normal;text-decoration-color:#000000;text-decoration-line:none;text-decoration-style:solid;text-indent:0;text-transform:none;white-space:normal"/>
  <path d="m90.029 12.284c0.26698 1.02 0.42201 2.32 1 2.5625l2.125 3 0.5 3.8125c0.2548-2.2676-0.20363-5.0108 0.9375-6.6875 1.0674 1.0221 1.2315 1.8183 1.6875 2.6875-0.13899-1.8092-0.3306-3.6841-1.125-6.3125 0.66822 0.27473 1.4964 1.293 2.8125 3.1875l0.375-2.1875c0.20346-1.6626-1.0513-3.4872-2.3125-5.3125-1.25-1.0893-2.5-0.98119-3.75-1.125l-4.25 0.375c0.72943 1.9582 2.6029 3.1536 2 6z" fill="#f5bd59" fill-rule="evenodd"/>
  <path d="m87.453 19.549c0.71627-0.45209 1.4032-1.1688 2.615-1.3732 0.90317 0.60026 2.1554 0.91489 2.2097 2.2097-0.89066 1.0979-1.5614 0.98629-2.2981 1.2374-1.6002-0.19859-1.8707-1.0885-2.5266-2.074z" fill="#fff" fill-rule="evenodd" stroke="#f60" stroke-width=".29055"/>
  <ellipse cx="89.906" cy="19.924" rx="1.2188" ry="1.2812" color="#000000" fill="url(#ai)"/>
  <path d="m87.996 18.337c-0.27286 0.14083-0.93178 0.57708-1.1941 0.87011 0.26327 0.62883 0.60242 1.2863 0.95526 1.7491 0.29293 0.3842 0.94489 0.85427 1.4255 0.97073 0.69067 0.16737 1.4444 0.08501 2.106-0.19504 0.49216-0.20832 1.2855-0.84127 1.5879-1.41-0.2082-0.67616-0.68224-1.4569-1.1431-1.8482-0.4537-0.3852-1.3385-0.68545-2.02-0.61949-0.69371 0.06715-1.2137 0.22276-1.7174 0.48275zm3.6287 1.6282c0.10094 0.3583-0.29346 0.62557-0.62784 0.79133-0.5375 0.26644-0.85569 0.29512-1.3403 0.25004-0.613-0.05703-1.4685-0.9385-1.565-1.3521 0.27097-0.43628 1.1607-0.9006 2.152-0.83977 0.43423 0.02664 1.27 0.75642 1.381 1.1505z" color="#000000" color-rendering="auto" fill="#411b00" fill-rule="evenodd" image-rendering="auto" shape-rendering="auto" solid-color="#000000" style="block-progression:tb;isolation:auto;mix-blend-mode:normal;text-decoration-color:#000000;text-decoration-line:none;text-decoration-style:solid;text-indent:0;text-transform:none;white-space:normal"/>
  <path d="m79.564 5.1934c-0.23047 0.00234-0.44347 0.018494-0.63086 0.050781-3.958 0.68196-6.6245 1.7544-9.709 4.2461 0.34607 0.58415 2.6357 1.7169 2.4297 2.0879-0.49739 0.89559-3.0757 1.599-3.8066 2.457-1.557 1.2265-2.8812 2.6381-3.9062 4.3184 0.52097 0.19757 2.0881 0.46941 1.9199 0.64453-0.47786 0.49763-4.1638 0.67381-4.627 1.4805-0.69536 1.2111-0.23025 1.5409-0.48828 2.293-3.8045-0.78204-6.8672 1.1822-8.3926 3.5449-1.4105 2.1847-4.1763 3.184-6.0059 4.9062-1.5634 1.4718-2.7572 4.5133-1.7715 5.9902 0.34444 0.51607 0.33258-2.1418 1.0996-3.4922 1.3624-2.3986 4.337-3.6564 6.1309-5.2227 2.1088-1.4144 3.1918-4.0474 6.0156-4.5059 1.8574-0.30154 3.0785-0.06368 4.9414-0.31445-1.3352-1.4429 0.41331-2.7393 1.9199-3.1719 1.5344-0.62301 2.7484-0.38689 4.3223-0.89648l-2.2031-1.7285c1.2305-3.0069 3.5791-4.0094 5.8145-5.498 1.2262-1.7845-0.02176-1.9119-1.2422-2.2656 0.8154-1.2085 3.4805-2.0372 4.373-2.5527 2.4932-1.44 4.721-1.5324 7.748-0.74609 0.06652 2.3282 0.1067 3.6915-1.0742 5.5098-2.4946 3.791-1.9403 8.4438-1.6973 12.803 0.26723 3.6198 1.0369 4.6183 0.99219 1.9004 0.12607-4.6213-1.062-9.7424 1.6777-13.844 0.81187-1.2317 0.74963-2.7914 1.1777-4.1816l0.36133-2.4766c-1.2433-0.68253-3.7558-1.3523-5.3691-1.3359zm13.373 0.31641c-0.75144 0.02864-1.9451 0.149-2.2598 0.16992-0.31141 1.1278 3.4124 0.60484 4.75 1.8066 1.9176 1.7229 1.8177 4.1935 3.2656 6.2012 0.24168-0.8745 0.11242-3.4442-0.70312-4.8047-1.0207-1.7027-1.8982-2.9163-4.498-3.3633-0.10352-0.017797-0.30421-0.019312-0.55469-0.00977zm-0.6582 2.0078c-0.18297 0.64964 2.8115 2.4122 2.3809 4.4316 1.9741 0.69344 2.0549 2.15 3.3262 3.2148 1.4053 0.52135-0.63209-3.0105-2.2891-4.2129-0.30792-1.7121-2.2678-2.8644-3.418-3.4336zm-12.496 0.00195c-0.06597 0.00907-0.16739 0.04075-0.30859 0.099609-2.9094 1.2128-6.3305 3.2988-6.8535 6.8516 0.01908 1.8389-1.212 3.9307-1.5703 6.2559-0.54679 3.5486-1.7231 7.1694-0.91602 10.76 0.61127 2.7192-0.15854 5.3267-0.98828 7.8887-0.85588 2.6427-0.7596 5.4555-1.1016 8.1875 0.59052 0.28277 0.57652-3.0185 0.8457-4.5195 0.51094-2.8491 2.0684-5.2715 2.5527-8.0586 0.17818-3.0429-0.82876-6.0014-0.22461-9.0703 0.70533-3.5828 1.3091-7.1992 2.2578-10.715-0.29865-2.9975 2.4052-5.0994 4.6934-6.2754 0.84244-0.43298 2.0751-1.4678 1.6133-1.4043zm2.209 0.54688c-0.13819-0.031253-0.39355 0.21507-0.63867 0.76562-1.8844 4.2326-2.6265 7.4865-3.5898 11.992-0.81655 4.8184 2.4299 9.4615 0.85742 14.24-0.84388 1.801-0.31449 1.7028 0.70508-0.13476 1.5464-5.061-1.6758-10.004-0.32227-15.082 0.99309-3.9461 1.413-6.997 2.9277-10.877 0.22006-0.56369 0.19874-0.87304 0.06055-0.9043zm9.7734 1.8008c-1.1334 0.58662 2.4154 2.75 2.0703 4.5664-0.0011 0.20479-0.66402 2.8812 0.11523 3.4707 0.4391 0.33217-0.19809-1.4151 0.46484-2.2266 0.56741 0.71084 1.4211 1.4937 1.9492 2.4961 0.78736-0.16382-0.2058-1.364-1.3008-3.1094-0.4345-0.69259-0.0465-1.8569-0.58398-2.7266-0.68696-1.1115-1.8922-0.92997-2.7148-2.4707zm-12.27 0.32422c-0.11821 0.03597-0.37704 0.34394-0.81055 1.041-2.2248 3.5775-2.7375 7.2836-3.2266 11.434 0.06806 3.6711 0.16628 7.3433 0.31055 11.008-0.08649 3.0604-0.49326 6.1442-1.207 9.0742 0.30288 0.2518 0.86272-0.95125 1.2402-4.002 0.40514-3.274 1.0829-6.4953 0.85938-9.7637-0.0055-2.3357-0.19582-4.6846-0.08594-7.0117 0.62697-3.7343 0.80571-6.7987 2.4785-10.234 0.4427-0.90924 0.63842-1.6049 0.44141-1.5449zm-1.8711 0.83594c-0.14993-0.04118-0.52194 0.2662-0.97461 0.96094-2.571 3.9459-2.9436 8.0199-4.0527 12.465-0.789 4.9189-0.15233 9.3332-0.15039 14.277 5.99e-4 1.5237-0.87466 5.6248-0.11914 5.4922 0.58884-3.131 1.1996-6.2895 0.89453-9.4922-0.23352-4.3978-0.08852-8.8714 1.0859-13.158 0.7125-3.3179 1.1262-6.4742 2.959-9.416 0.43572-0.69938 0.50735-1.0877 0.35742-1.1289zm12.248 0.76562c-0.76048 3.32 1.3298 3.081 2.375 5.6797 1.1551 1.1105 0.19142 3.0541 1.4785 4.9785-0.0059-1.5943 0.28708-3.4639-0.22461-4.9531-0.48365-1.4076-1.2967-2.2738-2.4414-3.2227-0.64042-1.1194-0.66871-2.4391-1.1875-2.4824zm-18.125 2.4746c-0.07875-0.01257-0.23923 0.02898-0.49024 0.13867-2.0768 0.90754-4.1207 2.8287-1.2598 5.3594-0.7403 2.5802-1.8919 4.6687-2.0996 7.1621-0.65118 3.0741-1.7925 5.9168-1.4492 9.0996 0.01511 3.3896 0.43078 6.8608-0.69336 10.117-0.76316 2.2107-0.37538 2.3927 0.38281 0.44141 0.98249-2.5285 1.5978-5.1818 1.3965-7.8867 0.02112-2.8906-0.31128-5.8239 0.54688-8.6348 0.81901-3.4243 1.3877-6.9506 2.7031-10.229-1.0311-1.4448-2.4058-2.8088-0.29492-4.2969 0.99473-0.70124 1.4941-1.2338 1.2578-1.2715zm-3.334 6.502c-0.12417-8e-3 -0.35941 0.29428-0.58203 0.90234-1.9011 5.1926-3.7268 9.3003-3.5996 14.904-0.25211 4.0464-1.576 7.9069-2.4297 11.844 0.54443 0.04118 1.1278-2.9683 1.6758-4.3262 1.443-3.5758 1.8795-7.3807 2.0098-11.215 0.44824-4.1924 1.4916-7.1804 2.8457-11.143 0.21853-0.63945 0.20425-0.95877 0.08008-0.9668zm-1.4004 0.21289c-0.13422 0.04797-0.4275 0.425-0.93359 1.3535-2.8212 5.1759-5.8972 10.383-5.9863 16.314-0.04851 3.2276 0.01733 4.451-0.60938 7.5449-0.31519 1.5561 0.2852 1.3991 0.59961 0.07227 0.66665-2.8133 0.931-4.9793 1.0938-7.9707 0.30544-5.6142 2.7273-10.944 5.4434-15.84 0.39944-0.72005 0.61628-1.5546 0.39258-1.4746zm-2.0098 1.5098c-0.18141 0.05884-0.47126 0.29606-0.79688 0.73437-2.4273 3.2674-4.7278 6.4353-4.9277 10.688-1.645 1.7474-2.7474 4.3866-2.3105 6.6543 0.39228 2.0361 1.0961 5.0636 0.58789 6.4199 1.7521-0.1131 0.3003-4.775 0.2832-6.5-0.02121-2.1405 0.48691-4.6184 2.0293-6.2227 0.32504-3.8135 2.1155-7.36 4.7988-10.682 0.63932-0.7914 0.6383-1.1899 0.33594-1.0918zm-2.6543 2.3262c-0.1139-0.05247-0.48526 0.10806-1.1523 0.65039-2.2643 1.8409-2.9991 3.597-3.8125 6.3105-1.2941 1.769-2.9463 4.9528-2.7031 7.5117 0.15375 1.6183 0.36699 5.5142 0.67383 5.4102s0.21885-4.1653 0.43359-6.0723c0.27574-2.4487 1.2062-4.6749 2.3691-6.7656 0.66871-2.4288 1.8445-4.7268 3.7969-6.4121 0.36425-0.31443 0.50843-0.58034 0.39453-0.63281zm-3.9922 0.42774c-0.10812-0.02109-0.3845 0.03028-0.83594 0.17578-2.56 0.8251-3.01 1.5094-4.3633 3.7988-3.3587 1.8852-6.3419 5.5-6.8535 8.7266 0.26122 0.27291 1.2636-2.0603 1.8711-3.1348 1.2483-2.2078 3.2699-4.144 5.5625-5.2891 0.70569-1.7077 2.1452-2.8354 3.7891-3.6465 0.72286-0.35666 1.0103-0.5957 0.83008-0.63086zm1.8066 0.22852c-0.18519 0.01837-0.53752 0.13334-0.98437 0.33008-2.3917 1.053-3.4077 3.0064-3.9707 4.4492-1.3971 1.1797-3.0154 2.5209-4.2402 4.2051-1.1237 1.5452-1.8882 3.415-2.4492 4.9609 0.38064 0.49071 1.5551-2.2091 2.2988-3.3438 1.3385-2.0419 2.8131-4.0489 4.8027-5.4629 0.60601-2.219 2.7487-3.7365 3.748-4.3496 0.94833-0.58184 1.1036-0.81968 0.79492-0.78906zm-3.8164 5.4707c-0.14284-0.0261-0.64868 0.37588-1.5781 1.3945-2.1972 2.4081-4.1704 5.6902-3.8691 9.1035 0.46682 0.05278 0.70939-2.9592 1.6289-4.6777 0.8306-1.5523 1.5272-2.6533 2.6914-4.0078 0.89329-1.0393 1.3106-1.7789 1.127-1.8125z" color="#000000" color-rendering="auto" fill="#7a540f" fill-rule="evenodd" image-rendering="auto" shape-rendering="auto" solid-color="#000000" style="block-progression:tb;isolation:auto;mix-blend-mode:normal;text-decoration-color:#000000;text-decoration-line:none;text-decoration-style:solid;text-indent:0;text-transform:none;white-space:normal"/>
  <path d="m100.78 35.655c-0.0468-0.60646-1.8531-0.41769-2.0992 0.35355-0.37684 1.1811 0.04632 1.7789 1.127 2.3865 0.22571 0.1269 1.8107 0.28 1.8782-0.50823 0.0487-0.56882-0.3344-0.9335-0.95089-1.0597-0.68435-0.14013-1.2337 0.03526-1.303-0.35448-0.15468-0.86969 1.3807-0.39315 1.3479-0.81759z" fill-rule="evenodd"/>
  <path d="m104.12 37.489c-0.26559-0.37873-0.76715-0.43071-1.149 0.35355-0.65556-0.33883-0.66157 0.09644-0.75131 0.66291-0.33231 0.80372-0.16101 1.1038 0.0884 1.3258 0.19151 0.04546 0.38302 0.06361 0.57453-0.35355-0.0195 0.45485 0.32912 0.44338 0.66291 0.30936 0.58258-0.65002 0.5358-1.3019 0.57451-2.2981z" fill-rule="evenodd"/>
  <path d="m91 19.924c0 0.48281-0.32552 0.90492-0.79248 1.0276-0.46696 0.1227-0.95795-0.08486-1.1953-0.5053s-0.16138-0.94806 0.18494-1.2845 0.87591-0.39703 1.2893-0.14758c-0.61479 0.05935-1.0628 0.75184-0.68831 1.2232 0.35417-0.59003 0.84769-0.51818 1.2019-0.31353z" color="#000000" fill="#170000"/>
  <path d="m84.475 12.108c-0.0953-1.8598-0.15599-3.6618-0.41984-5.8024l1.9192-2.8819c1.0295-0.79636 1.5237-1.8604 3.1029-2.3819l0.4779 1.7639 0.125 2.875 0.875 2.75c-0.3042 1.8551-1.0832 2.1671-1.625 3.25h0.125" fill="#8b3c0c" fill-rule="evenodd" stroke="#ff8080" stroke-width=".29055"/>
  <path d="m86.889 2.0791c-1.1855 1.0909-2.3619 2.2583-3.115 3.7026-0.34113 0.65423-0.52009 1.4213-0.30848 2.1514 0.22896 0.79 0.6422 1.5482 0.56447 2.4068-0.03449 0.3809-0.36265 1.2122-0.25185 1.5104 0.44252 1.1909 0.89294 1.0027 1.1279-0.18425 0.19346-0.97739 0.25631-2.0276-0.1184-2.9851-0.24622-0.62916-0.59685-1.3379-0.3001-2.0217 0.5879-1.3547 1.2324-2.5852 2.2919-3.5828 0.4821-0.45393 1.1459-1.0289 1.8228-1.2347 0.31783-0.096643 0.18166 0.4848 0.17647 0.69455-0.02293 0.9277-0.15978 1.8718 0.09539 2.7843 0.2327 0.83214 0.8163 2.2422 0.5917 3.1333-0.29492 1.1701-0.59816 2.2018-1.2669 3.0982-0.67506 0.90495 0.56159 0.90822 1.0722 0.40562 1.0298-1.0136 1.8326-2.5559 1.8533-3.9195 0.01596-1.051-0.77409-2.2095-1.0642-3.1763-0.29773-0.99205-0.07088-2.4058-0.18345-3.4216-0.052679-0.47533-0.32715-1.1668-1.1016-1.1349-0.77444 0.031856-1.3262 1.2585-1.8862 1.7737z" color="#000000" color-rendering="auto" fill="#2b1000" fill-rule="evenodd" image-rendering="auto" shape-rendering="auto" solid-color="#000000" style="block-progression:tb;isolation:auto;mix-blend-mode:normal;text-decoration-color:#000000;text-decoration-line:none;text-decoration-style:solid;text-indent:0;text-transform:none;white-space:normal"/>
  <path d="m87.504 4.4001c-0.40511-0.016865-2.2473 2.0589-2.1466 3.0936 0.07791 0.80034 0.91062 1.2328 1.0733 2.0203 0.14004 0.67793-0.25254 1.894-0.25254 1.894h1.389s1.1709-1.6468 1.1364-2.5885c-0.029629-0.80907-0.47329-1.4153-0.82075-2.1466-0.25498-0.53663 0.2148-2.2481-0.37881-2.2728z" fill="url(#ag)" fill-rule="evenodd"/>
  <path d="m87.504 4.4001c-0.40511-0.01687-2.2473 2.0589-2.1466 3.0936 0.0779 0.80034 0.91062 1.2328 1.0733 2.0203 0.14004 0.67793-0.25254 1.894-0.25254 1.894h1.389s1.1709-1.6468 1.1364-2.5885c-0.0296-0.80907-0.47329-1.4153-0.82074-2.1466-0.25498-0.53662 0.21479-2.2481-0.37881-2.2728z" fill="url(#af)" fill-rule="evenodd" opacity=".527"/>
 </g>
</svg>
