<?xml version="1.0" encoding="UTF-8"?>
<svg width="30.783mm" height="30.666mm" version="1.1" viewBox="0 0 109.07534 108.65765" xmlns="http://www.w3.org/2000/svg" xmlns:xlink="http://www.w3.org/1999/xlink">
 <defs>
  <pattern id="n" patternTransform="matrix(.375 0 0 .625 .5 945.25)" xlink:href="#a"/>
  <pattern id="m" patternTransform="matrix(.8 0 0 .825 -12 924)" xlink:href="#a"/>
  <pattern id="l" patternTransform="matrix(.38335 0 0 .45406 -5.6569 933.38)" xlink:href="#a"/>
  <pattern id="k" patternTransform="matrix(.375 0 0 .425 -5.6569 941.87)" xlink:href="#a"/>
  <pattern id="j" patternTransform="matrix(.85 0 0 1.025 -8 940)" xlink:href="#a"/>
  <pattern id="a" width="10" height="10" patternTransform="translate(0) scale(10)" patternUnits="userSpaceOnUse">
   <circle cx="2.567" cy=".81" r=".45"/>
   <circle cx="3.048" cy="2.33" r=".45"/>
   <circle cx="4.418" cy="2.415" r=".45"/>
   <circle cx="1.844" cy="3.029" r=".45"/>
   <circle cx="6.08" cy="1.363" r=".45"/>
   <circle cx="5.819" cy="4.413" r=".45"/>
   <circle cx="4.305" cy="4.048" r=".45"/>
   <circle cx="5.541" cy="3.045" r=".45"/>
   <circle cx="4.785" cy="5.527" r=".45"/>
   <circle cx="2.667" cy="5.184" r=".45"/>
   <circle cx="7.965" cy="1.448" r=".45"/>
   <circle cx="7.047" cy="5.049" r=".45"/>
   <circle cx="4.34" cy=".895" r=".45"/>
   <circle cx="7.125" cy=".34" r=".45"/>
   <circle cx="9.553" cy="1.049" r=".45"/>
   <circle cx="7.006" cy="2.689" r=".45"/>
   <circle cx="8.909" cy="2.689" r=".45"/>
   <circle cx="9.315" cy="4.407" r=".45"/>
   <circle cx="7.82" cy="3.87" r=".45"/>
   <circle cx="8.27" cy="5.948" r=".45"/>
   <circle cx="7.973" cy="7.428" r=".45"/>
   <circle cx="9.342" cy="8.072" r=".45"/>
   <circle cx="8.206" cy="9.315" r=".45"/>
   <circle cx="9.682" cy="9.475" r=".45"/>
   <circle cx="9.688" cy="6.186" r=".45"/>
   <circle cx="3.379" cy="6.296" r=".45"/>
   <circle cx="2.871" cy="8.204" r=".45"/>
   <circle cx="4.59" cy="8.719" r=".45"/>
   <circle cx="3.181" cy="9.671" r=".45"/>
   <circle cx="5.734" cy="7.315" r=".45"/>
   <circle cx="6.707" cy="6.513" r=".45"/>
   <circle cx="5.73" cy="9.67" r=".45"/>
   <circle cx="6.535" cy="8.373" r=".45"/>
   <circle cx="4.37" cy="7.154" r=".45"/>
   <circle cx=".622" cy="7.25" r=".45"/>
   <circle cx=".831" cy="5.679" r=".45"/>
   <circle cx="1.257" cy="8.519" r=".45"/>
   <circle cx="1.989" cy="6.877" r=".45"/>
   <circle cx=".374" cy="3.181" r=".45"/>
   <circle cx="1.166" cy="1.664" r=".45"/>
   <circle cx="1.151" cy=".093" r=".45"/>
   <circle cx="1.151" cy="10.093" r=".45"/>
   <circle cx="1.302" cy="4.451" r=".45"/>
   <circle cx="3.047" cy="3.763" r=".45"/>
  </pattern>
  <radialGradient id="o" cx="75.13" cy="962.05" r="5.2684" gradientTransform="matrix(1.4317 -.54876 .35516 .92659 -419.44 111.25)" gradientUnits="userSpaceOnUse">
   <stop stop-color="#8d694b" offset="0"/>
   <stop stop-color="#c09a7b" offset=".3691"/>
   <stop stop-color="#ffdabc" offset=".63753"/>
   <stop stop-color="#f8a77c" offset="1"/>
  </radialGradient>
  <radialGradient id="p" cx="129.15" cy="1019.7" r="4.5811" gradientTransform="matrix(2.8146 .13265 -.23249 4.9328 -25.361 -4049.5)" gradientUnits="userSpaceOnUse">
   <stop stop-color="#ffede3" offset="0"/>
   <stop stop-color="#f6f0ec" offset=".40614"/>
   <stop stop-color="#eaeaea" offset=".58298"/>
   <stop stop-color="#b5a79e" offset="1"/>
  </radialGradient>
  <radialGradient id="q" cx="9.0875" cy="976.67" r="49.864" gradientTransform="matrix(.48064 .21975 -.32615 .71337 336.26 278.9)" gradientUnits="userSpaceOnUse" spreadMethod="repeat">
   <stop stop-color="#fffdf8" offset="0"/>
   <stop stop-color="#fffdfa" offset=".40793"/>
   <stop stop-color="#fff7f0" offset=".44692"/>
   <stop stop-color="#fffdfb" offset=".50364"/>
   <stop stop-color="#fffdfc" offset=".69154"/>
   <stop stop-color="#fff" offset="1"/>
  </radialGradient>
 </defs>
 <g transform="translate(2.2996 -943.11)">
  <path d="m35.886 970.16 5.6569-0.17678 5.6569 3.0052 10.607 1.4142s10.481-0.82227 11.844-1.2374c0.91103-0.27742 8.1822-2.4662 10.014-2.0999l13.144 4.0444 5.4801 4.773 2.6516 9.546 0.35356 16.617-2.8284 3.5355c-1.4588-0.899-2.9177-1.8468-4.3765-3.889l-1.2803 4.7729-3.182 5.6569 6.5407 4.9497-2.1213 10.076 2.4749 4.4194-2.4749 3.3588c1.2449 2.2392 2.8302 4.4783 2.6516 6.7175-3.6307 0.7299-7.3094 2.0346-10.783 0.8839l-0.53033-1.9446 4.0659-5.6568-0.53033-9.1924c-0.94133 0.353-3.8613-5.0043-3.3588-5.8336 0.17678-0.7072-2.1213-4.0659-2.1213-4.0659l-3.182-0.7071 0.70711 3.3587-3.3588 5.8337 1.0392 7.8603-1.216 2.7463-0.17678 3.3587c-3.4766 0.5427-6.9532 1.5114-10.43-0.7071l4.9497-5.8336 2.2981-10.783-3.8891-3.0052-1.0607-5.6568c-8.8783-0.2563-17.676-0.1101-26.87-1.9446v10.43l1.4142 10.607-1.4142 3.182-0.17678 3.3588c-1.3669 1.1438-2.896 1.8007-4.5962 1.9445-1.4577 0.1488-2.693 0.7422-4.773-0.3535l3.0052-4.0659 2.2981-6.1872-2.8284-9.5459v-3.7123l-1.0607-1.4142c-0.1076 1.9369-1.0232 2.931-2.1213 3.7123l0.70711 7.4246-1.9445 3.5355 1.0607 6.8943c-0.01781 1.0223-1.3569 1.384-2.2981 1.9446-0.5082 1.5591-1.3237 3.0157-2.8284 4.2426-2.357 0.6805-4.714 1.4657-7.0711 0.5303 1.4653-2.0205 1.0911-3.4278 4.773-6.1872 0.06396-1.9481 1.4769-4.8598 2.6516-7.6014l-1.4142-7.071 1.591-3.182 0.53033-8.1317c-1.3352 0.7722-2.7783 1.1942-4.773-0.1768-1.5428-2.0624-0.6644-4.1248-0.70711-6.1872l-5.6569-3.3588 1.2374-5.6568-2.2981-4.5962c-0.03961-0.70034 0.27891-1.6394 1.2374-3.0052-3.1291-1.5874-4.2839-4.3593-5.8336-6.8943l-1.4142-8.4853 2.1213-8.1317-1.4142 0.39645-2.8284 1.1945-4.2016-2.0481-1.2785-2.9016 2.2981-3.3588 10.076-6.0104 0.29105-1.8088c-1.0442 0.51687-1.8864-0.39525-2.7659-1.1964 0.0111-0.41248-0.0659-0.82496 1.2374-1.2374l3.182-1.0607c-0.41703 0.16311-1.2084-0.79691-1.9445-1.591l4.0659-1.0607 7.6014 0.70711 4.773 4.5962 0.35355 2.1213c2.2299 0.0342 4.4988 0.4202 6.8943 1.9445-1.3063 2.6687-2.9769 4.882-4.9497 6.7175z" fill="url(#q)" fill-rule="evenodd" stroke="#f0f" stroke-width=".35433"/>
  <g fill="#f2d3ba" fill-rule="evenodd">
   <path d="m27.752 1015.3-0.75062 7.7868c-1.0543 1.7327-1.6198 4.9634-0.44375 7.3079 0.30568 1.7571-0.52866 2.0647-0.249 3.2946-0.23788 2.2943-1.5691 4.7656-2.2061 7.2367-1.2161 0.8929-3.3027 2.7579-3.1044 3.6508l-1.6053 1.6919c1.1267 1.1219 1.7917 1.1756 2.666 1.0858 1.3972-0.2888 3.8438-0.055 4.5428-0.809 1.3485-1.0417 3.2129-3.3206 2.6687-4.3623 0.50483-0.9913 1.9414-0.6299 1.7678-1.1689 1.2561-1.131 0.56802-6.5929-0.0018-7.7239l1.8418-4.0313c-0.28494-2.4116-0.33573-2.8499-0.70352-6.8939 1.9263-1.1976 1.3441-7.1232 1.9625-8.8998-3.0224-0.1633-4.57 0.2602-8.09 0.9184z"/>
   <path d="m77.451 1014c0.71273 1.6668 0.63874 3.4646 2.6237 4.9193 1.0775 0.2181 1.3255 2.6233 2.9289 2.0816 1.3018 0.5046 2.8308 4.0587 5.1222 8.0924 0.89637 0.4553 0.94322 2.7088 0.94728 6.4175-0.47124 1.6893 0.88062 2.288 0.25171 3.3243-1.4109 3.126-2.6477 3.3475-3.7756 4.7643-0.71166 1.9814 0.06924 3.058 0.64467 2.8868 3.6342 0.3278 7.741 0.01 10.213-1.2908 0.64027-0.5197-1.6873-4.5608-2.6186-6.3571 0.05762-2.0997 1.8429-2.3779 3.1863-3.7667-1.8197-2.5123-2.3955-1.8446-3.1891-4.8765 0.95434-1.6106 2.0418-6.2834 2.285-8.8344 0.65039-1.8298-2.6634-2.0198-3.4735-2.6216-0.46645-0.4545-0.94972-3.4412-2.2609-3.5133l-3.2923-0.3247-2.1814 0.3545z"/>
  </g>
  <g fill="url(#m)" fill-rule="evenodd" opacity=".254">
   <path d="m27.752 1015.3-0.75062 7.7868c-1.0543 1.7327-1.6198 4.9634-0.44375 7.3079 0.30568 1.7571-0.52866 2.0647-0.249 3.2946-0.23788 2.2943-1.5691 4.7656-2.2061 7.2367-1.2161 0.8929-3.3027 2.7579-3.1044 3.6508l-1.6053 1.6919c1.1267 1.1219 1.7917 1.1756 2.666 1.0858 1.3972-0.2888 3.8438-0.055 4.5428-0.809 1.3485-1.0417 3.2129-3.3206 2.6687-4.3623 0.50483-0.9913 1.9414-0.6299 1.7678-1.1689 1.2561-1.131 0.56802-6.5929-0.0018-7.7239l1.8418-4.0313c-0.28494-2.4116-0.33573-2.8499-0.70352-6.8939 1.9263-1.1976 1.3441-7.1232 1.9625-8.8998-3.0224-0.1633-4.57 0.2602-8.09 0.9184z"/>
   <path d="m77.451 1014c0.71273 1.6668 0.63874 3.4646 2.6237 4.9193 1.0775 0.2181 1.3255 2.6233 2.9289 2.0816 1.3018 0.5046 2.8308 4.0587 5.1222 8.0924 0.89637 0.4553 0.94322 2.7088 0.94728 6.4175-0.47124 1.6893 0.88062 2.288 0.25171 3.3243-1.4109 3.126-2.6477 3.3475-3.7756 4.7643-0.71166 1.9814 0.06924 3.058 0.64467 2.8868 3.6342 0.3278 7.741 0.01 10.213-1.2908 0.64027-0.5197-1.6873-4.5608-2.6186-6.3571 0.05762-2.0997 1.8429-2.3779 3.1863-3.7667-1.8197-2.5123-2.3955-1.8446-3.1891-4.8765 0.95434-1.6106 2.0418-6.2834 2.285-8.8344 0.65039-1.8298-2.6634-2.0198-3.4735-2.6216-0.46645-0.4545-0.94972-3.4412-2.2609-3.5133l-3.2923-0.3247-2.1814 0.3545z"/>
  </g>
  <g fill="#c7a181" fill-rule="evenodd">
   <path d="m33.383 1015.4 2.1662 5.6654c-1.0543 1.7327-0.73588 3.6376 0.44014 5.9821 0.83601-0.099 1.3275 1.1808 1.6072 2.4107 0.99956 2.5595-0.1549 3.9701-0.26158 6.5296-1.2161 0.8929-1.5349 2.4928-1.3366 3.3857l-1.7821 1.5151c-2.0553 3.2432 0.02389 3.3853 0.89824 3.2955 1.3972-0.2888 4.6393-0.055 5.3383-0.809 1.3485-1.0417 2.329-2.1716 1.7848-3.2133 0.50483-0.9913 0.52722-1.7789 0.35355-2.3179 1.2561-1.131 1.1867-2.7922 0.61692-3.9232l-0.4563-5.6223c0.24539-5.8587 0.28299-6.739-0.79191-10.253-0.28344-1.5512-0.07013-2.3502 0.54828-4.1268-2.1223-1.0204-3.7751-0.1628-5.4384 0.6532z"/>
   <path d="m70.057 1010.8-2.9316 3.6993c1.0211 0.4075-0.04937 2.1111 1.6251 1.8652 0.92805 3.9894 2.5641 7.6464 4.8955 8.1277 0.80039 0.6084 0.50617 4.4624-0.97586 7.6929-0.76603 1.5777-0.90289 1.9816-0.89286 2.8571-1.9477 2.8229-2.6429 3.1911-4.0062 4.3831-1.0548 1.822-1.0405 2.6494-0.44374 2.5839l9.5908 0.8822c0.72296-0.3967 0.69753-0.9152 0.10274-2.8492 0.43252-2.0554 0.40475-2.7925 1.9751-3.9184-0.54982-4.1809-1.0065-4.3938-1.2446-7.5188 0.43674-2.0068 1.9791-3.4211 2.675-5.8874 0.96742-1.6838-0.72498-3.9817-1.4142-4.7188-0.37757-0.5306-1.5675-3.6031-2.8446-3.9088l-2.1864-1.6789z"/>
  </g>
  <g fill="url(#n)" fill-rule="evenodd" opacity=".298">
   <path d="m33.383 1015.4 2.1662 5.6654c-1.0543 1.7327-0.73588 3.6376 0.44014 5.9821 0.83601-0.099 1.3275 1.1808 1.6072 2.4107 0.99956 2.5595-0.1549 3.9701-0.26158 6.5296-1.2161 0.8929-1.5349 2.4928-1.3366 3.3857l-1.7821 1.5151c-2.0553 3.2432 0.02389 3.3853 0.89824 3.2955 1.3972-0.2888 4.6393-0.055 5.3383-0.809 1.3485-1.0417 2.329-2.1716 1.7848-3.2133 0.50483-0.9913 0.52722-1.7789 0.35355-2.3179 1.2561-1.131 1.1867-2.7922 0.61692-3.9232l-0.4563-5.6223c0.24539-5.8587 0.28299-6.739-0.79191-10.253-0.28344-1.5512-0.07013-2.3502 0.54828-4.1268-2.1223-1.0204-3.7751-0.1628-5.4384 0.6532z"/>
   <path d="m70.057 1010.8-2.9316 3.6993c1.0211 0.4075-0.04937 2.1111 1.6251 1.8652 0.92805 3.9894 2.5641 7.6464 4.8955 8.1277 0.80039 0.6084 0.50617 4.4624-0.97586 7.6929-0.76603 1.5777-0.90289 1.9816-0.89286 2.8571-1.9477 2.8229-2.6429 3.1911-4.0062 4.3831-1.0548 1.822-1.0405 2.6494-0.44374 2.5839l9.5908 0.8822c0.72296-0.3967 0.69753-0.9152 0.10274-2.8492 0.43252-2.0554 0.40475-2.7925 1.9751-3.9184-0.54982-4.1809-1.0065-4.3938-1.2446-7.5188 0.43674-2.0068 1.9791-3.4211 2.675-5.8874 0.96742-1.6838-0.72498-3.9817-1.4142-4.7188-0.37757-0.5306-1.5675-3.6031-2.8446-3.9088l-2.1864-1.6789z"/>
  </g>
  <path d="m21.999 953.59c-0.40955-0.1892-0.92598-0.9253-2.2259-1.3258l-1.9697-0.4653c-0.26529-0.7555-0.6322-1.3586-1.3653-1.4124-1.8946 0.6028-4.1781 1.1246-4.6936 1.8669 1.3601 1.2414 3.0737 1.1712 3.5499 1.4178-0.12176 1.6124-1.5815 2.1999-2.5812 2.5974l-4.1 2.2348-4.733 3.2107-1.6991 2.8572c-0.39206 1.7656 0.0474 3.3607 1.3384 2.9383 0.43657 0.6348 1.6862 1.8317 3.3731 2.2764 1.5765 0.218 1.9247-0.3979 3.3369-1.1996 0.93755 0.3016 1.9923-0.041 3.106-0.6584l0.98125-1.0048c0.17815-1.0134-0.27513-2.0503 1.0732-3.0573 1.6692-1.1289 1.4856-0.1692 3.7031-2.6171 1.072-1.2557 2.1727-2.5883 2.4549-4.0891 1.5965-1.9146 0.99975-3.0321 0.45092-3.5697z" fill="#ffdabc" fill-rule="evenodd" stroke="#f00" stroke-width=".35433"/>
  <path d="m21.999 953.59c-0.40955-0.18925-0.92597-0.92529-2.2259-1.3258l-1.9697-0.46527c-0.26529-0.75553-0.6322-1.3586-1.3653-1.4124-1.8946 0.60283-4.1781 1.1246-4.6936 1.8669 1.3601 1.2414 3.0737 1.1712 3.5499 1.4178-0.12176 1.6124-1.5815 2.1999-2.5812 2.5974l-4.1 2.2348-4.733 3.2107-1.6991 2.8572c-0.39206 1.7656 0.047388 3.3607 1.3384 2.9383 0.43657 0.63476 1.6862 1.8316 3.3731 2.2764 1.5765 0.21801 1.9247-0.39784 3.3369-1.1996 0.93755 0.3016 1.9923-0.0405 3.106-0.6584l0.98125-1.0048c0.17815-1.0134-0.27513-2.0503 1.0732-3.0572 1.6692-1.1289 1.4856-0.1692 3.7031-2.6172 1.072-1.2557 2.1727-2.5882 2.4549-4.0891 1.5965-1.9145 0.99975-3.032 0.45092-3.5696z" fill="url(#l)" fill-rule="evenodd" opacity=".116" stroke="#f00" stroke-width=".35433"/>
  <path d="m28.345 955.13c3.0553 0.60378 3.0085-0.15718 5.1974-5e-3 1.1996 9e-3 3.2899 1.0192 3.4267 1.7366-2.4935 0.48203-3.4207 0.44652-4.0833 0.41087l-1.3822 1.3553c-2.0329 1.5387-3.8128 1.3933-4.604 1.757-0.40176-0.41809-2.9206-3.475-0.32237-6.1383z" fill="none" stroke="#c83737" stroke-width=".35433"/>
  <path d="m27.553 960.45c0.50102-0.58446 1.6283-0.92696 2.7741-0.97407l2.2259-1.5259c0.50507-0.99998 4.4363-1.0553 4.9873-0.65956 0.77731 0.55817-1.2032 2.0137-1.5945 2.981l-2.5893 2.9464c-3.0728 0.54971-5.2912-0.58291-5.8036-2.7679z" fill="url(#o)" fill-rule="evenodd" stroke="#de8787" stroke-width=".35433"/>
  <path d="m27.553 960.45c0.50102-0.58446 1.6283-0.92696 2.7741-0.97407l2.2259-1.5259c0.50507-0.99998 4.4363-1.0553 4.9873-0.65956 0.77731 0.55817-1.2032 2.0137-1.5945 2.981l-2.5893 2.9464c-3.0728 0.54971-5.2912-0.58291-5.8036-2.7679z" fill="url(#k)" fill-rule="evenodd" opacity=".204" stroke="#de8787" stroke-width=".35433"/>
  <path d="m94.629 977.25c1.4287 1.3689 4.4445 2.0257 3.9018 5.3661 1.1428 0.994 1.7112 2.6936 1.9018 5.116 0.77908 1.7857 1.2303 3.884 0.35714 5.6697 1.6968 0.1523 1.5425 3.8182 0.76786 6.4464-1.1643 1.5925 0.0605 5.0168 0.0625 6.5714-0.18025 0.8146-2.118 2.8012-3.5542 2.9011-0.80517 0.056-3.2277-2.0828-4.1779-3.8743-0.68869-0.4848 0.45914-1.9119 1.3839-3.5982-0.94864 0.1357-1.9408 0.4237-1.9643-2.6786 0.58218-1.8087 0.88319-4.3245 3.3214-4.9732-0.95824-1.268-1.7933-1.5949-1.4375-4.9286-0.15675-1.3095 0.22057-2.0565 0.89285-3.4285-2.5912-1.3511-3.3339-5.5718-1.4554-8.5893z" fill="url(#p)" fill-rule="evenodd" stroke="#f60" stroke-width=".35433"/>
  <path d="m94.629 977.25c1.4287 1.3689 4.4445 2.0258 3.9018 5.3661 1.1428 0.99404 1.7112 2.6936 1.9018 5.116 0.77908 1.7857 1.2303 3.884 0.35714 5.6697 1.6968 0.1523 1.5425 3.8182 0.76786 6.4464-1.1643 1.5925 0.0605 5.0168 0.0625 6.5714-0.18025 0.8146-2.118 2.8012-3.5542 2.9011-0.80517 0.056-3.2277-2.0828-4.1779-3.8743-0.68869-0.4848 0.45914-1.9119 1.3839-3.5982-0.94864 0.1357-1.9408 0.4237-1.9643-2.6786 0.58218-1.8087 0.88319-4.3245 3.3214-4.9732-0.95824-1.268-1.7933-1.5949-1.4375-4.9286-0.15675-1.3095 0.22057-2.0565 0.89285-3.4285-2.5913-1.3511-3.3339-5.5718-1.4554-8.5893z" fill="url(#j)" fill-rule="evenodd" opacity=".125" stroke="#f60" stroke-width=".35433"/>
  <path d="m17.735 954.77c-1.1083 0.0268-1.9819 0.24573-1.2627 1.7678-0.045 0.66311 0.2148 1.0824 1.0102 1.0733 3.4814-0.21647 2.3264-0.63451 2.1466-1.0102-0.76382-1.1402-1.2815-1.2959-1.894-1.8309z" fill="#fff" fill-rule="evenodd" stroke="#805d44" stroke-width=".70866"/>
  <path d="m12.685 953.26s-0.839 0.37099-0.75762 1.5784c0.0967 1.4353 1.0733 1.389 1.0733 1.389 1.1015-0.77045 1.5481-1.65 1.6415-2.5885-0.65239-0.65376-1.3048-0.90094-1.9572-0.37881z" fill="#fff" fill-rule="evenodd" stroke="#805d44" stroke-width=".70866"/>
  <path d="m24.101 992.95c1.3489 2.0394 1.3958 2.8202 2.5908 3.523 2.3865 1.4037 4.7272 1.5368 7.2558 0.48589-4.301 0.6393-7.3705-0.16924-9.4962-5.1304-1.5736 0.99696-2.185 0.69723-3.4498 0.10685 0.5209 0.56171 1.05 1.6957 3.0993 1.0146z" color="#000000" color-rendering="auto" fill-rule="evenodd" image-rendering="auto" shape-rendering="auto" solid-color="#000000" style="block-progression:tb;isolation:auto;mix-blend-mode:normal;text-decoration-color:#000000;text-decoration-line:none;text-decoration-style:solid;text-indent:0;text-transform:none;white-space:normal"/>
  <path d="m22.963 977.31c-1.8262 2.354-0.84751 4.6771-4.446 3.9981-1.5986-0.30167-2.9068-2.5006-4.8378-1.9595 1.5561 0.5076 3.6253 2.8489 5.811 2.8378 1.3905-7e-3 2.684-1.1022 3.5029-4.0112 0.13859-0.4923 0.62808-0.97906 0.89083-1.0618 0.58893-0.18545 1.4949 0.64786 2.4721 0.20196-1.1596-0.20348-2.0678-1.7136-3.3931-5e-3z" color="#000000" color-rendering="auto" fill-rule="evenodd" image-rendering="auto" shape-rendering="auto" solid-color="#000000" style="block-progression:tb;isolation:auto;mix-blend-mode:normal;text-decoration-color:#000000;text-decoration-line:none;text-decoration-style:solid;text-indent:0;text-transform:none;white-space:normal"/>
  <path d="m33.299 982.57c0.48279 2.0634 2.4754 3.9861 4.1983 4.0724 3.4251 0.17162 4.1617-0.41875 7.0132-2.9621-1.2483 0.50697-2.777 2.2438-4.7249 2.3937-2.754 0.21187-3.9322 0.10489-5.9383-3.3497-0.2102-0.36542-0.11139-1.2764-0.54822-0.15432z" color="#000000" color-rendering="auto" fill-rule="evenodd" image-rendering="auto" shape-rendering="auto" solid-color="#000000" style="block-progression:tb;isolation:auto;mix-blend-mode:normal;text-decoration-color:#000000;text-decoration-line:none;text-decoration-style:solid;text-indent:0;text-transform:none;white-space:normal"/>
  <path d="m52.207 980.32c0.12372 1.3223 4.0627 5.9659 6.3337 6.0245 4.6843 0.12094 5.8176-1.8167 8.6691-4.3601-1.2922 0.32537-1.7985 1.0066-3.4333 2.4431-1.3995 1.2296-2.8923 1.896-6.2407 1.1158-1.204-0.28056-5.1419-4.8454-5.3288-5.2233z" color="#000000" color-rendering="auto" fill-rule="evenodd" image-rendering="auto" shape-rendering="auto" solid-color="#000000" style="block-progression:tb;isolation:auto;mix-blend-mode:normal;text-decoration-color:#000000;text-decoration-line:none;text-decoration-style:solid;text-indent:0;text-transform:none;white-space:normal"/>
  <path d="m81.027 976.59c-1.7151-0.0704-4.2796 1.1059-5.9799 2.4432 1.6181-0.61634 3.7141-1.8907 5.8304-1.9658 1.7602-0.0624 3.9201 1.4159 4.6385 2.9512 0.53014 1.1329 1.2576 1.8278 1.8519 2.7961 0.68155 1.1105 3.2084-0.75677 4.1257-1.1335-1.0058-0.41777-3.0126 1.8898-3.7117 0.88487 0 0-1.4868-2.5515-2.505-3.601-1.724-1.777-2.7282-2.3125-4.25-2.375z" color="#000000" color-rendering="auto" fill-rule="evenodd" image-rendering="auto" shape-rendering="auto" solid-color="#000000" style="block-progression:tb;isolation:auto;mix-blend-mode:normal;text-decoration-color:#000000;text-decoration-line:none;text-decoration-style:solid;text-indent:0;text-transform:none;white-space:normal"/>
  <path d="m90.162 1006.3c0.17999 2.1115-1.1191 4.5568-2.7306 5.1724-3.2035 1.2241-4.0868 0.8908-7.5858-0.6444 1.3439 0.096 3.3354 1.2736 5.234 0.8127 2.6842-0.6515 3.7714-1.1181 4.609-5.0241 0.08666-0.4126-0.2894-1.2481 0.47345-0.3166z" color="#000000" color-rendering="auto" fill-rule="evenodd" image-rendering="auto" shape-rendering="auto" solid-color="#000000" style="block-progression:tb;isolation:auto;mix-blend-mode:normal;text-decoration-color:#000000;text-decoration-line:none;text-decoration-style:solid;text-indent:0;text-transform:none;white-space:normal"/>
  <path d="m73.329 1008c-1.7151 0.07-4.2796-1.106-5.9799-2.4433 1.6181 0.6164 3.7141 1.8907 5.8304 1.9658 1.7602 0.062 3.9201-1.4159 4.6385-2.9511 0.53014-1.133 1.2576-1.8278 1.8519-2.7961 0.68155-1.1105 3.2084 0.7568 4.1257 1.1335-1.0058 0.4178-3.0126-1.8898-3.7117-0.8848 0 0-1.4868 2.5515-2.505 3.601-1.724 1.777-2.7282 2.3125-4.25 2.375z" color="#000000" color-rendering="auto" fill-rule="evenodd" image-rendering="auto" shape-rendering="auto" solid-color="#000000" style="block-progression:tb;isolation:auto;mix-blend-mode:normal;text-decoration-color:#000000;text-decoration-line:none;text-decoration-style:solid;text-indent:0;text-transform:none;white-space:normal"/>
  <path d="m90.683 992.47c0.70082 1.9998 0.05249 4.6918-1.3545 5.69-2.7971 1.9841-3.7356 1.8817-7.5068 1.2677 1.3252-0.243 3.5475 0.40147 5.2713-0.51822 2.4369-1.3003 3.3734-2.0233 3.2104-6.0148-0.01893-0.42114-0.59149-1.1365 0.37958-0.4246z" color="#000000" color-rendering="auto" fill-rule="evenodd" image-rendering="auto" shape-rendering="auto" solid-color="#000000" style="block-progression:tb;isolation:auto;mix-blend-mode:normal;text-decoration-color:#000000;text-decoration-line:none;text-decoration-style:solid;text-indent:0;text-transform:none;white-space:normal"/>
  <path d="m78.504 992.24c-1.3489 2.0394-1.3958 2.8202-2.5908 3.523-2.3865 1.4037-4.7272 1.5368-7.2558 0.48589 2.7019 0.40161 5.1365 0.5756 6.9378-0.83608 1.066-0.83549 1.8931-1.9185 2.6834-3.763 1.5736 0.99696 2.06 0.16598 3.3248-0.4244-0.5209 0.56171-1.05 1.6957-3.0993 1.0146z" color="#000000" color-rendering="auto" fill-rule="evenodd" image-rendering="auto" shape-rendering="auto" solid-color="#000000" style="block-progression:tb;isolation:auto;mix-blend-mode:normal;text-decoration-color:#000000;text-decoration-line:none;text-decoration-style:solid;text-indent:0;text-transform:none;white-space:normal"/>
  <path d="m51.935 1003.5c0.48279 2.0634 2.4754 3.9861 4.1983 4.0724 3.4251 0.1717 4.1617-0.4187 7.0132-2.9621-1.2483 0.507-2.777 2.2439-4.7249 2.3937-2.754 0.2119-3.9322 0.1049-5.9383-3.3496-0.2102-0.3655-0.11139-1.2764-0.54822-0.1544z" color="#000000" color-rendering="auto" fill-rule="evenodd" image-rendering="auto" shape-rendering="auto" solid-color="#000000" style="block-progression:tb;isolation:auto;mix-blend-mode:normal;text-decoration-color:#000000;text-decoration-line:none;text-decoration-style:solid;text-indent:0;text-transform:none;white-space:normal"/>
  <path d="m33.953 1000.8c0.12372 1.3223 4.0627 5.9659 6.3337 6.0246 4.6843 0.1209 5.8176-1.8168 8.6691-4.3601-1.2922 0.3253-1.7985 1.0066-3.4333 2.4431-1.3995 1.2296-2.8923 1.896-6.2407 1.1158-1.204-0.2806-5.1419-4.8454-5.3288-5.2234z" color="#000000" color-rendering="auto" fill-rule="evenodd" image-rendering="auto" shape-rendering="auto" solid-color="#000000" style="block-progression:tb;isolation:auto;mix-blend-mode:normal;text-decoration-color:#000000;text-decoration-line:none;text-decoration-style:solid;text-indent:0;text-transform:none;white-space:normal"/>
  <path d="m29.972 1005.1c-2.9769 0.1202-4.1228 2.3656-5.9222-0.8238-0.79936-1.417 0.03929-3.8342-1.6187-4.9622 0.61447 1.517 0.15729 4.608 1.5742 6.2723 0.90362 1.057 2.5723 1.3424 5.3246 0.094 0.46578-0.2112 1.1534-0.1505 1.386 0 0.52126 0.3309 0.46777 1.5607 1.4384 2.0206-0.59159-1.0179-0.02198-2.6854-2.1863-2.5947z" color="#000000" color-rendering="auto" fill-rule="evenodd" image-rendering="auto" shape-rendering="auto" solid-color="#000000" style="block-progression:tb;isolation:auto;mix-blend-mode:normal;text-decoration-color:#000000;text-decoration-line:none;text-decoration-style:solid;text-indent:0;text-transform:none;white-space:normal"/>
  <path d="m55.497 996.31c1.7159 0.0475 4.2644-1.163 5.9467-2.5228-1.6097 0.63789-3.6886 1.9401-5.8037 2.0434-1.7592 0.0859-3.9386-1.3634-4.6775-2.889-0.54522-1.1258-1.2819-1.8108-1.8891-2.7711-0.69632-1.1013-3.198 0.79954-4.1102 1.1885 1.0113 0.4043 2.9871-1.9299 3.6995-0.93435 0 0 1.5207 2.5315 2.5528 3.5672 1.7476 1.7538 2.7588 2.2759 4.2813 2.318z" color="#000000" color-rendering="auto" fill-rule="evenodd" image-rendering="auto" shape-rendering="auto" solid-color="#000000" style="block-progression:tb;isolation:auto;mix-blend-mode:normal;text-decoration-color:#000000;text-decoration-line:none;text-decoration-style:solid;text-indent:0;text-transform:none;white-space:normal"/>
  <circle cx="17.562" cy="956.3" r=".6875" color="#000000" fill-rule="evenodd" stroke="#502200" stroke-linecap="round" stroke-width=".70866"/>
  <ellipse cx="12.625" cy="954.61" rx=".5" ry=".6875" color="#000000" fill-rule="evenodd" stroke="#502200" stroke-linecap="round" stroke-width=".70866"/>
  <path d="m13.325 954.32c0.09248 0.62469-0.47344 0.54261-1.3173 1.2777-2.7053 2.3566-6.2014 3.0328-8.7639 5.448-1.1379 1.0725-2.2502 3.1718-1.9503 5.0293 0.10331 0.63983 0.81613 2.2232 2.1951 2.4002 1.9552 1.9545 3.6716 4.0458 7.3378 0.79984-1.6071 3.3393-2.917 9.6992-1.5977 14.009 1.1166 3.6475 2.7367 7.5271 6.2285 8.6806-1.7231 2.4892 0.43099 4.7222 1.2497 7.0137 0.4631 1.2961-0.04204 2.6711-0.57986 3.9731-1.7234 3.5342 2.1307 5.9359 5.1243 6.2283-3.3673 5.7647 3.3568 8.4359 5.7022 6.8232-0.29632 1.9268-2.7367 4.5904-0.81976 7.2171-1.7987 2.9967-1.7471 6.2539-0.59664 8.6638 0.5438 4.6774-1.872 5.1652-1.9677 8.7034-1.3838 1.1906-4.6768 4.579-5.329 6.0765 0.47181 0.9099 3.8417 1.9649 5.6777 1.4043 4.0845-0.016 5.721-3.1123 6.4627-5.7025 1.1734-0.6927 2.0612-1.2359 2.2363-2.3038 0.25049-1.5269-0.18933-3.485-0.37532-5.4024-0.14158-1.4596 0.10351-2.9429 0.97724-3.6907 1.4499-1.3511-0.27034-5.3852-0.20365-8.126 1.0427-1.072 0.83128-2.6774 1.4892-2.6127-0.67092 4.8176 1.9149 8.181 2.2139 11.599 0.37011 2.328-0.4932 4.4234-1.6067 6.9728-1.7992 1.7164-3.4967 3.6634-3.5353 5.4795 2.3699 0.8857 4.3409 0.8181 7.1802 0.899 0.82644 0.024 5.096-2.5813 4.9862-3.6786-0.99364-1.1857-0.61337-1.656-0.2937-2.8342 1.2919-0.913 2.0814-2.1802 2.0828-2.6614 0.0014-0.4811-0.78519-1.944-0.96588-2.718 0.33383-4.0621-0.71318-9.8636-1.4851-14.049-0.14702-2.032 0.88231-2.1669 1.9013-3.0619 1.5311 0.456 1.4945 0.4175 4.565 1.0534 4.9522 2.2136 7.3541-1.7454 12.269 0.017 2.3065 0.094 2.0475 1.3489 4.382 0.3528 1.4922-0.397 2.2866 1.263 2.4085 2.7588-0.07267 3.4278 2.4245 3.7955 4.2621 4.9191 0.3151 1.336-0.23917 4.324-0.99335 6.3924-1.0171 1.3543-0.7286 3.0445-1.7767 4.8267-1.3306 0.6876-2.8177 2.195-3.4705 3.0216-0.42849 1.1329-1.2758 1.9239-1.1283 3.0487 3.1315 1.2228 9.4727 1.453 12.359 0.6947 0.66452-1.3787 0.41073-3.0974 0.43251-4.3208 0.4665-1.1708 0.92067-1.6995 1.8425-2.2254-0.36364-1.8633-1.267-6.892-1.1891-8.0464 1.3749-3.8537 3.2491-3.5718 2.9876-7.0854 3.4865 0.9001 1.8189 4.0601 3.9629 7.3059 2.9646 1.4027 2.3851 6.3609 2.4539 9.8632-0.63403 1.4728-2.5004 2.9593-3.5884 5.1172-0.463 0.861 0.15322 3.6829 0.5044 3.7497 1.1358 0.1667 4.4346 0.055 6.474-0.1625 2.3962-0.2553 5.324-1.1737 5.8761-2.2186-0.44075-1.878-0.9303-3.421-2.2321-5.3088-0.76618-0.5728 0.15166-1.3903 0.66359-2.3946 0.5672-1.1127 1.4394-1.1754 1.5545-2.6674-0.8925-0.9731-1.5934-2.8626-2.26-4.3479 0.96254-2.9673 2.2225-8.0466 1.6543-10.14-0.26609-0.98-2.1935-1.1319-2.9408-1.9547-1.3606-1.2277-1.4294-1.7016-2.3766-2.9133 0.0863-1.0514 1.2926-1.6162 1.7773-2.6313 0.95593-2.0021 0.33276-4.3502 0.93768-6.0838 0.52215 1.2371 2.8751 4.4083 4.7032 3.7169 1.4888-0.5631 3.0574-2.076 3.6312-4.0956-0.5024-4.3867 1.4992-9.3747-0.18179-13.497 0.0653-3.6702-1.4224-8.9289-2.8019-12.517-1.7874-3.8175-7.1972-6.6776-11.057-8.501-5.2615-1.823-11.307-3.0769-16.612-0.61743-7.9346 2.018-15.839 2.6746-23.793 1.017-2.0939-0.43637-4.1893-2.4745-6.1764-2.985-1.728-0.44389-3.7326 0.26183-5.4804-0.0886-1.0345-1.5653-1.8794-3.5759-1.8633-5.4299 0.01132-1.2982 2.8313-5.0829 3.9177-6.0209-0.16397-2.0908-4.1824-3.0918-6.8155-3.7171-0.90851-4.2384-5.3858-7.4954-9.6523-7.4065l-5.1203 0.46563c-0.65784 0.0598-2.377 0.53014-2.8704 0.98084-0.49154 0.44908-0.26013 1.7519 1.2244 1.8524-2.0713 1.1275-3.9976 0.66556-4.3275 2.2788-0.32987 1.6133 2.1314 1.4593 2.2063 2.0868zm5.7207-5.8358c4.06-0.24405 9.0056 0.62809 10.804 5.0136 0.67209 0.79881 0.73743 1.2098 0.47895 1.3646-0.6369 0.3813-3.2398-0.79321-3.5765-1.5557-2.04 2.2395-3.0136 4.3107-0.32244 7.2876 0.03449 1.1371 1.3944 2.1144 2.7096 2.7779 1.5173 0.76551 2.4151 1.4224 3.4555 1.6047 0.40165 1.9201 1.5502 3.3464 1.8628 5.1094 0.19483 1.0986 0.28912 1.7764 0.83894 2.6585 0.58828 0.94382 0.71292 1.164 1.5021 1.7602 1.3194 0.75897 1.7535 1.7158 2.4722 1.2286 0.32695 6e-3 -0.18638-0.5935-0.42317-1.435-0.18964-0.67394-0.48566-1.7238-0.42528-2.6374 0.02156-0.32619 0.82189-0.85821 1.1299-0.88856 0.30797-0.0303 1.9302 0.38383 2.2093 0.36437 2.4784 2.432 5.865 3.1588 9.3553 3.6814 8.1355 1.2182 17.448 0.5272 25.247-2.2735 4.5723-0.72479 9.1613 0.99708 13.366 2.612 5.3488 1.6003 1.119 8.0074 5.6675 10.782-1.6208 2.6092-0.81783 3.5188-1.1237 5.9804-0.09953 0.80092 1.6227 2.2607 1.6508 2.1569-0.65895 0.14437-2.0561 0.73498-1.985 1.2266-0.42497 0.3753-1.3747 1.8908-1.3231 3.3772 0.06513 1.8786 0.10707 2.7854 1.4838 3.6778-1.0076 0.9128-0.59392 1.6675-0.82469 2.6478-0.35352 1.5018-0.45578 4.0463-1.5551 6.2904-0.86043 1.7564-2.7426 3.2602-3.1064 4.3905-0.43462 1.35 0.0065 0.99 1.0577 2.5308 1.9003 1.2784 3.2971 2.2175 4.9268 3.2471-0.24156 1.5608 0.1151 3.256-0.19518 5.0079-0.33866 1.9124-1.7174 3.2494-1.4761 4.9484 0.75646 1.2964 2.1155 2.8978 2.6014 3.8746-0.75007 1.0991-2.0459 1.438-2.4014 2.4329 0.26952 1.3699 0.18837 2.3376 0.63736 3.3107 0.7633 1.0864 1.6164 1.7845 1.9762 3.3972-0.39478 0.4792-2.635 0.9905-3.5699 1.1849-2.0041 0.4167-4.0635 0.5687-5.8831 0.059-0.16152-0.61-0.32103-0.7281 0.06118-1.5452 1.8083-1.8162 3.6574-3.677 4.3687-5.0568-0.72959-4.2375 1.1771-8.9735-2.6691-12.182-1.5286-3.6232-2.9102-8.4268-7.2792-9.2684-1.4488-0.2544-1.7966-1.2534-1.9706-2.3189-0.01667-0.1021 1.1549 0.4745 1.6996 0.466 0.56504-0.01 1.6013-0.5487 1.7043-0.5506 0.75984-0.014 1.4486 0.9003 2.3891 0.8671 0.91856-0.032 2.7324-0.5531 3.5772-1.0261-0.54729-0.7825-3.4095-0.3809-3.5038-0.3968-0.55143-0.093-1.1508-1.0859-2.1487-1.1781-0.51129-0.047-1.5498 0.4296-2.058 0.4528-0.58614 0.027-2.1277-0.8222-2.171-0.8959-0.33687-0.5732-0.97163-0.895-2.2876-0.6851-3.1192-0.5006-5.8638-6.1615-7.9131-0.9225-0.39943 1.7408-1.9013 2.912-2.9136 3.4224-2.433-0.1897-4.1317-0.4097-6.1254-0.6857-4.9409 0.6016-9.907 0.6718-14.698-1.0023-3.0761-0.7181-6.2663-2.0362-8.4098 0.2773-3.1555-1.5052-3.4354 0.2009-3.0018 2.8447 0.04425 1.9958 0.70308 5.0963-2.0639 5.493 1.4553 3.4308 1.3909 8.1417-0.94969 10.574 0.05863 3.7235 2.9134 7.7469-1.147 9.185-0.09994 2.1527-1.1623 3.3789-3.5966 4.2081-1.5605 0.5865-2.6967 0.2323-3.8546 0.4209 0.07602-1.04 3.2413-4.1248 4.3525-4.5907-0.689-1.8857 0.21345-3.7852 1.1158-5.8078 0.45794-1.0265 1.2727-2.4798 0.88511-3.633-0.07794-3.3576-1.5932-6.7728 0.87819-9.0131-1.5394-2.2966 0.18611-6.3084 0.58813-9.579-1.8208 0.053-2.937 1.1047-4.6956-0.2355-4.136-1.6247 1.0342-5.5442 0.44829-6.0913-3.9892 1.2922-6.4102-2.0426-6.6573-5.6215 2.4178-3.8784-3.0182-4.8064-1.8203-8.0118 1.3616-1.1751 1.4153-0.90288 2.6193-1.7211-4.6048-1.7622-6.5245-6.099-7.7477-10.911-0.65579-2.58-0.72768-6.9283 0.16784-9.509 0.50627-1.459 0.91223-2.7859 2.8696-3.0066 2.6258-2.2402-1.7745-3.4355 2.5937-4.0425 3.073-3.0102 6.466-6.3898 5.8392-10.514-0.47981-1.3386-2.0682-2.0644-4.6668-2.4398-0.36749-0.98039-3.2899-1.6935-2.7384-2.4626 0.66049-0.92124 3.2692-0.47762 3.6888-0.50284zm2.5483 6.1972c-0.0032 1.7284-0.74204 3.1373-1.5424 4.3655-0.80436 1.2343-1.9895 2.6927-3.396 3.4611-2.3035 0.16057-2.884 2.5651-3.1182 4.0762-0.20636 1.3319-1.9508 1.4348-3.9635 0.75029-0.17759 1.121-1.4296 1.8022-2.4959 1.5999-1.1296-0.21429-3.0885-1.4755-3.5104-2.0088 1.0732 0.40659 2.4885 0.50278 3.4306 0.37251 1.5274-0.25292 3.0513-1.0962 2.919-1.4847-0.15783-0.49911-0.94478-0.29372-1.579-0.11387-0.69964 0.21816-1.2524 0.39941-2.7356 0.43897-1.3117 0.20607-2.5743-0.42565-2.5811-1.0062-0.00497-0.42577 0.6815-1.5169 1.3061-1.7723 0.27005 0.0909 0.48268 0.6148 0.92216 0.79692 0.72985 0.30245 1.7524 0.21729 2.2559-0.28077 1.074-1.0624-0.025383-0.69313-0.95201-0.98532-0.45417-0.14322-0.6874-0.4981-1.0176-0.73939 0.87532-1.4209 2.8446-2.397 4.3971-3.4128 1.9635-1.2848 4.4098-1.8181 5.8333-3.7033 0.17228-0.38067-0.02681-1.1443-0.01514-1.5061 0.12773-0.81563-3.226-0.908-3.2514-1.173 0.01084-0.47463 2.854-1.1869 4.2225-1.503 0.0097 0.38879 0.21476 1.332 1.5005 1.5357 2.5673 0.40676 3.3734 1.0729 3.3711 2.2924zm13.479 1.7311c-0.67267 0.83986-2.528 0.0853-3.7949 1.2183-1.7724 1.5851-3.3069 2.5566-4.477 2.0823-0.80043-1.3471-1.4854-4.1696-0.0033-4.8894 0.32682-0.0401 1.4678 0.96034 2.1909 0.9237 0.917-0.0465 2.0149-0.055 2.9444 0.0638 1.6624 0.21234 2.7861 0.83176 3.1399 0.60133zm1.0385 1.2246c0.13979 0.44826-0.12084 0.4631-0.34268 1.1738-0.40982 1.3129-2.1745 3.0353-2.9862 3.947-1.4585-0.0199-4.0217-0.72321-4.7232-2.0612 2.096-0.64827 2.9258-0.51208 4.7112-2.3362 1.4845-0.54963 2.2628-0.96853 3.3409-0.72342zm58.474 21.447c2.0745-0.80874 3.5372 5.8064 4.8554 9.3125 1.1344 3.2571-0.50287 5.3013 0.87113 7.0508-0.34914 1.5434-0.2067 2.5414-0.1759 4.1482 0.0424 2.2084-0.3532 4.3657-0.80819 6.6886-0.63093 0.578-1.0282 1.5019-1.7971 1.253-1.3454-0.4353-2.0805-1.1789-3.073-2.3769-0.23509-1.1612 1.212-2.8356 1.6342-3.501 0.21477-0.7706-0.66919-0.2604-1.3444-0.3503-0.82269-0.1096-1.4212-0.8529-0.42379-2.6526-0.32573-1.474 0.69332-3.1368 1.9177-3.6004 0.92656-0.35089 2.084 0.4004 2.2183 0.0681 0.0974-0.24107-0.20414-0.54073-1.1809-0.99109-0.84285-0.71869-1.7103-2.7789-1.7211-3.8614-0.02249-2.2449 1.168-3.5207 1.1822-4.7135-1.0915-0.6955-2.2206-2.0054-2.539-3.3126-0.26195-1.0753 0.16751-2.106 0.38457-3.1613zm-24.281 32.397c2.479 1.7086 4.2292 1.785 5.9548 3.7912 0.81554 2.274 2.234 3.5357 3.264 5.1893 0.57751 2.4741-2.0843 5.3401-2.9986 7.9457 0.14554 2.2704 0.88202 4.9309 1.2242 7.1487-0.67472 0.3587-1.1837 1.3039-1.5787 2.4768 0.3706 1.5689 0.07735 2.2398 0.11539 3.2403-2.0308 1.0367-6.1647 0.7036-8.0343-0.061 0.52608-1.4516 2.2734-2.5515 3.1301-3.7671 1.7393-1.2108 1.2224-3.4487 2.2899-5.2453 0.21274-2.7824 1.0482-5.0516 1.2558-7.1257-0.65654-1.4603-2.3037-2.1863-3.5084-3.4396-0.47345-2.7455-1.8158-7.2945-3.3218-7.2741 0.35244-0.6235 1.7575-2.318 2.2076-2.8788zm-29.049 2.6577c0.15639 1.335-0.15104 2.4041-0.93079 4.8336 0.84828 3.2335 2.1517 10.536 1.3849 14.842 0.56402 1.2288 0.69321 1.1143 0.7965 1.6451s-0.43804 1.4418-1.3034 2.1583c0.59498 1.3748-0.13189 3.1152-1.1229 3.9254-1.079 0.8821-3.9346 1.3065-5.5878 1.3743-0.72001-0.4257 0.47802-1.0735 1.4039-2.1075 0.9758-0.9151 0.77793-1.7292 1.5939-3.215 0.64296-1.6435 1.698-4.6747 1.225-7.6374-0.31657-1.9829-1.3637-3.8071-2.3091-5.1598-0.09714-2.5108 0.64967-4.5736-1.3608-6.8219-1.0075-2.5672 0.21851-2.1665 1.9004-2.1422 1.5799-1.1275 2.988-1.9571 4.3102-1.695z" color="#000000" color-rendering="auto" fill="#9e856c" fill-rule="evenodd" image-rendering="auto" shape-rendering="auto" solid-color="#000000" style="block-progression:tb;isolation:auto;mix-blend-mode:normal;text-decoration-color:#000000;text-decoration-line:none;text-decoration-style:solid;text-indent:0;text-transform:none;white-space:normal"/>
 </g>
</svg>
