<?xml version="1.0" encoding="UTF-8"?>
<svg width="31mm" height="30mm" version="1.1" viewBox="0 0 109.84251 106.29921" xmlns="http://www.w3.org/2000/svg" xmlns:xlink="http://www.w3.org/1999/xlink">
 <defs>
  <linearGradient id="b">
   <stop stop-color="#a05a2c" stop-opacity="0" offset="0"/>
   <stop stop-color="#a05a2c" stop-opacity=".086643" offset=".4325"/>
   <stop stop-color="#a05a2c" offset=".71108"/>
   <stop stop-color="#a05a2c" offset="1"/>
  </linearGradient>
  <pattern id="s" patternTransform="matrix(.88716 0 0 .94903 -.45053 -2.9167)" xlink:href="#a"/>
  <pattern id="r" patternTransform="matrix(.88879 0 0 .91745 -.45053 -2.9167)" xlink:href="#a"/>
  <pattern id="q" patternTransform="matrix(.84825 0 0 .80432 -.45053 -2.9167)" xlink:href="#a"/>
  <pattern id="p" patternTransform="matrix(.88879 0 0 .89182 .44788 -2.3303)" xlink:href="#a"/>
  <pattern id="o" patternTransform="matrix(.92414 0 0 .83209 -.45053 -2.9167)" xlink:href="#a"/>
  <pattern id="n" patternTransform="matrix(.78993 0 0 .77226 -.45053 -2.9167)" xlink:href="#a"/>
  <pattern id="m" patternTransform="matrix(.79034 0 0 .81046 -.45053 -2.9167)" xlink:href="#a"/>
  <pattern id="a" width="10" height="10" patternTransform="translate(0) scale(10)" patternUnits="userSpaceOnUse">
   <circle cx="2.567" cy=".81" r=".45"/>
   <circle cx="3.048" cy="2.33" r=".45"/>
   <circle cx="4.418" cy="2.415" r=".45"/>
   <circle cx="1.844" cy="3.029" r=".45"/>
   <circle cx="6.08" cy="1.363" r=".45"/>
   <circle cx="5.819" cy="4.413" r=".45"/>
   <circle cx="4.305" cy="4.048" r=".45"/>
   <circle cx="5.541" cy="3.045" r=".45"/>
   <circle cx="4.785" cy="5.527" r=".45"/>
   <circle cx="2.667" cy="5.184" r=".45"/>
   <circle cx="7.965" cy="1.448" r=".45"/>
   <circle cx="7.047" cy="5.049" r=".45"/>
   <circle cx="4.34" cy=".895" r=".45"/>
   <circle cx="7.125" cy=".34" r=".45"/>
   <circle cx="9.553" cy="1.049" r=".45"/>
   <circle cx="7.006" cy="2.689" r=".45"/>
   <circle cx="8.909" cy="2.689" r=".45"/>
   <circle cx="9.315" cy="4.407" r=".45"/>
   <circle cx="7.82" cy="3.87" r=".45"/>
   <circle cx="8.27" cy="5.948" r=".45"/>
   <circle cx="7.973" cy="7.428" r=".45"/>
   <circle cx="9.342" cy="8.072" r=".45"/>
   <circle cx="8.206" cy="9.315" r=".45"/>
   <circle cx="9.682" cy="9.475" r=".45"/>
   <circle cx="9.688" cy="6.186" r=".45"/>
   <circle cx="3.379" cy="6.296" r=".45"/>
   <circle cx="2.871" cy="8.204" r=".45"/>
   <circle cx="4.59" cy="8.719" r=".45"/>
   <circle cx="3.181" cy="9.671" r=".45"/>
   <circle cx="5.734" cy="7.315" r=".45"/>
   <circle cx="6.707" cy="6.513" r=".45"/>
   <circle cx="5.73" cy="9.67" r=".45"/>
   <circle cx="6.535" cy="8.373" r=".45"/>
   <circle cx="4.37" cy="7.154" r=".45"/>
   <circle cx=".622" cy="7.25" r=".45"/>
   <circle cx=".831" cy="5.679" r=".45"/>
   <circle cx="1.257" cy="8.519" r=".45"/>
   <circle cx="1.989" cy="6.877" r=".45"/>
   <circle cx=".374" cy="3.181" r=".45"/>
   <circle cx="1.166" cy="1.664" r=".45"/>
   <circle cx="1.151" cy=".093" r=".45"/>
   <circle cx="1.151" cy="10.093" r=".45"/>
   <circle cx="1.302" cy="4.451" r=".45"/>
   <circle cx="3.047" cy="3.763" r=".45"/>
  </pattern>
  <radialGradient id="t" cx="63.148" cy="40.455" r="15.733" gradientTransform="matrix(1.8839 -.30279 .13241 .82377 -62.13 36.675)" gradientUnits="userSpaceOnUse" xlink:href="#b"/>
  <radialGradient id="u" cx="2.8171" cy="70.061" r="12.812" gradientTransform="matrix(.93318 -.29264 .7073 2.2555 -25.07 -91.827)" gradientUnits="userSpaceOnUse" xlink:href="#b"/>
  <radialGradient id="v" cx="106.43" cy="61.305" r="6.2811" gradientTransform="matrix(1.7905 -.13954 .039418 .50582 -95.47 38.383)" gradientUnits="userSpaceOnUse">
   <stop stop-color="#a05a2c" stop-opacity="0" offset="0"/>
   <stop stop-color="#a05a2c" stop-opacity=".086643" offset=".4325"/>
   <stop stop-color="#a05a2c" stop-opacity=".6426" offset=".71108"/>
   <stop stop-color="#a05a2c" stop-opacity=".66275" offset="1"/>
  </radialGradient>
 </defs>
 <g transform="translate(1.4359 5.0448)">
  <path d="m48.937 87.373c-1.5447 0.72917-2.2703 1.4583-3.0938 2.1875-0.66467 0.86458-1.3251 1.7292-0.28125 2.5938l2.7812-0.25c0.58013 0.99028 1.1453 2.2009 3.0312 2.375 0.875 0.11611 4.9375-0.3104 4.9375-1.1562 0-0.125 0.375-2.4062 0.375-2.4062-2.032-0.81445-3.6543-1.9874-6.2812-2.2812z" fill="#c8beb7" fill-rule="evenodd" stroke="#f60" stroke-width=".29055"/>
  <path d="m48.407 86.937c-0.44651 0.37572-0.88629 0.55461-1.5398 1.0105-0.63062 0.43993-1.2132 0.96538-1.6719 1.6641-0.60062 0.91492-1.1239 2.1855-0.05918 3.2219 0.65165 0.63427 2.195 0.51302 2.9557-0.17498-0.56889 1.5377 2.6803 2.1534 4.2325 2.1353 1.787-0.17284 3.2413-0.41019 4.5802-1.3555l0.47398-2.3162-1.038-0.33014-0.66068 0.98969c-0.69254 0.4223-1.9806 0.86764-3.2793 0.88281-1.4089 0.01646-2.68-0.38723-3.4082-1.4512-0.07792-1.0489 0.9814-1.6428 1.4917-2.4564l-0.25018-0.2752c-0.81726 0.81973-1.6739 1.7297-2.4212 2.4679-0.73652 0.7276-1.3521 0.50394-1.4322 0.42506-0.08017-0.07888-0.36699-0.79495-0.15355-1.1013 0.34968-0.50198 1.0061-1.3099 1.4426-1.6372 0.57179-0.42881 1.2529-0.36788 1.862-0.88039z" color="#000000" color-rendering="auto" fill="#916f6f" fill-rule="evenodd" image-rendering="auto" shape-rendering="auto" solid-color="#000000" style="block-progression:tb;isolation:auto;mix-blend-mode:normal;text-decoration-color:#000000;text-decoration-line:none;text-decoration-style:solid;text-indent:0;text-transform:none;white-space:normal"/>
  <path d="m23.518 83.82c-1.5447 0.72917-2.2703 1.4583-3.0938 2.1875-0.66467 0.86458-1.3251 1.7292-0.28125 2.5938l2.7812-0.25c0.58013 0.99028 1.2078 1.9509 3.0938 2.125 0 0.52236 4.875-0.06038 4.875-0.90625 0-0.125 0.375-2.4062 0.375-2.4062-2.032-0.81445-3.6543-1.9874-6.2812-2.2812z" fill="#c8beb7" fill-rule="evenodd" stroke="#f60" stroke-width=".29055"/>
  <path d="m22.896 83.475c-0.44651 0.37572-0.88629 0.55461-1.5398 1.0105-0.63062 0.43993-1.2132 0.96538-1.6719 1.6641-0.60062 0.91492-1.1239 2.1855-0.05918 3.2219 0.65165 0.63427 2.195 0.51302 2.9557-0.17498-0.56889 1.5377 2.6803 2.1534 4.2325 2.1353 1.787-0.17284 3.2413-0.41019 4.5802-1.3555l0.47398-2.3162-1.038-0.33014-0.66068 0.98969c-0.69254 0.4223-1.9806 0.86764-3.2793 0.88281-1.4089 0.01646-2.68-0.38723-3.4082-1.4512-0.07792-1.0489 0.9814-1.6428 1.4917-2.4564l-0.25018-0.2752c-0.81726 0.81973-1.6739 1.7297-2.4212 2.4679-0.73652 0.7276-1.3521 0.50394-1.4322 0.42506-0.08017-0.07888-0.36699-0.79495-0.15355-1.1013 0.34968-0.50198 1.0061-1.3099 1.4426-1.6372 0.57179-0.42881 1.2529-0.36788 1.862-0.88039z" color="#000000" color-rendering="auto" fill="#916f6f" fill-rule="evenodd" image-rendering="auto" shape-rendering="auto" solid-color="#000000" style="block-progression:tb;isolation:auto;mix-blend-mode:normal;text-decoration-color:#000000;text-decoration-line:none;text-decoration-style:solid;text-indent:0;text-transform:none;white-space:normal"/>
  <path d="m31.612 57.883c-1.7225 2.6846-1.7229 5.0001-1.125 7.1875-0.7921 5.4559-2.1585 7.7535-3.25 11.562-1.1753 1.4583-1.595 2.9167-1.4375 4.375l-2.25 2.625 1.8125 1.0625 6.25 2.5625 0.125-2.875c0.28826-0.26947 0.62514-0.56568 3.1875-1l-0.625-3.875c0.1187-3.7829 0.62481-7.6363 2.5625-11.75 0.47964-0.77515 1.0094-1.1993 1.4733-2.0848 0.21428-0.40907 0.41449-0.91659 0.5892-1.6027-2.4945-1.2244-4.4924-2.8461-7.3125-6.1875z" fill="#e9c6af" fill-rule="evenodd" stroke="#f60" stroke-width=".29055"/>
  <path d="m80.812 83.685c-1.5447 0.72917-1.5828 1.0521-2.4062 1.7812-0.66467 0.86458-1.4501 1.3854-0.40625 2.25 0.27092 0.01036 0.47167 0.02583 1.2188-0.28125 0.01763 1.0528 0.4265 1.8884 2.3125 2.0625 1.5312-0.10264 3.7188 0.0021 4.4062-0.78125 0.08245-0.09395 0.53125-1.5 0.53125-1.5-2.032-0.81445-2.9043-1.3312-3.5625-1.9062z" fill="#c8beb7" fill-rule="evenodd" stroke="#f60" stroke-width=".29055"/>
  <path d="m93.987 70.133 0.84467 5.2657-3.9697 2.4843 0.6875-3.9375c0.37819-1.3184 0.87504-2.5972 1.75-3.75z" fill="#deaa87" fill-rule="evenodd" stroke="#f0f" stroke-width=".29055"/>
  <path d="m75.799 61.945-1.3125 3.1875c0.53213 1.0679 1.1827 1.81 2.375 1.0625l1.4375-2.9375z" fill="#e9afaf" fill-rule="evenodd" stroke="#f60" stroke-width=".29055"/>
  <path d="m33.844 16.762c3.6828 0.15812 7.3657 0.24021 11.049 0.61872 4.1248 2.1387 8.2496 1.5051 12.374 1.6794 4.9792-0.63236 9.9584-0.17003 14.938 0.35355l15.38-3.0936c2.2945 0.06755 4.589-0.0038 6.8835 0.20339 1.4767 0.13332 2.9535 0.91233 4.4302 1.3876 3.9834 3.2778 3.8298 4.4892 4.1542 5.4801l-1.149 4.8614c1.4789 5.2576 0.32476 9.5278 0.0884 14.142-1.5197 4.8769-2.5735 10.336-4.9498 14.142 0.64661 2.1213 2.0793 4.2426 1.6794 6.364-1.6961 1.9245-4.1917 3.949-4.1543 5.6569-1.7514 1.8948-2.6009 3.97-3.182 6.0988l-0.44194 4.9497c0.53281 0.93825 0.74882 1.9217-0.35355 3.0936l-2.6516-0.26516-0.61872 4.773c-1.591-0.24576-3.182-0.84571-4.773-2.0329l-1.5026-1.7678c0.1833-0.51396 1.2066-1.1959 2.5633-1.9445-0.1728-1.5844-0.25955-3.0253 0.26516-3.4471l4.331-6.9827c0.29463-2.7106 0.58926-3.8758 0.88388-8.1317 0.57007-1.4095 2.0715-1.3289 1.591-4.4194l-1.3258-2.2981c-0.57899 0.23834-0.95346-0.24068-1.7678-1.4142l-1.5026-4.331c-3.2462 1.0683-4.4977 2.4216-6.1872 3.7123-3.3342 2.8178-6.767 5.5206-11.49 6.7175-4.4194 0.51243-8.8388 1.6368-13.258 0.61872l1.9445 3.3588c0.90189 2.177-0.1216 2.8136-0.26516 4.1543 2.009 4.6025 1.8069 6.678 2.2981 9.5459l1.6794 7.3362-2.5633 0.7955-0.88388 4.5962-4.6846-1.8562-4.0659-1.6794 0.53033-1.4142c2.2703-1.2379 3.0655-2.0544 3.7123-2.8284 0.53923-2.8963 0.63756-5.3516 0-7.0711-1.9447-3.6499-4.8084-8.1038-5.0381-10.253l0.08839-2.4749-1.9445-2.2981-5.0381 2.6517c-3.2624 0.23852-6.1309-2.2795-8.9272-5.3033l-4.9497-6.8059c-1.145-1.8813-1.9181-4.0415-2.1213-6.6291-3.3721-3.4476-4.9569-7.5452-5.7452-11.932-1.5615 0.49461-3.1231 0.38031-4.6846-1.2374-2.6177 0.48892-4.6203-0.6626-6.5407-2.0329-1.3665-0.43068-1.8448-1.7497-1.3258-4.0659-0.2637-2.9721 0.71905-2.828 1.3258-3.6239l3.2704-2.3865-0.70711-2.1213c0.23735-1.6372-1.2265-2.3584 1.7678-5.4801l-0.70711-2.74c0.01118-1.1138 0.7262-2.127 2.3865-3.0052 2.4219-0.1218 3.848 0.42023 4.8614 1.2374 2.3865-0.29549 4.773-1.1062 7.1595-0.08839l-0.88388 1.7678c-0.31522 1.5662 0.20224 2.4663 1.0607 3.0936 1.2685 1.0687 2.4143 1.524 3.4471 1.4142 1.5998 0.51268 2.8546 1.7155 4.2426 2.6517z" fill="#f4e3d7" fill-rule="evenodd" stroke="#f60" stroke-width=".29055"/>
  <path d="m28.435 53.737 3.6239 4.773c-1.3229 1.4545-2.801 2.8136-1.149 6.0988 4.4339 0.95998-0.19362 18.171 4.0282 18.265 0.37235-1.8824-0.19883-3.5898-0.07834-5.7189 0.16319-2.8837 1.0737-6.3325 2.4385-10.087 1.4005-1.0955 1.9211-2.455 1.655-4.0504l3.0936 0.53033 3.5355-2.6516c-1.2175-2.1512-2.361-4.4134-2.6516-7.955-2.0886 0.35009-6.478 0.8244-9.9193-1.8324-5.4176-4.1826-10.461-12.987-12.858-16.681-0.97503 2.0109 1.841 6.6026 4.9374 10.682 0.78398 3.8347 2.7604 7.4284 3.3436 8.626z" fill="url(#u)" fill-rule="evenodd"/>
  <path d="m55.236 53.93c17.048 9.9102 22.395-7.8091 28.549-15.822-1.3252 2.4361-0.53024 6.1382 2.3865 12.109l-4.2426 2.0329c-3.3448 3.6813-7.5716 5.5986-11.579 7.955-4.7943 0.56974-8.4889 2.4835-15.203 0.70711l-0.44194-2.9168z" fill="url(#t)" fill-rule="evenodd"/>
  <path d="m40.066 17.138s-5.3147 5.9389-4.773 9.1924c0.69691 4.1854 1.1278 11.154 4.8614 13.17 4.7323 2.5552 15.355-0.46652 20.594-1.6794 4.529-1.0484 8.4116-4.1411 12.021-7.0711 3.4651-2.813 4.9442-8.0708 9.0156-9.8995 2.232-1.0025 5.4021 0.68216 7.9528 0.65745 2.4867-0.0241 4.354-1.7824 6.5429-0.83422 1.5193 1.4363 3.6918 2.1659 4.6387 3.4903 1.5142 2.1177 2.3244 3.0743 1.9904 2.9621l0.0884-4.8614c-2.161-3.3234-4.0779-3.9623-6.0104-4.773-2.7872-0.55538-5.0773-1.235-11.49-0.88388l-14.319 3.0052c-7.8757-0.80354-13.924-0.90428-18.738-0.53033z" fill="#a40" fill-rule="evenodd"/>
  <path d="m14.866 31.159c0.75666 0.25013 0.72816-1.2828 1.942-2.0122 1.9327-1.1615 2.8766-5.4004-1.7396-6.6154 0.67902-1.6534 2.2558-4.596 2.8746-5.0025 4.4491-4.5041 3.1476-1.1341 2.2759 1.2205 2.9658 1.6417 5.6719 1.5485 5.8914-1.0438 0.85893 0.46659 5.462 2.4203 6.5267 2.6408-1.6221 0.7172-2.1871 1.0953-2.8198 2.1926-1.1525 1.9989-2.5069 4.8732-3.4263 7.0954-0.95778 2.3149-6.3163 5.6005-6.4867 6.5627l-0.70711-2.8284c-3.2117 0.83103-3.3128-1.286-4.331-2.2097z" fill="#e9c6af" fill-rule="evenodd"/>
  <path d="m40.208 16.939s-5.3147 5.9389-4.773 9.1924c0.69691 4.1854 1.1278 11.154 4.8614 13.17 4.7323 2.5552 15.355-0.46652 20.594-1.6794 4.529-1.0484 8.4116-4.1411 12.021-7.0711 3.4651-2.813 4.9442-8.0708 9.0156-9.8995 2.232-1.0025 5.4021 0.68216 7.9528 0.65745 2.4867-0.0241 4.354-1.7824 6.5429-0.83422 1.5193 1.4363 3.6917 2.1659 4.6387 3.4903 1.5142 2.1177 2.3244 3.0743 1.9904 2.9621l0.0884-4.8614c-2.161-3.3234-4.0779-3.9623-6.0104-4.773-2.7872-0.55538-5.0773-1.235-11.49-0.88388l-14.319 3.0052c-7.8757-0.80354-13.924-0.90428-18.738-0.53033z" fill="url(#s)" fill-rule="evenodd" opacity=".296"/>
  <path d="m55.146 54.239c17.048 9.9102 22.395-7.8091 28.549-15.822-1.3252 2.4361-0.53024 6.1382 2.3865 12.109l-4.2426 2.0329c-3.3448 3.6813-7.5716 5.5986-11.579 7.955-4.7943 0.56974-8.4889 2.4835-15.203 0.70711l-0.44194-2.9168z" fill="url(#r)" fill-rule="evenodd" opacity=".307"/>
  <path d="m72.299 59.195c2.1017 1.6499 4.1087 3.4577 6.6875 4.3125l0.125 2.625c1.3394 1.3595 2.2135 0.7028 3.0625-0.0625l-0.5625-2.5 1.875-0.25 1.25 2.5c1.0095 0.27922 1.971 0.44614 2-1.5625l-0.625-2.1875c1.2827-1.6166 2.7654-2.0328 3.75-5.4375l-1.8125-1-2-5.1875-3.9375 1.625z" fill="#f4d7d7" fill-rule="evenodd" stroke="#f00" stroke-width=".29055"/>
  <path d="m11.835 11.193c-1.5273 0.35882-2.5486-0.29442-3.7565-0.57452-1.3308-0.77024-2.2631-2.0884-2.6517-4.1543 0.31312-1.1637 0.52764-2.3838 1.6352-3.0936 0.68069-0.61519 1.4996-1.1964 2.2981-1.1049l0.088388 3.5797c0.52148 0.98819 1.9782 1.2282 3.6681 1.2816l-1.3258 1.8562z" fill="#e9ddaf" fill-rule="evenodd" stroke="#fc0" stroke-width=".29055"/>
  <path d="m8.5006 1.8528c-0.69025 0.28158-1.733 0.89452-2.1875 1.4688-0.50301 0.6355-1.3469 1.9194-1.3262 3.2559 0.020076 1.2931 0.43727 2.1983 0.85547 2.9238s1.0088 1.2089 1.6465 1.6387c0.72525 0.48878 1.6525 0.83341 2.502 1.0547 0.84946 0.22127 1.4819 0.18983 2.0273 0.08594l-0.09375-2.1699c-0.11083 0.02111-0.75338 0.19133-1.4941 0.17773-0.79763-0.01464-1.3752-0.37358-1.9453-0.75781-0.58705-0.39564-1.0562-0.86148-1.3691-1.4043-0.31289-0.54281-0.51679-1.1312-0.53516-1.8145-0.021214-0.789 0.35091-1.8032 0.79883-2.3691 0.27697-0.34992 0.86482-0.67258 1.1067-0.61791 0.24183 0.054672 0.31418 0.27068 0.25467 0.70971-0.1039 0.76661-0.17023 1.4557 0.21094 2.1758 0.33377 0.63055 0.88605 1.1128 1.5566 1.2559 0.17781 0.03795 0.66562 0.16954 1.2207 0.24414 0.55509 0.0746 2.1054-0.45564 2.0694-0.97337-0.035926-0.51773-1.3323-0.32967-1.8097-0.39382s-0.89516-0.20767-1.1484-0.26172c-0.31888-0.068049-0.57083-0.30625-0.78711-0.71484-0.24451-0.46192-0.10969-1.0393-0.007812-1.791 0.078-0.57549 0.24777-1.3541 0.0059-1.7168-0.24195-0.3627-1.0534-0.20878-1.5508-0.00586z" color="#000000" color-rendering="auto" fill="#a28260" fill-rule="evenodd" image-rendering="auto" shape-rendering="auto" solid-color="#000000" style="block-progression:tb;isolation:auto;mix-blend-mode:normal;text-decoration-color:#000000;text-decoration-line:none;text-decoration-style:solid;text-indent:0;text-transform:none;white-space:normal"/>
  <path d="m11.217 13.757c-1.2669-1.6515-2.5338-1.4257-3.8007-1.37-1.0607 0.21033-2.1213 0.08908-3.182 1.0607l-2.0771 1.4142c0.40579 0.77005 1.4257 1.3646 2.6517 1.9004 1.218 0.68634 2.386 1.6231 3.7123 1.7678l1.9004-0.61872 0.04419-2.3423z" fill="#e9c6af" fill-rule="evenodd" stroke="#f0f" stroke-width=".29055"/>
  <path d="m12.005 14.583c-0.5383-0.01365-0.59113 0.2867-0.03516 0.41211 0.74277 0.16754 0.87799 0.42199 0.99609 0.66602 0.1716 0.35456 0.11551 0.70115 0.0098 1.0176-0.0913 0.2732-0.40397 0.43766-0.60156 0.48047-0.24814 0.05376-0.64664-0.0022-0.9043-0.29492-0.18171-0.20645-0.58118-0.18648-0.27734 0.25391 0.20662 0.29948 0.61831 0.59444 1.002 0.56445 0.58262-0.04554 0.91795-0.2466 1.441-0.85223-0.03942-0.59001 0.03599-1.0247-0.25743-1.5482-0.29345-0.52347-0.75829-0.68363-1.3731-0.69922z" color="#000000" color-rendering="auto" fill="#502d16" fill-rule="evenodd" image-rendering="auto" shape-rendering="auto" solid-color="#000000" style="block-progression:tb;isolation:auto;mix-blend-mode:normal;text-decoration-color:#000000;text-decoration-line:none;text-decoration-style:solid;text-indent:0;text-transform:none;white-space:normal"/>
  <path d="m14.642 24.452c0.17317 0.2078-0.14811 0.98267-0.57452 1.1932-0.41376 0.20432-0.82993 0.38077-1.127 0.70711-0.80004 0.87902 0.04771 1.3075 0.7292 1.1049 0.96352-0.28649 2.2105-0.92813 1.9224-1.7899-0.18006-0.53864-0.41803-0.9701-0.95018-1.2153z" fill="#784421" fill-rule="evenodd"/>
  <path d="m22.897 15.445c-0.89045 0.19527-1.7032 0.87795-2.0977 1.9688-0.17068 0.47196 0.19586 1.5287 0.67234 0.30113 0.38606-0.99462 1.2091-1.3541 1.6454-1.4557 0.36676-0.08542 1.27 0.1156 1.6201 0.78542 0.23466 0.44887-0.08095 1.0423-0.30626 1.2388-0.31074 0.27104-1.015 0.45128-1.7242 0.52271-0.3739 0.03766-0.98402 0.39343-0.02075 0.57636 0.88958 0.16894 1.6452-0.09557 2.1127-0.58555 0.45098-0.47267 0.72842-1.3067 0.93444-2.0382-0.87098-0.72972-1.8877-1.5217-2.8362-1.3137z" color="#000000" color-rendering="auto" fill="#502d16" fill-rule="evenodd" image-rendering="auto" shape-rendering="auto" solid-color="#000000" style="block-progression:tb;isolation:auto;mix-blend-mode:normal;text-decoration-color:#000000;text-decoration-line:none;text-decoration-style:solid;text-indent:0;text-transform:none;white-space:normal"/>
  <path d="m24.341 17.676c-0.10472 0.49086-0.53657 0.84294-1.0385 0.84664-0.50189 0.0037-0.93888-0.34199-1.0508-0.83126-0.11192-0.48926 0.13129-0.99057 0.58486-1.2055s0.99555-0.08561 1.3033 0.3109c-0.43105 0.1478-0.86946 0.28639-1.0119 0.79491 0.43529-0.1266 0.85147-0.15762 1.2131 0.08427z"/>
  <path d="m12.986 16.349c-0.08536 0.40014-0.4374 0.68715-0.84652 0.69016-0.40913 3e-3 -0.76535-0.27878-0.8566-0.67762-0.09124-0.39884 0.10702-0.80749 0.47676-0.98267s0.81155-0.06979 1.0624 0.25344c-0.35138 0.12048-0.70877 0.23346-0.8249 0.64799 0.35484-0.1032 0.6941-0.12849 0.98886 0.0687z"/>
  <path d="m80.369 83.337c-0.34902 0.29368-1.0954 0.73262-1.6062 1.089-0.49292 0.34387-0.78724 0.8006-1.1458 1.3467-0.46947 0.71515-0.73326 1.2696-0.20732 1.9892 0.2695 0.3687 1.014 0.55056 1.6085 0.01278-1.1924 2.1683 2.6473 2.3735 3.8605 2.3593 1.3968-0.1351 2.5335-0.32062 3.5801-1.0595l0.37049-1.8105-0.81137-0.25805-0.51642 0.77359c-0.54132 0.33008-1.5481 0.67819-2.5632 0.69005-1.1013 0.01287-2.7851-0.0956-3.3543-0.92722-0.06091-0.81983 1.5149-1.6752 1.9137-2.3112l-0.19555-0.21511c-0.75385 0.35313-1.5602 1.2426-2.0881 1.8715-0.5642 0.67226-1.0568 0.47443-1.1195 0.41278-0.28374-0.26897-0.11773-0.59115-0.02799-0.79184 0.19519-0.43654 0.75192-1.0353 1.0931-1.2912 0.44694-0.33518 1.1059-0.64419 1.582-1.0448z" color="#000000" color-rendering="auto" fill="#916f6f" fill-rule="evenodd" image-rendering="auto" shape-rendering="auto" solid-color="#000000" style="block-progression:tb;isolation:auto;mix-blend-mode:normal;text-decoration-color:#000000;text-decoration-line:none;text-decoration-style:solid;text-indent:0;text-transform:none;white-space:normal"/>
  <path d="m14.841 31.258c0.75666 0.25013 0.72816-1.2828 1.942-2.0122 1.9327-1.1615 2.8766-5.4004-1.7396-6.6154 0.67902-1.6534 2.2558-4.596 2.8746-5.0025 4.4491-4.5041 3.1476-1.1341 2.2759 1.2205 2.9658 1.6417 5.6719 1.5485 5.8914-1.0438 0.85893 0.46659 5.462 2.4203 6.5267 2.6408-1.6221 0.7172-2.1871 1.0953-2.8198 2.1926-1.1525 1.9989-2.5069 4.8732-3.4263 7.0954-0.95778 2.3149-6.3163 5.6005-6.4867 6.5627l-0.70711-2.8284c-3.2117 0.83103-3.3128-1.286-4.331-2.2097z" fill="url(#m)" fill-rule="evenodd" opacity=".283"/>
  <path d="m10.808 13.755c-1.2669-1.6515-2.5338-1.4257-3.8007-1.37-1.0607 0.21033-2.1213 0.08908-3.182 1.0607l-2.0771 1.4142c0.40579 0.77005 1.4257 1.3646 2.6517 1.9004 1.218 0.68634 2.386 1.6231 3.7123 1.7678l1.9004-0.61872 0.04419-2.3423z" fill="url(#p)" fill-rule="evenodd" opacity=".294"/>
  <path d="m28.099 54.15 3.6239 4.773c-1.3229 1.4545-2.801 2.8136-1.149 6.0988 4.4339 0.95998-0.19362 18.171 4.0282 18.265 0.37235-1.8824-0.19883-3.5898-0.07834-5.7189 0.16319-2.8837 1.0737-6.3325 2.4385-10.087 1.4005-1.0955 1.9211-2.455 1.655-4.0504l3.0936 0.53033 3.5355-2.6516c-1.2175-2.1512-2.361-4.4134-2.6516-7.955-2.0886 0.35009-6.478 0.8244-9.9193-1.8324-5.4176-4.1826-10.461-12.987-12.858-16.681-0.97503 2.0109 1.841 6.6026 4.9374 10.682 0.78398 3.8347 2.7604 7.4284 3.3436 8.626z" fill="url(#q)" fill-rule="evenodd" opacity=".302"/>
  <path d="m30.518 58.333c-0.66682 1.2323-1.1257 2.4744-1.3069 3.85-0.1636 1.2419 0.12496 2.3708 0.49042 3.5061-0.02924 0.18816-1.2574 1.8593-1.7593 4.1923-0.52856 2.4567-0.73015 4.8708-1.6453 6.4346-0.36529 0.62418-0.79328 1.2289-1.0726 1.8006-0.42498 0.86963 0.05206 2.1275-0.31202 2.9801-0.22245 0.52094-0.7375 0.67359-1.1475 1.0054-0.62274 0.50398-0.93938 1.3814-1.0695 1.9889 0.81684 0.25573 1.4806 0.57506 1.9045 1.2576 1.776 0.17448 2.5525 0.29059 3.9054 1.1958 0.6079 0.25091 1.0418 0.51026 1.6195 0.68816 0.64217 0.20709 1.3125 0.73806 1.7798 0.51385 0.50889-0.64007 0.47239-0.94065 0.38568-1.6175-0.14306-0.5609-0.0018-0.97433-0.16073-1.4464 0.28266-0.29687 0.47496-0.3823 0.7793-0.39453-0.78515 0.06576 1.1581-0.0196 1.248-0.0273 0.53671-0.20391 1.4182-0.08504 1.4671-0.50439 0.0979-0.83871-0.3254-2.0065-0.3427-2.1926-0.05903-0.38044-0.1049-1.6201-0.22676-1.9857 0.4763-5.2144 0.75381-6.9434 2.4659-11.433 1.1198-0.78036 1.5476-2.3009 1.8982-3.7127l-1.1192-0.3296c-0.40503 1.2683-1.1304 2.25-2.198 2.7626-1.5806 4.6278-2.5544 9.1619-2.7489 13.587-0.02309 0.52537 0.44786 2.0297 0.56469 2.4676-1.4824 0.48423-2.1611 0.52562-2.9859 1.6242 0.27758 0.67194 0.26644 1.3099-0.10455 1.8624-0.19292-0.06655-1.096-0.35511-1.3517-0.45188-1.4924-0.81356-2.8585-1.9048-5.0479-2.1424 0.09644-0.26027 0.6143-0.97242 0.78411-1.0928 0.39501-0.28001 0.73343-0.23689 1.09-0.83651 0.41155-0.692 0.68507-1.3343 0.71208-1.8505 0.02701-0.51615 0.1007-1.499 0.21746-1.6588 0.41182-0.5633 0.7514-0.94497 1.0434-1.4889 1.0609-1.9766 1.2263-3.78 1.7692-6.3036 0.35009-1.6096 1.1491-4.1511 1.4066-5.7778-0.39196-0.9763-0.77308-1.6369-0.68164-2.6833 0.14342-1.6413 0.89279-2.3613 1.8689-3.606z" color="#000000" color-rendering="auto" fill="#784421" fill-rule="evenodd" image-rendering="auto" shape-rendering="auto" solid-color="#000000" style="block-progression:tb;isolation:auto;mix-blend-mode:normal;text-decoration-color:#000000;text-decoration-line:none;text-decoration-style:solid;text-indent:0;text-transform:none;white-space:normal"/>
  <path d="m89.424 56.699c-1.2296 2.4437-2.4414 3.5191-4.1641 4.9648l0.83008 2.6777c0.03734 0.12046 0.0114 0.64098-0.38281 0.88086-0.30488 0.18552-0.83256-0.03262-0.96484-0.33984l-1.1016-2.5605c-1.2475 0.59379-1.4161 0.41143-2.627 0.61524l0.28125 2.1016c0.02809 0.21016-0.12866 1.0036-0.69531 1.0488-0.74593 0.05951-1.1076-0.49439-1.0977-0.9668l0.04687-2.1797c-2.621-0.44436-4.0244-2.5374-5.6934-3.9648l-1.6309 1.0957c0.70193 0.59764 1.5844 1.3197 2.5742 2l-0.8418 2.4023c-0.36039 1.0291 0.62021 2.1346 1.2637 2.5234 0.71499 0.43206 1.7272-0.23092 2.2285-0.88476 0.4766-0.62165 0.74421-1.4038 1.0508-2.1445 0.0047 0.0015 9e-3 0.0044 0.01367 0.0059v1.4551c0 1.0684 1.2961 2.0717 2.1777 2.1289 0.92604 0.06011 1.7916-0.905 2.0312-1.8691 0.12969-0.52172-0.01817-1.1017-0.05273-1.6406 0.16808-0.05465 0.32832-0.09243 0.45508-0.14453l0.8125 1.5332c0.43132 0.81391 0.88741 1.7126 2.6309 0.93359 0.99595-0.445 1.2734-1.9039 1.0898-2.6797-0.12732-0.53798-0.22419-1.0322-0.47266-1.752 1.8577-1.7076 2.5589-3.3305 3.2461-4.9336l-1.0078-0.30668zm-13.219 6.25c0.44942 0.25156 0.90896 0.49038 1.3867 0.68945-0.13628 0.39052-0.27487 0.78577-0.6543 1.541-0.17534 0.349-0.56894 0.83048-1.0566 0.56641-0.47633-0.25791-0.6424-0.92348-0.49805-1.1445 0.52566-0.80496 0.71052-1.2728 0.82227-1.6523z" color="#000000" color-rendering="auto" fill="#ad7a7a" fill-rule="evenodd" image-rendering="auto" shape-rendering="auto" solid-color="#000000" style="block-progression:tb;isolation:auto;mix-blend-mode:normal;text-decoration-color:#000000;text-decoration-line:none;text-decoration-style:solid;text-indent:0;text-transform:none;white-space:normal"/>
  <path d="m3.8949 12.792c-0.78324 0.69164-0.83291 0.94737-1.0779 1.0826-0.24497 0.13528-0.90748 0.23014-1.084 0.5918-0.08825 0.18083-0.10634 0.59093-0.019531 0.79297 0.36336 0.84572 1.6769 1.1519 2.293 1.5039l0.00781 0.0059 0.00977 0.0039c1.221 0.57564 2.1644 1.697 3.8684 1.9904 1.704 0.29342 2.2903-0.26679 2.8582-0.47278l-0.33985-0.93963c-0.64193 0.23287-0.97864 0.44855-2.123 0.28516-1.6157-0.29658-2.4502-1.1134-3.5064-1.629-0.64673-0.24339-1.5818-0.89676-1.5541-1.2304 0.027743-0.33359 0.93755-0.60277 1.3159-0.93023 0.78575-0.68004 2.1429-0.47006 3.5435-0.47408 1.6929-0.0049 1.8462 0.60814 2.9805 0.97266l0.83984-2.1133c-1.177-0.41682-1.9549-0.62374-3.6631-0.61736-1.7082 0.0064-3.5656 0.48571-4.3489 1.1774z" color="#000000" color-rendering="auto" fill="#784421" fill-rule="evenodd" image-rendering="auto" shape-rendering="auto" solid-color="#000000" style="block-progression:tb;isolation:auto;mix-blend-mode:normal;text-decoration-color:#000000;text-decoration-line:none;text-decoration-style:solid;text-indent:0;text-transform:none;white-space:normal"/>
  <path d="m15.313 5.97c-0.88256 0.012043-1.9323 0.41523-2.916 1.2363-0.84943 0.70898-1.1097 1.2892-1.1426 2.5547-0.02055 0.79069-0.02256 1.4532 0.28906 2.3594-0.82302 1.4238-2.3912 4.4432-1.793 5.7344 0.59824 1.2911 0.87722 1.9312 0.89844 2.2559-1.7547 0.80069-3.0695 1.4752-3.959 2.6621-0.87525 1.1678-0.64266 2.6895-0.55664 3.2598-0.47673 1.1106-0.43755 2.0474-0.24609 2.8379 0.19146 0.79048 0.28967 1.2933 0.83398 1.6777 0.39093 0.27611 0.99322 0.43137 1.248 0.48438 0.46685 0.5861 1.6248 1.3008 2.2012 1.4355 1.5325 0.35832 2.5369 0.45577 4.0312 0.35547 0.69365 0.91187 1.5278 1.4989 2.3887 1.7695 0.56628 0.13805 1.5796-0.33588 2.0664-0.37891 1.0488 4.25 1.7192 8.7395 5.8086 11.383 0.7695 9.1425 7.6632 14.76 11.059 17.441 3.3903 2.6771 4.9955 1.9571 6.2988 1.5586 1.3034-0.39848 2.6514-1.7811 3.9277-2.2988 0.19614 0.52211 0.91821 1.6817 1.3184 1.8145-0.02228 0.9663-0.4642 2.2659-0.18945 3.1582 0.46478 1.5094 1.587 2.3079 1.9609 3.0625 1.2796 2.5818 3.293 5.0127 3.5078 7.7031 0.23608 2.9563 0.15782 3.6423-0.36914 5.041-0.61697 1.6376-2.2168 2.3204-3.6562 2.9277-0.28392 0.68386-0.25954 1.1901-0.14844 2.4043 0.67022-0.11622 1.4814 0.55951 2.0273 0.49414 0.96212-0.15578 1.3387 0.37864 1.9102 1.1152 0.3043 0.19324 1.5228 0.36138 2.1172 0.73047 1.0647 0.66949 1.7694 0.3069 2.5332 1.0332 1.9111 0.5535 1.7582-0.82058 2.0625-1.6738-0.1483-1.1777-0.5216-2.1067 0.03516-2.9902 1.1157-0.48992 1.5303-0.0056 2.5703-0.09375 0.67637-1.031-0.01271-2.7426-0.09766-3.0332l-0.94336-3.1133c-0.01466-0.16828-0.39206-4.2546-0.87695-6.6445-0.40177-1.9803-1.8478-5.2475-1.9473-5.5547 0.23558-1.1471 0.3437-2.3964 0.29102-3.5508-0.0314-0.688-0.89358-1.9628-1.1211-2.6074 5.7921 0.36201 12.173-0.0092 17.258-3.0938 3.1676-1.9214 7.5199-5.2991 8.8809-6.4805 1.0055-0.87286 1.4549-1.2032 2.9609-1.625 0.83065 1.7637 0.62775 3.1688 1.7012 4.6738 0.20109 0.28195 1.78 0.5418 2.1914 1.6719 0.28357 0.779 0.26577 2.4681-0.1348 3.2034-0.08704 0.08857-0.45796-1.4606-0.83297-1.5394-0.37468-0.12415-0.75347 0.71626-0.85735 0.84458-0.01573 0.18333 1.0344 1.6426 0.56586 1.9291-0.39118 0.48397-0.35712 0.66865-0.40285 1.3689-0.07932 1.2145 0.18556 3.2421 0.04687 3.9023-0.22136 1.0539-0.26908 1.7924-0.71094 3.0039-0.53106 1.4561-1.3346 2.7104-1.9473 4.0449-0.35216 0.76701-1.2213 1.4823-1.6699 2.2539-0.21489 0.3696-0.59622 0.80121-0.92773 1.5898-0.46041 1.0953 0.31593 2.4988 0.25391 2.9414-0.4353 0.40668-1.4105 0.68054-1.8945 0.86328-0.67431 0.2546-0.63294 0.62458-0.88672 1.1973-0.38538 0.86967 0.4448 1.0598 1.1035 1.5293 1.1244 0.80134 1.7913 1.278 2.5137 1.8438 0.72236 0.56572 2.2764 0.82982 2.9004 0.94922 0.91741-0.0148 1.037-0.06875 1.4531-1.3711 0.39578-1.1112-0.23773-2.1399 2e-3 -3.0586 1.4392-0.2223 1.4687 0.26309 2.7676-0.23633 0.86758-0.33358 0.87188-1.4966 0.76172-2.3262-0.08299-0.62493-0.34786-0.89245-0.27512-1.4709 0.93391-0.23997 1.9882-2.4492 3.1635-2.4067 0.23734-0.04233 0.75199-0.55865 0.88668-0.84551 0.1332-0.28369 0.11323-1.0782 0.03079-1.3806-0.20591-1.0871-0.36323-1.6511-0.58739-2.4379-0.2269-0.7964-0.43107-2.3553 0.22487-3.6654 0.65591-1.3101 0.87026-1.208 1.7832-2.2578 1.171-1.3465 2.3052-1.8297 2.5469-3.3633-0.32402-2.013-0.91789-4.2068-1.6328-5.9531 0.74075-2.4495 2.0644-4.6142 2.625-7.2832 0.58338-2.7774 2.8054-5.9681 2.9005-9.4839 0.01-0.10893 0.59544-7.0841 0.2109-11.22-0.26153-2.3165 0.35756-4.4814 3e-3 -6.5188-0.54716-1.8612-2.627-3.9237-4.3269-5.1502-2.822-2.0361-6.4338-1.4032-9.1641-1.5527-2.9238-0.16014-5.9122 0.46969-8.7773 0.84375-3.1802 0.41518-6.1506 1.6726-8.9395 1.9707-4.0753 0.43554-8.4977-0.42007-12.912-0.46875-3.7404-0.04126-7.0049 0.18993-10.371-0.26758-1.7836-0.24242-3.6874-1.2476-5.9922-1.5156-3.251-0.37814-8.674-0.04656-9.3906 0.01367-1.5929-1.3108-3.0909-2.5384-5.1875-2.9043-0.51645-0.09014-1.8347-0.43263-2.1426-0.73242-0.28499-0.27718-0.96318-1.5545-0.86754-2.4668 0.0093-0.0884 0.22898-1.587 0.56055-1.5762 0.77299-0.01888 0.74239-0.36645 1.1328-0.17969-0.76681-0.82926-0.4659-0.79098-1.3926-1.3652-0.83617-0.51813-1.267-0.77422-2.1719-0.73828-1.7338 0.068854-3.2012 0.69499-4.6426 0.76367-1.2835-0.32286-2.504-1.0354-3.8125-1.0176zm-0.4668 1.3047c0.40106-0.02466 1.7401 0.28482 2.457 0.63281 0.47243 0.22931 1.062 0.47169 1.5703 0.60156 1.5108-0.04708 3.0757-0.32379 4.4551-0.28906 1.1791 0.03861 1.4466 0.13014 1.8105 0.14062-0.24632 0.28237-0.43682 0.63425-0.52148 1.6465-0.08466 1.0122 0.33206 2.2041 1.1133 2.9648 0.69257 0.67443 1.543 0.93247 2.3496 1.1445 1.8669 0.49086 3.6762 1.6503 5.4316 3.5938 0 0 6.5569 0.23554 9.4688 0.57422 1.7747 0.20642 3.6653 1.201 5.9512 1.5117 3.789 0.51497 7.3109-0.12825 10.791-0.08984 4.1844 0.04615 8.718 0.81033 13.193 0.33203 3.2053-0.34256 6.0659-1.5489 8.8633-1.9141 2.773-0.36202 5.5705-1.2914 8.3242-1.1406 3.0645 0.16784 5.9031 0.63666 8.0352 1.5605 0.73575 0.31882 2.1166 0.9311 2.5542 1.4487 1.5961 1.888 1.9548 4.416 1.7372 5.4144 0.0143 0.11654-1.5451-3.2289-3.5141-3.5217-1.3518-0.20098-2.2346-2.228-2.474-1.959-0.38815 0.43589 0.87306 1.861 1.9516 2.7419 0.97866 0.79934 2.3044 1.2355 2.3172 1.3437 0.18438 1.56 0.35637 3.1258 0.49439 4.6219 0.34026 3.6598-0.35742 13.027-0.35742 13.027-0.0399 1.433-0.89896 4.4356-1.582 7.6875-0.60413 2.7337-2.2204 5.1324-2.9102 7.418 1.299 2.5061 1.3394 4.6479 1.0566 6.1895-0.14562 0.79395-0.66418 1.4837-1.5762 2.2012-1.1727 0.9226-1.9937 2.8932-2.5781 4.4863-2.6106 2.1747-2.6381 5.4857-3.0606 8.3896-0.11146 0.76614 0.50437 1.9516 0.54496 2.6455 0.03835 0.65566-0.41685 1.2689-0.40234 1.3828-1.246 0.05369-2.2148-0.6882-2.9414-0.03711-0.13157 1.5966-0.23425 4.3379-0.87891 4.3066-2.5112-0.40214-4.4766-2.5514-4.8574-2.8906 0.94128-0.44279 1.7824-1.0792 2.4121-1.7266 0.18055-1.0482 0.01517-2.0559 0.43164-3.0176 0.75894-1.7526 1.0567-1.5775 1.5527-2.7227 0.6706-1.4606 2.0222-3.3421 2.5449-4.7754 0.40364-1.1067 0.4192-2.553 0.70508-3.9141 0.24463-1.1647 0.30701-2.4614 0.42578-3.6797 0.07692-0.78901 1.0937-2.131 1.4102-3.3906 0.31008-1.234 0.25919-2.313-0.3457-3.4688-0.49372-0.94337-1.9512-1.2369-2.5215-2.0898-0.75648-1.1314-0.77112-2.4779-1.502-3.8672-0.52431-0.99672-0.66713-1.5704-1.4512-3.2793-0.75627-1.6484-1.6733-4.1912-1.4414-6.2832 0.44472-4.0127 1.3114-5.8524 2.8086-9.2031s3.163-5.8457 3.3477-6.0918c0.67495-0.89968-0.0853-1.2066-0.65625-0.64844-0.22003 0.21511-2.1188 2.4683-3.6602 5.918-1.5413 3.4497-3.2 6.4814-3.3887 9.9551-0.10048 1.8499 0.82877 4.8102 1.7383 6.5352 0.4655 0.88284 0.86864 1.7266 1.1641 2.3633-1.363 0.32682-2.734 0.57003-3.7676 1.375-2.4551 1.912-5.8714 4.7482-8.457 6.1094-5.4715 2.8804-11.162 4.1018-17.037 3.3906-0.23514-0.75368-0.51017-1.5641-0.41016-2.3965 0.11704-0.97412 0.02385-2.0081-0.0293-3.3008-0.04158-1.0116-0.49575-1.9058-0.46289-2.2793 0.0077-0.08727 0.21228-0.70665 0.33398-1.0449 0.12171-0.33827 0.3542-0.86303 0.54492-1.1348 0.92225-1.314-0.12596-1.2338-0.89062-0.44531-0.23113 0.23832-0.49264 0.7621-0.63867 1.168-0.14603 0.40587-0.3139 0.86283-0.36133 1.4023-0.09641 1.0967 0.25831 1.871 0.27734 2.334 0.03592 0.8737-0.21322 1.8793-0.35352 3.0469-0.08875 0.73869-0.11263 1.5661 0.04687 2.2559 0.15952 0.6898 0.33833 1.1749 0.75586 1.9961s1.6028 1.5364 1.75 2.6484c0.1575 1.1898-0.03062 2.454-0.22461 3.5469 0.53296 1.941 0.8873 3.8369 1.293 5.7969 0.4397 2.1244 1.1543 6.1465 1.1543 6.1465 0.23122 0.92714 0.52084 2.2414 0.80664 3.1562 1.0246 1.7977-0.61826 1.7378-1.2383 1.9219-0.60391 0.18389-0.53622 0.66839-0.94141 1.3516-0.42529 1.0698-0.51526 2.0329-0.45898 3.0352 0.17416 0.70606-1.7379-0.12301-3.7188-1.4922-0.79595-0.69306-2.0922-1.1204-3.1035-1.5176 0.0991-1.295 2.896-2.0767 3.3281-3.4082 0.59732-1.899 0.6258-3.9221 0.35547-5.8047-0.44212-3.079-1.7446-5.8999-3.0449-8.5234-0.66563-1.343-1.6471-2.0991-1.8613-2.8301-0.28706-0.97943-0.25139-2.0083-0.25586-2.9512-0.78625-0.75332-1.5212-1.5204-2.4062-3.2109-0.88506-1.6906-2.23-4.1892-2.6914-7.0293-0.03766-0.23181-0.07562-0.58131-0.11328-1.0254-0.99308 0.25089-1.8416 0.13604-2.791-0.27734-1.0095-0.43955-2.3178-1.7851-3.207-2.7402-0.71135-0.76407-1.4376-2.4422-1.8672-3.793-0.42954-1.3508 0.38075-2.8043-0.40039-2.8691s-1.2656 2.0809-0.77148 3.6348c0.49413 1.5539 1.1079 2.6993 2.1484 3.9375 0.8046 0.95748 2.0005 2.2334 3.1426 2.9141 0.80987 0.48264 2.048 0.83005 2.791 0.82031 0.65356 2.3962 1.2268 4.7954 2.4434 7.1348-1.2431 0.50704-2.2356 1.3395-3.3457 1.7129-0.97589 0.32828-1.9046-0.05554-3.4238-1.002-5.2991-3.3011-10.375-8.2706-12.82-16.482-3.675-5.6334-4.678-8.7-5.8105-12.777-0.71009 0.03982-1.4833 0.32042-2.168 0.31641-0.51976 0.12817-0.96869-0.48587-1.5449-0.80859-0.13757-0.41181-0.32924-0.84321-0.80274-0.93555-1.1954 0.03301-2.3837 0.01133-3.4277-0.08789-0.61381-0.05834-1.18-0.67395-1.5488-0.83008 0.60447-0.10479 1.319-0.44145 1.9961-0.24023 0.68527 0.20365 1.4899-0.01973 2.2129-0.26562 1.1335 0.98867 2.3353 1.1584 3.1973 0.82226 0.86197-0.3361 1.7843-0.97532 2.3633-2.3672 0.22016-1.0828-0.66708-0.68148-0.96094-0.14258-0.40071 0.96336-1.1846 1.681-2.332 1.7832-1.3235 0.11789-1.3458-0.25799-2.2148-1.1211-0.99883 0.75599-1.8033 0.3782-2.6387 0.18555-0.61573-0.142-1.2989 0.15583-1.8398 0.25781-0.49791 0.09387-0.99232 0.1456-1.7324-0.04492-0.25593-0.12442-0.47225-0.29489-0.61328-0.49805 0.02428-0.93618 0.25187-1.25 0.63867-1.9688 0.54101 0.25101 1.0655 0.35324 1.1309-0.02344 0.28982-1.6702-0.76043-1.812-1.4648-1.8691 0.39092-1.6558 1.9866-3.3941 2.8741-3.7876 0.88756-0.39353 1.0905-0.54662 1.204-0.70652 1.0285-1.4486 2.4424-3.3685 3.3516-4.0996 0.43003-0.59541 0.30043-0.92731-0.31445-0.55859-0.92148 0.74099-2.2147 2.1434-3.252 3.4805-0.05868-0.3273-0.18329-0.64764-0.38281-1.1074-0.22411-0.52116-0.45643-1.5636-0.19727-2.3398 0.54868-1.6433 0.85129-1.9278 1.668-3.043 0.08563-0.11692 1.3481-1.1543 1.3081-1.2504-0.03997-0.09617-0.6103 0.1063-0.96888 0.28887-0.25991 0.13234-0.47031 0.33472-0.48854 0.28739-0.44163-1.1466-0.39088-1.5186-0.39955-2.1071-0.0062-0.4202 0.4475-1.4879 0.89258-1.8594 0.34368-0.28685 0.95204-0.58672 1.7969-0.63868zm78.68 63.451c0.29845 1.1556 0.20788 2.9238 0.51092 3.9903-1.2856 0.8682-1.9054 2.4808-2.7062 2.5566 0.26951-1.5478 0.90093-5.6317 2.1953-6.5469z" color="#000000" color-rendering="auto" fill="#a05a2c" fill-rule="evenodd" image-rendering="auto" shape-rendering="auto" solid-color="#000000" style="block-progression:tb;isolation:auto;mix-blend-mode:normal;text-decoration-color:#000000;text-decoration-line:none;text-decoration-style:solid;text-indent:0;text-transform:none;white-space:normal"/>
  <path d="m28.32 13.801c-1.0714-0.2487-2.0957-0.82745-3.0494-1.9003-0.20781-1.6661-0.70872-3.0691 1.3258-3.9333l-3.3146-4.0659-0.53033-1.7678c1.4446-0.73181 2.7293 0.2944 4.0659 0.7513 2.9392 1.5643 3.7211 2.859 4.8614 4.1984 0.46442 1.1685 1.4357 2.3008 0.35355 3.5797-0.54444 1.7101-1.9227 1.7526-3.1378 2.1213z" fill="#e9ddaf" fill-rule="evenodd" stroke="#668000" stroke-width=".29055"/>
  <path d="m27.657 15.966 0.97227 2.5633c1.139 0.84751 1.9476 1.1444 2.74 1.4142 1.0901 0.43372 2.1802 0.652 3.2704 0.26516 0.94495-0.44623 1.7359-0.58438 3.0052-1.6794l1.591-1.37-3.8891-3.2262c-1.5132-0.27115-2.8734-1.3072-4.5962-0.53033z" fill="#e9c6af" fill-rule="evenodd"/>
  <path d="m28.62 16.959c0.82243-0.76772 1.7527-2.2296 3.8891-2.1213 2.4164 0.32389 4.1664 1.6439 4.9497 2.8284 0 0.22702-3.67 1.6315-4.1543 1.5026-1.4918-0.39725-5.3494-1.7665-4.6846-2.2097z" fill="#c87137" fill-rule="evenodd"/>
  <path d="m28.629 16.939c0.82243-0.76772 1.7527-2.2296 3.8891-2.1213 2.4164 0.32389 4.1664 1.6439 4.9497 2.8284 0 0.22702-3.67 1.6315-4.1543 1.5026-1.4918-0.39725-5.3494-1.7665-4.6846-2.2097z" fill="url(#o)" fill-rule="evenodd" opacity=".31"/>
  <path d="m25.114 1.5657c-0.7192-0.16451-2.2673-0.29579-2.8691 0.17969-0.30091 0.23774-0.06612 1.0051 0.24219 1.5645 0.23472 0.4258 0.57218 0.97292 0.9082 1.3867 0.59666 0.73477 1.2535 1.3692 1.9844 2.1797 0.20707 0.22963 0.75178 0.70886 0.79492 0.98438-0.23205 0.07248-0.55471 0.12284-0.78711 0.28906-0.69143 0.49455-0.82101 1.185-0.82422 1.959-0.0032 0.77401 0.09861 1.1857 0.43164 1.9355 0.34635 0.77989 0.86146 1.3045 1.4883 1.5938 0.79343 0.36612 1.2789 0.56879 2.0469 0.47656 0.24293-0.21208 0.36362-0.51185 0.5293-0.77344 0.61651 0.04336 2.0797-0.69929 2.6406-1.375 0.6378-0.76825 1.2883-1.6255 1.3672-2.4883 0.09088-0.9942-0.13855-2.0953-0.70703-2.9883-0.56848-0.89303-1.5958-1.8556-2.3555-2.4238-1.3269-0.9925-3.002-2.068-4.8906-2.5zm-0.06641 1.5703c1.5133 0.34865 2.6029 1.2341 3.9219 2.2207 0.59276 0.44337 1.2873 1.2179 1.7578 1.957 0.47053 0.73915 0.72224 1.5071 0.67969 1.9727-0.0434 0.47478-0.34712 1.2244-0.80273 1.7793-0.45562 0.55491-1.0122 0.88884-1.5469 0.88867-0.62965-1.96e-4 -0.46431 0.90591-0.85547 1.0977-0.28274 0.13859-1.1574-0.26982-1.3594-0.37891-0.27292-0.1474-0.63158-0.51728-0.89453-1.1094-0.27628-0.6221-0.22688-0.94175-0.2168-1.418 0.01497-0.70707 0.15605-1.4001 0.51758-1.418 0.64618-0.032 1.0054 1.2437 1.6113 1.4492 0 0-0.20443-0.8112-0.32227-1.3105-0.26662-1.1298-0.94447-2.122-1.6679-2.9394-0.78698-0.88923-2.4435-2.0478-2.3398-2.7754 0.0394-0.27642 0.59243-0.22876 1.5176-0.015625z" color="#000000" color-rendering="auto" fill="#a28260" fill-rule="evenodd" image-rendering="auto" shape-rendering="auto" solid-color="#000000" style="block-progression:tb;isolation:auto;mix-blend-mode:normal;text-decoration-color:#000000;text-decoration-line:none;text-decoration-style:solid;text-indent:0;text-transform:none;white-space:normal"/>
  <path d="m32.36 12.279c-0.29355 0.01183-1.2458 0.10315-1.7676 0.18945-1.0344 0.17108-1.7171 0.57429-2.4141 0.73047-0.83606 1.0084-1.0491 1.957-0.7922 2.779 0 0 0.32429 1.5177 0.55728 1.4176s0.25684-0.5735 0.31307-1.0121c0.03707-0.28917 0.27241-0.73661 0.74216-0.81729 0.87646-0.15054 1.3991-0.97834 2.3496-1.1816 0.95052-0.2033 2.0627 0.25046 2.8418 0.5957 2.2763 1.0087 2.0577 0.48966 3.5176 1.8613 0.22374 0.21023 0.81048 0.44992 0.65733 0.63298-0.29488 0.35247-0.48299 0.54877-0.83117 0.67951-0.73194 0.85618-1.6056 1.0703-2.5352 1.4277-0.68869 0.26478-1.3873 0.23268-2.209 0.17578-1.7421-0.12063-2.8567-0.81519-4.2988-1.6699-0.24895 2.1133-0.67349 4.5483-1.5508 6.457-0.80696 1.7557-0.94045 3.3098-3.0801 4.2031-0.90327 0.37711-2.5565 0.15044-2.5814 0.55988-0.02499 0.40944 1.8707 0.90399 3.0228 0.3366 2.1071-1.0377 2.6016-3.2234 3.3574-4.8301 0.63784-1.3558 0.93691-4.2103 1.127-5.7422 1.1687 0.59396 2.9049 1.8357 4.1172 1.8105 0.7667-0.01591 1.5463 0.15368 2.4492-0.33984 0.81146-0.44352 1.7633-0.835 2.8574-1.9941 0.42958-0.1156 0.87572-0.21894 1.1797-0.61719 0.17661-0.2314 0.25383-0.59377 0.16016-0.9043-0.09368-0.31052-0.29858-0.57239-0.5957-0.85156-1.4363-1.3496-2.2342-2.4401-4.6387-3.5-0.84233-0.37131-1.1369-0.42945-1.9551-0.39648z" color="#000000" color-rendering="auto" fill="#784421" fill-rule="evenodd" image-rendering="auto" shape-rendering="auto" solid-color="#000000" style="block-progression:tb;isolation:auto;mix-blend-mode:normal;text-decoration-color:#000000;text-decoration-line:none;text-decoration-style:solid;text-indent:0;text-transform:none;white-space:normal"/>
  <path d="m18.242 16.399c-0.76911 0.66876-1.4608 1.4416-2.0418 2.2248-0.58699 0.79136-1.0766 1.5877-1.3711 2.332-0.34427 0.87002-0.28596 1.4133-0.63868 2.1934 0.8849 0.16401 2.0133 0.40641 2.6348 0.88867 0.52841 0.41005 0.88476 1.181 0.82226 1.627-0.16915 1.207-0.45023 1.6151-0.76953 2.125-0.30943 0.4941 0.07567 0.65892 0.39453 0.26172 0.31785-0.39593 1.0268-1.0295 1.2051-2.0723 0.15773-0.92258-0.23942-1.7613-0.9043-2.3672-0.54622-0.49776-1.4171-0.73108-2.1562-0.97266-0.0055-0.26493 0.0024-0.784 0.23437-1.332 0.26954-0.63671 0.67126-1.4586 1.2148-2.1914 0.52104-0.70244 1.0845-1.4412 1.762-2.0383 0.73612-0.6488 1.6504-1.3076 1.5238-1.4669-0.12664-0.1593-1.125 0.1055-1.91 0.78814z" color="#000000" color-rendering="auto" fill="#784421" fill-rule="evenodd" image-rendering="auto" shape-rendering="auto" solid-color="#000000" style="block-progression:tb;isolation:auto;mix-blend-mode:normal;text-decoration-color:#000000;text-decoration-line:none;text-decoration-style:solid;text-indent:0;text-transform:none;white-space:normal"/>
  <path d="m102.25 39.679c1.0734 3.5409 1.723 7.8235 2.4856 11.908 0.11943 2.4579-0.25022 4.1006-0.61871 5.7452-0.68961 1.1009-1.448 1.8117-2.3865 1.5026l-3.4033-1.8142-1.4179 2.9231-2.8686 2.515c-1.0786-1.8765-1.6149-3.7038-1.7776-5.4971 0.32243-1.599 0.66778-3.1833 2.1311-4.0489 1.973-0.70134 4.0559-0.96964 5.8649-0.35892 0.4621-2.0919 0.72728-3.1669 0.73192-5.3588 1.1915-2.4132 1.7193-4.1122 1.259-7.5164z" fill="#e9c6af" fill-rule="evenodd"/>
  <path d="m100.05 52.758c-1.2734-0.38511-2.1064-1.2657-4.625-0.25-1.8765 1.3093-2.9974 2.6079-3.375 4.75 0.72917 2.4573 1.4583 4.6197 2.1875 4.9375 0.99434-0.9467 0.37407-1.5474 3.4375-2.9375l0.625-2.25 3.625 2.125c1.7406-0.60074 3.2221-1.5298 2.5-5.25-1.6965-1.1688-3.1783-1.6221-4.375-1.125z" fill="url(#n)" fill-rule="evenodd" opacity=".288"/>
  <path d="m100.43 52.747c-1.2734-0.38511-2.1064-1.2657-4.625-0.25-1.8765 1.3093-2.9974 2.6079-3.375 4.75 0.72917 2.4573 1.4583 4.6197 2.1875 4.9375 0.99435-0.9467 0.37407-1.5474 3.4375-2.9375l0.625-2.25 3.625 2.125c1.7406-0.60074 3.2221-1.5298 2.5-5.25-1.6965-1.1688-3.1783-1.6221-4.375-1.125z" fill="url(#v)" fill-rule="evenodd"/>
  <path d="m102.38 37.003-1.0254 1.2891c0.99575 5.0227 3.2417 10.927 2.0312 14.982 3e-3 1.5007 0.39176 3.5438-0.89258 4.209-1.5717 0.81401-3.157-0.77145-4.5957-1.6367-0.30345 1.27-0.46579 2.6666-1.3555 3.1387-0.45808 0.18685-1.7459 0.76761-2.4531 2.459-0.65897-0.9069-1.0777-3.1601-1.0137-3.8477 0.12833-1.3771 0.38917-2.5598 1.2129-3.5547 1.2872-1.5547 3.8736-1.5887 5.418-0.98047l0.81446 0.32226 0.4707-0.73828c0.9794-1.5365 0.79015-3.8186 0.23242-6.2832l-1.2461 0.74609c0.38135 1.6852 0.31672 3.6463-0.11524 4.6113-2.185-0.39508-5.0076-0.54984-6.6113 1.1914-1.0937 1.1875-1.4824 2.9446-1.4961 4.5059-0.01371 1.5674 0.87442 3.017 1.5449 4.4336 0.3682 0.77791 0.77761 1.2756 1.207 1.625-0.18658-0.74915 0.41624-1.0573 0.72852-1.5293 0.39652-0.59935 0.94551-1.0673 1.834-1.4297 0.64566-0.26337 0.88577-1.8001 1.5078-2.6074 1.0893 0.55172 2.5024 1.9307 3.8516 1.8066 1.3982-0.12855 2.0119-1.1566 2.4941-2.2422 0.49296-1.1097 0.38224-2.2576 0.37109-3.793-0.0384-5.292-1.9466-11.798-2.9141-16.678zm-4.6035 16.232c-0.53682 0.0169-1.0733 0.11713-1.5703 0.34766-1.3288 0.61628-2.1594 2.0118-2.5391 3.373-0.37969 1.3612-0.04854 2.7654 0.22656 2.8066 0.2751 0.04128-0.02221-1.3631 0.32812-2.6191 0.35034-1.256 1.4299-2.5924 2.2246-2.9609 0.6812-0.31594 1.9716-0.45092 2.8438-0.26953 0.87217 0.18139 1.9027 0.45324 2.1211 0.61133l0.21094-0.25781c-0.4614-0.33396-1.2777-0.66985-2.2734-0.87695-0.49788-0.10355-1.0355-0.1712-1.5723-0.1543zm0.47461 1.3867c-0.16934 0.0026-0.33408 0.02831-0.49219 0.08203-0.73568 0.24997-0.76336 0.64628-0.92578 1.2383-0.16242 0.592-0.25536 1.1146-0.47461 1.5371-0.10364 0.19972-0.5408 0.71434-0.83203 0.96289-0.29124 0.24855-1.036 0.62534-0.93164 0.78516s0.95812 0.01548 1.2715-0.25195c0.31336-0.26743 0.673-0.6675 0.91797-0.99414 0.42684-0.56915 0.42645-1.2927 0.57227-1.8242 0.14581-0.53148 0.32353-0.87454 0.59766-0.99609 0.19717-0.08743 0.98776-0.05682 1.5957 0.19922 0.60793 0.25604 1.3867 0.58203 1.3867 0.58203 0.97076 0.09578 0.83798-0.32599 8e-3 -0.41016-0.38621-0.11039-0.36641-0.25975-1.0859-0.52539-0.54808-0.20235-1.0994-0.39271-1.6074-0.38477z" color="#000000" color-rendering="auto" fill="#a05a2c" fill-rule="evenodd" image-rendering="auto" shape-rendering="auto" solid-color="#000000" style="block-progression:tb;isolation:auto;mix-blend-mode:normal;text-decoration-color:#000000;text-decoration-line:none;text-decoration-style:solid;text-indent:0;text-transform:none;white-space:normal"/>
 </g>
</svg>
