<?xml version="1.0" encoding="UTF-8"?>
<svg width="316.18" height="317.18" enable-background="new 0 0 316.183 317.185" viewBox="0 0 316.183 317.185" xmlns="http://www.w3.org/2000/svg">
 <g fill-rule="evenodd">
  <path d="m277.33 84.781s17.946 3.082 21.982 17.843c1.806 6.372 11.577-3.398 8.921-12.638-2.76-9.023-13.49-22.935-30.9-5.201z" fill="#fcb482" stroke="#000" stroke-miterlimit="2.4142" stroke-width=".072"/>
  <path d="m277.64,84.569s4.143-.635 6.373.212c2.124.958 7.753,4.568 9.133,6.374s2.867,3.717 3.291,4.78c-1.69-2.231-7.85-9.028-18.79-11.366z" fill="#d68356"/>
  <path d="m285.93,83.614c1.805.425 2.973.744 3.717,1.488 .53.744 1.168,1.061.954.426-.316-.639.852-.107 1.486.847 .64.958 1.594,1.914 1.276.851-.425-.956.743-.531 1.062.317 .426.851 1.805,2.551 1.593,1.064-.318-1.486 2.018,2.122 2.655,3.504s2.973,4.885 3.611,3.08c.638-1.7 1.274-2.868-.851-5.841-2.124-2.975-4.353-4.673-5.416-5.522-1.167-.744 0-1.061 1.699,0 1.593,1.168 4.567,4.992 5.629,7.221 .956,2.23 2.23.849 1.805-.319-.318-1.061-.53-1.593-.104-2.866 .316-1.168.316-2.761-.956-4.354s-4.248-4.885-5.417-5.204c-1.07-.427-12.75,5.308-12.75,5.308z" fill="#ef9260"/>
  <path d="m234.21,158.49c.956-1.381 1.808-2.442 2.338-3.08 1.486-2.019 5.522-5.736 5.522-8.283 0-.958-.319-2.126-.744-3.399-.531-1.7-1.275-3.505-1.806-4.78-.744-2.23 1.806-4.778 1.486-7.009-.212-2.23 1.275-6.478.532-7.434-.744-1.063-2.019-4.036 0-5.522 2.018-1.593 1.487-6.054 2.548-7.753 4.885-8.602 5.629-13.806 6.161-16.461 .636-2.761 1.168-2.443 1.168-2.443s1.592.744 2.548.319c2.125-.849 2.442.637 6.159.107 2.762-.426 8.072.849 8.603,2.124 .532,1.275-.212,1.699 1.593,1.38 3.931-.742 1.17,1.486 6.16.958 2.23-.213 4.461-.851 6.373-.32 1.805.425 5.946,1.275 6.797.107 .638-1.168 2.761-.212 4.885-2.973-7.009-7.434-16.566-9.241-16.566-9.241 4.99-.529 9.875.426 22.301-6.477 1.063-.425 6.267-4.992 8.391-7.221 3.503-5.312 8.071-17.736 0-20.923-2.124-.849-4.036-2.019-11.471-4.141-2.23-.532-5.415-2.655-8.071-3.187-2.654-.532-7.115-1.912-9.558-4.566-2.336-2.868-4.036-3.929-5.31-5.416s.212-4.461-.744-7.648c-.849-2.547-3.61-4.141-5.947-6.373-2.442-2.229-6.267-2.866-12.638-12.955-2.974-4.78-5.204-4.036-8.071-4.78-2.655-.637-6.158-.956-7.435-.105-1.273.849-.317-.744-2.974-.956-1.698-.213-4.354,1.38-5.733,1.38s-3.08,1.274-3.93,2.125c-.744.847-1.169,1.486-2.337.954-2.762-1.274-8.709,2.125-15.399,5.099-5.311,2.442-9.876,5.841-11.47,7.965-1.486,2.337-4.673,4.778-4.46,7.539-4.779,4.461-6.478,7.541-5.735,12.745s-3.292,2.231-6.479,9.24c-2.761,5.841.214,9.981 3.931,10.939-.956,1.486-2.975,6.69-4.567,10.512s-4.248,2.125-4.886,4.25c-.637,2.124-1.272-.212-3.503,3.398-2.338,3.824-5.099,2.017-8.283,4.992-2.02,1.805-22.198,6.053-31.012,15.823-5.416,5.841-16.249,13.275-22.939,16.568-6.797,3.29-6.797,6.37-10.302,9.026-11.258,8.921-10.727,8.921-15.505,13.063-.213.212.212-.212 0,0-4.46,4.036-9.24,9.344-14.019,17.097-.956,1.7-2.124,3.717-3.292,5.736h167.69z" fill="#e7b84f"/>
  <path d="m1.099,277.43c-.744,2.227-1.169,4.566-1.063,6.901 .213,4.78 2.549,9.665 8.815,13.699 0,0 14.444,9.241 34.94,14.231l9.558,2.549-2.655-1.488s5.311,1.912 10.089,2.764c4.78.955 20.285,1.379 24.426,1.061 0,0 10.726-1.274 11.258-1.17 .637.109 2.335-.424 3.504-1.061 1.168-.529 5.098-2.973 6.372-3.396s4.779-3.187 4.779-3.187-5.416.532-5.841.955-1.594-.955-2.868,0c0,0-2.336.214 4.779-4.033 0,0-9.559,2.017-6.797.634 0,0-1.911-.634-3.505-.105-1.593.424-5.946,1.274-2.867-.21l-4.673-.532s-2.23,0 .319-1.807c0,0-8.602,1.807-7.01,0 0,0-8.814.318-11.469-.743l.85-.742s1.593-.956-5.417-.956c0,0-5.31.424-6.796-.318 0,0-.318-1.274.106-1.702 0,0-2.336,1.275-4.249,1.17-1.805-.105-12.637-1.488-16.566-3.078-3.823-1.594-25.913-8.923-24.852-15.824 0,0-.424-1.384.85-3.61h-14.012z" fill="#e7b84f"/>
  <path d="m34.445,277.43c.85.528 1.593.848 2.443.848 2.442,0 1.592-.424 4.248,5.207 2.867,5.627 4.673,6.793 5.947,6.156 1.275,2.02 1.488,2.339 2.337.427 1.274,2.973 1.593,2.864 3.504.848 .212,3.505 7.328,3.823 14.55,3.081 3.717-.424 5.734,1.17 7.434,1.38 3.717.424 3.61-2.23 9.558-1.593 6.054.531 18.16-.211 19.754-1.594s-1.912,1.594 4.034,1.274c1.594-.104 5.736,0 5.842,1.702 .105,1.59 4.566,1.59 7.116-.641 .744,1.593 2.337,1.593 3.185.745s1.594-.956 1.912-.532c.318.428 1.593.743 2.975-.318 .106,2.018 2.761-1.061 2.761-1.061s.424.424.956,1.061c.638-1.38 1.38-.637 1.38-.637s.318-1.17 1.168-1.699 1.7-.637 2.124-2.973c.851,1.594 1.7,1.594 1.169-.427-.425-2.122 0-4.566 0-4.566s1.806,0 3.186-2.122c1.381-2.018 2.975-2.126 4.143-2.658 1.061-.634 1.061-1.804 2.23-.634 1.061,1.274 2.124.318 2.124.318s-.107-.318-.107-1.593h-115.96z" fill="#e7b84f"/>
  <path d="m150.42,277.43c-.104-.638-.104-1.702 0-3.187 .107-3.824-2.23-6.692-5.311-7.221-2.973-.641-6.901-2.234-10.938-1.488-3.929.848-14.443.848-17.205,2.017-2.762,1.064-4.46,1.594-3.717.532s4.248-4.143 6.479-6.055 .956-5.735 2.762-6.901c1.698-1.062 4.141-9.133 6.479-15.72 .53-.424 1.274-.956 2.123-1.59h-99.076c-1.063,3.292-2.337,7.854-2.549,10.193 0,0-10.514,8.601-15.188,11.896-3.186,2.336-10.407,9.451-13.168,17.523h14.018c1.168-2.021 3.929-4.566 9.876-7.435l4.037-1.702 1.061,3.614c.531,2.336 2.336,4.458 4.354,5.522h115.98z" fill="#e7b84f"/>
  <path d="m172.82,237.82c.532,4.458.32,12.953-.53,13.909s-1.487,6.373-.85,10.834c1.912,1.38.212,2.336 1.594,3.93s.637,3.078 1.593,2.654c1.062-.529 1.168-1.488 1.168-1.488s.53,2.125 1.806,1.912c-.319,2.021 2.442,4.247 3.398,7.224 1.063,3.078 2.761,3.292 3.398,4.566 .637,1.166 3.717,3.61 5.841,3.292 2.867,3.715 4.991,1.912 4.991,1.912s.85,1.061 1.38.637c.532-.532 3.398-.532 3.612.214 .212.742 2.017-.746 2.654-.214 .637.424 3.292-.427 4.036-.956 .849-.637 1.274-1.807 2.123-.532 .956,1.274 1.594,1.274 1.806.108s1.486-.108 1.7-.745c.318-.638 1.061.532 1.061.532s0-2.336-.104-4.99c-.214-2.763-3.294-3.295-5.206-5.526-1.805-2.227-3.61-1.484-4.141-2.973-.638-1.593-2.442-2.44-3.612-5.522-1.061-3.078-2.761-4.566-3.078-5.413-2.655-9.241 1.699-13.275 0-20.5-.213-1.166-.425-2.122-.532-2.864h-24.11z" fill="#e7b84f"/>
  <path d="m202.77,237.82c.106.952 0,1.698-.105,2.122-.318,1.594-.638,4.461 0,7.221 .849,2.658 1.698,7.539.954,9.027-.742,1.594.106,2.654-.212,4.038-.424,1.379.426,1.379.744,3.291 .212,1.804 1.382,1.594 2.018.424 .318.742 1.167,1.062 1.593.428 .318-.641.744-.428.744,1.166 0,1.698.53,1.807 1.912.742 0,1.17 1.168,2.339 1.486,3.4 .212,1.166 1.168,1.274 1.168,1.274s.105.742.742,2.23c.638-1.701 1.488-1.488 2.338,0 1.912-3.081 1.912,1.38 2.23.424 .424-.956 1.91-.956 2.973-.532 .956.532 4.354,1.912 5.311.638 1.062-1.275 1.38,1.274 2.018.532 .637-.746 1.911,1.593 1.911.956s.85-1.912.85-1.912 2.124,1.698 2.761,1.061 2.126.742 2.764-.742c.53-1.488 1.698.851 1.803.21 .107-.634 1.17-1.166 1.7-1.166 .744,0 3.717.424 2.442-5.627-1.274-6.16-5.203-5.418-6.901-6.587-1.594-1.062-1.17.427-2.444-.956s-3.822-2.868-4.99-7.858-4.461-6.369-4.461-8.813c0-1.274-.638-2.763-1.168-4.99h-20.16z" fill="#e7b84f"/>
  <path d="m222.95,237.82c-.531-2.339-.956-5.313-.85-9.878 .212-9.028 2.974-7.753 2.229-14.76-.743-7.011 1.487-4.251.744-10.197-.744-6.055 1.274-13.275 2.761-19.967 1.486-6.797 2.761-4.248 2.761-9.77 0-7.435 1.806-12.001 3.61-14.761h-167.68c-4.672,8.92-10.513,21.134-15.293,26.551-6.053,6.902-11.682,17.31-17.842,48.745 0,0-.636,1.698-1.379,4.037h99.084c2.336-1.702 5.416-4.143 6.054-4.993 .851-1.275.637-1.38 2.23-1.594 1.593-.104 4.991-3.396 9.027-6.688s11.788-17.313 13.487-19.011c1.805-1.593-.319,1.807-.531,3.61 1.38-3.292 3.398-4.038 3.398-4.038s.424.956 1.168-1.38c.744-2.44 2.124-2.549 3.186-2.017 1.169.532 2.443,5.099 2.337,8.604 1.168-.746.742,3.715.106,5.522-.637,1.698-1.487,4.671-1.487,9.132 2.019-4.675 2.123,8.282 2.761,12.638v.214h24.107c-.637-4.675.532-5.417.532-9.878 0-5.313-.213-10.089.955-9.879 1.276.213 2.019,5.099 1.699,7.011-.423,1.807.212,1.593 1.275,3.61 .742,1.488 1.274,6.268 1.38,9.136h20.15z" fill="#e7b84f"/>
  <path d="m30.091,271.91c.744,3.292 4.249,6.37 6.798,6.37 2.442,0 1.592-.424 4.248,5.207 2.867,5.627 4.673,6.793 5.947,6.156 1.275,2.02 1.488,2.339 2.337.427 1.274,2.973 1.593,2.864 3.504.848 .212,3.505 7.328,3.823 14.55,3.081 3.717-.424 5.734,1.17 7.434,1.38 3.717.424 3.61-2.23 9.558-1.593 6.054.531 18.16-.211 19.754-1.594s-1.912,1.594 4.034,1.274c1.594-.104 5.736,0 5.842,1.702 .105,1.59 4.566,1.59 7.116-.641 .744,1.593 2.337,1.593 3.185.745s1.594-.956 1.912-.532c.318.428 1.593.743 2.975-.318 .106,2.018 2.761-1.061 2.761-1.061s.424.424.956,1.061c.638-1.38 1.38-.637 1.38-.637s.318-1.17 1.168-1.699 1.7-.637 2.124-2.973c.851,1.594 1.7,1.594 1.169-.427-.425-2.122 0-4.566 0-4.566s1.806,0 3.186-2.122c1.381-2.018 2.975-2.126 4.143-2.658 1.061-.634 1.061-1.804 2.23-.634 1.061,1.274 2.124.318 2.124.318s-.212-.959-.107-4.779-2.23-6.692-5.311-7.221c-2.973-.641-6.901-2.234-10.938-1.488-3.929.848-14.443.848-17.205,2.017-2.762,1.064-4.46,1.594-3.717.532s4.248-4.143 6.479-6.055 .956-5.735 2.762-6.901c1.698-1.062 4.141-9.133 6.479-15.72 1.911-1.38 7.327-5.417 8.177-6.583 .851-1.275.637-1.38 2.23-1.594 1.593-.104 4.991-3.396 9.027-6.688s11.788-17.313 13.487-19.011c1.805-1.593-.319,1.807-.531,3.61 1.38-3.292 3.398-4.038 3.398-4.038s.424.956 1.168-1.38c.744-2.44 2.124-2.549 3.186-2.017 1.169.532 2.443,5.099 2.337,8.604 1.168-.746.742,3.715.106,5.522-.637,1.698-1.487,4.671-1.487,9.132 2.019-4.675 2.123,8.282 2.761,12.638 .532,4.462.32,13.167-.53,14.123s-1.487,6.373-.85,10.834c1.912,1.38.212,2.336 1.594,3.93s.637,3.078 1.593,2.654c1.062-.529 1.168-1.488 1.168-1.488s.53,2.125 1.806,1.912c-.319,2.021 2.442,4.247 3.398,7.224 1.063,3.078 2.761,3.292 3.398,4.566 .637,1.166 3.717,3.61 5.841,3.292 2.867,3.715 4.991,1.912 4.991,1.912s.85,1.061 1.38.637c.532-.532 3.398-.532 3.612.214 .212.742 2.017-.746 2.654-.214 .637.424 3.292-.427 4.036-.956 .849-.637 1.274-1.807 2.123-.532 .956,1.274 1.594,1.274 1.806.108s1.486-.108 1.7-.745c.318-.638 1.061.532 1.061.532s0-2.336-.104-4.99c-.214-2.763-3.294-3.295-5.206-5.526-1.805-2.227-3.61-1.484-4.141-2.973-.638-1.593-2.442-2.44-3.612-5.522-1.061-3.078-2.761-4.566-3.078-5.413-2.655-9.241 1.699-13.275 0-20.5-1.593-7.325 0-7.539 0-12.742 0-5.313-.213-10.089.955-9.879 1.276.213 2.019,5.099 1.699,7.011-.423,1.807.212,1.593 1.275,3.61 .956,1.912 1.698,9.56 1.274,11.258-.318,1.594-.638,4.461 0,7.221 .849,2.658 1.698,7.539.954,9.027-.742,1.594.106,2.654-.212,4.038-.424,1.379.426,1.379.744,3.291 .212,1.804 1.382,1.594 2.018.424 .318.742 1.167,1.062 1.593.428 .318-.641.744-.428.744,1.166 0,1.698.53,1.807 1.912.742 0,1.17 1.168,2.339 1.486,3.4 .212,1.166 1.168,1.274 1.168,1.274s.105.742.742,2.23c.638-1.701 1.488-1.488 2.338,0 1.912-3.081 1.912,1.38 2.23.424 .424-.956 1.91-.956 2.973-.532 .956.532 4.354,1.912 5.311.638 1.062-1.275 1.38,1.274 2.018.532 .637-.746 1.911,1.593 1.911.956s.85-1.912.85-1.912 2.124,1.698 2.761,1.061 2.126.742 2.764-.742c.53-1.488 1.698.851 1.803.21 .107-.634 1.17-1.166 1.7-1.166 .744,0 3.717.424 2.442-5.627-1.274-6.16-5.203-5.418-6.901-6.587-1.594-1.062-1.17.427-2.444-.956s-3.822-2.868-4.99-7.858-4.461-6.369-4.461-8.813c0-2.55-2.336-5.949-2.018-14.868 .212-9.028 2.974-7.753 2.229-14.76-.743-7.011 1.487-4.251.744-10.197-.744-6.055 1.274-13.275 2.761-19.967 1.486-6.797 2.761-4.248 2.761-9.77 0-11.469 4.46-15.824 5.948-17.841s5.522-5.736 5.522-8.283c0-.958-.319-2.126-.744-3.399-.531-1.7-1.275-3.505-1.806-4.78-.744-2.23 1.806-4.778 1.486-7.009-.212-2.23 1.275-6.478.532-7.434-.744-1.063-2.019-4.036 0-5.522 2.018-1.593 1.487-6.054 2.548-7.753 4.885-8.602 5.629-13.806 6.161-16.461 .636-2.761 1.168-2.443 1.168-2.443s1.592.744 2.548.319c2.125-.849 2.442.637 6.159.107 2.762-.426 8.072.849 8.603,2.124 .532,1.275-.212,1.699 1.593,1.38 3.931-.742 1.17,1.486 6.16.958 2.23-.213 4.461-.851 6.373-.32 1.805.425 5.946,1.275 6.797.107 .638-1.168 2.761-.212 4.885-2.973-7.009-7.434-16.566-9.241-16.566-9.241 4.99-.529 9.875.426 22.301-6.477 1.063-.425 6.267-4.992 8.391-7.221 3.503-5.312 8.071-17.736 0-20.923-2.124-.849-4.036-2.019-11.471-4.141-2.23-.532-5.415-2.655-8.071-3.187-2.654-.532-7.115-1.912-9.558-4.566-2.336-2.868-4.036-3.929-5.31-5.416s.212-4.461-.744-7.648c-.849-2.547-3.61-4.141-5.947-6.373-2.442-2.229-6.267-2.866-12.638-12.955-2.974-4.78-5.204-4.036-8.071-4.78-2.655-.637-6.158-.956-7.435-.105-1.273.849-.317-.744-2.974-.956-1.698-.213-4.354,1.38-5.733,1.38s-3.08,1.274-3.93,2.125c-.744.847-1.169,1.486-2.337.954-2.762-1.274-8.709,2.125-15.399,5.099-5.311,2.442-9.876,5.841-11.47,7.965-1.486,2.337-4.673,4.778-4.46,7.539-4.779,4.461-6.478,7.541-5.735,12.745s-3.292,2.231-6.479,9.24c-2.761,5.841.214,9.981 3.931,10.939-.956,1.486-2.975,6.69-4.567,10.512s-4.248,2.125-4.886,4.25c-.637,2.124-1.272-.212-3.503,3.398-2.338,3.824-5.099,2.017-8.283,4.992-2.02,1.805-22.198,6.053-31.012,15.823-5.416,5.841-16.249,13.275-22.939,16.568-6.797,3.29-6.797,6.37-10.302,9.026-11.258,8.921-10.727,8.921-15.505,13.063-.213.212.212-.212 0,0-4.46,4.036-9.24,9.344-14.019,17.097-4.992,8.178-12.638,25.487-18.585,32.287-6.053,6.902-11.682,17.31-17.842,48.745 0,0-3.61,10.302-3.929,14.23 0,0-10.514,8.601-15.188,11.896-4.142,2.974-14.762,13.699-14.231,24.425 .213,4.78 2.549,9.665 8.815,13.699 0,0 14.444,9.241 34.94,14.231l9.558,2.549-2.655-1.488s5.311,1.912 10.089,2.764c4.78.955 20.285,1.379 24.426,1.061 0,0 10.726-1.274 11.258-1.17 .637.109 2.335-.424 3.504-1.061 1.168-.529 5.098-2.973 6.372-3.396s4.779-3.187 4.779-3.187-5.416.532-5.841.955-1.594-.955-2.868,0c0,0-2.336.214 4.779-4.033 0,0-9.559,2.017-6.797.634 0,0-1.911-.634-3.505-.105-1.593.424-5.946,1.274-2.867-.21l-4.673-.532s-2.23,0 .319-1.807c0,0-8.602,1.807-7.01,0 0,0-8.814.318-11.469-.743l.85-.742s1.593-.956-5.417-.956c0,0-5.31.424-6.796-.318 0,0-.318-1.274.106-1.702 0,0-2.336,1.275-4.249,1.17-1.805-.105-12.637-1.488-16.566-3.078-3.823-1.594-25.913-8.923-24.852-15.824 0,0-1.699-5.204 10.726-11.045l4.037-1.702 1.057,3.61z" fill="none" stroke="#000" stroke-miterlimit="2.4142" stroke-width=".072"/>
  <path d="m187.69,63.437c-.318-1.061-2.336-3.612-3.398-3.717-.104,0 .744-1.488.744-1.488s1.594-.742 3.822,2.551 8.285,12.213 12.958,16.249c4.778,4.036 11.257,10.938 15.293,15.186 1.274,1.381 5.097,3.4 5.415,3.931 1.063,2.23 6.479,4.566 6.479,4.992-.424,1.486-.424,5.734-.85,9.026-.318,3.082-1.063,5.31-1.063,5.31s-2.548-1.274-5.627-4.143c-1.17-1.167-2.02-3.185-3.294-4.459-1.168-.956-2.973-.742-4.247-1.805-.638-.637-.744-2.656-1.487-3.292-2.123-1.805-4.143-3.505-6.053-4.992-.637-.532-.425-2.336-.956-2.761-2.23-1.486-4.991-1.381-6.266-1.807-2.124-.636-.107-3.715-1.487-4.99-1.593-1.38-2.867-1.38-3.717-3.187-.85-2.124-3.717-4.141-3.612-6.372 .532-6.055-.316-7.329-2.44-10.621-1.37-2.03.23-2.349-.2-3.623z" fill="#b97a2e"/>
  <path d="m163.16,172.5s-5.522,11.787-9.559,13.699c-3.929,2.02-4.991,1.169-5.947,3.292-1.062,2.23-3.717,1.169-4.036,3.082-.212,1.912-3.929,3.824-4.459,2.23-.532-1.702-2.975-.318-2.975-.318s1.274.529.532,2.44c-.85,1.912-3.506.851-3.824,3.292-.212,2.549 1.061,6.373.53,7.966-.742,2.441-2.548,4.461-6.479,3.824-2.761,4.458-6.901,35.469-6.901,35.469s7.327-6.054 7.753-7.007c.424-.956.53-1.383 1.593-2.021 1.168-.742 7.752-5.414 8.603-7.434 2.548-1.804 20.389-26.019 22.089-32.815 1.71-6.69 4.58-23.36 3.09-25.7z" fill="#cec8b6"/>
  <path d="m135.66,233.68c1.382-1.17 1.912-2.763 3.398-2.657 .956,0 9.983-11.574 20.18-22.937 3.185-3.61 4.459-4.57 3.396-1.912 1.488-1.488 2.549-1.807 2.549-1.383 .852-1.908 1.275-3.82 3.08-3.715 1.912.105 2.549,2.441 2.549,2.441s.85-1.38-.318-2.546c1.063-1.169 1.063-1.593 0-3.082-.212-.424 2.442-3.505.212-2.973 .851-2.973 1.594-5.417.532-4.461-.214-4.034-1.169-12-1.486-8.496-.214,3.505-.214,3.505-.214,3.505s-.849-5.312-1.593-7.858c-.743-2.444-3.08-9.027-3.397-13.808-.425-4.779-.106.319-.213,2.655-.212,2.125-1.275,3.824-1.594,9.027-.212,5.312-2.336,8.919-4.141,13.489-1.807,4.671-2.549,9.451-5.099,13.485-2.442,3.929-4.885,8.604-3.504,7.861 1.38-.851 2.974-.851 1.062,1.59-1.806,2.339-8.391,9.983-13.169,10.939-4.673,1.061-6.691,2.549-6.797-.637-.212-3.183-.637-5.627 0-4.776 .531.847.105-1.383-.744-2.339-.954-.956-.423-3.61-.423-3.61s-2.55.319-3.08-.637c-2.868,8.922-6.692,36.32-6.692,36.32s7.435-6.051 7.965-7.115c.4-1.14 5.28-4.22 7.52-6.34z" fill="#aca997"/>
  <path d="m128.65,239.62s-2.973.851-3.505,2.23c-.424,1.38-2.654,2.44-2.654,2.44s-.638,1.275-.638,2.658-.637-3.292-1.381-2.763-.105,3.187-1.273,4.037c-.532,2.122-2.02,6.051-2.444,3.396-2.336,4.248-3.186,5.313-2.973,3.292-2.549,2.336-2.443,4.356-2.443,4.356s-2.229.848-2.336,3.823c-.105,2.018-1.487-2.125-3.823,3.397-1.275,3.291-1.487.532-1.487.532s-1.699,3.396-1.486,1.061c-2.018,2.546-3.292,3.719-4.143,3.719-.743,0 .426-2.763-.53-1.383-1.062,1.383-2.549,1.912-3.398,3.505-.85,1.699-.426,1.699-1.594,2.126-1.273.424-4.035,1.38 1.807.424 5.841-1.064 10.089,0 12.213-.214 2.124-.105 4.885-.956 5.947,0 .955,1.062 2.548.424 4.247-.21 1.594-.746 3.187,0 5.948.21 2.761.318 3.824.424 6.053,0 2.337-.318 3.717.638 4.992,2.126 1.381,1.484 4.461,1.061 5.098,5.309 1.806-.424 2.548-1.17 3.822-2.763 1.275-1.485 2.868-1.38 4.25-2.546 1.38-1.275 2.123,1.803 3.291.528-.212-2.76.212-4.776-.318-6.797-.426-2.017-1.593-4.143-4.673-4.885s-7.541-2.018-10.303-1.594c-2.866.532-6.371.743-10.088,1.064s-6.479.529-10.408,1.912c-2.337.848-2.442-.108.744-2.763 1.168-1.064 5.204-4.248 5.416-5.627 .638-2.55.53-4.251 1.594-5.099 1.061-.746 2.017-3.187 2.442-4.248 .43-1.08 3.82-10.32 4.04-11.28z" fill="#453f37"/>
  <path d="m239.1,136.71c-1.063,2.124 1.486,5.417 2.124,8.39 1.168,5.416-5.735,9.134-7.859,13.594-3.08,5.312-33.878,59.26-34.94,59.155-.955-.214-1.273,1.379-1.168,6.37 .106,4.994-.424,7.434-.638,10.621-.318,3.187.851,6.797.956,8.817 .212,2.014-.956,7.539-1.168,8.706-.53,3.295.318,8.285 1.38,9.878 1.17,1.485 1.807,2.76 2.444,4.248 .637,1.484 1.486,3.187 2.442,4.034 1.486,1.277.424,2.125 3.08,2.973 1.591.532 4.459,3.613 5.945,5.099 1.063.956-.316,2.973-1.486,4.247-.954.746-6.265,3.614-9.877,1.702-4.035.742-8.813-.641-10.088-1.061-2.55-.746-7.753-6.692-9.028-9.241-.637-1.17-7.327-12.428-7.964-12.852-.319-1.485-2.018-4.248-1.487-7.116s.638-1.803 1.062-3.078c.744-2.549.532-11.682.214-13.062-.107-1.064-.531-5.207-.638-7.01 0-1.808-.426-4.994-.744-6.265s-.638-1.488-1.38-.746c-.213-4.566 1.594-8.072 1.91-10.407 .32-2.231.214-3.61-.53-3.61-.105-2.336-.53-4.566-.956-6.055 .744-1.061.426-2.336 0-3.078 .426-.427.851-1.593.532-2.23-.318-.743-.744-.851-.426-1.275 .426-.637.956-2.017.956-2.017s.107,4.99.85,3.716c.744-1.167.212,4.353 1.063,2.549 .85-1.912.956,4.248 1.273,2.017 .213-2.335.744,3.505 2.975,6.479 2.23,2.977 2.23,5.736 2.654,9.983 .532,4.248 1.063,5.417 1.274,2.973 .318-2.441.744.742 1.063,3.719 .212,2.973 2.442,4.034 2.762,1.59 .212-2.546 1.486-6.583 1.698-1.061 .318,5.521 6.267-10.513 8.283-12.001 .107-.105 3.931-4.353 4.038-4.461-.321-.529 4.459-11.787 8.176-21.771 2.762-7.434 1.594-18.055.212-21.452-.637-3.292-1.167-4.99 1.275-6.692 2.549-1.804 8.92-15.396 9.239-18.158 .212-2.656 2.442-1.912 5.522-6.48 2.973-4.459.212-2.019 0-4.248-.319-2.23 1.486-5.734.956-8.921 3.77-.11 13.86,8.92 14.08,13.48z" fill="#f2ede3"/>
  <path d="m239.1,136.71c1.168-2.759 1.594-4.141 1.38-5.627-.212-2.761 1.274-5.629.214-7.01-1.17-1.382-1.17-4.143-.214-4.99 1.063-.851 2.018-2.019 2.442-5.416 .426-3.293 3.08-6.692 4.354-10.197s3.398-11.258 3.398-11.258-10.195-2.336-12.956,1.063c-2.868,3.292-9.451,2.442-9.451,12.958 0,10.512-3.718,13.697-3.187,16.99 1.805-.106 3.398,1.38 3.823,4.461 .53,3.185 3.398,8.707 3.822,11.256 .318,2.444.85,1.593.426-3.61-.318-5.31 1.805-1.274 1.91,1.593 .106,2.868 1.063,4.248 1.593-.532 .54-4.66 2.46.33 2.46.33z" fill="#cec8b6"/>
  <path d="m206.6,168.58c-.318-3.295 3.187-4.461 4.78-4.248 .636,0 .742,2.655 1.061.953 .319-1.166 2.656-1.698 2.868-.424 .105.424 1.592-.529 2.018-.529 1.063,0 1.167,2.017 1.274,1.061 .106-1.807 3.61-1.912 4.461-2.23 .638-.318.424,2.973 1.273-.851 .213-.743 1.593-1.38 2.019-2.017 1.168-2.018 1.912-4.672 2.866-6.584 .32-.849-.212,2.973.213,2.444 .531-.425 2.018-5.312 2.655-5.312 .532,0 1.381,0 2.23-.212-.212,1.063.106,2.656 3.291-1.275 1.7-1.593 3.292-4.248 2.656-6.902 1.38,3.187 1.486,5.734-.214,7.965-1.805,2.23-5.841,6.265-7.115,9.344-1.804,3.505-2.761,6.692-2.761,13.275 0,3.719-1.168,3.929-1.91,6.373-.638,2.336-4.143,14.55-3.824,21.771 .106,3.187.53,4.251-.106,6.163-.636,1.804-.85,2.122-.636,4.353s.424,5.095-.532,7.753c-.85,2.654-1.806,4.671-1.594,10.831 .214,7.329 1.594,10.407 1.912,12.215 .214,1.911.85,2.549 1.806,3.823 1.063,1.166 2.337,2.654 2.975,5.841 .849,3.187 1.91,4.886 5.627,8.177 .532.424.956-.213 1.382.105 1.167.956 4.354,1.169 5.627,2.763 1.276,1.59 2.868,6.797 1.382,8.604-1.275,1.485-1.806-.641-3.61,1.695-.956-.848-1.487-.848-2.02,0s-1.593.108-2.335.427-1.382.319-2.868-.956c-.53.743-.954,1.38-1.062,1.808-.744-.96-1.593-1.17-1.911-.746-.744-.956-1.168-1.274-2.124-.424-.852.742-2.55.21-4.036-.318-1.486-.638-2.761-1.38-3.929-.214-.638-1.271-1.063-1.804-2.23-.424-.638-1.169-1.594-1.061-2.23-.104-.319-1.064-.319-1.808-.85-1.808-.53-.108-2.23-3.291-2.442-4.885-.85.638-1.806,1.698-1.912-.424-.106-2.23-.53-1.912-.744-1.701s-.85,1.593-1.805-.105c-.636.851-1.592,1.807-1.806-.318-.212-2.122-.956-1.488-.744-2.868 .32-1.38-.212-2.868.214-3.824 .424-.848.53-2.23-.214-6.901-.849-4.672-1.38-4.99-.742-8.601 .637-3.719 0-8.072-.85-11.791-.532-1.803-1.912-2.23-1.7-3.505 .212-1.38.426-6.688-1.486-7.858-1.063-.637-1.486.956-1.486.956s-.106-2.125-.849-2.017-1.488-1.488-.426-2.125c1.698-2.017 2.23-7.645 1.486-8.39-.742-.743.532-5.627 1.274-7.221 .744-1.488 1.698-5.946.53-4.99-1.272,1.061.744-5.417.956-6.692 .212-1.274 2.02-5.204 2.762-6.055 .73-.65 4.23-9.36 3.49-12.86z" fill="#cec8b6"/>
  <path d="m172.29,252.26s-.531,2.017.106,4.143 2.124,5.203 1.7,2.546c-.32-2.546.848-4.458.212-3.82s-.956-.746.636-2.021c1.381-1.271 2.549-5.414 3.187-7.326 .637-2.017 1.486-1.912.637.742s-1.379,4.038-1.274,4.994c.107.848.851-2.126 1.382-2.126s-.85,3.292-1.382,4.885c-.424,1.594 1.274-.21 1.7-1.061 .318-.851-.426,3.187-.956,4.143-.426.956 1.7-1.698 1.168.424-.53,2.125.318,2.23-.638,3.4-.956,1.271-.318,2.973.107,3.501s.53,1.17 0,2.34c-.531,1.061 1.486.104 2.017,2.335s.107,3.292 1.486,3.506c1.382.104.638,3.291 1.7,3.82 1.168.532 1.806,1.17 2.124,2.549 .426,1.384 2.23,3.506 1.912,1.594-.318-2.017 2.549,3.505 2.654,1.488 .106-1.488 1.805,1.804 2.975,1.274 1.168-.637 2.018-.851 2.23,0s1.592,1.062 1.91-.532c.426-2.654 1.594.105 1.7-.742s-1.169-3.4 0-2.763 .954,1.912 1.486,2.444c.531.742.424.956.319,1.908-.107,1.064 1.061,2.868 1.274.532 .318-2.44.954,0 1.168-.742 .318-.742 0,3.078.849,2.125 .956-.956 2.442-2.021 2.124-3.081-.212-1.17-.637-3.929.318-2.122 .85,1.698 1.382-1.064 1.487.315 .106,2.553.851-.211 1.486.745 .639,1.062.532,2.441 1.276,1.38s1.38-3.4-1.063-5.841c1.486,1.17 2.866,1.594 2.866,3.716 .106,2.125.213,3.932.213,3.932s-.637-.427-.849,0c-.426.529-1.594-.213-1.912.743-.318.851-.426,1.166-1.38,0-.851-1.275-1.488-.638-1.914-.108-.53.959-3.396,1.915-4.141,1.593-.637-.318-.849-.21-2.23.322-.426.21-.426-.428-1.698-.641-1.274-.315-2.23,0-2.55.213-.425.214-.637.214-1.486-.637-.532.532-2.337,1.593-4.887-1.804-1.061.424-4.778-1.274-5.733-3.187-.956-1.702-2.336-1.488-3.399-4.566-1.379-3.505-3.609-5.099-3.503-7.224-.85-.105-1.382-.424-1.912-2.122-.318.847-.638,1.379-1.274,1.593-.424.105-.424-1.698-1.38-2.763-1.274-1.38.53-2.336-1.594-3.716-.25-.18-.78-7.4.7-10.27z" fill="#cec8b6"/>
  <path d="m218.39,270.53s.849-1.167 1.698,0c.956,1.169 3.929,2.973 4.885,2.339 .426-.214-.742-3.824.107-3.719 1.593,0 2.23,2.657 3.079,3.187 .744.532.426-1.38 1.274-.638 .85.638.531-2.017.319-2.868 0-.955.637.424.956-.423 .425-.746.742,0 .849.742 .107.637 1.063,1.807.956,2.336-.106.637 1.912,1.701 2.336,1.383 .318-.428.744.952.85-.318s.425-2.021.955-2.021c.426,0 .321,1.593.638,1.064 .426-.532.214-2.021.851-2.34 .531-.314-.318-2.017-.637-2.122-.426-.104-1.168.638-1.168.214 0-.427 0-1.702-.532-2.021-.424-.424 1.17-.318 1.486.214 .426.532.638,1.698 1.274,1.698 .532,0 .744.424.85.956 .106.637.214,1.169.744,1.488s.425,2.44.849,1.698c.426-.746.956.848.956-.851 .107-1.59.107-5.096-1.063-6.37-1.062-1.38-3.078-2.763-4.034-2.654-.956.104-2.868-.428-2.868-.108 0,.424-1.805.956-2.655,0-.955-1.062-1.38-2.444.106-1.804 1.382.638 1.912,1.062.956-.108-.956-.952-1.273-1.594-1.486-1.166-.319.318-1.275.742-1.7.424-.317-.424-.636,0-.317.532 .317.424-.532,1.061-1.169.21s-.955-1.38-.424-1.062 1.274,1.062.742-.104c-.424-1.17-.956-2.126-.318-1.807 .744.318 1.699,1.698 2.019,1.379 .104-.318.212-1.166-.85-2.546s-.851-4.247-2.23-5.098-1.486-2.336-1.593-1.488 1.274,2.549.743,2.973c-.531.318-.851.746-1.169-.318-.212-.956-.742-.848-.638,0 .107.851-.53-.315-.53.745s-.424,2.018-.742,1.485 .104,2.444-.426.956-1.063-.638-.956.637c.212,1.275 0,1.808-.53,1.488-.744-.318-1.382-.637-.744.638 .744,1.17.638,1.698 0,1.698s-.53,2.654-1.062.956c-.532-1.807-1.167-1.38-.851.318 .426,1.594 1.17,5.841.956,6.797-.212,1.062-.85,1.062-.85,1.062s-.68,3.19.07,2.34z" fill="#f2ede3"/>
  <path d="m206.6,171.23s2.442,4.566 2.762,6.797c.212,2.23 1.698,2.441 2.019-1.275 .212-3.719 1.486-5.736 1.698-3.505s.53,5.736 3.292,3.715c2.761-2.014 2.23-5.732 3.505-5.2 1.168.529 2.23-2.977 3.187-2.977 1.062,0 1.273-1.061.317,1.488-1.062,2.549-3.504,8.177-3.822,6.688-.212-1.485-1.486,1.064-3.187,1.488-1.806.532-2.018,1.593-2.55,3.824s-3.185,4.99-3.717,3.397c-.53-1.38-1.486-.21-2.229,1.593-.744,1.702 1.168,3.719-.744,4.461-2.017.746-2.973,3.187-.742,2.231s5.204-.743 2.654.956c-2.442,1.807 2.338,2.76 0,4.566-2.23,1.698-5.947,3.187-3.187,3.715s3.506-2.44 3.506.214c0,2.763-2.974,3.505-4.248,4.78s-3.717,2.759-4.248,5.946c-.532,3.295.212,5.841 2.974,3.082s2.973,1.912 3.823-1.274c.636-3.187 1.911-7.011 3.397-7.434 1.488-.532 3.293-2.125 1.807,1.379s-3.505,5.522-3.505,8.285-1.063,4.99-2.231,6.265c-1.274,1.17-2.547,2.763-2.547,6.479s2.547,7.753 1.805,12-.532,8.181.742,9.771c1.168,1.383 2.762,4.675 2.974,6.691s-1.273,4.248-1.806.956c-.424-3.187-1.168-5.735-1.061-3.396 .104,2.44-.318,1.908-.638,1.594-.425-.428-.53-4.676-.956-4.462-.53.315-1.274.424-1.805-2.763-.426-3.292-1.7-6.159-.85-10.831 .85-4.569-.851-11.472-1.912-12.956-.956-1.489-.637-1.912-.532-3.506 .214-.956-.424-6.373-2.123-6.159-.85,0-.955.851-.955.851-.318-1.169-.532-1.807-1.063-1.807s-1.381-.851-.212-2.549c1.274-1.807 2.124-5.522 1.38-7.966-.742-2.336 1.063-6.902 1.594-7.75 .425-.959 1.274-5.207.211-4.461-1.061.848-.104-2.125 0-2.868 .107-.637 1.7-7.01 3.506-9.56 1.7-2.55 3.29-7.65 3.72-10.52z" fill="#aca997"/>
  <path d="m47.296,267.24c0,2.23 2.23,1.383 2.761-1.698 .53-2.974 2.018,3.61 2.761,0 .743-3.506 1.274.848 2.974-2.654 1.805-3.61 2.761-1.38 3.504-3.61 .743-2.126 2.23-4.143 3.186-7.435 1.063-3.295 2.549,1.698 4.036-6.268 1.486-7.964 4.46-14.019 3.717-10.194-.744,3.929-2.231,11.577-1.487,9.347 .743-2.126-1.699,7.963.531,4.458 2.23-3.61-2.23,10.41-.531,8.39 1.805-1.804 6.479-12.315 5.947-9.237-.424,2.973-3.717,15.078-5.204,14.763-1.487-.213-2.761,4.14-3.717,6.902s-3.292,2.76-4.249,5.414c-.955,2.868-6.266,13.064-7.965,14.658-1.805,1.484-2.974,2.973-4.035-.851-.637,1.379-1.487,2.443-2.336-.319-2.23,1.17-3.717-1.807-7.965-10.512-.85-1.808-3.293,1.803-7.859-4.78-1.275-1.804-2.868-9.451-2.018-7.753 1.487,3.292 4.143,3.824 4.567,1.38 .53-2.444 1.805-2.336 1.911-.851 .106,1.593 1.382.321 1.487,1.807s.638,2.336 1.487-.424c.956-2.763 1.912,5.099 2.867,1.061 1.063-3.929 2.336,1.17 2.336-.742s1.274-2.868 1.699-.742c.426,2.21 1.595-.12 1.595-.12z" fill="#df9f37"/>
  <path d="m124.18,202.13c2.975,2.549 2.761,8.496 4.036,9.878 1.169,1.38.425,12.533-.531,10.089-1.063-2.549 0,4.248-.849,6.264-.851,2.126 1.486,7.753-1.912,8.391s-3.08,7.967-3.187,8.604c-.212.743-8.071,21.876-25.488,29.311 22.408-2.231 46.517.108 42.906,8.39-3.612,8.177-3.612,9.027-7.116,9.347-3.505.21-3.717,2.973-6.903,1.484-3.08-1.484-4.992.746-7.54,1.488-3.61,1.062-1.486-2.763-7.328-2.444-4.673.214-5.098-.848-4.991-1.698-7.647.851-39.188,2.654-44.71,2.339-5.523-.213-7.541-1.064-7.435-4.779 .213-3.719 4.142-4.78 5.841-9.771 2.548-1.593 8.283-2.973 9.558-2.125 1.274.745 6.478-1.17 10.938-3.93 4.567-2.654 4.036-8.18 11.47-18.373 7.54-10.194 12.743-17.523 13.063-22.194 .213-4.675 3.93-9.878 3.93-9.133 0,.848 1.805.319 2.548-2.977 .744-3.292 2.443-7.112 2.762-5.204 .744-1.698 2.442-.529 3.717-3.078 1.274-2.444 4.779-2.125 5.735-4.671 .96-2.45 1.48-5.22 1.48-5.22z" fill="#f2ede3"/>
  <path d="m57.704,315.13s7.859,1.274 11.363,1.274c3.61,0 17.841.532 20.709-.105 2.654-.637 5.097-.637 6.371-.746 1.381-.104 1.911,0 3.08-.847 1.062-.743 2.655-1.808 3.929-2.018 1.169-.108 4.78-3.081 6.691-3.933-1.806,0-5.098,1.699-5.628.852s-2.337,1.061-3.081.104c-.424-.742 2.656-2.973 4.354-3.715-1.806,0-6.159,1.38-6.796.956-.531-.424 2.018-.956.212-1.064-2.124-.105-4.461,1.383-6.479.959-1.273-.318.426-1.17.426-1.17s-3.612-.104-4.993-.318c-1.38-.104-.636-.956.32-1.38-2.337.529-5.948,1.062-6.585.315-.105-.21.213-.634.213-.634s-6.797.742-12.744-1.383c1.38-.424 2.867-.529 1.699-.848-1.169-.424-8.815.528-12.001-.638-.424-.213.531-1.38.531-1.38s-1.592,1.594-5.735.953c-4.142-.634-14.974-1.166-10.513-.318 4.354.851 12.744,2.552 11.894,2.976-.849.319-7.115,1.271-9.345.424-2.124-.956 3.504,1.275 6.16,1.808 2.761.528-.743,1.484-3.292.952-2.442-.424.637,1.17 4.673,2.126 4.142,1.061-7.54-.319-2.442,1.274s7.859,2.122 6.479,2.336c-1.381.318-6.585.427-.956,1.379 5.63.97 1.488,1.82 1.488,1.82z" fill="#f2ede3"/>
  <path d="m197.15,225.61s-1.063.742-1.381,4.671c-.424,3.824-1.168,10.089-1.806,10.197-.638.21-1.698.318-1.805-1.593s-.956-.852-1.275,1.274c-.425,2.122-1.38,6.479-1.486,3.291-.106-3.081-.849-5.309-1.381-4.037s-1.912.956-1.592,2.444c.212,1.484-1.063,5.309-.214,4.034 .956-1.274 1.912-3.82 1.806-1.909-.105,2.018 0,4.99.849,3.93 .956-1.17 2.23-2.977 2.55-2.444 .213.638.425-3.187 1.381-2.336 .85.851 1.273,1.38 1.698,0s1.275-3.4 1.594-2.763c.426.638 1.168.851 1.168.851s-.956-3.078-.638-6.373c.21-3.18.84-8.49.53-9.23z" fill="#dad6cc"/>
  <path d="m196.51,251.1s-1.488.528-1.168,3.288c.424,2.763.954,5.207.316,4.993-.742-.318-.637-4.143-1.168-3.399-.53.745 0,4.675 0,4.675s-.956-.532-.956.318 0,1.593-.53,2.23-.212,2.868-.849,2.549c-.638-.427.423,2.655 1.061,3.078 .638.532.85-.423.426-1.698-.531-1.274.956-.637.849-1.912-.104-1.274.956-.637.956-1.698 0-1.169.638-.637.85-1.807 .318-1.061.744-1.274.744-1.274s-1.28-3.09-.53-9.35z" fill="#dad6cc"/>
  <path d="m189.6,270.1s1.168,2.973 1.594,2.549c.53-.532 1.274,2.76 3.079,3.4 1.7.634.319-.214 0-1.488-.425-1.274 1.594-.105 2.231-.532 .637-.318 1.805-.318 2.654.318 .742.638 2.335.956 3.823.638 1.486-.424.105-1.38.636-1.488 .532-.21-.424-1.062-1.272-1.062s-2.124.746-3.08-.634c-1.063-1.277-1.806-.427-2.23.105-.53.742-2.019.742-2.762-.851s-1.063.318-.956,1.166c.212.851-.849.745-1.698-.953-.84-1.83-2.75-3.42-2.01-1.19z" fill="#dad6cc"/>
  <path d="m178.14,179.73c1.063-2.017.53-5.522-.53-4.248-2.762,3.505-2.231.532-1.7-2.23 .425-2.76 0-6.692-2.548-12.001-2.442-5.096 0-20.283 0-22.09 0-1.805 2.336-2.761 2.548-.53 .213,2.337 2.975-1.912 3.293-.424 .212,1.486 1.912-2.019 1.912,1.486s2.017-1.274 2.548-3.505c.425-2.229-1.806-1.486-1.487-3.717 .212-2.337-2.761-2.337-4.777-1.063-2.02,1.276-1.7-2.973-2.762-.742-.956,2.229-2.975-4.248-1.7-6.69 1.17-2.549.426-11.258 2.018-15.719 1.381-4.566 1.913-2.547 4.673-2.547s-.212,2.547 1.488,2.547c1.805,0 3.717-2.015 5.311-6.053 1.486-3.929 2.973-6.69 6.157-7.222 .744-1.273 4.78-.212 5.524,2.232 1.804,3.822 4.99,12 3.504,14.974s0,5.736.744,6.479 1.486,5.522-.214,8.283c-1.698,2.549-1.273-4.036-3.822-.744-2.442,3.187-.744-5.202-2.23-5.734s-2.019,10.728.212,9.663c2.337-.955 3.079,2.761 3.61,1.593 .425-1.273 2.23-2.548 4.675-1.805 2.547.744 0,6.266 1.486,8.497-4.568-1.487-11.577,1.167-12.214,8.07-.531,6.904 2.656,12.321-.319,14.125-2.866,1.699-3.396,3.719-4.034,5.417-.532,1.807-2.549,5.204-2.867,2.017s-2.868,2.868-3.718,5.841c-.85,2.83-3.3,5.81-4.78,5.81z" fill="#efcc6f" stroke="#eac168" stroke-miterlimit="2.4142" stroke-width=".936"/>
  <path d="m231.55,40.391c.85-1.912 5.522-5.417 4.885-5.841-.637-.319-.423-1.274.744-1.912 1.062-.744 1.062-2.125 1.699-3.824 .637-1.592 1.807-3.185 1.593-3.929-.106-.742 1.806-3.929 1.594-2.654-.319,1.273 1.593,1.912.318,3.08-1.168,1.274-.106,1.379-1.168,3.08-1.17,1.593-2.656,4.566-2.337,5.948 .425,1.38-.107,1.593-1.487,3.187-1.379,1.697-2.442,4.248-.956,4.459 1.487.105 1.382.317.638,1.381-.742.955 0,3.822.426,3.184 .53-.636 1.593-.21.742,1.064-.742,1.167-.318,2.229.426,1.486s1.486.424 1.379,1.38c-.104.849 1.7,1.488 2.231.742 .532-.742 2.973-1.486 4.354-1.698 1.381-.107 1.167-.956 2.549-2.868 1.38-2.017 3.08-2.335 3.61-3.396 .426-1.063 2.761-1.7 1.594-1.807s-2.762.744-3.824,2.019c-1.168,1.274-2.442,3.717-3.185,3.292-.744-.531 2.547-4.143 4.141-5.311 1.593-1.061 2.019-2.23 3.291-3.08 1.17-.954 2.976-2.23 3.612-3.292 .638-.956 2.229-1.167 1.38-.106-1.698,2.019.214,1.912.214,2.761s2.335.211 2.442,1.805c.106,1.7 1.593,2.549 2.761,2.549 1.273,0 2.018.531 1.273.851-.742.425-.954,1.38.532,1.273s1.698.849.744,1.7c-1.063.956-1.808,1.486-1.382,2.761 .318,1.274-.956,5.309-1.805,5.309-1.806,0-.426,1.593-1.594,1.169-1.061-.318-2.549,0-2.761,1.063-1.38.105-2.55,1.061-2.124,2.335-1.7.638-2.124,1.487-2.338,2.23s-3.503,2.229-5.203,1.911c-1.806-.424-2.654-.212-3.292.851-.637,1.168-.956,1.487-2.23,2.017-1.274.426-3.398,1.487-1.486,1.698 1.912.321 2.23-.105 2.654.851 .32,1.061.851,1.061 2.019.212 1.274-.956 3.61-1.381 3.398-.424-.212,1.061-.744.849-1.7.849-1.061,0-1.061,1.168-3.291,1.699-2.231.425-2.336,1.381-2.231,1.912 .107.638.212,2.975 1.912,1.7 1.594-1.381-.424,1.486 1.7.424 2.124-.956 2.124.851 3.822.319 1.594-.636 2.656,0 4.036-1.061 1.381-.956 5.415-1.912 4.143-.532-1.275,1.274-3.718,2.125-3.082,2.549 .532.426-1.592,1.487-3.185,1.594s.744-2.336-2.124-1.063c-2.868,1.168-1.063-.212-3.08.639s-2.761-1.064-3.61-.107c-.851.849-1.911,1.061-1.911,1.061l-11.45-37.489z" fill="#df9f37"/>
  <path d="m242.92,80.641s.744,3.187 1.698,2.337c1.063-.851 2.975-1.063 1.808,1.061s-1.487,2.975 1.486.956c.106.744-2.23,2.868-1.168,2.761 1.168-.107.105,1.912 2.654,1.063 2.442-.956 4.143-1.276 2.868-.318s1.486,1.593 3.079,1.167c1.699-.532 1.38,1.805 3.506.743 2.124-1.168 6.265-.636 4.671.213s.319.531 2.02,0c1.593-.531 2.442,1.487 3.821.424 1.382-1.168 2.443,1.7 3.08.744 .744-1.063 1.807,1.486 2.656.53 .85-.849 3.717.956 1.805,1.275-2.019.425-2.549.744.107.744 2.548,0 10.938.106 8.813.636-2.123.532.319,1.274 2.23.851 2.018-.318 4.142-1.486 5.098-2.973 .849.743 1.168,1.061 1.168,1.061s-.955,1.382-2.974,2.019c-1.805.53-1.912.849-2.019.954-.424.32-.954.849-3.928.214-2.975-.532-3.399-.956-7.329-.319-3.822.637-4.459.105-4.991-.425-.638-.531-1.486-.743-3.504-.212-.532.105.105-1.805-1.7-2.337-1.486-.426-3.505-1.487-7.646-1.273s-4.036-.849-6.055-.214c-1.698.639-3.928-.635-5.204-.849-1.272-.318-5.309-.212-6.053-.105 .18-4.036-.03-10.728-.03-10.728z" fill="#b37924"/>
  <path d="m186.21,41.878c-2.442,1.381-5.841,4.461-5.841,10.195 0,3.61 3.717,5.204 5.522,5.841s2.868,1.593 4.885,4.673c2.019,2.973 7.965,11.47 11.363,14.231 3.293,2.654 13.488,13.806 16.25,16.248 2.973,2.549 4.035,2.124 4.673,3.398s8.071,7.114 12.743,5.204c4.566-1.805 8.602-4.459 7.646-19.542-1.062-15.08-4.142-16.248-4.036-23.47 .106-3.292-6.265-17.098-8.814-20.71-2.549-3.503.956-.954 0-4.141-1.061-3.08.532-3.08-.849-5.734-1.274-2.549.318-.849.53-3.187 .318-2.335-2.336-7.541-4.46-8.92s3.08-4.461 7.858-5.948 5.629-8.177 9.347-6.158 9.981.424 9.981.424-.742-2.017-4.778-2.549c-3.929-.425-5.629-2.335-9.453-.107-.954-.954-1.803-2.335-5.627-.635-1.594.635-3.61.424-5.311,1.91s-1.594,2.444-3.61,1.807c-1.7-.532-3.931.319-4.568.531-.849.212-16.46,6.797-20.07,10.726-3.61,4.036-6.267,6.797-6.055,9.346-1.167,1.167-6.371,5.309-5.841,10.726 .21,3.502.42,4.776-1.49,5.839z" fill="#d58e36"/>
  <path d="m219.66,15.646c-1.91-1.063-2.866-2.336-6.053-1.168-3.291,1.168-7.434,1.487-8.602,3.505-1.275,2.017-7.435,4.778-9.559,7.54-2.124,2.654-5.309,4.036-5.099,7.434 .32,3.398 3.187,1.168 1.7,4.99-1.593,3.826 1.594,1.7 3.718-3.715 2.123-5.522 5.098-7.115 7.752-7.966 2.55-.954 3.822-2.336 5.416-3.292 1.7-.956 6.373-.105 9.665-2.336 3.187-2.23 5.311-2.019 6.479-2.335 1.063-.426.637-1.7-1.7-2.019-2.44-.426-3.19-.426-3.72-.638z" fill="#df9f42"/>
  <path d="m210.63,25.311c-2.338,1.593-5.311,10.3-5.311,14.229 0,4.036-.956,12.002-1.912,13.489-1.061,1.486-2.868,4.034-2.548-.744 .212-4.671-.744-12.212-2.019-9.24-1.274,2.975-3.503,4.78-2.761,1.275 .744-3.505.53-4.78-1.168-3.717-1.806.956-3.505,1.698-1.594,5.204 2.02,3.505 8.072,14.764 9.771,17.736s6.479,4.248 7.223,1.275c.742-3.08-.426-14.764-1.487-20.498-.956-5.734 0-11.468 2.55-14.02 2.44-2.442 1.168,0 0,3.293-1.276,3.292.53,16.248 1.91,19.435 1.593,3.292 2.549,14.018.53,15.504-1.91,1.486-2.44,4.461.744,9.771 3.294,5.204 11.045,12.957 15.188,14.657 4.247,1.804 12,5.521 12-5.948 0-2.019-1.274-1.063-2.442.955-1.274,2.019-3.717.532-4.249,1.807s-2.76-3.824-4.778-2.975c-2.017.742-3.187-5.522-1.274-4.034 2.019,1.486 7.541,4.248 9.558-.214 1.912-4.566 2.23-6.266.532-11.046-1.807-4.671-1.593-11.468-3.293-9.982-1.806,1.486-5.734,2.23-6.265,3.719-.532,1.592-3.506,2.015-5.417,0-2.018-1.914-4.992,1.061-5.522-4.887-.53-6.053 1.698-6.266 2.23-3.08 .53,3.293 3.929,6.266 6.797,5.311 2.654-1.063 5.415-3.505 7.221-2.549 1.7.956 3.398,2.019.956-2.549-2.548-4.459-4.992-8.708-7.009-14.869-2.018-6.265-5.734-9.556-5.734-12.319 0-2.654-.532-5.416 1.273-3.929 1.699,1.486 3.823,3.612 3.293,2.019-.744-1.7-.956-3.08-1.7-4.036s-.637-2.019.214-.956c.954.956 2.761,3.61 1.91,1.486s-1.698-4.036-.636-2.761c1.168,1.274 1.273,0-.106-1.38s-1.487-.32-1.594.105c-.106.532-1.593-1.168-1.593.107s.318,2.761-.744,2.124c-1.168-.53.106,2.017-1.806,1.063-1.912-1.063-2.229,1.805-3.61.742-1.38-1.167-1.168-1.381-3.717-1.381-2.65.001-3.61,1.808-3.61,1.808z" fill="#df9f42"/>
  <path d="m241.75,43.788c1.487-3.08 2.762-9.982 7.541-10.194 4.672-.318 7.858-.106 7.965-2.124s.531-1.912 1.168-.958c.638.851 2.442.958 1.168,1.593-1.168.639-1.912,1.593-2.336,1.382-.32-.212-.956,1.063-2.019.532-.956-.744-1.063,1.912-2.23.847-1.168-1.168-1.486,1.064-2.442.32-1.062-.744-2.974.744-3.292,2.017-.212,1.274-.956,5.416-.956,3.824 0-1.488-1.274,3.08-1.7,2.017-.316-.956-2.123,2.124-2.123,1.7-.01-.531-2.24,2.338-.75-.956z" fill="#df9f37"/>
  <path d="m267.03,65.136c1.168-1.593 3.505-4.248 3.185-5.524-.212-1.167-.742-4.036-1.486-2.761-.742,1.17-2.23,2.551-2.124,1.487 .106-1.168-.318-.955-.849-.107-.531.746-1.699.746-.638-.954 1.168-1.593 2.124-3.187 2.124-2.442s.744.318 1.381-1.168-.849.317.105-2.124c.956-2.335 1.274-5.522 1.807-3.929 .424,1.486 1.486-2.551 1.273.849-.317,3.398-1.594,4.992-.531,4.778 .956-.318.531,1.912.531,3.293s1.593-1.486 1.593-.213c0,1.168-.742,2.656.106,2.868s.424,1.805.107,2.868c-.426.954.849,1.273 2.017,1.061 1.062-.107 2.338.425 2.124,1.168-.318.744-1.486.958-2.973.744-1.594-.212-2.654.849-2.55-.638 .105-1.486-.425-1.274-.849-.213-.426.958-1.382,2.656-1.912,1.7-.53-.849-.638-.319-1.274.319s-2.98,1.381-1.17-1.062z" fill="#df9f37"/>
  <path d="m264.9,66.411c.638-1.381-.426-.851-1.382,0-1.06.847.74,1.38 1.38,0z" fill="#df9f37"/>
  <path d="m262.03,66.516c.426-.53-.849-.744-1.381.214-.53.849.64.635 1.38-.214z" fill="#df9f37"/>
  <path d="m273.4,27.328s-.424,4.673.214,5.417 5.522,5.202 6.479,6.583c-2.338-.956-7.33-2.017-8.816-3.717-1.593-1.805-3.291-2.866-3.717-5.311-.53-2.335-3.187-6.051-2.654-4.248 .53,1.912-.426,1.7-1.382.212-1.061-1.486-2.335-2.547-3.503-2.761-1.168-.318-1.382-1.698-1.912-2.547-.426-.851-.956.318-1.486-.851s-2.02-1.698-2.444-3.185c-.53-1.486-.212,1.063-1.273.107-1.063-1.063-2.761-.425-3.505-1.805s-4.78-4.887-2.761-3.719 3.291,1.486 2.23,0c-.956-1.486-2.55-2.973-2.23-2.229 .425.743.425,1.061-1.168-.213-1.7-1.38-3.08-2.654-2.124-2.336 .849.424 2.866,1.805 2.549,1.275-.213-.531 1.273.212 2.654,1.486s1.806,3.187 2.762,2.975c.849-.106 1.593,1.38 1.593,1.38s.319-1.063-.53-2.124c-.851-.956-1.488-1.807-2.124-2.336-.532-.532-.851-2.868.105-1.274 1.063,1.698 2.868,2.017 3.187,3.29 .212,1.276 1.594,2.337 1.486,3.612s1.91,1.593 2.124,2.761c.212,1.061 1.593,1.807 1.486.849-.106-1.061.956.318 1.486,1.381 .531.956 1.487,1.805 1.275.744-.212-1.168 1.486,1.273 1.169,0-.214-1.275-.851-1.488.954-.214 1.7,1.168 2.974,2.549 2.974,3.398 0,.956 1.488,1.275.639,1.807s.424,1.273.742,2.122c.212.851.85.744 1.275-.53 .318-1.275 1.698-.212 1.698.637s.744,1.168.956.212c.3-.848 1.58-.848 1.58-.848z" fill="#df9f37"/>
  <path d="m231.55,25.311c1.168-.532 0,2.335.85.742 .851-1.381 1.486-5.841.426-6.902-1.168-1.168-1.382-2.656-1.488-1.807-.211.958-1.38-1.91-1.273-.954 .105.848-.744-.639-1.274-1.593-.53-1.063-1.063-.319-1.486-.319-.426,0-.852,1.699.53,2.231 1.38.635 2.124,2.017 2.549,3.715 .531,1.593 2.018,3.505 1.168,3.505s-.54,1.7-.01,1.382z" fill="#df9f37"/>
  <path d="m234.63,23.399c.956-1.168.424-2.124-.426-1.381-.954.744-1.168,3.719-.53,3.505 .65-.319.33-1.38.96-2.124z" fill="#df9f37"/>
  <path d="m235.38,20.424c.53.851.317,2.656.212,3.293-.212.637.849.106.956-.638 .104-.744 1.593-.849 2.017-2.23 .319-1.38 1.486-.105 1.912-1.168 .53-.956 1.168-.956 1.486-.53 .214.318 1.063.744 1.382-.637 .212-1.382.105-1.487-.214-2.763-.212-1.273 0-2.229 0-2.229s1.382,0 2.55.85c1.063.851 2.761,1.912 1.486.212-1.273-1.594.214-.955-.742-1.806s-1.17-1.591-2.231-1.91c-1.167-.213-1.911-.106-2.549-.851-.638-.743.106,1.486-.954.637-1.17-.849-1.594.532-2.444-.425-.742-.848-1.806-1.062-1.272-.319 .423.744-.321.744-1.17.319-.85-.319-5.522-1.592-5.204-.848 .212.742 3.398.848 4.354,1.805 .85.849 1.063-.532 1.806.317s.956-.529 1.7.744 1.805.425 2.23,1.486c.316,1.168-.64,1.382.316,2.231 1.063.956.214.744-.53,1.063-.53.21-1.593,1.804-1.805.531-.426-2.549-2.55-2.975-3.08-4.248-.638-1.167-1.912-.532-2.761-.956-.956-.319-4.036-.744-4.036-1.38s-3.294.422-1.7.743c1.594.425 3.505,1.805 3.931,1.379 .53-.319 1.168.744 1.698.213 .426-.425 1.063-.213 1.168.744 .106.848 1.168.317 1.274,1.38 .107.956 1.808,2.336 1.382,3.292s-1.168-.956-1.168-.319c-.02.532-.02,2.018-.02,2.018z" fill="#df9f37"/>
  <path d="m247.06,20.531c0-1.379.105-2.017.638-.635 .424,1.379 1.168,1.486.956.317-.214-1.061.849,1.805 1.061.744 .319-.956.85.318 1.168.742 .426.532 2.55-.106 2.019,1.275s.105,1.912.638,2.124c.424.214-1.274.532-.426,1.381s.426,1.699-.849.426c-1.274-1.381-1.912-.639-2.124-1.912s-1.7-.742-1.594-2.23-.849-2.017-.956-1.38c-.22.635-.54-.852-.54-.852z" fill="#df9f37"/>
  <path d="m243.02,51.222c.53.746.637.746 1.591.107 1.063-.636 2.444.639 3.294.107s2.124.637 2.654,1.274c.426.53 3.931,1.061 6.371.53 2.55-.637 4.78-2.337 4.994-1.698 .423.955 1.91-1.7 1.805-.744-.106,1.063.105,1.063-.851,1.592-.954.639-1.594,1.169-1.698,1.807-.212.638-2.443,1.38-2.974,2.337-.425.955.424-.213 1.273-.425 .851-.319 1.7-1.381 2.867-1.168 1.275.212 1.063-1.169 1.912-1.169s2.124-2.868 1.912-5.204c-.318-2.336 1.594-1.698-.637-2.866-2.231-1.063-1.806-1.593-1.912-2.336-.107-.746-.107-1.169-1.275-.532-1.063.638-1.805-1.486-3.079-1.912-1.168-.319-4.778,1.593-3.824,1.805 1.063.213 2.019-.531 4.036.744 1.063.742-.636.637-1.594.424s-3.503-.85-5.203.958c-1.168,1.274-4.99,3.185-4.142,4.248 .85,1.168 3.93,2.868 6.16,2.229 1.698-.531 3.185.319 5.203-1.487 2.02-1.912 2.124-1.912 1.699-.849-.531.956-1.487,1.7-2.336,1.7s-2.55,1.592-4.141,1.168c-1.594-.532-3.612.742-4.886-.744-1.276-1.593-2.019-1.91-2.656-1.275-.84.637-3.18-.426-4.56,1.379z" fill="#b37924"/>
  <path d="m252.16,46.232c1.487-1.063 3.187-2.124 4.248-1.805 .956.318 2.124.425 2.868.425 .956.105 1.168,1.274 1.593,1.803 .743.958.531,1.593.107,1.7-.744.212-1.275,1.698-2.762,2.124-.744.213-1.7.424-2.763.424-.85.106-2.017.106-2.229.106-1.17-.106-1.487-.53-2.126-1.061-.53-.425-1.061-.742-1.061-1.381-.01-.636.74-1.485 2.12-2.335z" fill="#090401"/>
  <path d="m256.83,46.232c-.85-.105-2.124.638-1.698,0 .53-.744 1.272-.744 1.803-.53 .33.105 1.39.742-.1.53z" fill="#b5b2a6"/>
  <path d="m251.42,42.196s3.929-3.398 4.885-3.398c.85,0 1.912-1.698 2.55-1.273 .636.529 2.76,1.38 3.185,2.866 .318,1.275-.637.531-1.168-.212s-1.805.636-2.442-.106-1.7-.426-2.868.106c-1.28.529-3.08,2.017-4.14,2.017z" fill="#b37924"/>
  <path d="m276.9,53.455c0,2.122.531,7.327 2.55,9.556s-.851,5.311-.638,7.009c.319,1.807-.849,5.099-7.434,6.055-6.69.851-14.657,5.627-3.718,6.904 10.938,1.168 19.966.742 26.019-2.124" fill="none" stroke="#e7b84f" stroke-linecap="round" stroke-linejoin="round" stroke-miterlimit="2.4142" stroke-width="1.656"/>
  <g fill="none">
   <path d="m276.48,52.39c0,1.276.637,2.232.956,4.887 .318,2.547 2.124,4.354 2.761,6.266 1.488,2.443-.425,5.309-.849,7.328-.531,2.124-2.762,4.778-8.709,5.734s-12.213,4.887-2.866,5.947c12.319,1.487 21.026.426 26.229-2.124" stroke="#eac369"/>
   <path d="m275.95,51.329c.318,1.486 1.274,1.807 1.593,5.522 .318,3.08 3.292,4.566 3.398,7.223 .956,2.549.105,5.417-1.169,7.753-1.38,2.337-4.566,4.354-9.876,5.416-5.31.956-9.664,4.036-1.911,4.992 13.594,1.7 21.877.107 26.337-2.229" stroke="#ecce87"/>
   <path d="m275.52,50.268c.32,1.805 1.807,1.486 2.124,6.16 .32,3.717 4.461,4.885 4.143,8.176 .318,2.654.53,5.522-1.487,8.072-2.23,2.761-6.478,4.143-11.15,5.097-4.674,1.063-7.221,3.293-1.063,4.036 14.869,1.912 22.94-.212 26.657-2.229" stroke="#ecd8a3"/>
   <path d="m275.2,49.1c.318,2.229 2.23,1.274 2.549,7.009 .318,4.141 5.522,4.99 4.78,8.921-.214,2.868.954,5.734-1.808,8.495-2.973,3.08-8.283,3.717-12.317,4.887-4.037,1.061-4.673,2.442-.106,3.08 16.142,2.122 23.895-.532 26.762-2.231" stroke="#efe3c4"/>
  </g>
  <path d="m274.78,48.038c.424,2.549 2.866.956 3.079,7.646 .212,4.78 6.69,5.205 5.416,9.876-.742,2.973 1.381,5.841-2.018,8.921-3.823,3.398-10.195,3.398-13.594,4.459-3.398,1.169-2.123,1.7.744,2.125 17.416,2.336 24.851-.744 26.975-2.23" fill="none" stroke="#f2ede3" stroke-linecap="round" stroke-linejoin="round" stroke-miterlimit="2.4142" stroke-width="1.656"/>
  <path d="m291.24 81.702s4.777-2.336 6.901-4.141c2.018-1.7 5.841-4.248 7.328-5.948" fill="none" stroke="#b4ae94" stroke-linecap="round" stroke-linejoin="round" stroke-miterlimit="2.4142" stroke-width="1.224"/>
  <path d="m291.24 81.702s4.777-2.336 6.901-4.141c2.018-1.7 5.841-4.248 7.328-5.948" fill="none" stroke="#b4ae94" stroke-linecap="round" stroke-linejoin="round" stroke-miterlimit="2.4142" stroke-width="1.224"/>
  <path d="m293.26,79.898c1.594-.744 4.566-2.868 7.009-4.673 2.336-1.7 5.097-3.398 5.841-4.78" fill="none" stroke="#f2ede3" stroke-linecap="round" stroke-linejoin="round" stroke-miterlimit="2.4142" stroke-width=".792"/>
  <path d="m253.96,20.85c4.779,4.248 4.991,8.39 7.327,9.77 4.462,2.656 2.975,6.692 5.948,8.178 2.973,1.593 1.063,3.503 5.521,5.522 2.762,1.274.426,3.505 3.506,5.948 2.973,2.547.212,7.009 3.504,9.239 3.187,2.23 4.249,4.566 3.505,6.265-.85,1.807.744,4.992-.53,7.011s-4.566,4.036-9.984,4.99c-5.521.956-9.981,2.549-4.777,3.293 5.203.636 21.133,2.442 27.823-2.549s16.143-10.195 10.409-12.531c-5.736-2.231-3.292-2.975-2.231-4.248 .956-1.167-1.061-1.7-2.761-1.167-1.806.423.424-2.232-2.018-3.293-2.549-.956-4.249-3.822.212-4.248 4.886-.319 5.416-1.807 8.07-2.975-6.265-3.185-9.663-2.973-13.062-4.885-5.311-2.973-8.815-1.804-14.125-5.841-3.611-1.487-10.302-2.973-12.53-6.583s-4.462-4.248-5.311-6.055c-.744-1.698-1.063-2.547-3.931-3.929s-4.034-2.549-4.885-3.61c-.85-1.169-3.29-1.594.32,1.698z" fill="#f2ede3"/>
  <path d="m294.11 80.748s6.585-2.868 9.346-5.734" fill="none" stroke="#807462" stroke-linecap="round" stroke-linejoin="round" stroke-miterlimit="2.4142" stroke-width="1.8"/>
  <path d="m277.01,43.471c-4.143-3.931-7.541-4.992-9.135-6.904-1.593-1.805.638-1.168 2.124-.212s9.135,3.185 10.091,4.248c1.061.956 8.495,3.292 9.981,3.505 1.486.105 5.099,2.441 9.027,3.292 3.824.956 6.585,2.017 6.585,2.017s-2.23.532-4.143,1.7c-.637.319-4.566,2.019-6.371.851-2.55-1.914-4.992-4.25-8.497-4.887-3.4-.637-6.9-.954-9.66-3.61z" fill="#fff"/>
  <path d="m290.82,81.915c.956-.213 2.124-.849 2.549-1.167" fill="none" stroke="#b4ae94" stroke-linecap="round" stroke-linejoin="round" stroke-miterlimit="2.4142" stroke-width="1.224"/>
  <g fill="none">
   <path d="m290.28,81.809c1.272-.212 2.654-1.061 3.079-1.275" stroke="#c0bba1" stroke-width="1.152"/>
   <path d="m289.75,81.702c1.488-.21 3.187-1.061 3.611-1.38" stroke="#cdc6b0" stroke-width="1.008"/>
   <path d="m289.22,81.597c1.806-.319 3.822-1.168 4.248-1.381" stroke="#d9d4c0" stroke-width=".936"/>
   <path d="m288.69,81.492c2.018-.319 4.353-1.276 4.778-1.487" stroke="#e5e0d1" stroke-width=".864"/>
  </g>
  <path d="m288.16,81.278c2.338-.212 4.885-1.273 5.311-1.486" fill="none" stroke="#f2ede3" stroke-linecap="round" stroke-linejoin="round" stroke-miterlimit="2.4142" stroke-width=".792"/>
  <g fill="none">
   <path d="m292.62,80.534c.956-.424 4.142-2.335 6.265-4.034 .32-.213.638-.425.958-.639 2.229-1.804 5.097-3.609 6.053-4.99" stroke="#dbd7c6"/>
   <path d="m291.98,81.066c.425-.212 4.459-2.337 6.585-4.036 .212-.212.53-.425.849-.744 2.229-1.593 5.098-3.61 6.267-4.99" stroke="#cac3ab"/>
  </g>
  <path d="m291.24 81.702s4.777-2.336 6.901-4.141c2.018-1.7 5.841-4.248 7.328-5.948" fill="none" stroke="#b4ae94" stroke-linecap="round" stroke-linejoin="round" stroke-miterlimit="2.4142" stroke-width=".792"/>
  <path d="m291.77,81.702c7.009-4.248 13.806-9.345 14.974-12.211s.212-3.08-1.594-3.825c-1.698-.743-3.398-1.699-2.124-2.973 1.168-1.168 2.124-2.868-1.911-2.122-1.911.318.744-2.125-2.124-3.4-3.93-1.698-2.336-3.929-.531-3.929 3.08-.211 5.63-3.08 7.858-3.398" fill="none" stroke="#b4ae94" stroke-linecap="round" stroke-linejoin="round" stroke-miterlimit="2.4142" stroke-width="1.224"/>
  <path d="m277.01,84.781c-2.868-.105-6.267-.105-6.904-1.167-.637-.955-1.486-.743-2.123-.212-.638.425-3.398.425-3.93-.107-.637-.636-1.7-3.29-3.717-2.441-1.912.848-3.612.319-4.568-.744-.956-.956-2.335-.956-3.291-.212-.85.743-2.229-.532-2.762,0-.744.531-3.398,2.761-1.486,2.017 2.019-.742 3.822-1.167 2.866.107-.848,1.273-1.38,3.929.214,2.124 1.593-1.912 2.973-1.487 2.23-.532-.744,1.063-1.7,3.187.424,1.488 2.125-1.593 3.08-1.381 2.549-.213-.53,1.063.638,1.593 1.275.851s.955,1.167 2.017.212c.956-.85 3.293-.744 2.337.211-.955.851 0,2.656 2.55,1.487 2.654-1.168.956,2.444 3.185.958s3.93-1.274 2.974-.639c-.955.639-.212,1.807 1.911,1.381 2.124-.319 3.612-.531 3.292.106-.21.744 2.126-.32 2.444,0 .212.424 1.805,1.061.956,2.017-.851,1.063 0,1.593 1.168.531 1.063-1.168 2.761-.956 2.442-.107-.212.851 1.274,1.169 2.654,1.064 1.382-.107.956,1.698 3.505,1.38 2.55-.212 3.398.106 4.248-1.168-1.91-2.762-10.41-7.753-16.46-8.392z" fill="#080401"/>
  <path d="m300.9,65.986c.956-.32.318-1.063-.744-.85-.96.319-.42,1.38.74.85z" fill="#aca997"/>
  <path d="m297.19,66.304c.744-.318.212-1.168-.744-.532s-.43,1.063.74.532z" fill="#aca997"/>
  <path d="m294.32,66.94c.106-.636-2.231.107-2.018.639 .32.423 1.91,0 2.02-.639z" fill="#aca997"/>
  <path d="m291.56,67.791c.214-.532-1.486-.106-1.486.319 0,.53 1.27.211 1.49-.319z" fill="#aca997"/>
  <path d="m291.24,70.233c.635-.425 1.061.212 1.061.212s1.594.639 2.55-.531c.954-1.168 1.591-.53.637.531-1.063.956-1.593,1.7-1.912,1.061-.425-.636-1.274.639-1.593,0-.43-.635-2.66.107-.75-1.273z" fill="#aca997"/>
  <path d="m297.19,70.02c.531,0 1.168.426 1.487-.317 .425-.744 1.486-.744 1.063.212-.531.956-1.063,1.169-1.912.956-.86-.107-1.81-.851-.64-.851z" fill="#aca997"/>
  <path d="m301.12,68.747c-.319-.956 1.699-1.807 1.699-.956s-1.6,1.486-1.7.956z" fill="#aca997"/>
  <path d="m303.66,67.684c.212-.637 1.912-.637 1.382.106s-1.59.957-1.38-.106z" fill="#aca997"/>
  <path d="m287.95,73.207c.744-.212 2.124-1.38 1.274-1.7-.849-.21-2.761.851-2.549,1.381 .318.532-1.806,1.063-.85,1.486 .96.532 2.55-.317 2.13-1.167z" fill="#aca997"/>
  <path d="m289.65,74.057c0-.958 2.124-.637 2.336.107s-2.34.849-2.34-.107z" fill="#aca997"/>
  <path d="m292.73,73.632c.212-.637 1.168-.107 1.486-.425 .212-.424.956-.531.849.213s-.849.212-1.167.744c-.43.529-1.49.21-1.17-.532z" fill="#aca997"/>
  <path d="m296.55,73.42c-.107-.849 1.593-1.275 1.593-.532s-1.48,1.805-1.59.532z" fill="#aca997"/>
  <path d="m289.22,68.428c.105-.744-1.911-.426-1.698.212 .32.637 1.6.53 1.7-.212z" fill="#aca997"/>
  <path d="m286.67,68.64c.106-.743-2.336.106-2.23.744s2.13,0 2.23-.744z" fill="#aca997"/>
  <path d="m299.1,72.888c.318-.956 1.486.425 1.806,0 .425-.317-.85,1.276-1.487.851-.64-.319-.32-.851-.32-.851z" fill="#aca997"/>
  <path d="m301.33,72.039c0-.849 1.594-.638 1.594-1.38s1.592.848.637.848c-1.28-.001-2.34,2.657-2.23.532z" fill="#aca997"/>
  <path d="m304.41,70.445c-.214-.743 1.38-1.912 1.698-1.275 .21.638-1.49,1.914-1.7,1.275z" fill="#aca997"/>
  <path d="m282.11,70.764c-.424-.744.956-1.486 1.38-.637 .32.957-1.07,1.274-1.38.637z" fill="#aca997"/>
  <path d="m281.68,71.932c-.426-.319-2.975.213-2.337.744s1.274,0 1.593.212c.43.319 1.49-.531.75-.956z" fill="#aca997"/>
  <path d="m297.19,74.8s-1.168,1.381-1.698,1.061c-.637-.212-1.169,1.488-1.912,1.276s-2.019-1.276-2.335-.319c-.426.849-1.276-.637-2.02.107s-3.822,1.273-2.549,1.591c1.381.424 2.442-.744 2.761-.105 .426.636 1.594-.744 1.808-.107 .104.636.954.743 1.379.212 .319-.53 1.275.212 2.442-.849 1.17-1.167 3.29-2.974 2.13-2.867z" fill="#aca997"/>
  <path d="m280.3,75.225c.638-.425.424.318 1.806-.425-.424.532 0,1.486.744.532 .742-.851.956.423 1.698.317 .851-.105 1.274,0 1.382.851 .742-.318 1.168.319.316.85s-1.698-.319-2.229.105c-.638.532-1.063-.955-1.912-.529-.85.317-1.382.105-1.382-.639s-.742-.531-1.486,0l1.06-1.062z" fill="#aca997"/>
  <path d="m284.12,79.047c-.637.318-1.061.851-2.547.851s-1.382-.958-.852-.744 1.594.107 2.231-.53 1.71,0 1.17.423z" fill="#aca997"/>
  <path d="m279.24,79.261c-.849.531-1.38-.532-2.549.212-1.062.849-2.124-1.7-.954-1.486 1.167.318.849,1.593 2.761.318 1.8-1.38 1.59.424.74.956z" fill="#aca997"/>
  <path d="m249.18,7.149c-.638-1.273-.956-1.486-1.594-1.168-.743.214-2.975-.742-3.505-1.593-.53-.635-.956-.954-2.336-1.379-1.381-.531-2.654-.956-1.805-.319 .849.744 2.124.531 2.654,1.38 .744.851 1.912,2.551 2.975,2.337 1.168-.319 1.806,2.23 2.973,1.805 1.18-.424.65-1.063.65-1.063z" fill="#df9f37"/>
  <path d="m235.59,5.239c1.168.212 2.973.107 3.185.53 .426,1.275 1.594-.106 2.55,1.168 .425.744 1.488.426 1.274-.212-.106-.637-1.806-.53-1.91-1.486-.214-1.063-2.656-1.698-1.914-1.063 .638.744 1.7,1.063 1.17,1.38-.638.32-1.063-.742-2.23-.742s-3.72.318-2.13.425z" fill="#df9f37"/>
  <path d="m218.92,11.396c-3.505.321-4.461-.529-2.549-.635 1.805-.107 1.168-.956 0-.956-1.273,0-2.018-1.912.318-1.593 2.442.425 2.868,1.274 3.824-.105 1.061-1.382 1.274-2.126 2.549-2.231 1.273-.107 4.354-.213 2.44.425-2.017.636-4.564,1.168-3.503,1.699 .956.53 5.097-.212 4.779.637-.213.849-6.373-.53-6.585.956-.212,1.593 3.398.53 3.718,1.168 .41.635-3.94.531-5,.635z" fill="#df9f37"/>
  <path d="m147.23,173.36c.744-1.169 1.063-2.234 1.063-3.933 .106-.637-2.866.746-2.443.319 1.38-.956 2.443-2.441 2.443-3.821 .106-2.234-4.248-.427-1.912-2.763 2.763-2.654.532-6.691-.212-10.513-1.806-9.134 7.327-39.4 12.742-45.455 5.524-5.948 6.799-21.452 10.517-24.639 3.717-3.292 3.291-7.22 3.291-7.22s-.212.211-.425.423c-.531.956-1.806,2.868-4.248,3.398-4.143.851-3.187,1.806-5.841,2.868-.638.319-2.973,1.061-5.417,2.017-1.804.637-4.034,1.274-6.477,2.335-3.294,1.275-5.522,2.232-8.709,3.931-7.009,3.717-8.815,6.797-11.259,9.026-5.947,5.417-12.531,9.878-17.311,12.426-1.699.956-4.141,2.442-4.354,2.549-5.098,2.23-6.267,6.16-9.134,8.388-10.62,8.285-12.426,10.196-14.443,11.896-7.328,6.692-10.514,10.939-14.974,18.055-2.974,4.778-7.116,13.063-11.257,20.71h73.172c0-.108 0-.108.107-.108 .104-.105.316-.105.424.108h14.66z" fill="#23140f"/>
  <path d="m58.872,173.36c-3.08,5.522-6.161,10.726-8.921,13.485-11.151,11.577-15.081,42.588-16.568,47.474 0,0-3.292,9.979-3.504,13.166 0,0-.106.852-.849,1.17 0,0-12.745,10.299-14.975,12.001 0,0-7.115,5.945-9.558,10.831 0,0 7.222-7.112 8.497-7.221l-2.125,2.973s4.143-3.292 4.886-3.716 8.814-6.478 1.38,1.062c0,0 13.063-7.539 7.752-1.485l-1.38,1.59s2.655-2.335 3.611-2.122c1.062.105 1.487.848 1.912.956 1.486.638 1.698-2.763 1.698-2.763-.212-2.227.956-4.779 1.699-10.726 .744-5.841 5.311-9.771 5.948-12.211 .638-2.339 1.381-2.657 1.168-1.383-.106,1.383 2.655-1.274 4.567-5.946 1.805-4.675 1.805.105 2.336-2.126 .53-2.122 1.592-4.461 2.124-4.885s1.911.109 1.911.109-.212-1.702.425-1.064c.636.532 3.823-.743 3.823-.743s1.487-.637 1.699-1.488c1.487.427 5.417-.956 5.417-.956s-2.655.532-4.46,0c2.124-.742.956-2.017 3.398-1.698 2.443.532 4.143-1.169 4.143-1.169s-1.169,0-2.656.427c-1.486.424 1.913-2.336 2.974-3.082 1.169-.634 2.656-1.593 1.912-1.38-.743.319-2.124-.105-2.124-.105s2.973-1.274 4.992-2.23c-3.505.529-1.7-.424.106-1.38 1.911-.956 5.735-3.505 7.433-3.719 1.593-.105 1.169-3.61 2.231-2.23 .956,1.274 6.69-2.76 7.858-2.973 1.062-.105 3.186-2.654 4.673-3.824-1.167,2.125.637,1.699 3.505.851 9.877-2.868 12.744-.746 14.762-.956 4.248-.424 3.08,2.017 4.46,2.23 1.381.105 4.249-2.02 4.249-1.169s-.638,2.336-.638,2.336 1.806-2.122 1.382-.953c-.319,1.271.104,2.441.849,1.485 .85-.956 2.018.851 3.187,2.335 2.124.638 3.61,8.18 3.61,8.18s7.009,3.929 3.718-9.773c-3.187-13.38-1.806-24.957.637-27.184h-73.178z" fill="#23140f"/>
  <path d="m132.58,173.36c.532,1.061.532,6.475 1.486,5.309 2.019-2.444 2.442-2.973 3.293-2.549 2.018,1.169 6.053,2.336 8.072-.318 .742-.956 1.272-1.699 1.803-2.441h-14.65z" fill="#23140f"/>
  <path d="m30.728,260.76c-.212-2.227.956-4.779 1.699-10.726 .744-5.841 5.311-9.771 5.948-12.211 .638-2.339 1.381-2.657 1.168-1.383-.106,1.383 2.655-1.274 4.567-5.946 1.805-4.675 1.805.105 2.336-2.126 .53-2.122 1.592-4.461 2.124-4.885s1.911.109 1.911.109-.212-1.702.425-1.064c.636.532 3.823-.743 3.823-.743s1.487-.637 1.699-1.488c1.487.427 5.417-.956 5.417-.956s-2.655.532-4.46,0c2.124-.742.956-2.017 3.398-1.698 2.443.532 4.143-1.169 4.143-1.169s-1.169,0-2.656.427c-1.486.424 1.913-2.336 2.974-3.082 1.169-.634 2.656-1.593 1.912-1.38-.743.319-2.124-.105-2.124-.105s2.973-1.274 4.992-2.23c-3.505.529-1.7-.424.106-1.38 1.911-.956 5.735-3.505 7.433-3.719 1.593-.105 1.169-3.61 2.231-2.23 .956,1.274 6.69-2.76 7.858-2.973 1.062-.105 3.186-2.654 4.673-3.824-1.167,2.125.637,1.699 3.505.851 9.877-2.868 12.744-.746 14.762-.956 4.248-.424 3.08,2.017 4.46,2.23 1.381.105 4.249-2.02 4.249-1.169s-.638,2.336-.638,2.336 1.806-2.122 1.382-.953c-.319,1.271.104,2.441.849,1.485 .85-.956 2.018.851 3.187,2.335 2.124.638 3.61,8.18 3.61,8.18s7.009,3.929 3.718-9.773c-3.187-13.699-1.7-25.591.744-27.292 1.061-.743.742,6.797 1.91,5.417 2.019-2.444 2.442-2.973 3.293-2.549 2.018,1.169 6.053,2.336 8.072-.318 1.91-2.549 2.866-3.61 2.866-6.374 .106-.637-2.866.746-2.443.319 1.38-.956 2.443-2.441 2.443-3.821 .106-2.234-4.248-.427-1.912-2.763 2.763-2.654.532-6.691-.212-10.513-1.806-9.134 7.327-39.4 12.742-45.455 5.524-5.948 6.799-21.452 10.517-24.639 3.717-3.292 3.291-7.22 3.291-7.22s-.212.211-.425.423c-.531.956-1.806,2.868-4.248,3.398-4.143.851-3.187,1.806-5.841,2.868-.638.319-2.973,1.061-5.417,2.017-1.804.637-4.034,1.274-6.477,2.335-3.294,1.275-5.522,2.232-8.709,3.931-7.009,3.717-8.815,6.797-11.259,9.026-5.947,5.417-12.531,9.878-17.311,12.426-1.699.956-4.141,2.442-4.354,2.549-5.098,2.23-6.267,6.16-9.134,8.388-10.62,8.285-12.426,10.196-14.443,11.896-7.328,6.692-10.514,10.939-14.974,18.055-5.204,8.069-13.701,27.504-20.178,34.196-11.151,11.577-15.081,42.588-16.568,47.474 0,0-3.292,9.979-3.504,13.166 0,0-.106.852-.849,1.17 0,0-12.745,10.299-14.975,12.001 0,0-7.115,5.945-9.558,10.831 0,0 7.222-7.112 8.497-7.221l-2.125,2.973s4.143-3.292 4.886-3.716 8.814-6.478 1.38,1.062c0,0 13.063-7.539 7.752-1.485l-1.38,1.59s2.655-2.335 3.611-2.122c1.062.105 1.487.848 1.912.956 1.486.59 1.698-2.81 1.698-2.81z" fill="none" stroke="#170e0a" stroke-miterlimit="2.4142" stroke-width=".36"/>
  <path d="m245.15,100.08c-1.063,2.443-2.867,4.461-2.123,1.912s.637-3.824-.744-.744-3.08,6.373-4.46,7.009-2.975,3.612-2.763,3.931c.214.424.106,1.805 2.23-.744 2.124-2.442 5.099-5.309 4.354-3.822-.744,1.487-2.23,3.397-2.442,4.885-.318,1.486-1.062,2.866-2.229,3.292-1.276.532-1.594,2.337-3.082,3.187s.744,1.805.426,3.822c-.426,2.019.637.744 1.7-1.593 1.167-2.335 2.229-2.866 2.547-4.141 .212-1.275 1.594-4.461 2.656-6.055 .956-1.698 1.062,1.064.212,2.868-.956,1.7-1.594,4.038-1.274,5.524 1.274-1.17 2.23-2.019 2.656-4.992 .316-2.868 1.91-5.522 3.079-7.754 1.168-2.336 3.504-8.814 4.778-14.443-1.38-.319-2.017-.743-2.973-.743 .212,2.017-.638,6.16-.851,4.568-.105-1.7-.638-1.276-.85.742-.14,1.882-.35,2.2-.88,3.266z" fill="#aca997"/>
  <path d="m227.2,115.47s2.55,3.187 2.55-.106c-.212-3.397-1.063-4.036-.744-6.265 .425-2.231 0-5.417 1.063-4.78 .956.638 2.866,1.168 2.442,3.187-.318,1.912 1.38,4.992 1.274,1.805-.106-3.078-.213-5.522.212-5.522 .531,0 1.806,2.444 1.062,3.08s.32.851-.212,1.912c-.638.956-1.592,3.187-1.168,3.293 .318.105 1.486-3.082 2.23-3.612s1.806-.425 1.274-1.807c-.532-1.592-.744-3.927 0-3.396 .743.423 1.699.317 2.974-1.699 1.274-2.019 4.459-7.116 3.187-9.983-.956,3.929-1.912,7.434-5.311,9.132-3.398,1.806-5.734,1.806-8.815.105-.954,2.656-.954,5.841-1.062,8.604-.09,2.87-.73,4.78-.94,6.05z" fill="#aca997"/>
  <path d="m259.27,42.94c.744.212 2.336,2.229 2.656,3.187 .316.955.954.848 1.591,1.487 .532.529.532,1.273-.318,1.486s-2.017.954-2.761,1.38c-.743.424-2.229.637-3.186,1.381-1.063.849-2.656-.213-4.035.107-1.275.317-2.23,0-2.23,0s1.167.422 2.549.212 2.229.849 3.822.105c1.488-.743 2.656-.743 3.398-1.381 .85-.636 2.124-1.592 3.293-1.804 .955-.107.531-1.274 0-1.7-.637-.318-1.169-2.547-1.912-2.866s-1.59-1.807-2.87-1.594z" fill="#603b13"/>
  <path d="m53.137,289.64s2.018,2.549 4.672,2.443c2.549-.104 4.46,0 4.354.743-.105.637 2.974-.214 4.354-1.062s-2.336-1.488-3.292-1.274c-1.063.104-3.293.742-1.912-.638 1.592-1.593 2.442-.213 3.929-1.488 1.488-1.166 2.443,1.17 3.399.428 .955-.638-.212,2.335 2.336.424 2.655-1.912.743.956 1.38,1.061 .638.214 4.673-.424 5.947-1.912 1.169-1.484 3.292.428 2.443.96s1.274.952 1.911,0c.532-.96 2.868,1.803 2.443-.108-.318-1.912 4.248-1.699 4.991-.956 1.38,1.38 4.142,1.064 4.992.213s3.823-1.169 2.868-.213-.426,1.488 1.804.424c2.23-1.167 3.081.213 4.142-.529 .956-.851 4.567,1.485 5.418.21 .955-1.166 2.76,4.78 5.097,5.522-2.974-1.908-9.664.532-9.239-2.654-2.123.851-3.398,2.126-15.824,2.126-1.911,0-6.903-.852-9.452.213-2.654,1.166-4.142,2.018-7.964.211-1.168-.638-5.628-.211-7.965,0-2.449.12-11.051.65-10.838-4.13z" fill="#cec8b6"/>
  <path d="m121.32,294s.954-.956 1.168-2.23c.106-1.17 2.336-1.488 1.593-.318-.744,1.061 1.38.532 1.168,1.38-.106.745 1.912.213 1.912.213s1.168,1.698 1.91-.213c.744-2.018 3.082-1.167 2.762-3.61-.424-2.444-.317-3.824-1.38-4.354-1.168-.637.53-.851 1.168-.532 1.274.743.956,4.462 1.381,3.187 .531-1.169 1.168,1.275 1.062,2.655 .956-.956 1.381-.956.213-3.61-1.063-2.55-1.699-4.886-.851-4.566 .851.528 1.486,2.335 1.486,1.593 0-.851.852.424.958,1.274 .212.743 1.91,2.441 1.698.529-.318-1.908-.106-3.824-.849-3.824-.85,0-2.124-2.23-2.124-2.23s1.274.532 2.124,1.064c.742.424 2.017,2.23 1.91,3.502-.212,1.274-.212,4.143 0,4.78 .213.745.106,2.021-1.062-.319-.318,1.17-.53,2.658-1.593,3.082s-1.594,1.38-1.806,1.912c-.53-.214-1.168.528-1.168.528s-.532-.956-.956-.956-2.337,3.187-2.549,1.17c-.85.424-1.912,1.064-2.868.213-.954-.742-1.698.105-2.124.529-.42.44-2.33,1.29-3.18-.83z" fill="#cec8b6"/>
  <path d="m96.786,276.48s-3.186.848-3.824,1.804c-.637.955-.212,1.593-2.335,1.487-2.125-.213-4.46.638-3.398.852-2.868.315-4.249,1.908-5.205,1.274-.955-.532-3.292,1.166-3.292,1.166s-.849-1.38-2.761-.742c-1.805.742-4.566,1.274-4.992.528-.318-.637-4.354,2.55-3.929.319 .318-2.23 3.398,0 4.142-1.912s2.655-.634 3.504-2.546c.744-1.702 2.124-.746 2.867-2.021 .531-1.274.85-.21.32,1.594 2.017-1.699 4.991-3.188 6.053-4.886 .956-1.59-.212,2.018-.212,2.018s1.486-1.698 2.442-3.716c.849-2.125 2.124-1.698 2.124-1.698s2.336-2.339 2.548-5.949c.32-3.506 1.38-5.628 1.168-2.122-.318,3.396-1.274,6.051-2.124,7.115 1.38-.956 3.079-3.61 3.398-7.539 .213-4.037 1.168-2.763.956-.96-.213,1.702-.425,3.296-.956,4.143-.637.746-.744,3.506.956,1.594s2.124-4.885 2.336-3.824 .531,4.78-.318,6.163-3.293,3.716-2.442,1.38c.956-2.339-.743-1.488-1.487.424s-1.699,2.868-1.699,2.868 1.275-4.462.319-3.187c-.85,1.274-.956,3.61-1.806,4.037-.85.424-.956-2.021-2.125.424-1.168,2.336-2.442,1.698-2.868,2.76-.531.956-1.274,2.549.425,1.169 1.805-1.38 5.205-3.929 4.673-2.867s-1.912,2.654-.106,1.274c1.699-1.488 2.762-1.912 3.397-2.76 .532-.851 1.275.638-.636,1.59-2.018.956-2.124,1.17-2.124,1.17s.849.213 2.548,0c1.807-.3 3.612-.62 4.463-.4z" fill="#cec8b6"/>
  <path d="m118.56,277.86c1.169,0 2.125.851 2.656.318 .53-.638 2.337-.318 2.549.214 .212.424 2.336.742 3.185.424 .852-.214 1.168.318 0,.742-1.167.318-2.866.213-3.503,0-.744-.214-2.442-.529-2.019-.105s1.911,1.062 3.293.956c1.38,0 .105.956-.744.742s-2.442-.848-2.973-.424c-.532.319.742,1.804 2.442,1.17 1.698-.532 1.593.529.53.634-1.168,0-3.61,0-4.141-.742-.426-.851 1.486-1.912-.532-2.336s-2.55.105-3.506-.742c-.955-.641-.636-.427.744-.318 1.26.11 1.16-.63 2.01-.52z" fill="#dad6cc"/>
  <path d="m122.7,283.59c.744.315 1.381.315 2.442-.427 .956-.638 1.063-1.485.106-.638-1.28,1.07-3.19-.42-2.55,1.07z" fill="#dad6cc"/>
  <path d="m68.749,276.9c.319-1.062.849-2.122.849-2.122l.213,1.484s.319.318.85-2.122 .636-4.143 1.38-3.509c.744.746.212-2.654 1.593-2.546 .637.105.637-1.912 1.487-3.929 .849-1.912 2.441-6.587 1.486-4.993-.85,1.488-.743.318-.106-1.275 .637-1.484 3.504-5.309 2.76-5.095-.743.315 1.593-2.549 2.018-3.824 .318-1.274-1.381-.318-2.124,2.018s-2.336,3.823-2.336,3.081c-.212-.745-.637,4.034-1.274,4.248-.637.318.212-3.082-.318-3.187-.532-.108-1.381,4.99-2.23,8.919-.85,4.037-1.487,2.977-1.487,1.383 0-1.488-.849,1.274-2.23,5.414s0-3.82-.531-3.292c-.425.424-2.442,6.479-3.186,9.241 1.061-.2 2.124-.41 3.186.12z" fill="#df9f37"/>
  <path d="m68.749,276.9c-.106.424-.106.956-.106,1.166 0,1.169-1.593-.953-1.487.851 .106,1.807-2.124-.21-1.274,2.444-1.699.848-2.654,2.23-1.805,2.336-2.442,1.484-3.93,2.654-3.292,3.291s1.38.532 1.38.532l-1.274,1.167s-1.38,1.807-1.912,1.169c-.425-.528-1.062-1.593-1.805-1.38-.744.319 1.805-1.593.956-2.867-.743-1.275 2.973-.638 2.973-3.4-.212-2.76 1.487,2.23 2.125-1.909 .212-1.807 1.699-.318 2.017-2.339 .107-.21.32-.848.32-1.166 .847-.21 2.652-.31 3.184.11z" fill="#dad6cc"/>
  <path d="m75.651,265.54s1.168-.852 1.911-3.824c.531-2.868.85,1.064 1.381-1.804 .743-2.657.955-4.037 1.275-3.505 .424.532 1.379-.318 1.379-1.383s2.337,0 2.337-4.14 .424,0 1.274-.532c1.699-1.061 1.062-5.095 1.487-4.353 .531.638 1.7.105 1.274-1.807-.319-1.912.531-3.078 1.062-4.566 .424-1.485-1.593.424-1.912,2.336-.424,1.911-.955,1.911-.849.851s-.425-1.17-.637.104c-.319,1.38-.319,3.824-1.062,3.4-.637-.318-1.062,1.38-1.169,2.654-.211,1.275-1.805,2.018-1.38,3.292 .319,1.274-1.168.742-1.38,2.017-.212,1.488-1.699,3.082-1.381,1.594 .213-1.594.107-3.187-.53-.956s-3.08,8.49-3.08,10.62z" fill="#df9f37"/>
  <path d="m77.775,248.54s2.23-5.204 2.974-5.204-.424-2.44.744-2.864c1.063-.427-.744-1.383 1.38-4.247 2.124-2.868-1.805-.533.956-4.462 2.761-3.823 5.204-5.841 4.035-4.247-1.273,1.698-4.46,6.797-3.504,6.265 .85-.638 2.549-2.336 2.018-1.062-.637,1.38-3.929,5.309-3.822,5.946 .212.742 2.017-1.807 2.017-.956s-2.761,2.654-2.867,4.248c-.107,1.701 0,1.701.85.532 .848-1.064-.213,1.911-1.806,3.078-1.594,1.06-2.975,2.97-2.975,2.97z" fill="#df9f37"/>
  <path d="m100.08,257.78s-.425-3.93.425-4.566c.85-.532 1.486-1.38 1.381-3.187-.106-1.698 1.486,3.505-.425,4.037-.53.11-.74,3.83-1.38,3.72z" fill="#dad6cc"/>
  <path d="m101.99,258.32c-1.062,1.593-3.079,7.115-2.123,6.688 .853-.33 2.123-6.69 2.123-6.69z" fill="#dad6cc"/>
  <path d="m104.43,255.55c.955-.424-1.7,6.373-1.7,6.373s.85-5.94 1.7-6.37z" fill="#dad6cc"/>
  <path d="m39.437,279.02s4.673,12.001 7.646,9.875c.744,1.698 1.381,2.868 2.443.428 .744,1.803 1.168,3.929 3.504,1.061 0-2.339-.319-3.187 2.124-5.841 2.336-2.654 4.779-5.735 5.735-7.647s1.169-2.974 3.08-4.462c1.911-1.484 2.124-3.61 2.974-5.627 .956-2.126 1.38-3.61 2.548-3.716 1.169,0 3.398-6.268 5.098-13.915-1.062,2.443-5.098,8.18-6.053,10.939-1.062,2.763-2.23,4.885-1.487,1.487s.637-4.037.318-4.779c-.212-.851-.636,1.807-1.698,2.763-1.487,1.166.424,4.248-1.912,4.78-2.23.528-2.23,7.434-2.442,5.732-.213-1.594-1.592-1.38-2.761,1.593-1.168,2.868-3.398,6.902-3.08,3.396 .211-3.609.211-5.413-.213-4.247-.319,1.064-.531,5.207-1.38,5.312-.744.105.424-4.779-.319-4.779s-1.274,5.309-2.23,6.479c-1.062,1.061-2.761,1.911-2.868.637-.106-1.169-.743-3.823-1.168-2.44-.319,1.38-1.38,3.929-2.442,1.484-1.168-2.444-2.336-.956-4.567-1.484-2.229-.641-4.672.634-4.991-2.444-.213-3.187-2.443-1.274-3.717-3.61s-2.655-3.824-1.593-.532c.956,3.292 2.23,8.391 7.223,8.391 1.272,0 1.804.1 2.228,1.16z" fill="#b97a2e"/>
  <path d="m184.83,58.021c1.594.317 2.974.424 6.265,5.097 3.187,4.673 7.011,10.089 12.319,14.869 5.204,4.885 14.338,16.248 19.116,17.841 .956,1.805 8.283,7.223 12.745,6.055 4.565-1.276 8.177-4.568 8.283-14.126s-2.018-19.966-3.292-22.833c-1.168-2.866 0-4.778-2.761-12.319-5.522-15.292-9.453-15.929-7.329-16.885 1.381-.744-.424-2.23.106-4.78 .426-2.973-1.805-3.929-.638-4.778" fill="none" stroke="#000" stroke-miterlimit="2.4142" stroke-width=".072"/>
  <path d="m282.96,87.863c.851-1.063 2.443-3.929 2.654-2.656 .213,1.167 0,2.019-.211,2.975-.851.319-.957-.319-1.699.212-.43.213-.74-.531-.74-.531z" fill="#f2ede3"/>
  <path d="m258.42,82.446c1.168-.531 2.866-.531 3.398.32s1.698,1.486 2.442,1.38c2.018-.319 2.124.742 3.292.53 1.274-.107 3.398-.53 4.248.531 .851,1.167 2.123.532 3.079.32 .852-.107 4.674-.107 5.417.105 .85.213 2.655.742 3.186,1.168-.424.32-1.062.849-2.336.106-1.381-.851-2.654-.106-3.185-.425s-1.488-.319-2.23-.212c-.638.212-3.824-.107-4.354-.53-.426-.532-3.294-.851-4.354-.744-1.168,0-3.292-.319-3.93-.743s-2.655-1.381-3.611-1.381-1.07-.425-1.07-.425z" fill="#422417"/>
  <path d="m281.58,87.121c-.107-.426-.852-1.169-1.382-.639-.425.532-.956.319-1.168-.107-.425-.318-.849-.105-1.168,0-.213.32-.53.851-.849.746 .636.317 1.592,0 2.017.317 .531.319 1.063.105 1.486-.105 .31-.107 1.06.209 1.06-.212z" fill="#f2ede3"/>
  <path d="m276.26,86.907s-.214-1.061-.744-.851c-.424.213-.956.639-1.062.213-.106-.424-.637-.742-1.063-.318-.318.318-1.38.105-1.38.105s1.168.639 1.91.639c.85-.107 1.59.531 2.33.212z" fill="#f2ede3"/>
  <path d="m293.58,81.066c6.16-3.824 12.425-9.027 13.487-11.789 1.168-2.973.212-3.292-1.486-4.034-1.382-.639-2.975-1.488-2.338-2.444 0-.107.107-.107.214-.212 .956-1.063 1.698-2.549-2.019-2.124-1.698.212.638-2.019-2.018-3.293-.212-.107-.425-.212-.532-.319-2.759-1.593-1.486-3.396.107-3.61 2.868-.425 5.417-3.08 7.434-3.292" fill="none" stroke="#a19981" stroke-linecap="round" stroke-linejoin="round" stroke-miterlimit="2.4142" stroke-width="1.224"/>
  <path d="m295.38,80.215c5.415-3.29 11.044-8.389 12-11.257 1.063-2.973.212-3.398-1.274-4.141-1.38-.744-2.868-1.488-2.442-2.23 .106,0 .106-.107.212-.212 .851-.851 1.274-2.231-2.124-2.019-1.593.107.426-1.912-1.91-3.187-.106-.107-.32-.212-.426-.319-2.549-1.486-1.381-3.292.105-3.61 2.656-.53 5.311-2.973 7.117-3.292" fill="none" stroke="#908672" stroke-linecap="round" stroke-linejoin="round" stroke-miterlimit="2.4142" stroke-width="1.224"/>
  <path d="m296.97,79.366c4.672-2.761 9.877-7.859 10.727-10.619 .956-3.081.212-3.61-1.168-4.354-1.274-.742-2.656-1.381-2.338-2.017 0,0 0-.107.107-.107 .637-.744.849-2.019-2.23-2.019-1.38,0 .318-1.912-1.806-3.08l-.318-.319c-2.23-1.486-1.168-3.185.106-3.61 2.442-.744 5.097-2.973 6.69-3.187" fill="none" stroke="#807462" stroke-linecap="round" stroke-linejoin="round" stroke-miterlimit="2.4142" stroke-width="1.224"/>
  <path d="m298.67,78.412c3.611-2.337 8.602-6.905 9.346-9.983 .85-3.08.212-3.717-1.063-4.461-1.168-.742-2.548-1.379-2.336-1.698v-.212c.53-.532.53-1.593-2.124-1.912-1.274-.106 0-1.807-1.7-2.975-.104-.107-.318-.212-.424-.319-1.912-1.486-.956-3.08.319-3.503 2.23-.958 4.885-3.08 6.265-3.187" fill="none" stroke="#6e6353" stroke-linecap="round" stroke-linejoin="round" stroke-miterlimit="2.4142" stroke-width="1.224"/>
  <path d="m300.27,77.454c2.656-1.805 7.435-6.477 8.179-9.238 .635-3.187.104-3.931-.958-4.673s-2.336-1.274-2.336-1.593c.212-.425 0-1.379-2.336-1.912-1.063-.214-.106-1.7-1.593-2.868l-.318-.319c-1.594-1.486-.744-2.868.212-3.503 2.123-1.167 4.779-2.973 5.947-3.08" fill="none" stroke="#615447" stroke-linecap="round" stroke-linejoin="round" stroke-miterlimit="2.4142" stroke-width="1.224"/>
  <path d="m301.75,76.5c2.019-1.486 6.373-5.841 7.011-8.497 .638-3.292.105-4.248-.851-4.885-.956-.742-2.229-1.274-2.336-1.38 0-.213-.318-1.063-2.338-1.807-.954-.319-.316-1.7-1.593-2.761 0-.107-.105-.212-.212-.319-1.38-1.379-.638-2.761.318-3.396 1.912-1.381 4.566-3.08 5.522-3.187" fill="none" stroke="#51463a" stroke-linecap="round" stroke-linejoin="round" stroke-miterlimit="2.4142" stroke-width="1.224"/>
  <path d="m303.35,75.437c1.381-1.273 5.203-4.992 5.733-7.753 .533-3.292.107-4.354-.742-4.992-.851-.743-2.019-1.275-2.23-1.168l-.11.107c-.212-.107-.742-.85-2.441-1.807-.744-.422-.532-1.593-1.487-2.654 0-.107-.105-.212-.212-.319-.956-1.379-.426-2.654.425-3.396 1.698-1.593 4.46-2.975 5.097-3.08" fill="none" stroke="#443930" stroke-linecap="round" stroke-linejoin="round" stroke-miterlimit="2.4142" stroke-width="1.224"/>
  <path d="m304.94,73.95c.744-.53 4.036-3.824 4.462-6.478 .423-3.398.104-4.566-.638-5.204-.638-.744-1.807-1.275-2.23-.851h-.107c-.318.107-1.167-.424-2.549-1.698-.638-.53-.638-1.488-1.274-2.549-.105-.107-.105-.212-.212-.319-.744-1.379-.318-2.547.425-3.396 1.487-1.7 4.248-2.975 4.672-3.08" fill="none" stroke="#392e27" stroke-linecap="round" stroke-linejoin="round" stroke-miterlimit="2.4142" stroke-width="1.224"/>
  <path d="m306.32,72.676s3.082-2.442 3.398-5.417c.426-3.503.106-4.778-.53-5.521-.53-.639-1.7-1.063-2.124-.532-.638.426-2.761-.212-4.141-4.354s4.459-6.265 4.778-6.371" fill="none" stroke="#2c231e" stroke-linecap="round" stroke-linejoin="round" stroke-miterlimit="2.4142" stroke-width="1.224"/>
  <path d="m307.17,60.889c.531-1.276 2.443-4.993 4.354-3.931 1.38.851-3.293,2.231-2.549,4.459 .01,0-1.38-.635-1.8-.528z" fill="#2c231e"/>
  <path d="m308.34,50.054s-2.019.744-2.975,1.594c-1.061.956-3.291,2.656-2.548,4.886s3.399,7.116 5.098,3.504 4.461-3.398 3.079-2.124-3.079,2.442-1.805,3.824c1.274,1.592.637,6.795-.53,9.346 2.123-2.551 3.61-5.205 3.717-6.798 .212-1.593 1.486-1.275 2.654-3.929 1.168-2.868 3.08-6.478-3.504-9.027-1.16-.532-3.18-1.276-3.18-1.276z" fill="#080401"/>
  <path d="m309.08,50.904c-.635-.105-2.335.318-3.291,1.169-.956.956-1.062,1.805.426,2.124 3.398.956 4.354.212 5.415-.318 1.912-.849 2.761-.849 1.274-1.593-1.17-.638-2.13-1.169-3.83-1.382z" fill="#5b5446"/>
  <path d="m250.56,48.356c-.317.637.637,1.168 1.063,1.593 .85,1.061 3.717.955 5.522.319-1.486.106-3.929.742-5.629-.638-.84-.849-.95-1.274-.95-1.274z" fill="#4c4b3a"/>
  <path d="m258.95,47.4c-.318,1.275-2.019,1.912-3.821,1.063-.958-.425-1.17-1.275-1.17-1.7-.424.637-.318,1.38.212,2.124 .744.956 2.549,1.063 3.717.637 1.38-.531 1.17-1.486 1.06-2.124z" fill="#684418"/>
  <path d="m197.68,219.34c.105-1.379-.53-2.227-1.167-2.44-.638-.319-1.7-.638-.531-2.125 1.062-1.485 2.548-4.671 1.698-8.177-.956-4.248 1.912-8.282 2.124-10.407 .53-4.248-1.486.318-.744-3.397 .532-2.763 2.23-8.499 4.673-12.533 2.443-4.038 2.656-7.753 2.656-7.753 .319-3.505.212-6.478 1.274-6.797" fill="none" stroke="#000" stroke-linecap="round" stroke-linejoin="round" stroke-miterlimit="2.4142" stroke-width=".072"/>
 </g>
</svg>
