<?xml version="1.0" encoding="utf-8"?>
<!-- Generator: Moho 12.5 build 22438 -->
<!DOCTYPE svg PUBLIC "-//W3C//DTD SVG 1.1//EN" "http://www.w3.org/Graphics/SVG/1.1/DTD/svg11.dtd">
<svg version="1.1" id="Frame_0" xmlns="http://www.w3.org/2000/svg" xmlns:xlink="http://www.w3.org/1999/xlink" width="1280px" height="720px">
<g id="Layer_8">
<path fill="#2b496b" fill-rule="evenodd" stroke="none" d="M 652.860 409.981 C 652.860 409.981 652.860 409.981 652.860 409.981 C 650.747 411.472 648.193 413.932 645.816 414.953 C 637.966 418.326 626.165 419.664 617.640 419.097 C 611.080 418.660 602.847 415.036 596.507 413.296 C 596.507 413.296 596.507 413.296 596.507 413.296 C 596.756 394.898 597.336 351.976 597.336 351.970 C 613.620 351.349 635.333 350.520 651.617 349.898 C 651.617 349.898 651.617 349.898 651.617 349.898 C 651.990 367.923 652.860 409.975 652.860 409.981 C 652.860 409.981 652.860 409.981 652.860 409.981 Z"/>
<path fill="none" stroke="#2b496b" stroke-width="1" stroke-linecap="round" stroke-linejoin="round" d="M 597.336 351.970 C 597.336 351.970 597.336 351.970 597.336 351.970 C 597.336 351.976 596.756 394.898 596.507 413.296 C 602.847 415.036 611.080 418.660 617.640 419.097 C 626.165 419.664 637.966 418.326 645.816 414.953 C 648.193 413.932 650.747 411.472 652.860 409.981 C 652.860 409.981 652.860 409.981 652.860 409.981 C 652.860 409.975 651.990 367.923 651.617 349.898 C 635.333 350.520 613.620 351.349 597.336 351.970 M 596.507 413.296 C 596.507 413.296 596.507 413.296 596.507 413.296 M 651.617 349.898 C 651.617 349.898 651.617 349.898 651.617 349.898 M 652.860 409.981 C 652.860 409.981 652.860 409.981 652.860 409.981 "/>
<g id="Layer_4">
<path fill="#2b496b" fill-rule="evenodd" stroke="none" d="M 621.848 613.762 C 621.848 613.762 621.848 613.762 621.848 613.762 C 622.547 594.211 623.657 568.149 624.176 548.593 C 624.955 519.271 625.440 480.163 625.803 450.833 C 626.120 425.175 626.293 390.962 626.503 365.303 C 626.503 365.303 626.503 365.303 626.503 365.303 C 637.850 363.732 664.321 360.067 664.325 360.066 C 664.151 373.333 664.486 391.041 663.743 404.288 C 663.046 416.723 660.741 433.194 659.670 445.601 C 656.509 482.216 653.595 531.139 650.942 567.794 C 649.906 582.109 647.451 615.503 647.451 615.508 C 639.770 614.984 621.851 613.762 621.848 613.762 C 621.848 613.762 621.848 613.762 621.848 613.762 Z"/>
<path fill="none" stroke="#2b496b" stroke-width="1" stroke-linecap="round" stroke-linejoin="round" d="M 664.325 360.066 C 664.325 360.066 664.325 360.066 664.325 360.066 C 664.321 360.067 637.850 363.732 626.503 365.303 C 626.293 390.962 626.120 425.175 625.803 450.833 C 625.440 480.163 624.955 519.271 624.176 548.593 C 623.657 568.149 622.547 594.211 621.848 613.762 C 621.848 613.762 621.848 613.762 621.848 613.762 C 621.851 613.762 639.770 614.984 647.451 615.508 C 647.451 615.508 647.451 615.508 647.451 615.508 C 647.451 615.503 649.906 582.109 650.942 567.794 C 653.595 531.139 656.509 482.216 659.670 445.601 C 660.741 433.194 663.046 416.723 663.743 404.288 C 664.486 391.041 664.151 373.333 664.325 360.066 M 626.503 365.303 C 626.503 365.303 626.503 365.303 626.503 365.303 M 621.848 613.762 C 621.848 613.762 621.848 613.762 621.848 613.762 "/>
<g id="Layer_8">
<path fill="#dd8a24" fill-rule="evenodd" stroke="none" d="M 624.172 662.969 C 624.172 662.969 624.172 662.969 624.172 662.969 C 624.067 662.024 623.920 660.765 623.822 659.820 C 622.853 650.526 622.033 638.084 620.900 628.809 C 619.982 621.294 618.295 611.338 617.178 603.850 C 617.178 603.850 617.178 603.850 617.178 603.850 C 628.705 603.352 655.595 602.191 655.599 602.191 C 655.739 614.339 656.064 642.680 656.064 642.684 C 661.126 642.746 672.935 642.890 672.937 642.890 C 672.054 646.006 671.024 650.206 669.992 653.276 C 668.676 657.188 668.293 663.652 664.954 666.078 C 663.533 667.110 660.918 667.131 659.170 666.971 C 656.559 666.732 653.498 664.653 650.980 663.922 C 648.329 663.153 644.727 662.261 641.976 662.025 C 636.647 661.567 624.174 662.969 624.172 662.969 C 624.172 662.969 624.172 662.969 624.172 662.969 Z"/>
<path fill="none" stroke="#dd8a24" stroke-width="1" stroke-linecap="round" stroke-linejoin="round" d="M 655.599 602.191 C 655.599 602.191 655.599 602.191 655.599 602.191 C 655.595 602.191 628.705 603.352 617.178 603.850 C 618.295 611.338 619.982 621.294 620.900 628.809 C 622.033 638.084 622.853 650.526 623.822 659.820 C 623.920 660.765 624.067 662.024 624.172 662.969 C 624.172 662.969 624.172 662.969 624.172 662.969 C 624.174 662.969 636.647 661.567 641.976 662.025 C 644.727 662.261 648.329 663.153 650.980 663.922 C 653.498 664.653 656.559 666.732 659.170 666.971 C 660.918 667.131 663.533 667.110 664.954 666.078 C 668.293 663.652 668.676 657.188 669.992 653.276 C 671.024 650.206 672.054 646.006 672.937 642.890 C 672.937 642.890 672.937 642.890 672.937 642.890 C 672.935 642.890 661.126 642.746 656.064 642.684 C 656.064 642.684 656.064 642.684 656.064 642.684 C 656.064 642.680 655.739 614.339 655.599 602.191 M 617.178 603.850 C 617.178 603.850 617.178 603.850 617.178 603.850 M 624.172 662.969 C 624.172 662.969 624.172 662.969 624.172 662.969 "/>
<path fill="#f1aa2a" fill-rule="evenodd" stroke="#f1aa2a" stroke-width="1" stroke-linecap="round" stroke-linejoin="round" d="M 613.845 581.109 C 613.850 581.109 659.312 581.354 659.316 581.354 C 659.316 581.356 659.184 605.887 659.184 605.890 C 659.180 605.890 613.718 605.645 613.713 605.645 C 613.713 605.643 613.845 581.112 613.845 581.109 Z"/>
<path fill="#f1aa2a" fill-rule="evenodd" stroke="#f1aa2a" stroke-width="1" stroke-linecap="round" stroke-linejoin="round" d="M 693.912 666.089 C 693.912 666.089 693.912 666.089 693.912 666.089 C 693.901 664.654 694.088 662.725 693.876 661.305 C 693.528 658.975 692.586 655.915 691.525 653.812 C 690.199 651.184 687.968 647.784 685.681 645.932 C 683.960 644.538 681.171 643.267 679.014 642.769 C 676.989 642.300 674.124 642.262 672.085 642.670 C 670.735 642.940 668.979 643.644 667.845 644.425 C 665.957 645.727 663.824 648.088 662.725 650.101 C 661.630 652.106 661.016 655.182 660.723 657.448 C 660.417 659.820 660.779 663.028 660.803 665.420 C 660.803 665.420 660.803 665.420 660.803 665.420 C 670.736 665.621 693.908 666.088 693.912 666.089 C 693.912 666.089 693.912 666.089 693.912 666.089 Z"/>
<path fill="#774314" fill-rule="evenodd" stroke="none" d="M 652.937 662.782 C 653.502 663.271 654.027 664.144 654.494 664.728 C 654.496 664.728 671.280 664.776 678.474 664.764 C 683.268 664.757 689.660 664.715 694.454 664.694 C 694.454 664.695 694.549 668.129 694.589 669.602 C 694.585 669.602 663.904 669.268 650.753 669.125 C 650.753 669.124 650.362 666.846 649.804 666.063 C 649.283 665.332 648.240 664.597 647.400 664.281 C 646.021 663.760 643.877 663.502 642.495 664.013 C 641.613 664.338 640.584 665.257 640.151 666.092 C 639.760 666.846 639.915 668.061 639.814 668.905 C 639.812 668.905 628.739 668.724 623.993 668.646 C 623.993 668.646 623.505 666.994 623.411 666.264 C 623.169 664.385 623.445 659.949 623.445 659.949 C 629.143 659.925 636.742 659.708 642.438 659.867 C 644.155 659.915 646.503 659.704 648.155 660.174 C 649.726 660.622 651.700 661.714 652.937 662.782 Z"/>
<path fill="none" stroke="#774314" stroke-width="1" stroke-linecap="round" stroke-linejoin="round" d="M 654.494 664.728 C 654.494 664.728 654.494 664.728 654.494 664.728 C 654.027 664.144 653.502 663.271 652.937 662.782 C 651.700 661.714 649.726 660.622 648.155 660.174 C 646.503 659.704 644.155 659.915 642.438 659.867 C 636.742 659.708 629.143 659.925 623.445 659.949 C 623.445 659.949 623.169 664.385 623.411 666.264 C 623.505 666.994 623.993 668.646 623.993 668.646 C 623.993 668.646 623.993 668.646 623.993 668.646 C 628.739 668.724 639.812 668.905 639.814 668.905 C 639.814 668.905 639.814 668.905 639.814 668.905 C 639.915 668.061 639.760 666.846 640.151 666.092 C 640.584 665.257 641.613 664.338 642.495 664.013 C 643.877 663.502 646.021 663.760 647.400 664.281 C 648.240 664.597 649.283 665.332 649.804 666.063 C 650.362 666.846 650.753 669.124 650.753 669.125 C 650.753 669.125 650.753 669.125 650.753 669.125 C 663.904 669.268 694.585 669.602 694.589 669.602 C 694.589 669.602 694.589 669.602 694.589 669.602 C 694.549 668.129 694.454 664.695 694.454 664.694 C 694.454 664.694 694.454 664.694 694.454 664.694 C 689.660 664.715 683.268 664.757 678.474 664.764 C 671.280 664.776 654.496 664.728 654.494 664.728 "/>
</g>
</g>
<g id="Layer_8">
<path fill="#2b496b" fill-rule="evenodd" stroke="none" d="M 570.840 612.901 C 570.840 612.901 570.840 612.901 570.840 612.901 C 571.538 593.350 572.648 567.288 573.167 547.732 C 573.946 518.410 574.432 479.302 574.794 449.972 C 575.111 424.314 575.285 390.101 575.495 364.442 C 575.495 364.442 575.495 364.442 575.495 364.442 C 586.841 362.871 613.313 359.206 613.316 359.205 C 613.142 372.472 613.477 390.181 612.734 403.428 C 612.038 415.862 609.732 432.333 608.661 444.741 C 605.500 481.356 602.586 530.278 599.933 566.934 C 598.897 581.248 596.442 614.642 596.442 614.647 C 588.761 614.123 570.842 612.901 570.840 612.901 C 570.840 612.901 570.840 612.901 570.840 612.901 Z"/>
<path fill="none" stroke="#2b496b" stroke-width="1" stroke-linecap="round" stroke-linejoin="round" d="M 613.316 359.205 C 613.316 359.205 613.316 359.205 613.316 359.205 C 613.313 359.206 586.841 362.871 575.495 364.442 C 575.285 390.101 575.111 424.314 574.794 449.972 C 574.432 479.302 573.946 518.410 573.167 547.732 C 572.648 567.288 571.538 593.350 570.840 612.901 C 570.840 612.901 570.840 612.901 570.840 612.901 C 570.842 612.901 588.761 614.123 596.442 614.647 C 596.442 614.647 596.442 614.647 596.442 614.647 C 596.442 614.642 598.897 581.248 599.933 566.934 C 602.586 530.278 605.500 481.356 608.661 444.741 C 609.732 432.333 612.038 415.862 612.734 403.428 C 613.477 390.181 613.142 372.472 613.316 359.205 M 575.495 364.442 C 575.495 364.442 575.495 364.442 575.495 364.442 M 570.840 612.901 C 570.840 612.901 570.840 612.901 570.840 612.901 "/>
<g id="Layer_8">
<path fill="#dd8a24" fill-rule="evenodd" stroke="none" d="M 573.164 662.108 C 573.164 662.108 573.164 662.108 573.164 662.108 C 573.058 661.164 572.911 659.905 572.813 658.959 C 571.845 649.665 571.024 637.224 569.891 627.948 C 568.973 620.434 567.286 610.477 566.170 602.989 C 566.170 602.989 566.170 602.989 566.170 602.989 C 577.696 602.491 604.587 601.330 604.590 601.330 C 604.730 613.478 605.056 641.819 605.056 641.823 C 610.118 641.885 621.927 642.029 621.928 642.029 C 621.045 645.145 620.016 649.346 618.983 652.415 C 617.667 656.327 617.284 662.791 613.945 665.217 C 612.524 666.249 609.910 666.270 608.161 666.110 C 605.551 665.871 602.489 663.792 599.972 663.062 C 597.320 662.292 593.718 661.400 590.967 661.164 C 585.638 660.706 573.165 662.108 573.164 662.108 C 573.164 662.108 573.164 662.108 573.164 662.108 Z"/>
<path fill="none" stroke="#dd8a24" stroke-width="1" stroke-linecap="round" stroke-linejoin="round" d="M 604.590 601.330 C 604.590 601.330 604.590 601.330 604.590 601.330 C 604.587 601.330 577.696 602.491 566.170 602.989 C 567.286 610.477 568.973 620.434 569.891 627.948 C 571.024 637.224 571.845 649.665 572.813 658.959 C 572.911 659.905 573.058 661.164 573.164 662.108 C 573.164 662.108 573.164 662.108 573.164 662.108 C 573.165 662.108 585.638 660.706 590.967 661.164 C 593.718 661.400 597.320 662.292 599.972 663.062 C 602.489 663.792 605.551 665.871 608.161 666.110 C 609.910 666.270 612.524 666.249 613.945 665.217 C 617.284 662.791 617.667 656.327 618.983 652.415 C 620.016 649.346 621.045 645.145 621.928 642.029 C 621.928 642.029 621.928 642.029 621.928 642.029 C 621.927 642.029 610.118 641.885 605.056 641.823 C 605.056 641.823 605.056 641.823 605.056 641.823 C 605.056 641.819 604.730 613.478 604.590 601.330 M 566.170 602.989 C 566.170 602.989 566.170 602.989 566.170 602.989 M 573.164 662.108 C 573.164 662.108 573.164 662.108 573.164 662.108 "/>
<path fill="#f1aa2a" fill-rule="evenodd" stroke="#f1aa2a" stroke-width="1" stroke-linecap="round" stroke-linejoin="round" d="M 562.836 580.248 C 562.841 580.248 608.303 580.493 608.307 580.493 C 608.307 580.495 608.175 605.027 608.175 605.029 C 608.171 605.029 562.709 604.785 562.705 604.785 C 562.705 604.782 562.836 580.251 562.836 580.248 Z"/>
<path fill="#f1aa2a" fill-rule="evenodd" stroke="#f1aa2a" stroke-width="1" stroke-linecap="round" stroke-linejoin="round" d="M 642.903 665.228 C 642.903 665.228 642.903 665.228 642.903 665.228 C 642.892 663.793 643.080 661.864 642.867 660.445 C 642.519 658.114 641.578 655.055 640.516 652.951 C 639.190 650.323 636.959 646.923 634.672 645.071 C 632.952 643.678 630.162 642.406 628.005 641.908 C 625.980 641.439 623.115 641.401 621.077 641.809 C 619.727 642.079 617.970 642.783 616.836 643.565 C 614.948 644.866 612.815 647.227 611.716 649.240 C 610.621 651.245 610.008 654.322 609.715 656.587 C 609.408 658.959 609.770 662.168 609.794 664.559 C 609.794 664.559 609.794 664.559 609.794 664.559 C 619.727 664.760 642.900 665.228 642.903 665.228 C 642.903 665.228 642.903 665.228 642.903 665.228 Z"/>
<path fill="#774314" fill-rule="evenodd" stroke="none" d="M 601.928 661.922 C 602.494 662.410 603.018 663.284 603.485 663.867 C 603.488 663.867 620.271 663.915 627.465 663.904 C 632.260 663.896 638.652 663.855 643.446 663.834 C 643.446 663.834 643.540 667.269 643.580 668.741 C 643.576 668.741 612.895 668.407 599.744 668.264 C 599.744 668.264 599.353 665.985 598.795 665.202 C 598.274 664.471 597.231 663.737 596.391 663.420 C 595.013 662.899 592.869 662.641 591.486 663.152 C 590.604 663.477 589.575 664.396 589.142 665.231 C 588.751 665.985 588.906 667.200 588.805 668.044 C 588.804 668.044 577.730 667.863 572.984 667.785 C 572.984 667.785 572.496 666.133 572.402 665.404 C 572.160 663.524 572.436 659.089 572.436 659.089 C 578.134 659.064 585.733 658.847 591.429 659.006 C 593.146 659.054 595.494 658.843 597.146 659.314 C 598.717 659.761 600.691 660.853 601.928 661.922 Z"/>
<path fill="none" stroke="#774314" stroke-width="1" stroke-linecap="round" stroke-linejoin="round" d="M 603.485 663.867 C 603.485 663.867 603.485 663.867 603.485 663.867 C 603.018 663.284 602.494 662.410 601.928 661.922 C 600.691 660.853 598.717 659.761 597.146 659.314 C 595.494 658.843 593.146 659.054 591.429 659.006 C 585.733 658.847 578.134 659.064 572.436 659.089 C 572.436 659.089 572.160 663.524 572.402 665.404 C 572.496 666.133 572.984 667.785 572.984 667.785 C 572.984 667.785 572.984 667.785 572.984 667.785 C 577.730 667.863 588.804 668.044 588.805 668.044 C 588.805 668.044 588.805 668.044 588.805 668.044 C 588.906 667.200 588.751 665.985 589.142 665.231 C 589.575 664.396 590.604 663.477 591.486 663.152 C 592.869 662.641 595.013 662.899 596.391 663.420 C 597.231 663.737 598.274 664.471 598.795 665.202 C 599.353 665.985 599.744 668.264 599.744 668.264 C 599.744 668.264 599.744 668.264 599.744 668.264 C 612.895 668.407 643.576 668.741 643.580 668.741 C 643.580 668.741 643.580 668.741 643.580 668.741 C 643.540 667.269 643.446 663.834 643.446 663.834 C 643.446 663.834 643.446 663.834 643.446 663.834 C 638.652 663.855 632.260 663.896 627.465 663.904 C 620.271 663.915 603.488 663.867 603.485 663.867 "/>
</g>
</g>
<g id="Layer_2">
<path fill="#ffaa83" fill-rule="evenodd" stroke="none" d="M 700.295 432.521 C 699.515 430.703 699.400 427.992 699.016 426.051 C 699.016 426.052 699.560 433.037 699.736 436.035 C 699.859 438.143 700.717 441.060 700.058 443.066 C 699.988 443.278 699.835 443.561 699.653 443.690 C 698.898 444.220 697.491 444.275 696.598 444.043 C 696.186 443.937 695.669 443.612 695.404 443.279 C 694.676 442.364 694.672 440.651 694.358 439.525 C 694.358 439.525 694.510 444.208 694.608 446.213 C 694.651 447.108 694.797 448.297 694.781 449.192 C 694.778 449.336 694.797 449.535 694.745 449.669 C 694.438 450.450 693.563 451.356 692.781 451.662 C 692.117 451.921 691.026 451.936 690.407 451.584 C 689.851 451.268 689.589 450.336 689.239 449.801 C 689.239 449.800 688.556 440.679 688.263 436.770 C 688.263 436.770 687.290 438.213 687.072 438.917 C 686.748 439.962 686.786 441.460 686.790 442.554 C 686.795 443.962 687.161 445.822 687.205 447.230 C 687.209 447.362 687.259 447.551 687.201 447.670 C 686.934 448.220 686.026 448.518 685.443 448.702 C 684.651 448.952 683.433 449.238 682.681 448.887 C 682.200 448.662 681.905 447.920 681.573 447.506 C 681.573 447.505 681.117 441.638 681.011 439.117 C 680.873 435.861 680.730 431.512 680.835 428.254 C 680.899 426.287 681.308 423.680 681.335 421.712 C 681.361 419.816 681.702 417.171 681.029 415.399 C 680.672 414.462 679.998 412.987 679.031 412.718 C 678.181 412.483 677.073 413.377 676.288 413.782 C 674.072 414.927 671.691 417.416 669.453 418.521 C 668.751 418.868 667.743 419.172 666.990 419.390 C 666.402 419.560 665.606 419.942 665.000 419.850 C 663.869 419.679 661.910 418.902 661.811 417.763 C 661.701 416.503 664.008 415.794 664.960 414.962 C 667.192 413.011 670.315 410.573 672.467 408.533 C 675.224 405.918 678.659 402.184 681.180 399.341 C 682.396 397.970 684.495 396.386 685.099 394.656 C 685.610 393.192 685.102 391.036 685.034 389.486 C 684.746 382.902 683.889 374.148 683.190 367.595 C 682.621 362.255 681.599 355.167 680.914 349.841 C 680.282 344.926 679.434 338.374 678.800 333.460 C 678.803 333.459 695.500 330.078 702.657 328.629 C 703.144 339.814 704.077 354.718 704.280 365.912 C 704.373 371.072 704.307 377.956 704.214 383.116 C 704.080 390.588 703.112 400.543 703.384 408.011 C 703.580 413.355 704.752 420.416 705.196 425.746 C 705.403 428.223 706.887 431.803 705.751 434.014 C 705.507 434.489 704.868 434.940 704.374 435.144 C 703.761 435.397 702.775 435.599 702.171 435.326 C 701.249 434.908 700.694 433.451 700.295 432.521 M 702.657 328.629 C 702.657 328.629 702.657 328.629 702.657 328.629 Z"/>
<path fill="none" stroke="#ffaa83" stroke-width="1" stroke-linecap="round" stroke-linejoin="round" d="M 699.016 426.051 C 699.016 426.051 699.016 426.051 699.016 426.051 C 699.400 427.992 699.515 430.703 700.295 432.521 C 700.694 433.451 701.249 434.908 702.171 435.326 C 702.775 435.599 703.761 435.397 704.374 435.144 C 704.868 434.940 705.507 434.489 705.751 434.014 C 706.887 431.803 705.403 428.223 705.196 425.746 C 704.752 420.416 703.580 413.355 703.384 408.011 C 703.112 400.543 704.080 390.588 704.214 383.116 C 704.307 377.956 704.373 371.072 704.280 365.912 C 704.077 354.718 703.144 339.814 702.657 328.629 C 702.657 328.629 702.657 328.629 702.657 328.629 C 695.500 330.078 678.803 333.459 678.800 333.460 C 678.800 333.460 678.800 333.460 678.800 333.460 C 679.434 338.374 680.282 344.926 680.914 349.841 C 681.599 355.167 682.621 362.255 683.190 367.595 C 683.889 374.148 684.746 382.902 685.034 389.486 C 685.102 391.036 685.610 393.192 685.099 394.656 C 684.495 396.386 682.396 397.970 681.180 399.341 C 678.659 402.184 675.224 405.918 672.467 408.533 C 670.315 410.573 667.192 413.011 664.960 414.962 C 664.008 415.794 661.701 416.503 661.811 417.763 C 661.910 418.902 663.869 419.679 665.000 419.850 C 665.606 419.942 666.402 419.560 666.990 419.390 C 667.743 419.172 668.751 418.868 669.453 418.521 C 671.691 417.416 674.072 414.927 676.288 413.782 C 677.073 413.377 678.181 412.483 679.031 412.718 C 679.998 412.987 680.672 414.462 681.029 415.399 C 681.702 417.171 681.361 419.816 681.335 421.712 C 681.308 423.680 680.899 426.287 680.835 428.254 C 680.730 431.512 680.873 435.861 681.011 439.117 C 681.117 441.638 681.573 447.505 681.573 447.506 C 681.573 447.506 681.573 447.506 681.573 447.506 C 681.905 447.920 682.200 448.662 682.681 448.887 C 683.433 449.238 684.651 448.952 685.443 448.702 C 686.026 448.518 686.934 448.220 687.201 447.670 C 687.259 447.551 687.209 447.362 687.205 447.230 C 687.161 445.822 686.795 443.962 686.790 442.554 C 686.786 441.460 686.748 439.962 687.072 438.917 C 687.290 438.213 688.263 436.770 688.263 436.770 C 688.263 436.770 688.263 436.770 688.263 436.770 C 688.556 440.679 689.239 449.800 689.239 449.801 C 689.239 449.801 689.239 449.801 689.239 449.801 C 689.589 450.336 689.851 451.268 690.407 451.584 C 691.026 451.936 692.117 451.921 692.781 451.662 C 693.563 451.356 694.438 450.450 694.745 449.669 C 694.797 449.535 694.778 449.336 694.781 449.192 C 694.797 448.297 694.651 447.108 694.608 446.213 C 694.510 444.208 694.358 439.525 694.358 439.525 C 694.358 439.525 694.358 439.525 694.358 439.525 C 694.672 440.651 694.676 442.364 695.404 443.279 C 695.669 443.612 696.186 443.937 696.598 444.043 C 697.491 444.275 698.898 444.220 699.653 443.690 C 699.835 443.561 699.988 443.278 700.058 443.066 C 700.717 441.060 699.859 438.143 699.736 436.035 C 699.560 433.037 699.016 426.052 699.016 426.051 "/>
<path fill="#969696" fill-rule="evenodd" stroke="none" d="M 706.962 318.689 C 706.962 318.689 706.962 318.689 706.962 318.689 C 706.541 315.245 706.152 310.627 705.560 307.208 C 702.310 288.434 695.263 263.957 690.617 245.479 C 687.594 233.453 685.883 216.503 680.214 205.475 C 678.925 202.969 676.612 199.906 674.563 197.971 C 671.527 195.103 666.384 192.673 662.878 190.402 C 662.878 190.402 662.878 190.402 662.878 190.402 C 660.891 195.352 657.665 201.758 656.255 206.903 C 654.976 211.567 654.323 218.027 653.755 222.830 C 652.721 231.580 650.686 243.349 651.557 252.117 C 652.916 265.804 660.451 282.956 664.621 296.063 C 667.605 305.440 675.121 327.135 675.122 327.138 C 684.674 324.603 706.958 318.690 706.962 318.689 C 706.962 318.689 706.962 318.689 706.962 318.689 Z"/>
<path fill="none" stroke="#969696" stroke-width="1" stroke-linecap="round" stroke-linejoin="round" d="M 675.122 327.138 C 675.122 327.138 675.122 327.138 675.122 327.138 C 675.121 327.135 667.605 305.440 664.621 296.063 C 660.451 282.956 652.916 265.804 651.557 252.117 C 650.686 243.349 652.721 231.580 653.755 222.830 C 654.323 218.027 654.976 211.567 656.255 206.903 C 657.665 201.758 660.891 195.352 662.878 190.402 C 666.384 192.673 671.527 195.103 674.563 197.971 C 676.612 199.906 678.925 202.969 680.214 205.475 C 685.883 216.503 687.594 233.453 690.617 245.479 C 695.263 263.957 702.310 288.434 705.560 307.208 C 706.152 310.627 706.541 315.245 706.962 318.689 C 706.962 318.689 706.962 318.689 706.962 318.689 C 706.958 318.690 684.674 324.603 675.122 327.138 M 662.878 190.402 C 662.878 190.402 662.878 190.402 662.878 190.402 M 706.962 318.689 C 706.962 318.689 706.962 318.689 706.962 318.689 "/>
<path fill="#cccccc" fill-rule="evenodd" stroke="#cccccc" stroke-width="1" stroke-linecap="round" stroke-linejoin="round" d="M 692.718 315.844 C 688.073 316.261 681.886 317.477 677.520 319.115 C 675.134 320.009 671.266 320.882 670.022 323.107 C 669.297 324.404 669.627 326.626 670.017 328.059 C 670.836 331.072 673.314 334.746 675.667 336.797 C 676.590 337.602 678.058 338.700 679.283 338.693 C 680.234 338.689 681.263 337.692 682.113 337.265 C 684.462 336.088 687.458 334.184 689.954 333.363 C 693.202 332.295 697.780 331.312 701.194 331.484 C 702.248 331.537 703.641 332.652 704.623 332.267 C 706.110 331.683 706.761 329.178 707.355 327.694 C 708.277 325.387 709.424 322.047 709.062 319.588 C 708.903 318.511 707.963 317.298 707.492 316.317 C 707.492 316.317 707.492 316.317 707.492 316.317 C 707.456 316.285 697.135 315.449 692.718 315.844 Z"/>
</g>
<g id="Layer_7">
<path fill="#ffaa83" fill-rule="evenodd" stroke="none" d="M 538.361 441.274 C 539.017 439.408 538.951 436.695 539.203 434.733 C 539.203 434.734 539.128 441.740 539.154 444.743 C 539.172 446.854 538.511 449.822 539.302 451.780 C 539.386 451.987 539.558 452.259 539.749 452.375 C 540.538 452.853 541.945 452.814 542.821 452.523 C 543.225 452.389 543.719 452.031 543.961 451.681 C 544.626 450.719 544.516 449.010 544.754 447.865 C 544.754 447.866 544.915 452.548 544.952 454.555 C 544.969 455.450 544.903 456.647 544.979 457.539 C 544.991 457.682 544.985 457.882 545.046 458.012 C 545.405 458.771 546.339 459.616 547.140 459.869 C 547.819 460.084 548.909 460.026 549.503 459.633 C 550.037 459.280 550.236 458.333 550.550 457.776 C 550.550 457.774 550.621 448.629 550.651 444.708 C 550.651 444.709 551.719 446.083 551.984 446.771 C 552.377 447.792 552.439 449.289 552.508 450.381 C 552.598 451.786 552.357 453.667 552.407 455.074 C 552.412 455.206 552.375 455.399 552.441 455.513 C 552.744 456.044 553.670 456.280 554.264 456.425 C 555.071 456.622 556.305 456.826 557.033 456.425 C 557.498 456.169 557.742 455.409 558.046 454.973 C 558.046 454.972 558.108 449.087 558.046 446.565 C 557.965 443.307 557.817 438.958 557.494 435.715 C 557.298 433.756 556.716 431.182 556.557 429.220 C 556.405 427.330 555.887 424.715 556.440 422.902 C 556.733 421.942 557.308 420.425 558.254 420.093 C 559.087 419.801 560.253 420.619 561.063 420.971 C 563.352 421.965 565.894 424.289 568.201 425.242 C 568.925 425.541 569.951 425.777 570.716 425.944 C 571.315 426.075 572.135 426.402 572.734 426.270 C 573.850 426.023 575.753 425.117 575.776 423.974 C 575.801 422.710 573.452 422.157 572.447 421.391 C 570.088 419.593 566.808 417.370 564.525 415.478 C 561.599 413.054 557.921 409.557 555.215 406.889 C 553.910 405.603 551.709 404.163 550.991 402.478 C 550.383 401.051 550.745 398.865 550.709 397.315 C 550.557 390.726 550.826 381.935 551.085 375.349 C 551.295 369.983 551.841 362.842 552.168 357.483 C 552.470 352.537 552.877 345.943 553.181 340.997 C 553.178 340.996 536.290 338.740 529.051 337.773 C 529.313 348.965 529.380 363.899 529.927 375.081 C 530.179 380.236 530.705 387.100 531.143 392.242 C 531.777 399.688 533.409 409.557 533.637 417.026 C 533.800 422.371 533.102 429.495 533.016 434.842 C 532.976 437.328 531.734 440.998 533.016 443.128 C 533.291 443.587 533.959 443.994 534.466 444.165 C 535.094 444.376 536.091 444.511 536.676 444.198 C 537.568 443.720 538.025 442.229 538.361 441.274 M 529.051 337.773 C 529.051 337.773 529.051 337.773 529.051 337.773 Z"/>
<path fill="none" stroke="#ffaa83" stroke-width="1" stroke-linecap="round" stroke-linejoin="round" d="M 539.203 434.733 C 539.203 434.733 539.203 434.733 539.203 434.733 C 538.951 436.695 539.017 439.408 538.361 441.274 C 538.025 442.229 537.568 443.720 536.676 444.198 C 536.091 444.511 535.094 444.376 534.466 444.165 C 533.959 443.994 533.291 443.587 533.016 443.128 C 531.734 440.998 532.976 437.328 533.016 434.842 C 533.102 429.495 533.800 422.371 533.637 417.026 C 533.409 409.557 531.777 399.688 531.143 392.242 C 530.705 387.100 530.179 380.236 529.927 375.081 C 529.380 363.899 529.313 348.965 529.051 337.773 C 529.051 337.773 529.051 337.773 529.051 337.773 C 536.290 338.740 553.178 340.996 553.181 340.997 C 553.181 340.997 553.181 340.997 553.181 340.997 C 552.877 345.943 552.470 352.537 552.168 357.483 C 551.841 362.842 551.295 369.983 551.085 375.349 C 550.826 381.935 550.557 390.726 550.709 397.315 C 550.745 398.865 550.383 401.051 550.991 402.478 C 551.709 404.163 553.910 405.603 555.215 406.889 C 557.921 409.557 561.599 413.054 564.525 415.478 C 566.808 417.370 570.088 419.593 572.447 421.391 C 573.452 422.157 575.801 422.710 575.776 423.974 C 575.753 425.117 573.850 426.023 572.734 426.270 C 572.135 426.402 571.315 426.075 570.716 425.944 C 569.951 425.777 568.925 425.541 568.201 425.242 C 565.894 424.289 563.352 421.965 561.063 420.971 C 560.253 420.619 559.087 419.801 558.254 420.093 C 557.308 420.425 556.733 421.942 556.440 422.902 C 555.887 424.715 556.405 427.330 556.557 429.220 C 556.716 431.182 557.298 433.756 557.494 435.715 C 557.817 438.958 557.965 443.307 558.046 446.565 C 558.108 449.087 558.046 454.972 558.046 454.973 C 558.046 454.973 558.046 454.973 558.046 454.973 C 557.742 455.409 557.498 456.169 557.033 456.425 C 556.305 456.826 555.071 456.622 554.264 456.425 C 553.670 456.280 552.744 456.044 552.441 455.513 C 552.375 455.399 552.412 455.206 552.407 455.074 C 552.357 453.667 552.598 451.786 552.508 450.381 C 552.439 449.289 552.377 447.792 551.984 446.771 C 551.719 446.083 550.651 444.709 550.651 444.708 C 550.651 444.708 550.651 444.708 550.651 444.708 C 550.621 448.629 550.550 457.774 550.550 457.776 C 550.550 457.776 550.550 457.776 550.550 457.776 C 550.236 458.333 550.037 459.280 549.503 459.633 C 548.909 460.026 547.819 460.084 547.140 459.869 C 546.339 459.616 545.405 458.771 545.046 458.012 C 544.985 457.882 544.991 457.682 544.979 457.539 C 544.903 456.647 544.969 455.450 544.952 454.555 C 544.915 452.548 544.754 447.866 544.754 447.865 C 544.754 447.865 544.754 447.865 544.754 447.865 C 544.516 449.010 544.626 450.719 543.961 451.681 C 543.719 452.031 543.225 452.389 542.821 452.523 C 541.945 452.814 540.538 452.853 539.749 452.375 C 539.558 452.259 539.386 451.987 539.302 451.780 C 538.511 449.822 539.172 446.854 539.154 444.743 C 539.128 441.740 539.203 434.734 539.203 434.733 "/>
<path fill="#969696" fill-rule="evenodd" stroke="none" d="M 524.090 328.143 C 524.090 328.143 524.090 328.143 524.090 328.143 C 524.279 324.679 524.358 320.045 524.720 316.594 C 526.707 297.645 532.101 272.752 535.501 254.004 C 537.714 241.802 538.286 224.776 543.206 213.393 C 544.324 210.806 546.428 207.596 548.342 205.528 C 551.180 202.463 556.150 199.694 559.496 197.194 C 559.496 197.194 559.496 197.194 559.496 197.194 C 561.810 202.000 565.458 208.176 567.210 213.215 C 568.798 217.783 569.882 224.184 570.770 228.939 C 572.388 237.600 575.206 249.207 574.924 258.013 C 574.484 271.760 568.112 289.379 564.827 302.735 C 562.478 312.291 556.429 334.440 556.428 334.443 C 546.727 332.553 524.093 328.144 524.090 328.143 C 524.090 328.143 524.090 328.143 524.090 328.143 Z"/>
<path fill="none" stroke="#969696" stroke-width="1" stroke-linecap="round" stroke-linejoin="round" d="M 556.428 334.443 C 556.428 334.443 556.428 334.443 556.428 334.443 C 556.429 334.440 562.478 312.291 564.827 302.735 C 568.112 289.379 574.484 271.760 574.924 258.013 C 575.206 249.207 572.388 237.600 570.770 228.939 C 569.882 224.184 568.798 217.783 567.210 213.215 C 565.458 208.176 561.810 202.000 559.496 197.194 C 556.150 199.694 551.180 202.463 548.342 205.528 C 546.428 207.596 544.324 210.806 543.206 213.393 C 538.286 224.776 537.714 241.802 535.501 254.004 C 532.101 272.752 526.707 297.645 524.720 316.594 C 524.358 320.045 524.279 324.679 524.090 328.143 C 524.090 328.143 524.090 328.143 524.090 328.143 C 524.093 328.144 546.727 332.553 556.428 334.443 M 559.496 197.194 C 559.496 197.194 559.496 197.194 559.496 197.194 M 524.090 328.143 C 524.090 328.143 524.090 328.143 524.090 328.143 "/>
<path fill="#cccccc" fill-rule="evenodd" stroke="#cccccc" stroke-width="1" stroke-linecap="round" stroke-linejoin="round" d="M 538.114 324.352 C 542.777 324.457 549.032 325.256 553.499 326.598 C 555.940 327.331 559.858 327.943 561.248 330.079 C 562.058 331.325 561.878 333.564 561.585 335.021 C 560.969 338.081 558.742 341.913 556.531 344.117 C 555.664 344.982 554.272 346.175 553.050 346.251 C 552.100 346.310 551.007 345.384 550.130 345.015 C 547.707 343.998 544.590 342.298 542.044 341.646 C 538.732 340.798 534.098 340.123 530.702 340.523 C 529.654 340.647 528.339 341.853 527.333 341.534 C 525.809 341.051 524.992 338.595 524.301 337.154 C 523.226 334.914 521.857 331.658 522.055 329.181 C 522.141 328.096 522.998 326.823 523.402 325.812 C 523.402 325.812 523.402 325.812 523.402 325.812 C 523.436 325.778 533.680 324.253 538.114 324.352 Z"/>
</g>
<g id="Layer_9">
<path fill="#90938c" fill-rule="evenodd" stroke="none" d="M 593.665 168.305 C 593.665 168.305 593.665 168.305 593.665 168.305 C 592.985 170.661 592.077 173.803 591.396 176.160 C 591.396 176.160 591.396 176.160 591.396 176.160 C 591.082 182.862 590.349 198.499 590.349 198.502 C 603.754 197.664 635.028 195.709 635.033 195.709 C 634.090 187.749 631.891 169.180 631.891 169.178 C 620.423 168.916 593.669 168.305 593.665 168.305 C 593.665 168.305 593.665 168.305 593.665 168.305 Z"/>
<path fill="none" stroke="#90938c" stroke-width="1" stroke-linecap="round" stroke-linejoin="round" d="M 635.033 195.709 C 635.033 195.709 635.033 195.709 635.033 195.709 C 635.028 195.709 603.754 197.664 590.349 198.502 C 590.349 198.502 590.349 198.502 590.349 198.502 C 590.349 198.499 591.082 182.862 591.396 176.160 C 592.077 173.803 592.985 170.661 593.665 168.305 C 593.665 168.305 593.665 168.305 593.665 168.305 C 593.669 168.305 620.423 168.916 631.891 169.178 C 631.891 169.178 631.891 169.178 631.891 169.178 C 631.891 169.180 634.090 187.749 635.033 195.709 M 591.396 176.160 C 591.396 176.160 591.396 176.160 591.396 176.160 M 593.665 168.305 C 593.665 168.305 593.665 168.305 593.665 168.305 "/>
<path fill="#f4a07e" fill-rule="evenodd" stroke="none" d="M 599.299 198.477 C 599.299 198.477 599.299 198.477 599.299 198.477 C 599.269 196.206 599.241 193.179 599.200 190.909 C 598.996 179.544 598.549 164.396 598.270 153.033 C 598.270 153.033 598.270 153.033 598.270 153.033 C 606.861 154.319 626.905 157.320 626.908 157.320 C 627.011 169.770 627.251 198.816 627.251 198.820 C 618.865 198.717 599.301 198.477 599.299 198.477 C 599.299 198.477 599.299 198.477 599.299 198.477 Z"/>
<path fill="none" stroke="#ea8b6d" stroke-width="1" stroke-linecap="round" stroke-linejoin="round" d="M 627.251 198.820 C 627.251 198.820 627.251 198.820 627.251 198.820 C 627.251 198.816 627.011 169.770 626.908 157.320 C 626.908 157.320 626.908 157.320 626.908 157.320 C 626.905 157.320 606.861 154.319 598.270 153.033 C 598.549 164.396 598.996 179.544 599.200 190.909 C 599.241 193.179 599.269 196.206 599.299 198.477 C 599.299 198.477 599.299 198.477 599.299 198.477 C 599.301 198.477 618.865 198.717 627.251 198.820 M 598.270 153.033 C 598.270 153.033 598.270 153.033 598.270 153.033 M 599.299 198.477 C 599.299 198.477 599.299 198.477 599.299 198.477 "/>
<path fill="#969696" fill-rule="evenodd" stroke="none" d="M 632.240 174.938 C 632.240 174.938 632.240 174.938 632.240 174.938 C 631.455 176.299 630.414 178.118 629.622 179.476 C 627.599 182.943 625.792 188.303 622.815 190.996 C 621.460 192.221 619.181 193.368 617.404 193.789 C 614.548 194.465 610.424 194.334 607.629 193.440 C 606.286 193.010 604.706 191.889 603.614 190.996 C 599.764 187.845 596.039 182.199 592.793 178.429 C 592.793 178.429 592.793 178.429 592.793 178.429 C 596.772 197.070 606.057 240.561 606.058 240.567 C 614.541 240.096 634.332 238.997 634.335 238.996 C 633.706 219.779 632.240 174.944 632.240 174.938 C 632.240 174.938 632.240 174.938 632.240 174.938 Z"/>
<path fill="none" stroke="#969696" stroke-width="1" stroke-linecap="round" stroke-linejoin="round" d="M 634.335 238.996 C 634.335 238.996 634.335 238.996 634.335 238.996 C 634.332 238.997 614.541 240.096 606.058 240.567 C 606.058 240.567 606.058 240.567 606.058 240.567 C 606.057 240.561 596.772 197.070 592.793 178.429 C 596.039 182.199 599.764 187.845 603.614 190.996 C 604.706 191.889 606.286 193.010 607.629 193.440 C 610.424 194.334 614.548 194.465 617.404 193.789 C 619.181 193.368 621.460 192.221 622.815 190.996 C 625.792 188.303 627.599 182.943 629.622 179.476 C 630.414 178.118 631.455 176.299 632.240 174.938 C 632.240 174.938 632.240 174.938 632.240 174.938 C 632.240 174.944 633.706 219.779 634.335 238.996 M 592.793 178.429 C 592.793 178.429 592.793 178.429 592.793 178.429 M 632.240 174.938 C 632.240 174.938 632.240 174.938 632.240 174.938 "/>
<path fill="#979596" fill-rule="evenodd" stroke="none" d="M 572.663 338.752 C 573.985 345.173 577.661 353.209 579.804 359.404 C 579.811 359.404 633.290 360.240 656.213 360.598 C 656.213 360.586 653.575 276.422 655.417 240.413 C 656.197 225.165 658.980 204.967 660.507 189.775 C 660.506 189.774 651.029 184.440 646.841 182.400 C 645.112 181.558 642.868 180.179 640.984 179.797 C 639.772 179.551 638.037 179.412 636.862 179.797 C 635.142 180.359 633.000 181.921 632.090 183.485 C 626.561 192.992 636.512 210.075 632.090 220.144 C 630.775 223.139 627.918 227.513 624.715 228.171 C 621.349 228.862 616.918 225.626 614.302 223.398 C 606.731 216.950 602.412 203.467 597.599 194.764 C 595.711 191.351 593.173 186.803 591.525 183.267 C 590.662 181.416 589.703 178.864 588.922 176.977 C 588.920 176.978 576.441 183.978 571.351 187.389 C 567.297 190.107 562.241 194.222 558.336 197.151 C 561.620 219.773 567.273 249.787 569.283 272.558 C 569.996 280.646 570.009 291.489 570.409 299.599 C 570.988 311.350 570.290 327.228 572.663 338.752 M 558.336 197.151 C 558.336 197.151 558.336 197.151 558.336 197.151 Z"/>
<path fill="none" stroke="#979596" stroke-width="1" stroke-linecap="round" stroke-linejoin="round" d="M 579.804 359.404 C 579.804 359.404 579.804 359.404 579.804 359.404 C 577.661 353.209 573.985 345.173 572.663 338.752 C 570.290 327.228 570.988 311.350 570.409 299.599 C 570.009 291.489 569.996 280.646 569.283 272.558 C 567.273 249.787 561.620 219.773 558.336 197.151 C 558.336 197.151 558.336 197.151 558.336 197.151 C 562.241 194.222 567.297 190.107 571.351 187.389 C 576.441 183.978 588.920 176.978 588.922 176.977 C 588.922 176.977 588.922 176.977 588.922 176.977 C 589.703 178.864 590.662 181.416 591.525 183.267 C 593.173 186.803 595.711 191.351 597.599 194.764 C 602.412 203.467 606.731 216.950 614.302 223.398 C 616.918 225.626 621.349 228.862 624.715 228.171 C 627.918 227.513 630.775 223.139 632.090 220.144 C 636.512 210.075 626.561 192.992 632.090 183.485 C 633.000 181.921 635.142 180.359 636.862 179.797 C 638.037 179.412 639.772 179.551 640.984 179.797 C 642.868 180.179 645.112 181.558 646.841 182.400 C 651.029 184.440 660.506 189.774 660.507 189.775 C 660.507 189.775 660.507 189.775 660.507 189.775 C 658.980 204.967 656.197 225.165 655.417 240.413 C 653.575 276.422 656.213 360.586 656.213 360.598 C 656.213 360.598 656.213 360.598 656.213 360.598 C 633.290 360.240 579.811 359.404 579.804 359.404 "/>
<path fill="#2b496b" fill-rule="evenodd" stroke="none" d="M 567.497 189.312 C 570.749 187.067 575.085 184.074 578.336 181.829 C 578.337 181.830 581.748 189.825 582.965 193.344 C 586.148 202.545 589.119 215.211 591.755 224.583 C 593.544 230.940 595.927 239.416 597.715 245.774 C 597.720 245.773 631.553 244.383 646.055 243.787 C 646.055 243.783 648.652 213.667 649.587 200.744 C 649.960 195.582 650.359 188.692 650.690 183.527 C 650.691 183.528 656.485 185.413 658.851 186.507 C 660.256 187.157 662.007 188.266 663.360 189.020 C 663.360 189.022 662.054 204.444 661.438 211.049 C 660.659 219.395 658.816 230.472 658.664 238.853 C 658.536 245.955 659.673 255.396 660.097 262.487 C 660.897 275.878 662.159 293.724 662.723 307.128 C 663.259 319.890 663.580 336.920 663.807 349.690 C 663.953 357.946 665.478 369.070 664.099 377.211 C 663.714 379.485 662.460 382.335 661.757 384.531 C 650.954 385.497 636.592 387.839 625.746 387.751 C 614.882 387.664 599.385 388.933 589.734 383.945 C 584.436 381.207 580.102 373.903 575.974 369.599 C 575.973 369.596 573.514 348.490 572.460 339.443 C 572.461 339.441 580.360 324.839 582.415 318.071 C 585.712 307.207 586.782 291.912 587.685 280.595 C 588.250 273.501 588.095 263.995 588.270 256.880 C 588.268 256.874 573.729 209.582 567.497 189.312 C 567.497 189.312 567.497 189.312 567.497 189.312 M 661.757 384.531 C 661.757 384.531 661.757 384.531 661.757 384.531 Z"/>
<path fill="none" stroke="#2b496b" stroke-width="1" stroke-linecap="round" stroke-linejoin="round" d="M 578.336 181.829 C 578.336 181.829 578.336 181.829 578.336 181.829 C 575.085 184.074 570.749 187.067 567.497 189.312 C 567.497 189.312 567.497 189.312 567.497 189.312 C 573.729 209.582 588.268 256.874 588.270 256.880 C 588.270 256.880 588.270 256.880 588.270 256.880 C 588.095 263.995 588.250 273.501 587.685 280.595 C 586.782 291.912 585.712 307.207 582.415 318.071 C 580.360 324.839 572.461 339.441 572.460 339.443 C 572.460 339.443 572.460 339.443 572.460 339.443 C 573.514 348.490 575.973 369.596 575.974 369.599 C 575.974 369.599 575.974 369.599 575.974 369.599 C 580.102 373.903 584.436 381.207 589.734 383.945 C 599.385 388.933 614.882 387.664 625.746 387.751 C 636.592 387.839 650.954 385.497 661.757 384.531 C 661.757 384.531 661.757 384.531 661.757 384.531 C 662.460 382.335 663.714 379.485 664.099 377.211 C 665.478 369.070 663.953 357.946 663.807 349.690 C 663.580 336.920 663.259 319.890 662.723 307.128 C 662.159 293.724 660.897 275.878 660.097 262.487 C 659.673 255.396 658.536 245.955 658.664 238.853 C 658.816 230.472 660.659 219.395 661.438 211.049 C 662.054 204.444 663.360 189.022 663.360 189.020 C 663.360 189.020 663.360 189.020 663.360 189.020 C 662.007 188.266 660.256 187.157 658.851 186.507 C 656.485 185.413 650.691 183.528 650.690 183.527 C 650.690 183.527 650.690 183.527 650.690 183.527 C 650.359 188.692 649.960 195.582 649.587 200.744 C 648.652 213.667 646.055 243.783 646.055 243.787 C 646.055 243.787 646.055 243.787 646.055 243.787 C 631.553 244.383 597.720 245.773 597.715 245.774 C 597.715 245.774 597.715 245.774 597.715 245.774 C 595.927 239.416 593.544 230.940 591.755 224.583 C 589.119 215.211 586.148 202.545 582.965 193.344 C 581.748 189.825 578.337 181.830 578.336 181.829 "/>
<path fill="#365a7c" fill-rule="evenodd" stroke="none" d="M 647.419 263.357 C 647.419 263.357 647.419 263.357 647.419 263.357 C 634.649 263.911 617.622 264.650 604.852 265.204 C 604.852 265.204 604.852 265.204 604.852 265.204 C 605.026 272.960 605.435 291.053 605.435 291.056 C 606.280 292.893 607.203 295.450 608.253 297.179 C 609.837 299.786 612.147 303.295 614.570 305.148 C 616.520 306.639 619.643 307.989 622.054 308.452 C 625.667 309.146 630.810 308.940 634.299 307.772 C 637.313 306.763 641.026 304.311 643.143 301.941 C 645.193 299.646 647.808 292.806 647.808 292.805 C 647.692 283.971 647.419 263.360 647.419 263.357 C 647.419 263.357 647.419 263.357 647.419 263.357 Z"/>
<path fill="none" stroke="#365a7c" stroke-width="1" stroke-linecap="round" stroke-linejoin="round" d="M 605.435 291.056 C 605.435 291.056 605.435 291.056 605.435 291.056 C 605.435 291.053 605.026 272.960 604.852 265.204 C 617.622 264.650 634.649 263.911 647.419 263.357 C 647.419 263.357 647.419 263.357 647.419 263.357 C 647.419 263.360 647.692 283.971 647.808 292.805 C 647.808 292.805 647.808 292.805 647.808 292.805 C 647.808 292.806 645.193 299.646 643.143 301.941 C 641.026 304.311 637.313 306.763 634.299 307.772 C 630.810 308.940 625.667 309.146 622.054 308.452 C 619.643 307.989 616.520 306.639 614.570 305.148 C 612.147 303.295 609.837 299.786 608.253 297.179 C 607.203 295.450 606.280 292.893 605.435 291.056 M 604.852 265.204 C 604.852 265.204 604.852 265.204 604.852 265.204 M 647.419 263.357 C 647.419 263.357 647.419 263.357 647.419 263.357 "/>
<path fill="#cccccc" fill-rule="evenodd" stroke="none" d="M 641.747 175.040 C 641.747 175.040 641.747 175.040 641.747 175.040 C 638.623 172.980 634.458 170.234 631.334 168.175 C 631.334 168.175 631.334 168.175 631.334 168.175 C 629.390 177.383 626.622 189.626 624.855 198.870 C 623.787 204.453 622.363 211.904 621.619 217.539 C 621.020 222.075 620.043 228.152 620.208 232.724 C 620.265 234.307 620.955 237.951 620.955 237.952 C 621.932 233.916 623.160 228.516 624.211 224.498 C 625.399 219.954 627.265 213.971 628.458 209.428 C 628.686 208.560 628.847 207.360 629.178 206.526 C 629.540 205.613 630.125 204.400 630.787 203.674 C 631.263 203.151 632.705 202.304 632.705 202.304 C 637.884 204.482 649.966 209.564 649.968 209.565 C 647.502 199.207 641.748 175.043 641.747 175.040 C 641.747 175.040 641.747 175.040 641.747 175.040 Z"/>
<path fill="none" stroke="#cccccc" stroke-width="1" stroke-linecap="round" stroke-linejoin="round" d="M 632.705 202.304 C 632.705 202.304 632.705 202.304 632.705 202.304 C 632.705 202.304 631.263 203.151 630.787 203.674 C 630.125 204.400 629.540 205.613 629.178 206.526 C 628.847 207.360 628.686 208.560 628.458 209.428 C 627.265 213.971 625.399 219.954 624.211 224.498 C 623.160 228.516 621.932 233.916 620.955 237.952 C 620.955 237.952 620.955 237.952 620.955 237.952 C 620.955 237.951 620.265 234.307 620.208 232.724 C 620.043 228.152 621.020 222.075 621.619 217.539 C 622.363 211.904 623.787 204.453 624.855 198.870 C 626.622 189.626 629.390 177.383 631.334 168.175 C 634.458 170.234 638.623 172.980 641.747 175.040 C 641.747 175.040 641.747 175.040 641.747 175.040 C 641.748 175.043 647.502 199.207 649.968 209.565 C 649.968 209.565 649.968 209.565 649.968 209.565 C 649.966 209.564 637.884 204.482 632.705 202.304 M 631.334 168.175 C 631.334 168.175 631.334 168.175 631.334 168.175 M 641.747 175.040 C 641.747 175.040 641.747 175.040 641.747 175.040 "/>
<path fill="#cccccc" fill-rule="evenodd" stroke="none" d="M 582.317 175.236 C 582.317 175.236 582.317 175.236 582.317 175.236 C 585.784 173.118 590.408 170.293 593.876 168.175 C 593.876 168.175 593.876 168.175 593.876 168.175 C 595.096 170.870 596.698 174.474 597.944 177.157 C 600.824 183.355 605.058 191.437 607.778 197.707 C 610.699 204.442 614.408 213.521 616.663 220.508 C 617.711 223.753 618.892 228.153 619.597 231.489 C 620.012 233.452 620.668 238.092 620.668 238.092 C 616.672 231.255 611.560 222.008 607.347 215.302 C 604.774 211.206 598.379 201.905 598.378 201.904 C 593.728 205.392 582.878 213.529 582.877 213.530 C 582.709 202.042 582.317 175.240 582.317 175.236 C 582.317 175.236 582.317 175.236 582.317 175.236 Z"/>
<path fill="none" stroke="#cccccc" stroke-width="1" stroke-linecap="round" stroke-linejoin="round" d="M 598.378 201.904 C 598.378 201.904 598.378 201.904 598.378 201.904 C 598.379 201.905 604.774 211.206 607.347 215.302 C 611.560 222.008 616.672 231.255 620.668 238.092 C 620.668 238.092 620.668 238.092 620.668 238.092 C 620.668 238.092 620.012 233.452 619.597 231.489 C 618.892 228.153 617.711 223.753 616.663 220.508 C 614.408 213.521 610.699 204.442 607.778 197.707 C 605.058 191.437 600.824 183.355 597.944 177.157 C 596.698 174.474 595.096 170.870 593.876 168.175 C 590.408 170.293 585.784 173.118 582.317 175.236 C 582.317 175.236 582.317 175.236 582.317 175.236 C 582.317 175.240 582.709 202.042 582.877 213.530 C 582.877 213.530 582.877 213.530 582.877 213.530 C 582.878 213.529 593.728 205.392 598.378 201.904 M 593.876 168.175 C 593.876 168.175 593.876 168.175 593.876 168.175 M 582.317 175.236 C 582.317 175.236 582.317 175.236 582.317 175.236 "/>
</g>
<g id="Layer_3">
<path fill="#c6761f" fill-rule="evenodd" stroke="none" d="M 673.736 109.002 C 675.191 107.291 676.986 104.892 678.379 103.130 C 678.377 103.129 659.094 96.991 650.516 96.523 C 641.405 96.025 629.068 97.673 620.344 100.344 C 605.741 104.814 587.810 115.320 575.347 124.145 C 571.883 126.598 566.697 129.720 564.705 133.467 C 565.575 136.806 571.266 137.123 574.345 137.813 C 583.585 139.886 596.448 138.588 605.908 138.162 C 617.329 137.647 633.120 138.271 643.815 134.232 C 649.638 132.032 656.330 126.742 661.058 122.695 C 665.310 119.054 670.109 113.267 673.736 109.002 M 564.705 133.467 C 564.657 133.558 564.592 133.700 564.622 133.797 Z"/>
<path fill="none" stroke="#c6761f" stroke-width="1" stroke-linecap="round" stroke-linejoin="round" d="M 678.379 103.130 C 678.379 103.130 678.379 103.130 678.379 103.130 C 676.986 104.892 675.191 107.291 673.736 109.002 C 670.109 113.267 665.310 119.054 661.058 122.695 C 656.330 126.742 649.638 132.032 643.815 134.232 C 633.120 138.271 617.329 137.647 605.908 138.162 C 596.448 138.588 583.585 139.886 574.345 137.813 C 571.266 137.123 565.575 136.806 564.622 133.797 C 564.657 133.558 564.592 133.700 564.622 133.797 C 566.697 129.720 571.883 126.598 575.347 124.145 C 587.810 115.320 605.741 104.814 620.344 100.344 C 629.068 97.673 641.405 96.025 650.516 96.523 C 659.094 96.991 678.377 103.129 678.379 103.130 "/>
<path fill="#734524" fill-rule="evenodd" stroke="#734524" stroke-width="1" stroke-linecap="round" stroke-linejoin="round" d="M 654.742 112.627 C 654.621 118.302 656.463 126.761 653.332 131.496 C 652.700 132.452 651.328 133.555 650.187 133.665 C 649.459 133.736 648.401 133.339 647.910 132.798 C 640.769 124.944 646.758 108.055 646.500 97.444 C 646.434 94.744 644.588 90.453 646.391 88.443 C 647.817 86.854 651.810 86.088 653.440 87.467 C 654.098 88.023 653.820 89.441 653.983 90.287 C 653.983 90.287 653.983 90.287 653.983 90.287 C 653.983 90.254 654.884 105.922 654.742 112.627 Z"/>
<path fill="#ffaa83" fill-rule="evenodd" stroke="#eb8a6a" stroke-width="1" stroke-linecap="round" stroke-linejoin="round" d="M 650.111 92.058 C 650.111 92.058 650.111 92.058 650.111 92.058 C 650.494 106.468 651.221 125.679 651.388 140.094 C 651.428 143.467 652.283 148.085 651.388 151.337 C 650.119 155.951 646.683 161.877 642.957 164.879 C 638.539 168.438 630.742 170.897 625.070 171.011 C 617.508 171.164 607.136 167.840 601.052 163.346 C 597.439 160.677 593.797 155.499 592.109 151.337 C 589.847 145.759 590.330 137.403 589.809 131.407 C 588.840 120.240 588.379 105.293 587.765 94.102 C 587.765 94.102 587.765 94.102 587.765 94.102 C 590.678 90.575 593.411 84.447 597.475 82.348 C 608.168 76.824 626.291 78.715 637.591 82.859 C 641.966 84.464 650.110 92.057 650.111 92.058 C 650.111 92.058 650.111 92.058 650.111 92.058 Z"/>
<path fill="#5a3219" fill-rule="evenodd" stroke="none" d="M 618.547 108.756 C 618.547 108.756 618.547 108.756 618.547 108.756 C 616.968 108.602 614.871 108.247 613.285 108.242 C 610.304 108.233 606.366 108.961 603.401 109.269 C 603.401 109.269 603.401 109.269 603.401 109.269 C 603.324 110.925 603.144 114.788 603.144 114.789 C 605.609 114.326 608.858 113.429 611.359 113.248 C 613.435 113.098 618.290 113.505 618.290 113.505 C 618.367 112.080 618.547 108.756 618.547 108.756 C 618.547 108.756 618.547 108.756 618.547 108.756 Z"/>
<path fill="none" stroke="#5a3219" stroke-width="0" stroke-linecap="round" stroke-linejoin="round" d="M 618.290 113.505 C 618.290 113.505 618.290 113.505 618.290 113.505 C 618.290 113.505 613.435 113.098 611.359 113.248 C 608.858 113.429 605.609 114.326 603.144 114.789 C 603.144 114.789 603.144 114.789 603.144 114.789 C 603.144 114.788 603.324 110.925 603.401 109.269 C 606.366 108.961 610.304 108.233 613.285 108.242 C 614.871 108.247 616.968 108.602 618.547 108.756 C 618.547 108.756 618.547 108.756 618.547 108.756 C 618.547 108.756 618.367 112.080 618.290 113.505 M 603.401 109.269 C 603.401 109.269 603.401 109.269 603.401 109.269 M 618.547 108.756 C 618.547 108.756 618.547 108.756 618.547 108.756 "/>
<path fill="#5a3219" fill-rule="evenodd" stroke="none" d="M 634.352 106.667 C 634.352 106.667 634.352 106.667 634.352 106.667 C 635.733 106.512 637.567 106.206 638.956 106.149 C 641.800 106.034 645.592 106.424 648.437 106.542 C 648.437 106.542 648.437 106.542 648.437 106.542 C 648.550 107.826 648.813 110.822 648.813 110.823 C 646.666 110.627 643.810 110.071 641.656 110.169 C 639.522 110.266 634.654 111.455 634.653 111.455 C 634.563 110.019 634.352 106.668 634.352 106.667 C 634.352 106.667 634.352 106.667 634.352 106.667 Z"/>
<path fill="none" stroke="#5a3219" stroke-width="0" stroke-linecap="round" stroke-linejoin="round" d="M 634.653 111.455 C 634.653 111.455 634.653 111.455 634.653 111.455 C 634.654 111.455 639.522 110.266 641.656 110.169 C 643.810 110.071 646.666 110.627 648.813 110.823 C 648.813 110.823 648.813 110.823 648.813 110.823 C 648.813 110.822 648.550 107.826 648.437 106.542 C 645.592 106.424 641.800 106.034 638.956 106.149 C 637.567 106.206 635.733 106.512 634.352 106.667 C 634.352 106.667 634.352 106.667 634.352 106.667 C 634.352 106.668 634.563 110.019 634.653 111.455 M 648.437 106.542 C 648.437 106.542 648.437 106.542 648.437 106.542 M 634.352 106.667 C 634.352 106.667 634.352 106.667 634.352 106.667 "/>
<path fill="#363d45" fill-rule="evenodd" stroke="#363d45" stroke-width="1" stroke-linecap="round" stroke-linejoin="round" d="M 611.039 118.693 C 613.077 118.693 615.237 120.629 615.237 124.412 C 615.237 128.196 613.077 130.132 611.039 130.132 C 609.001 130.132 606.841 128.196 606.841 124.412 C 606.841 120.629 609.001 118.693 611.039 118.693 Z"/>
<path fill="#363d45" fill-rule="evenodd" stroke="#363d45" stroke-width="1" stroke-linecap="round" stroke-linejoin="round" d="M 640.529 116.174 C 642.567 116.174 644.727 118.110 644.727 121.894 C 644.727 125.677 642.567 127.613 640.529 127.613 C 638.491 127.613 636.331 125.677 636.331 121.894 C 636.332 118.110 638.492 116.174 640.529 116.174 Z"/>
<path fill="#d58562" fill-rule="evenodd" stroke="#d58562" stroke-width="1" stroke-linecap="round" stroke-linejoin="round" d="M 631.021 135.036 C 632.620 134.762 634.477 132.951 636.086 133.150 C 636.266 133.173 636.534 133.264 636.625 133.420 C 637.210 134.434 636.066 136.149 635.440 137.138 C 634.779 138.182 633.592 139.543 632.422 139.940 C 631.191 140.357 629.300 140.034 628.112 139.508 C 627.002 139.017 625.831 137.779 625.094 136.815 C 624.739 136.349 623.875 135.591 624.179 135.090 C 624.356 134.797 624.971 134.977 625.310 134.928 C 625.310 134.928 625.310 134.928 625.310 134.928 C 625.278 134.945 629.332 135.326 631.021 135.036 Z"/>
<path fill="#df9d9b" fill-rule="evenodd" stroke="#d06a75" stroke-width="2" stroke-linecap="round" stroke-linejoin="round" d="M 628.603 148.940 C 634.133 148.940 636.855 149.304 636.877 149.536 C 636.901 149.786 633.941 150.328 628.006 150.282 C 622.863 150.242 620.344 149.753 620.328 149.536 C 620.311 149.303 623.072 148.940 628.603 148.940 Z"/>
<path fill="#ffaa83" fill-rule="evenodd" stroke="#ffaa83" stroke-width="1" stroke-linecap="round" stroke-linejoin="round" d="M 588.971 124.185 C 587.713 122.780 585.484 121.109 583.609 120.905 C 582.036 120.733 579.708 121.420 578.596 122.545 C 577.157 124.001 576.704 127.060 576.729 129.107 C 576.761 131.855 578.097 135.507 579.604 137.806 C 580.877 139.746 583.231 142.016 585.328 143.011 C 587.603 144.090 591.776 145.900 593.637 144.204 C 594.675 143.257 594.061 140.934 593.970 139.531 C 593.801 136.916 592.648 133.561 592.081 131.003 C 592.081 131.003 592.081 131.003 592.081 131.003 C 592.026 130.939 590.470 125.860 588.971 124.185 Z"/>
<path fill="#e38063" fill-rule="evenodd" stroke="#e38063" stroke-width="1" stroke-linecap="round" stroke-linejoin="round" d="M 589.887 133.744 C 590.641 132.961 589.991 131.159 589.646 130.129 C 589.070 128.416 587.662 126.251 586.201 125.187 C 585.105 124.388 583.221 123.451 581.905 123.781 C 580.587 124.111 579.121 125.740 578.774 127.054 C 578.069 129.723 580.150 133.511 581.749 135.760 C 582.831 137.282 584.820 140.367 586.564 139.702 C 587.015 139.529 587.138 138.719 587.267 138.253 C 587.617 136.984 587.416 135.186 587.480 133.872 C 587.480 133.872 587.480 133.872 587.480 133.872 C 587.576 133.788 589.385 134.265 589.887 133.744 Z"/>
<path fill="#744527" fill-rule="evenodd" stroke="#744527" stroke-width="1" stroke-linecap="round" stroke-linejoin="round" d="M 596.061 130.896 C 596.107 133.307 597.991 137.346 596.175 138.933 C 595.553 139.478 594.161 139.415 593.420 139.048 C 590.631 137.667 590.181 132.550 588.827 129.748 C 587.600 127.209 585.402 124.008 584.808 121.251 C 583.879 116.938 583.907 110.713 585.382 106.554 C 586.226 104.177 587.811 100.461 590.205 99.665 C 591.656 99.183 594.202 99.722 595.142 100.928 C 595.716 101.663 595.303 103.098 595.372 104.028 C 595.372 104.028 595.372 104.028 595.372 104.028 C 595.406 104.166 595.905 122.835 596.061 130.896 Z"/>
<g id="Layer_5">
<clipPath id="4b723d66-6111-456c-aaf3-ec123b3a7005">
<path fill="#f1aa2a" fill-rule="evenodd" stroke="none" d="M 662.296 100.342 C 667.162 100.724 673.522 102.263 678.333 103.086 C 678.331 103.085 664.341 93.396 659.037 88.422 C 657.071 86.577 654.835 83.739 653.034 81.733 C 653.034 81.732 653.068 78.364 652.791 76.957 C 652.475 75.351 651.806 73.221 650.965 71.817 C 649.542 69.441 646.904 66.671 644.608 65.122 C 642.775 63.885 639.915 62.917 637.778 62.349 C 634.990 61.608 631.124 61.225 628.242 61.132 C 624.136 60.999 618.647 61.493 614.581 62.079 C 609.870 62.757 603.606 64.010 599.094 65.527 C 594.869 66.948 589.298 69.242 585.579 71.699 C 582.561 73.692 578.565 76.715 576.619 79.763 C 574.940 82.394 573.956 86.597 573.483 89.683 C 573.148 91.869 572.903 94.906 573.424 97.056 C 573.808 98.636 575.785 100.267 575.877 101.891 C 575.922 102.680 575.352 103.659 575.099 104.408 C 573.393 109.461 570.673 116.039 568.826 121.042 C 567.373 124.978 565.496 130.249 564.069 134.194 C 569.091 131.312 575.773 127.444 580.809 124.587 C 587.867 120.584 597.116 114.930 604.408 111.372 C 608.228 109.508 613.398 107.129 617.435 105.802 C 623.929 103.668 632.871 101.594 639.656 100.771 C 646.400 99.953 655.524 99.810 662.296 100.342 M 564.069 134.194 C 564.069 134.194 564.069 134.194 564.069 134.194 Z"/>
</clipPath>
<path fill="#f1aa2a" fill-rule="evenodd" stroke="none" d="M 662.296 100.342 C 667.162 100.724 673.522 102.263 678.333 103.086 C 678.331 103.085 664.341 93.396 659.037 88.422 C 657.071 86.577 654.835 83.739 653.034 81.733 C 653.034 81.732 653.068 78.364 652.791 76.957 C 652.475 75.351 651.806 73.221 650.965 71.817 C 649.542 69.441 646.904 66.671 644.608 65.122 C 642.775 63.885 639.915 62.917 637.778 62.349 C 634.990 61.608 631.124 61.225 628.242 61.132 C 624.136 60.999 618.647 61.493 614.581 62.079 C 609.870 62.757 603.606 64.010 599.094 65.527 C 594.869 66.948 589.298 69.242 585.579 71.699 C 582.561 73.692 578.565 76.715 576.619 79.763 C 574.940 82.394 573.956 86.597 573.483 89.683 C 573.148 91.869 572.903 94.906 573.424 97.056 C 573.808 98.636 575.785 100.267 575.877 101.891 C 575.922 102.680 575.352 103.659 575.099 104.408 C 573.393 109.461 570.673 116.039 568.826 121.042 C 567.373 124.978 565.496 130.249 564.069 134.194 C 569.091 131.312 575.773 127.444 580.809 124.587 C 587.867 120.584 597.116 114.930 604.408 111.372 C 608.228 109.508 613.398 107.129 617.435 105.802 C 623.929 103.668 632.871 101.594 639.656 100.771 C 646.400 99.953 655.524 99.810 662.296 100.342 M 564.069 134.194 C 564.069 134.194 564.069 134.194 564.069 134.194 Z"/>
<path fill="none" stroke="#f1aa2a" stroke-width="1" stroke-linecap="round" stroke-linejoin="round" d="M 678.333 103.086 C 678.333 103.086 678.333 103.086 678.333 103.086 C 673.522 102.263 667.162 100.724 662.296 100.342 C 655.524 99.810 646.400 99.953 639.656 100.771 C 632.871 101.594 623.929 103.668 617.435 105.802 C 613.398 107.129 608.228 109.508 604.408 111.372 C 597.116 114.930 587.867 120.584 580.809 124.587 C 575.773 127.444 569.091 131.312 564.069 134.194 C 564.069 134.194 564.069 134.194 564.069 134.194 C 565.496 130.249 567.373 124.978 568.826 121.042 C 570.673 116.039 573.393 109.461 575.099 104.408 C 575.352 103.659 575.922 102.680 575.877 101.891 C 575.785 100.267 573.808 98.636 573.424 97.056 C 572.903 94.906 573.148 91.869 573.483 89.683 C 573.956 86.597 574.940 82.394 576.619 79.763 C 578.565 76.715 582.561 73.692 585.579 71.699 C 589.298 69.242 594.869 66.948 599.094 65.527 C 603.606 64.010 609.870 62.757 614.581 62.079 C 618.647 61.493 624.136 60.999 628.242 61.132 C 631.124 61.225 634.990 61.608 637.778 62.349 C 639.915 62.917 642.775 63.885 644.608 65.122 C 646.904 66.671 649.542 69.441 650.965 71.817 C 651.806 73.221 652.475 75.351 652.791 76.957 C 653.068 78.364 653.034 81.732 653.034 81.733 C 653.034 81.733 653.034 81.733 653.034 81.733 C 654.835 83.739 657.071 86.577 659.037 88.422 C 664.341 93.396 678.331 103.085 678.333 103.086 "/>
<path fill="#dd8a24" fill-rule="evenodd" stroke="#dd8a24" stroke-width="1" stroke-linecap="round" stroke-linejoin="round" d="M 585.678 77.356 C 585.159 79.948 584.421 83.529 584.880 86.132 C 585.287 88.441 587.269 91.056 588.160 93.224 C 588.720 94.586 589.665 96.373 589.845 97.834 C 590.126 100.123 588.795 103.153 588.869 105.458 C 588.922 107.079 588.667 109.660 589.845 110.776 C 592.721 113.503 599.095 110.803 603.053 110.599 C 605.239 110.487 608.749 108.457 610.322 109.979 C 610.965 110.600 610.941 112.093 610.655 112.939 C 607.159 123.276 590.913 129.706 580.721 133.605 C 574.264 136.074 563.429 141.171 557.926 136.986 C 549.339 130.457 553.741 111.308 557.049 101.041 C 560.649 89.868 570.866 76.160 580.846 69.980 C 582.939 68.684 586.369 68.402 588.737 67.725 C 588.737 67.725 588.737 67.725 588.737 67.725 C 588.776 67.743 586.273 74.384 585.678 77.356 Z" clip-path="url(#4b723d66-6111-456c-aaf3-ec123b3a7005)"/>
</g>
<path fill="#242e23" fill-rule="evenodd" stroke="none" d="M 575.061 102.447 C 574.393 104.831 572.713 110.355 572.713 110.356 C 576.244 108.703 580.946 106.485 584.484 104.846 C 589.358 102.589 595.798 99.444 600.762 97.392 C 605.716 95.345 612.386 92.739 617.519 91.193 C 622.636 89.651 629.568 87.857 634.861 87.116 C 639.622 86.449 646.065 86.063 650.865 86.325 C 653.260 86.455 658.775 87.481 658.776 87.481 C 656.987 85.290 652.813 80.180 652.812 80.179 C 650.052 79.915 646.385 79.305 643.613 79.299 C 639.089 79.290 633.068 80.049 628.609 80.817 C 623.550 81.690 616.891 83.372 611.998 84.926 C 604.994 87.149 595.816 90.699 589.224 93.946 C 584.817 96.116 577.767 98.118 575.113 102.252 C 575.080 102.303 575.077 102.389 575.061 102.447 Z"/>
<path fill="none" stroke="#242e23" stroke-width="1" stroke-linecap="round" stroke-linejoin="round" d="M 575.061 102.447 C 574.393 104.831 572.713 110.355 572.713 110.356 C 572.713 110.356 572.713 110.356 572.713 110.356 C 576.244 108.703 580.946 106.485 584.484 104.846 C 589.358 102.589 595.798 99.444 600.762 97.392 C 605.716 95.345 612.386 92.739 617.519 91.193 C 622.636 89.651 629.568 87.857 634.861 87.116 C 639.622 86.449 646.065 86.063 650.865 86.325 C 653.260 86.455 658.775 87.481 658.776 87.481 C 658.776 87.481 658.776 87.481 658.776 87.481 C 656.987 85.290 652.813 80.180 652.812 80.179 C 650.052 79.915 646.385 79.305 643.613 79.299 C 639.089 79.290 633.068 80.049 628.609 80.817 C 623.550 81.690 616.891 83.372 611.998 84.926 C 604.994 87.149 595.816 90.699 589.224 93.946 C 584.817 96.116 577.767 98.118 575.113 102.252 C 575.080 102.303 575.077 102.389 575.061 102.447 M 652.812 80.179 C 652.812 80.179 652.812 80.179 652.812 80.179 "/>
</g>
</g>
</svg>
