<?xml version="1.0" encoding="UTF-8"?>
<svg width="305.16" height="360.41" enable-background="new 0 0 250.116 295.801" viewBox="0 0 250.116 295.801" xmlns="http://www.w3.org/2000/svg">
 <g transform="translate(9.028 4.1036)">
  <path d="m74.73 48.047c9.9713-5.0334 14.909-6.1938 23.913-19.168-1.4527-10.165 8.5186-16.845 5.0334-22.751-3.6771-2.7106-17.329 10.262-23.816 10.457-3.4842 0.09646-12.875 8.4231-12.004 10.454-5.6151-6.6781-9.7784-6.6781-17.91-6.2922-2.6122-1.937-4.0659-2.1289-6.7765 0-5.2283-2.3238-7.9379 1.2588-11.133 2.1309-6.8749-15.2-18.589-11.812-26.43-20.911-7.2627-2.6141-11.037-1.3563-11.037 9.3896 2.0325 15.296 23.525 22.846 25.945 27.785-1.063 14.426 7.5521 29.335 5.9064 33.304-2.7096 7.2598 1.5492 21.009 2.2283 27.01 0.87008 7.3572-1.6466 16.264-0.48619 25.172 2.4212 7.0668 4.5511 9.9713 9.8758 12.585 3.6771 5.6132-0.19292 9.1967 14.521 15.585 1.2588 9.1967-5.7125 19.944-0.87203 32.529-2.7096-6.9714-0.77459 56.732 0 57.699 0.09743 8.5205-17.038 21.59-8.7115 23.332 6.4852 1.8395 14.134 0.38778 17.522-4.745 4.5492-12.198 9.0993-4.8385 9.2951-14.231-0.96751-4.8405-0.58168-7.0659 0.57973-13.844 3.5826-28.268 7.9379-12.293 6.68 2.0325-1.064 7.1643 0.38778 17.524-1.935 27.398-3.0984 5.7125-8.3276 10.843-2.3238 11.23 15.199 2.0325 14.52-2.8061 19.071-6.6781 0.29035-15.588 6.1958-6.0993 4.0659-14.619 1.4537-6.0993-4.8405-8.7135-2.7096-11.713h3.4842c2.808-6.0038-3.0964-14.619-0.96751-27.012 0.873 0-0.58169-2.1309 2.808-2.8071-3.3897-6.68-2.6151-2.5167-3.5826-5.9054 3.7756 1.4537 2.5167-0.67716 2.0334-6.0019 0.87203 0 2.6141-5.1318 0.96751-8.8089 2.3238-1.8396 0.29035-3.7765-0.67716-6.4871l0.87301-5.2283c0.57973-3.9685-2.5187-4.1633-3.3897-5.2283l4.5501 0.38779c1.7421-3.7756 1.8396-9.7765 4.2608-18.976 17.521-0.77266 18.49-1.2588 18.78 2.9045 3.3887-2.0325 8.5196 0 11.907-4.1633 9.1968 1.0649 13.265-0.19293 13.651 8.4231 3.5826 2.3238 13.651 7.2617 16.168 12.877 2.2264 4.745 4.3572 3.4842 4.3572 7.3572 7.0668 0.5807 2.7096 9.2942 12.1 10.262-0.19293 2.5167 4.745 13.649 9.1967 14.91 1.6456 2.807 3.7756 5.808 4.3572 11.616 2.4203 24.395-5.7106 34.271-2.6132 47.535-5.7125 14.523-6.68 22.365 2.6132 21.976 13.07 0 16.844-7.5511 19.459-20.039 2.808 0.57973 5.3247-2.2283 3.3887-6.8749 3.2923-4.0639 3.4852-10.841 3.3878-15.587-0.09548 0 1.744 3.7765 3.4862 1.937-1.7421-6.0009 1.0659-8.1318 4.2598-8.4231-3.1939-5.9054 4.8405-6.5826 2.5167-11.521-6.2922 4.6476 3.0984-10.843 4.2608-13.651 0-8.1318-2.7116-15.296 2.6132-19.652 0-3.0984-0.87106-6.4852-2.6132-8.616 6.0009 0 0.87009 1.935 0.87009-5.3267 5.5196 3.1003 0-1.6447 0-4.1614 0-12.295-3.0984-10.165-7.6476-15.684-4.2598 0-9.3906-3.9685-12.779-8.2292 0-19.749 14.521-45.888-4.2588-58.765-28.173-19.362-55.474-18.2-90.035-15.876-9.3906 0.67716-41.532-4.3572-49.277-4.745-0.77849-7.0639 4.2569-15.875 2.997-25.556z" fill="#e3dedb" fill-rule="evenodd" stroke="#6c5d53" stroke-linecap="round" stroke-linejoin="round" stroke-miterlimit="2.4142" stroke-width="1.6072"/>
  <path d="m54.32612,171.7699c.01989.0346.2859.18834.57851.91344-.22108-.33995-.60048-.95167-.57851-.91344z" fill-rule="evenodd"/>
  <path d="m27.593 71.292c-1.937 3.001-2.818 10.241-0.88299 14.889 0.19389 5.1308 2.4217 7.9608 2.1314 13.093 1.936 5.9054-3.2048 13.074-0.39582 18.786-1.5502 10.842 5.4246 16.737 10.17 19.06 3.5797 12.198 6.795 10.939 14.25 16.168-0.19389 8.1318-4.5701 20.121-1.2788 33.675-1.6466 4.3562-0.67911 33.999 0 56.268 3.2913 15.972 12.01-3.8713 11.235-10.261-6.3897-10.263-11.812-22.07 0-35.624-9.489 1.6456 1.7492-6.5076-0.09134-10.961 10.263-9.4881 2.5208-11.502 18.786-8.4036-1.3553-4.745-6.4922-14.057-11.235-17.447 0-2.0325-0.4063-3.7548 0.85254-5.2066-0.29035-4.4537-3.4711-0.97604-3.4711-6.3027-1.6456-2.0334-5.9069-3.0894-5.9069-7.1553 3.4842 0 4.5645 0.67668 6.7899-2.1314 2.6151 0 6.0026 1.0657 8.6168 1.0657 2.3238-2.9045 2.2278-4.1714 5.9069-4.1714 2.5167-1.6447 5.8112-2.3152 3.197-5.5111-4.2598-2.1289-7.8417 0.67546-10.261-5.3284-8.618-0.38681-4.0737-9.5056-8.5254-10.474-5.5196 2.3238-6.3836 10.854-7.6424 6.3027-2.7125-9.679-8.8267-5.3121-9.4084-9.378 0.29035-6.6791-8.0353-1.0786-7.5511-9.4998 7.8414-2.2273 8.4119-14.924 19.06-21.314-16.747 6.682-26.021 11.159-34.345-10.139zm127.97 21.374c-1.1278 1.1138-2.0802 2.459-2.8925 3.9887 0.24088-0.68705 0.47429-1.3264 0.66985-1.766-7.745 5.3247-5.3189 8.2353-6.5768 23.049-5.1318 6.2922-5.5267 12.194-11.722 15.194-1.6447-0.2884-2.6183-1.1636-3.197-3.197-0.96751-14.813 3.2847-17.6 1.7355-18.665-1.3563-0.87204-2.517 1.539-2.7098 3.9582-0.77656 1.6466 0.57971 3.011 0 4.1714-0.29037 1.5492-3.4896 1.1617-2.6185 3.197 0.87105 3.1939 2.1438 8.5093 0.88298 11.509-1.064 2.5167-6.3804 3.777-7.7338 2.1314-0.48425-3.0009-0.2979-4.7511 1.7355-4.1714-2.2264-7.1643 0.67619-15.386 0-16.838-2.2264 3.3897-2.0266 9.0106-2.8012 12.788-1.3563 2.1289-1.7643 5.2373-0.70031 7.9469-0.19291 4.6476-0.67229 6.5748-2.8012 6.0896-1.1624-3.4842-5.1267-6.1074-4.3541-7.9469 0.87301-3.6771-1.5511-6.7748-0.48718-10.261 0-5.2263 2.0466-6.0925 0.30449-10.352-1.5511 0.48426-0.9719-1.3702-2.6185-1.3702l-1.7355-2.1314c-0.87105 2.1289 0.75267 5.2375 2.4967 7.3684 1.063 2.2264-2.213 4.3684-0.76121 7.3684 1.065 2.8071-3.1939 6.3785 0 11.509 1.065 3.873 3.5722 7.3618 8.7995 9.1039 1.3563 1.5472 4.2834 4.6376 2.8316 6.6681-3.5817-3.6781-5.5186-4.9124-7.5511-0.94388-3.6791 0.29035-6.8824-4.4712-10.078-2.4358-0.38584 2.3238-1.075 4.859-0.39584 6.6986 7.4527 0.19292 19.274-3.492 19.274 2.8012 1.7421-2.0324 9.5782-0.69713 11.996-4.5672 3.5816 0.38874 9.6807 0.38584 12.392 3.2884 2.0272-12.668 5.0224-10.092 4.08-17.325 0.15057 1.0632 0.32173 2.1088 0.48718 3.197 4.2588-2.0325 10.052-7.648 14.311-9.6824-2.5167-3.1939 2.7201-0.68179 2.5272-5.3284-4.5492 2.0344-4.5694-9.6668-0.21313-7.2466 0.48425-2.6141-5.4015-2.23-1.4311-5.3284-0.873 0-1.7475-1.0657-2.6185-1.0657-0.96947-3.4862 4.9189-7.2461-0.79165-5.1152-1.2588-6.5836-8.9926-8.5466-7.7338-16.29zm-5.9069 14.432c-1.1016 8.1975-0.51307 18.788 1.1875 31.179-0.12814-0.77947-0.31237-1.624-0.51762-2.6185-1.4258-8.1705-2.3731-20.156-0.66986-28.56zm59.647 47.834 1.7355 13.154c2.0325 4.936 5.3157 8.2295 7.1553 14.036 3.6791 0.7746 0.87325 2.0439 2.7099 6.3027 0.0984 2.0324 0.97433 4.0503 0.97433 5.1152 0 0-0.48059 10.565-2.2227 10.565l1.8269 2.1314-1.7355 2.1314c2e-5 1.0649 0.97434 2.0459 0.97434 3.0144-0.87204 0.09742-1.6551-0.883-2.5272-0.883-1.065 10.165-3.3729 22.753 1.8573 35.533 1.6447-2.1309-4.6542-16.468 5.5111-15.985l-1.8269-1.9182c-1e-5 0.29036-5.5376-14.929-1.2788-12.605-0.09548-4.6476 1.5696-4.2612 3.4102-2.1314-0.19292-4.4537-1.0808-5.3233 2.4054-5.4197-2.7116-2.9045-4.3499-4.0596-4.4454-8.2209l0.57852-9.378c-1.8396-6.2922-2.7284-3.2207 1.9182-6.0287-0.09746-2.2273 0.58509-3.5831-1.157-5.9069-1.744 0-3.484-2.314-4.354-2.314 0.87009 0 2.61-0.96824 4.354-1.0657l-3.6842-7.2466c-2.4183-1.937-1.9202-4.5647-6.1809-2.4358-4.4598-0.17679-5.8149-9.6931-5.9982-10.444zm-37.512 11.509c-3.8266 0.31152-7.4124 6.773-7.612 6.9726-0.28938 1.8405 2.3194 3.4757 4.9326 8.7994 5.809 1.4518 3.3987 11.234 11.722 9.6824 0.7746 6.0038 4.6573 14.138 9.0126 15.011 8.0363 11.812 4.8295 27.898 2.8926 42.323 3.1948-0.29037 7.1772 2.3998 8.9212 4.6281 1.5492-3.6791 6.0932-2.4967 7.6424-6.2723-2e-5 -3.1958-1.6442-7.3716-1.6442-10.565 0.7746 1e-5 1.6247-1.0657 2.4967-1.0657 0.28938-3.9704-6.2818-9.9643 2.5272-11.418l-4.2627-5.3284c1.1624-2.8071 1.3697-5.8876-0.7612-9.4693 1.937-4.2608 1.2454-7.6729-3.0143-7.6729 0 0-2.9839-2.7055-2.9839-3.8669 1.6447-0.96751 6.7728-0.00731 5.9982-3.1057 0.7746 0.96848-2.6314-5.2064-3.5015-6.2723 1.6447-1.065 5.1462-1.0654 6.7899-2.1314-3.2913-8.3266-12.782-8.3427-20.431-8.3427 0.87203-3.1939 4.2547-3.197 7.6424-3.197-7.5511-6.5826-8.7127-7.7265-17.812-8.4036l-3.471 4.2627c-1.5431-3.5697-3.3455-4.7088-5.0848-4.5672zm-98.712 23.414c-1.8168 0.00397-3.6271 0.30205-5.1152 0.883 0.96751 12.391 8.597 22.662 10.048 33.31-0.7746 3.872-0.78141 6.9726-0.97433 10.748 0.38778 5.0354 3.4952-0.18951 4.1714-1.157 2.4212-4.3562 2.8092-14.338 6.9726-19.274 0.2884-6.68-4.1475-8.7963-6.1809-13.154 0.67813-1.1633 2.0093-0.50739 3.0752-0.70029-0.38779-2.5167-4.6325-4.9192-7.2466-5.6938 0.48327-1.6466 1.7465-1.7526 2.6185-2.5272-1.3312-1.6338-4.3404-2.4424-7.3684-2.4358z" fill="#ac9d93" fill-rule="evenodd"/>
  <path d="m147.92 153.86c0-5.2273 2.5167-7.2617 3.3887-11.423v-2.0324c-2.5177-13.651-5.0334-36.789 4.2598-48.309" fill="none" stroke="#6c5d53" stroke-linecap="round" stroke-linejoin="round" stroke-miterlimit="2.4142" stroke-width="1.6072"/>
  <path d="m102.81 155.99c0-7.3572 2.4183-12.391 2.4183-18.685-0.77459 0-2.4183-2.0325-2.4183-2.0325 0-11.616-8.5205-20.041-3.3897-33.69m-22.266 136.21c0-4.1633 0-9.3916 0.7746-13.554-2.4202-14.716-15.201-29.431-7.5521-46.179l0.87203 1.063c0-1.063-0.87203-2.1289-0.87203-3.1939" fill="none" stroke="#6c5d53" stroke-linecap="round" stroke-linejoin="round" stroke-miterlimit="2.4142" stroke-width="1.6072"/>
  <path d="m199.13 92.096c8.2273 4.6456 13.94 26.429 11.907 28.366-3.873 3.001 0 13.07-4.8405 17.522 4.2588 0.29035 3.0984-0.48424 5.6151-3.0984 1.4508-3.3868 2.6141-8.0344 2.6141-11.907 0.29134-7.1643-3.0019-6.0019-4.8405-18.394-0.7746-5.9054-3.0984-12.488-10.456-12.488z" fill="#6c5d53" fill-rule="evenodd"/>
  <path d="m14.998 18.713c-0.87203-7.3582-10.262-15.683-15.393-15.683-2.4193 0.96751-3.3868 2.5167-3.871 5.1299 0 10.458 7.3572 16.071 15.199 22.946 3.3897 1.2569 6.3897 4.5492 10.069 6.3897l3.3878-4.1633c-7.0668-7.4556-9.1977-8.8109-9.3906-14.619" fill="#c8beb7" fill-rule="evenodd"/>
  <path d="m70.374 29.169c6.7775-8.4231 16.361-9.0993 25.558-17.524 2.6151 1.744-2.3218 5.5196-0.87008 8.2292 3.4842-0.2884 1.8395 2.2283 2.6141 4.0678-0.77459 1.065-0.67814 3.6791-4.2608 3.0964 0.87202 3.0029-5.0334 11.231-8.5186 8.4241-3.3887 0.87008-6.4861 4.6456-9.7774 9.5835 0.38584-7.5511-0.19292-11.812-4.745-15.877" fill="#c8beb7" fill-rule="evenodd"/>
  <path d="m61.176 69.346c1.7441 0.38584 1.937 2.3238 2.1309 4.2598-1.065 0-1.1624-1.065-1.8395-1.3563-1.065 0.58265-2.5167 0.77557-3.5816 1.065 1.6456-0.87008 2.9045-1.936 3.2903-3.9685z" fill="#6c5d53" fill-rule="evenodd"/>
  <path d="m40.265 76.122c-1.1604 3.0029-1.1604 7.746 0.19292 10.36 4.8405 1.1604 10.069-0.58167 14.232-2.3238-0.48424-1.065-5.0334 0.19389-5.5196-0.96946-0.48424-1.2569 3.6791-2.3218 2.6141-6.2922-3.6781 2.1299-7.9369 3.3878-11.52-0.7746z" fill="#6c5d53" fill-rule="evenodd"/>
  <path d="m24.486 33.623c2.807 2.4193 4.3562-0.67716 6.5826-0.96946-0.87008 1.2598-0.09548 2.4212 0.87203 3.1958 3.0984-0.67911 3.0984 2.7116 5.2273 1.7441 0.03561 6.4772 2.8221 10.302 2.807 19.262-0.48424 1.3582 0.58168 2.6161 0.87203 3.8749-1.4518-0.96946-3.5816-0.67813-4.4537 1.1614-0.87008-3.001-4.7431-1.2588-6.2922 2.4193-1.4518 4.2608 1.8395 6.682 4.4527 7.3591 0.87203 2.6132 4.5511 2.9045 5.4212 4.5501-0.67716 2.9045-0.19292 6.3897-0.19292 9.4881-5.0334 0-9.5835-9.0993-12.877-14.426-1.7421-10.648-6.7765-19.75-6.2922-32.334 0.67716-2.2264 3.3887-4.745 3.873-5.3247z" fill="#ac9d93" fill-rule="evenodd"/>
  <path d="m188.19 277.2c-1.0659 3.0029-1.935 9.5855 2.2273 11.232 6.6781 1.3543 14.618-0.87202 17.329-5.2293-1.4537-3.1958-17.427-1.8376-19.557-6.0029m-115.5-9.9713c-1.3543 1.6466-3.1939 4.745-2.4193 6.1968 2.3238 1.065 9.4861 1.6466 13.747 0.58167 1.8405-0.67716 3.6791-1.936 4.4517-3.0984-3.2903-1.5502-14.325-0.96848-15.779-3.6801m-29.915-7.5511c-1.3543 1.6466-2.3238 3.5836-1.935 5.2292 1.935 2.8071 9.8739 2.3218 12.102 1.5492 3.5816-0.87203 6.2922-3.0029 7.2598-4.6476-2.6141-2.0334-15.684 4.3562-17.427-2.1309" fill-rule="evenodd" stroke="#000" stroke-linecap="round" stroke-linejoin="round" stroke-miterlimit="2.4142" stroke-width=".15882"/>
  <path d="m191.39 288.53c0.09841-1.5512 0.29134-2.7116 1.4518-4.8424-0.87105 2.4212-0.38585 3.873 0.96945 5.1308-1.5511 0-0.96945-0.0955-2.4212-0.2884z" fill="#ccc" fill-rule="evenodd"/>
  <path d="m27.39 72.928c9.9713 20.329 19.749 13.747 35.335 8.8099-8.809 3.0964-10.456 12.972-16.456 18.877-0.87203-5.2263 2.807-6.2923 3.0984-10.068-9.4881 11.133-18.492 0.96751-21.977-17.619z" fill="#483e37" fill-rule="evenodd"/>
  <path d="m44.913 71.669c-1.065 2.0334-3.4852 0.57973-10.263 0.29035 0.96751 2.3218 4.3562 2.3218 5.6151 4.1614 2.2283 3.5816 8.5206 3.4862 11.328 0.58168 1.7421-1.7421 5.3247-2.1289 5.6151-3.4862-1.8395 0.19487-11.425 0.67911-12.295-1.5472m13.942-21.201c2.0305-0.873 2.2264-4.4546 3.9685-5.808 1.3563-0.87203 2.9025-1.1624 4.2588-1.1624-0.19292 0.77459-0.19292 1.3563 0.09743 2.2283 1.8405 2.2244-1.4527 6.1948-3.4842 5.9045-1.4537-0.48425-2.7116-0.96751-4.4537-0.67716l-0.38681-0.48522m-25.656 0c-2.0325-0.873-2.2264-4.4546-4.0659-5.808-1.2588-0.87203-2.807-1.1624-4.1633-1.1624 0.19292 0.77459 0.19292 1.3563-0.09743 2.2283-1.8386 2.2244 1.4537 6.1948 3.4862 5.9045 1.4518-0.48425 2.7096-0.96751 4.3562-0.67716l0.48424-0.48522m11.778 10.463c-1.935-0.67814-7.9865-1.6897-8.1814 0.92544 0 0.96751-0.40181 4.101 1.2448 5.1659 3.1939 2.3238 11.811 2.1309 13.165 0.96751 1.1624-0.77459 4.2536-5.7976 0.57549-6.5722" fill="#333" fill-rule="evenodd"/>
  <path d="m.86426.01644c-1.49784-.08908-2.86932.17867-3.97495.97346-2.21126,1.58957-3.12317,4.91649-3.12317,10.38354-.00137.02702-.00137.0541 0,.08112 1.06267,7.99756 7.14999,13.87035 13.14167,18.33344 2.99584,2.23154 5.98896,4.13228 8.3555,5.75962 2.32148,1.59636 3.98841,2.96384 4.46168,3.85327-.46563,7.28373 1.40837,14.60161 3.20429,20.56428 .91136,3.02583 1.80435,5.69167 2.35252,7.82822s.65378,3.74152.40561,4.34c-.00034.01352-.00034.02704 0,.04056-1.46116,3.9148-1.02092,9.21814-.2028,14.35849s2.02636,10.1374 2.35252,13.01999c.83997,7.10258-1.67525,16.06426-.48673,25.18819 .00784.05535.02144.10972.04056.16224 2.39819,6.99962 4.78302,10.20752 10.01849,12.85774 1.64398,2.57985 1.62294,4.78755 3.04205,7.34149 1.39776,2.5155 4.37351,5.05972 11.31644,8.1527 .48206,4.27403-.82112,9.08265-1.78467,14.39905-.92672,5.11318-1.33497,10.73262.64897,16.75157-.11732.14959-.27128.30238-.32449.44617-.08469.22889-.1466.47534-.2028.77065-.22481,1.18123-.39239,3.0786-.48673,5.59737-.18868,5.03757-.16162,12.40141-.04056,19.99643s.36007,15.44895.60841,21.45662c.12417,3.00382.24249,5.54911.36505,7.38204 .06128.91646.104,1.65206.16224,2.19028 .02912.26911.08982.46876.12168.64897 .00818.04628.03124.0786.04056.12168 .00294.01361-.0032.02698 0,.04057 .0089,1.85258-.93085,4.18879-2.35252,6.57083-1.43058,2.39695-3.32328,4.84993-4.94841,7.13868s-3.02972,4.36205-3.52878,6.20578c-.24953.92188-.23664,1.84638.24337,2.63645 .47093.77513 1.34019,1.25223 2.4742,1.50074v.04057h.04056c6.74339,1.89858 14.72431.41741 18.374-5.11065 .03308-.05084.06029-.10528.08112-.16224 1.11272-2.98354 2.1834-4.68507 3.16373-5.75963s1.8612-1.52186 2.71757-1.9469 1.78109-.84508 2.43364-1.8658 .96366-2.49267 1.01402-4.90785c.00547-.05393.00547-.10829 0-.16223-.95018-4.75383-.59361-6.76851.56785-13.54728 .00034-.01353.00034-.02704 0-.04056 .89191-7.03758 1.88257-11.317 2.71757-13.42559 .39558-.99896.75923-1.37127.81122-1.41963 .04254.03964.0729.057.16224.20281 .51486.84017 1.09664,3.26951 1.37906,6.2869 .2813,3.00542.34639,6.66564.04056,10.18075-.00122.014.00123.02655 0,.04055-1.08338,7.3581.30024,17.53482-1.94691,27.17567-1.50005,2.7294-3.49961,5.37246-4.50224,7.54429-.50965,1.10397-.85514,2.20264-.36505,3.20429 .24504.50083.70464.8909 1.25738,1.13571s1.21694.39391 2.02803.44616v-.04056c7.64623,1.01708 11.47712.35879 13.99344-1.21682s3.5037-3.82178 5.63794-5.63794c.16856-.14229.27122-.34763.28392-.56784 .07162-3.84487.51025-6.13386 1.01402-7.42261s.98754-1.60177 1.50075-1.8658c.2566-.13201.56621-.22875.89234-.4056s.67846-.47643.89233-.9329c.41747-.89098.30989-2.0174-.2028-4.09663 .66307-3.19765-.6308-5.61046-1.74411-7.38204-.5718-.90991-1.08435-1.66328-1.29794-2.2714-.16297-.46401-.04056-.8093.12168-1.17627h2.87981c.31827-.00336.60458-.19422.73009-.48672 1.55808-3.33134.69523-7.1548-.16225-11.60037-.84101-4.36023-1.67551-9.39796-.73009-15.29138l.04057-.04056c.20135-.23808.25342-.44537.28393-.60842 .061-.32607.06819-.53491.12168-.73009s.10358-.34325.32449-.52729 .62186-.41679 1.37906-.56784c.2435-.04846.45096-.20675.562-.42881s.11319-.48301.00585-.70689c-1.71417-3.37806-2.44111-4.15457-3.00149-4.50224 .26206.0311.5952.21195.85177.16224 .36607-.07093.71643-.29575.9329-.60841s.29268-.63962.32448-.97345c.11727-1.23125-.28-2.98833-.52729-5.2729 .02534-.02759.09834-.01365.12168-.04055 .19998-.23069.33603-.49931.48673-.81122 .30142-.62381.58987-1.46302.77065-2.39308 .33397-1.71818.31429-3.81926-.40561-5.75962 .40283-.42725.80857-.88325.9329-1.37907 .16975-.67689.07431-1.33781-.12168-1.94691-.37396-1.16221-1.05191-2.26987-1.50074-3.44766l.81121-4.98897c.30845-2.11141-.44885-3.42695-1.33849-4.29943l1.66299.16224c.33294.01321.63949-.18041.77065-.48672 1.8233-3.9515 2.00091-9.78071 4.21832-18.49569 8.08512-.36278 12.90093-.67348 15.08858-.4056 1.14084.1397 1.55865.3547 1.78467.64897s.37582.89754.44616,1.90635c.01402.28221.17519.53636.42451.66932s.55015.12524.79231-.02035c1.43962-.86342 3.4427-.90171 5.63794-1.17626 2.03216-.25415 4.20818-.94711 6.00298-2.83924 4.49901.50605 7.74629.48617 9.65345,1.25738 .97359.39369 1.6131.91524 2.10916,1.86579s.83907,2.41215.93289,4.50224c.02073.24844.15559.4732.36505.60841 1.86166,1.20751 5.24401,2.99646 8.47718,5.19177s6.25134,4.81871 7.38206,7.34149c-.00034.01352-.00034.02703 0,.04055 1.16668,2.48653 2.43226,3.4929 3.20429,4.21832s1.09514.96902 1.09514,2.75812c-.00568.41953.31229.77284.73009.81122 1.59651.1312 2.38764.65343 3.00149,1.41963s1.00691,1.8724 1.50075,3.0826 1.1124,2.51946 2.2714,3.60991c1.05568.99325 2.61565,1.70924 4.7456,2.02804 .06637.81465.19484,1.63881.60841,2.79869 .52156,1.46276 1.28668,3.16184 2.19028,4.82671s1.94251,3.30075 3.08262,4.62393c1.0459,1.21384 2.16992,2.142 3.40709,2.59588 1.64866,2.78691 3.54438,5.55882 4.09663,11.07307 1.20035,12.09911-.20063,20.57966-1.54131,27.74353-1.32424,7.07615-2.60024,12.95034-1.09513,19.67193-2.80442,7.16044-4.518,12.71034-4.29944,16.67045 .11067,2.00515.77173,3.66868 2.10915,4.7456s3.24307,1.52151 5.67851,1.41963c6.68961,0 11.17909-2.00692 14.2368-5.63794 2.95542-3.50955 4.50744-8.47728 5.80018-14.48017 1.42342.02236 2.76505-.5324 3.52878-1.78467 .84655-1.38804.91596-3.39034.08113-5.6785 2.81074-3.74353 3.21912-8.9396 3.24485-13.34447 .35827.34798.77682.68245 1.3385.81122 .66658.15281 1.44956-.07872 2.02804-.68954 .19915-.20292.27628-.49598.20281-.77065-.83173-2.86499-.55043-4.61432.16224-5.6785s1.96546-1.61261 3.4071-1.74411c.26249-.03305.49192-.19317.61347-.42817s.11966-.51476-.00506-.74809c-.72835-1.34669-.73869-2.23487-.52729-3.00149s.73364-1.4847 1.37906-2.23085 1.41194-1.49006 1.86579-2.51476 .49768-2.32927-.16224-3.73158c-.09778-.225-.29297-.39301-.53001-.45623s-.48997-.01469-.68681.13174c-.41668.30777-.47078.30234-.68953.40561 .12253-.65198.51992-1.87334 1.25738-3.44766 .84054-1.79435 1.89467-3.8246 2.83924-5.59737s1.73163-3.24202 2.0686-4.05607c.04434-.08882.07185-.18509.08112-.28393 0-4.15522-.67761-7.98934-.68952-11.23531s.55797-5.78858 3.00148-7.78766c.19001-.1607.29487-.40036.28393-.64897 0-2.70542-.75603-5.45519-2.0686-7.70654 .36452.03476 1.02597.05299 1.17627.08113l.2028.04056c.02907.00564.05588-.00591.16224,0h.08112 .12168l.16225-.04056 .24336-.20281 .20281-.36504c7e-005-.00032 7e-005-.36467 0-.36505l-.08113-.2028c-.00023-.00045-.02046-.05463-.04056-.08113s-.06651-.06532-.08112-.08111c-.02923-.0316-.02422-.06687-.04056-.08112-.03268-.02849-.06644-.02974-.08112-.04056-.02938-.02164-.0229-.02823-.04057-.04057-.03533-.02467-.07381-.04301-.12168-.08112-.30593-.24353-.99568-1.30178-1.29793-3.32598 .0666.03056.18156.09514.24336.12168 .42437.18226.68095.34317 1.21682.24337 .26794-.04989.63951-.33607.73009-.64897s.01017-.52874-.04056-.68953c-.10143-.32158-.26202-.55462-.44617-.85177-.3683-.5943-.85202-1.32271-1.25738-2.02804s-.68953-1.40868-.68953-1.74412c0-6.21504-.77856-8.98732-2.2714-10.87026s-3.37147-2.66239-5.55682-5.31345c-.15166-.17887-.37389-.28259-.60841-.28392-3.68719,0-8.62729-3.70129-11.92484-7.7471 .06712-9.6191 3.58332-20.93376 4.86728-31.55622 .64812-5.36193.71457-10.56648-.60841-15.29139s-4.08387-8.97167-8.92336-12.28989c-28.38493-19.50772-55.95957-18.34596-90.53147-16.02148-4.48723.32358-14.93793-.72547-25.10708-1.94691-9.82738-1.1804-19.04666-2.45083-23.28184-2.71757-.19088-3.17616.67533-6.81808 1.62243-10.87027 .96551-4.13092 1.8348-8.65083 1.3385-13.42559 9.60865-4.81184 14.84769-6.37106 23.76857-19.22577 .10992-.1675.15332-.37002.12168-.56785-.68646-4.80329 1.32961-8.81565 3.2043-12.4927 .93733-1.83852 1.85633-3.56919 2.31196-5.31345s.4224-3.55441-.56785-5.23233c-.05079-.09377-.11972-.1765-.2028-.24336-.67844-.50011-1.53229-.59835-2.39308-.48673s-1.80866.41471-2.79869.85177c-1.98007.87412-4.22414,2.26415-6.57083,3.73158s-4.76906,2.99905-6.97644,4.17775-4.23461,1.9871-5.59738,2.02804c-1.18079.03269-2.44326.6424-3.85327,1.50074s-2.93169,2.00367-4.29943,3.2043-2.58492,2.4354-3.44766,3.56934c-.36545.48033-.63338.93496-.85177,1.37906-2.44089-2.60475-4.75962-4.26455-7.30093-4.98897-2.86263-.81602-5.9939-.71243-9.93737-.52729-1.23346-.88391-2.32744-1.47273-3.52878-1.50075s-2.3593.49548-3.65046,1.46019c-2.54577-.96199-4.72286-.7531-6.44915-.04056-1.62768.67183-2.89967,1.47661-4.13719,1.94691-3.48428-7.17563-8.19606-10.27-12.85774-12.41157-4.83699-2.2221-9.54506-3.58754-13.30391-7.9499-.08558-.10753-.1973-.19132-.32449-.24336-1.85586-.668-3.53169-1.08718-5.02953-1.17626zm-.08112,1.62243c1.22884.07308 2.72867.43696 4.46168,1.05458 4.04262,4.53763 8.9734,6.03283 13.58783,8.1527 4.69906,2.15874 9.13512,4.9478 12.4927,12.37101 .1613.35559.55484.54381.9329.44617 1.81144-.49443 3.3009-1.64869 4.90784-2.31196s3.25151-.95703 5.6785.12168c.26507.12229.57561.09124.81121-.08112 1.29119-1.01411 2.1562-1.39689 2.92037-1.37906s1.62081.44549 2.87981,1.37906c.15111.1146.33789.17207.52729.16224 4.05941-.19261 7.06223-.29248 9.65345.44617s4.88083,2.29266 7.62541,5.55682c.26219.29418.699.35486 1.03146.1433s.46248-.63296.30704-.99507c.03347.07801-.01687-.04046.12168-.36505s.43026-.79724.81121-1.29794c.7619-1.0014 1.89774-2.21963 3.2043-3.36654s2.75262-2.20801 4.05607-3.00149 2.52129-1.2824 3.08261-1.29794c1.88079-.0565 3.99525-.96657 6.28691-2.19028s4.76144-2.75714 7.09812-4.21831 4.55153-2.84855 6.36803-3.65046c.90825-.40096 1.73758-.65035 2.35253-.73009 .55178-.07155.85297.02001 1.09513.16224 .63789,1.20295.65117,2.36627.28393,3.77215-.38838,1.48681-1.21146,3.18921-2.14972,5.02953-1.8266,3.58276-3.9587,7.84983-3.36653,13.01999-8.84803,12.69072-13.51427,13.70612-23.48465,18.73904-.3209.15383-.50242.50038-.44617.85178 .6082,4.67369-.29757,9.18605-1.29794,13.46615s-2.07689,8.29089-1.66299,12.04653c.03418.38818.34191.69591.73009.73009 3.75447.18798 13.78597,1.53473 23.97137,2.75813s20.52813,2.34106 25.43156,1.98747c34.55116-2.32308 61.5567-3.47865 89.51746,15.73755 4.55066,3.12017 7.03819,6.98256 8.27438,11.39756 1.2362,4.41498 1.16201,9.39129.52729,14.64241-1.26944,10.50222-4.90784,21.97158-4.90784,32.04295-.00982.18939.04764.37617.16224.52728 3.3856,4.25681 8.37409,8.21298 13.01998,8.43663 2.26345,2.65838 4.15784,3.61249 5.31345,5.07009 1.19365,1.50554 1.94692,3.81677 1.94692,9.8968 0,.92294.39471,1.76003.85177,2.55533 .24007.4177.45036.72993.68954,1.09515l-.36505-.20281c-.25198-.13192-.55493-.12084-.79661.02916s-.38604.41656-.37965.70093c0,2.30596.48967,3.62444 1.05458,4.58336-.41794-.02989-.50943-.08112-1.1357-.08112-.30257.00943-.57418.18808-.70266.46218s-.09206.59716.09425.83576c1.51099,1.84818 2.33918,4.95792 2.39309,7.82822-2.57666,2.32495-3.29756,5.41422-3.28542,8.72055 .01251,3.40842.67059,7.15863.68953,11.07307-.27878.63925-1.03957,2.02867-1.94691,3.73158-.94645,1.77629-2.01393,3.87062-2.87982,5.71907s-1.56204,3.36295-1.58186,4.58335c-.00496.30511.04962.60524.28393.9329s.69509.5032 1.05457.48672c.37341-.0171.74711-.34099 1.09514-.52729 .14309.6137.13217,1.14086-.08113,1.62243-.29922.67559-.90839,1.37115-1.58186,2.14972s-1.41995,1.62313-1.74412,2.79869c-.25778.93487-.05948,2.073.40561,3.28541-1.41826.29815-2.78818.86214-3.65046,2.14972-.96581,1.44221-1.10559,3.62115-.44616,6.36803-.07527.02679-.20127.14063-.28393.12168-.16532-.03789-.458-.19482-.73009-.48672s-.48619-.68913-.64897-.97346c-.06219-.10862-.12867-.17383-.16225-.24336 .00034-.01353.00034-.02704 0-.04056-.00565-.01201-.03621-.03083-.04056-.04057-.08874-.35438-.40534-.60433-.77066-.60841l-.28391.04057-.24337.16223-.16224.16225-.08112.20281c-.00027.0009-.03883.15261-.04056.2028-.00058.01672-.00026.02677 0,.04056 .00051.02757-.00202.06165 0,.08112 .09225,4.70375-.19301,11.2498-3.2043,14.9669-.18589.22779-.23256.53891-.12168.81121 .89834,2.15613.73387,3.7272.16224,4.66448s-1.53059,1.364-2.63644,1.1357c-.42386-.08045-.83565.18809-.9329.60842-1.29832,6.19989-2.88716,11.09195-5.63793,14.35848s-6.68047,5.02952-13.06055,5.02952h-.04057c-2.21116.09251-3.66699-.27614-4.58336-1.01401s-1.40571-1.88786-1.50074-3.6099c-.19008-3.44409 1.41499-8.99404 4.25888-16.22428 .06368-.15411.07786-.3242.04055-.48673-1.50325-6.43714-.29074-12.07755 1.05458-19.26634s2.80178-15.85286 1.58187-28.14912c-.59833-5.97425-2.84264-9.20377-4.46167-11.96541-.10814-.18076-.28292-.31184-.48673-.36505-.85208-.2413-1.92916-1.07393-2.96094-2.27139s-2.01657-2.74951-2.8798-4.34-1.57945-3.21151-2.0686-4.58335-.71435-2.55615-.68953-2.87982c.02781-.43491-.29606-.81275-.7301-.85177-2.21903-.22862-3.49458-.91054-4.38055-1.74411s-1.39176-1.88039-1.86579-3.04205-.89393-2.42708-1.74412-3.48822c-.74552-.93054-1.9604-1.55417-3.52878-1.82524-.15497-1.60754-.71675-2.62742-1.46018-3.32598-.85-.79868-1.77959-1.47311-2.83925-3.73158-1.38599-3.0923-4.62386-5.73209-7.9499-7.99045-3.22877-2.19233-6.50705-3.94568-8.27438-5.07009-.13077-1.9103-.37372-3.51527-.97346-4.66448-.66285-1.27013-1.67905-2.09393-2.92037-2.59589-2.48264-1.00392-5.79396-.93342-10.34298-1.46018-.2625-.02417-.52016.08192-.68952.28392-1.52813,1.87794-3.37084,2.33772-5.43514,2.59588-1.73925.21752-3.60065.39872-5.31345,1.09515-.09487-.64098-.09957-1.32116-.48673-1.82524-.58478-.76134-1.55205-1.13534-2.87981-1.29794-2.65551-.32518-7.22696.01959-15.98092.40561-.3653.00407-.68191.25402-.77065.60841-2.35352,8.94244-2.64005,14.78716-4.09663,18.33343l-3.85327-.32448c-.31719-.02271-.61794.14375-.76713.42458s-.11877.62323.0776.87337c1.43192,1.75066 3.72428,1.02384 3.20429,4.58335l-.85177,5.23233c-.02156.13644-.00759.27613.04056.40561 .52331,1.46609 1.25563,2.64094 1.54131,3.52878 .14284.44391.19401.7662.12168,1.05458s-.24767.59156-.73009.97346c-.29859.22777-.39965.63196-.24336.97345 .72312,1.61481.72146,3.68839.40561,5.31345-.15794.81253-.38939,1.49361-.60841,1.94692-.09874.20434-.18403.37082-.24336.44616h-.04057c-.36902.11107-.60725.46843-.56785.85178 .24644,2.7153.67488,4.69671.60841,5.39457-.01342.14092-.03645.15009-.04057.16225-.10003.01129-.62666-.02849-1.50074-.36505-.28414-.1064-.60398-.04369-.82693.16211s-.311.51961-.22764.81135c.24604.86172.34889,1.2233.56785,1.58186 .10948.17927.30646.35761.44617.44617s.1674.09973.2028.12168c.11457.07108.90822,1.29343 1.94691,3.16374-.35536.1511-.80707.23997-1.05458.44616-.48696.40568-.77666.91644-.89233,1.33851-.09432.34416-.06552.58009-.08112.73009h-.04056c-.17423.12538-.29108.31524-.32448.52729-1.09071,6.34955-.13042,11.72241.73009,16.18372 .81306,4.21524 1.39051,7.53006.40561,10.14018h-2.87981c-.25562-.0012-.49655.11927-.64897.32448-.67278.94719-.6869,2.08512-.36505,3.00149s.86595,1.71483 1.41962,2.59589c1.10735,1.76211 2.20152,3.63856 1.54131,6.40859-.03468.13298-.03468.27264 0,.4056 .5198,2.07918.41403,2.93206.32449,3.12318-.04478.09556-.03467.11162-.2028.2028s-.48517.21701-.85177.40561c-.73321.37721-1.6528,1.13505-2.2714,2.71757-.5979,1.52956-.96122,3.90715-1.05458,7.62541-2.18871,1.96865-3.24879,3.94975-5.23233,5.19177-2.0761,1.29996-5.4616,2.01935-12.97942,1.01402h-.04056c-.68987-.04445-1.20239-.15178-1.50075-.28393s-.38558-.24121-.44617-.36504c-.12118-.24768-.06944-.88408.36505-1.82524 .86897-1.88231 2.95135-4.65067 4.5428-7.58485 .03614-.0636.06344-.13183.08112-.2028 2.3686-10.06852.91508-20.51174 1.94691-27.4596 .00034-.01352.00034-.02704 0-.04056 .31914-3.63462.29237-7.341 0-10.46466s-.75788-5.60621-1.62243-7.017c-.21614-.3527-.47379-.64506-.85178-.85178s-.93512-.23079-1.3385-.04056c-.80677.3805-1.18803,1.15311-1.66299,2.35253-.94993,2.39884-1.89929,6.73459-2.79869,13.8312-1.14298,6.6709-1.49434,9.14009-.56785,13.91232 .00595.03067-.00607.05026 0,.08112-.05702,2.19452-.3805,3.36466-.77065,3.97495-.39784.62228-.95094.864-1.82523,1.29794s-2.00534,1.04223-3.16374,2.31196c-1.13357,1.24252-2.26926,3.16636-3.4071,6.16522-3.12079,4.72695-10.41109,6.14454-16.62989,4.38056h-.08112c-.91522-.19148-1.28314-.47924-1.46018-.77065s-.22504-.73809-.04056-1.41963c.36895-1.36306 1.67965-3.417 3.28542-5.67849s3.49423-4.75592 4.98897-7.26037 2.62335-5.02082 2.59589-7.42261c-.00927-.09884-.03678-.19511-.08112-.28393 .0002.00073-.00129-.03947 0-.04056-.00401-.01756.00691-.04205 0-.08112-.02072-.11718-.05418-.31894-.08112-.56784-.05387-.49782-.10177-1.20477-.16224-2.10917-.12094-1.80877-.28178-4.34603-.40561-7.34148-.24765-5.9909-.44703-13.83583-.56785-21.41604s-.14582-14.89848.04056-19.87475c.08971-2.39524.2706-4.18846.44617-5.19177 .25899.00229.50321-.12036.65602-.32947s.19549-.47906.11463-.72511c-2.34633-6.10055-1.86379-11.75661-.89233-17.11662s2.44683-10.41331 1.78467-15.25082c-.04652-.27316-.23046-.50307-.48673-.60841-7.28323-3.16224-9.77054-5.54895-10.99195-7.74709s-1.2114-4.56405-3.16373-7.54429c-.08028-.12244-.19248-.2206-.32449-.28393-5.14453-2.52566-7.04307-5.10732-9.41008-11.96541-.00351-.02694.00344-.05417 0-.08111-1.10633-8.66678 1.38413-17.51888.48673-25.10708-.35295-3.11931-1.58943-8.01107-2.39308-13.06055s-1.12678-10.20232.12168-13.54727c.57465-1.38575.20605-3.12813-.36505-5.35401s-1.4487-4.90855-2.35252-7.90934c-1.80764-6.00158-3.68205-13.24627-3.16373-20.28035 .00881-.13997-.01916-.2798-.08112-.40561-.77602-1.58423-2.62223-2.92799-5.02953-4.58336s-5.38111-3.5337-8.31494-5.71906c-5.83268-4.34465-11.47311-9.8821-12.4927-17.11662 0-5.27887.94195-8.01329 2.43364-9.0856 .74585-.53615 1.70841-.72346 2.96093-.64897z" fill="#6c5d53" fill-rule="evenodd"/>
 </g>
</svg>
